<?xml version="1.0" standalone="no"?>
<!DOCTYPE svg PUBLIC "-//W3C//DTD SVG 1.1//EN" "http://www.w3.org/Graphics/SVG/1.1/DTD/svg11.dtd" >
<svg xmlns="http://www.w3.org/2000/svg" xmlns:xlink="http://www.w3.org/1999/xlink" version="1.1">
<metadata>
Created by FontForge 20190801 at Fri Jan 22 12:10:22 2021
 By www-data
Copyright (c) 2020 by Fontfabric. All rights reserved.
</metadata>
<defs>
<font id="Luxtower_semibold" horiz-adv-x="0" >
  <font-face 
    font-family="Luxtower_semibold"
    font-weight="600"
    font-stretch="normal"
    units-per-em="1000"
    panose-1="0 0 7 0 0 0 0 0 0 0"
    ascent="800"
    descent="-200"
    x-height="505"
    cap-height="700"
    bbox="-800 -302 1127 990"
    underline-thickness="50"
    underline-position="-100"
    unicode-range="U+0020-25CA"
  />
<missing-glyph horiz-adv-x="463" 
d="M380 733v-926h-294v926h294zM308 671h-152v-31h60v-34h-61v-30h153v30h-61v34h61v31zM247 552h-92v-97h153v32h-61v65zM216 520v-33h-31v33h31zM308 430h-153v-30h61v-35h-61v-30h92v65h61v30zM308 375h-30v-61h-123v-32h153v93zM308 262h-92v-52h31v21h31v-43h-93v74
h-30v-105h153v105zM308 101h-153v-104h153v104zM278 71v-44h-93v44h93zM308 -24h-153v-31h64l-64 -44v-30h153v30h-94l65 44h29v31z" />
    <glyph glyph-name="f_f.liga" unicode="ff" horiz-adv-x="765" 
d="M751 505v-105h-152v-400h-120v400h-238v-400h-120v400h-103v105h103v54q0 174 172 174h98v-105h-78q-38 0 -55 -17t-17 -57v-49h238v54q0 174 172 174h99v-105h-79q-38 0 -55 -17t-17 -57v-49h152z" />
    <glyph glyph-name="f_f_t.liga" unicode="fft" horiz-adv-x="1151" 
d="M1038 109h73v-109h-88q-97 0 -148.5 52t-51.5 150v198h-224v-400h-120v400h-238v-400h-120v400h-103v105h103v54q0 174 172 174h98v-105h-78q-38 0 -55 -17t-17 -57v-49h238v54q0 174 172 174h99v-105h-79q-38 0 -55 -17t-17 -57v-49h227l15 128h102v-128h166v-105h-166
v-195q0 -96 95 -96z" />
    <glyph glyph-name="f_t.liga" unicode="ft" horiz-adv-x="793" 
d="M680 109h73v-109h-89q-97 0 -148.5 52t-51.5 150v198h-223v-400h-120v400h-103v105h103v54q0 174 172 174h98v-105h-78q-38 0 -55 -17t-17 -57v-49h226l16 128h101v-128h167v-105h-167v-195q0 -96 96 -96z" />
    <glyph glyph-name="f_t_t.liga" unicode="ftt" horiz-adv-x="1166" 
d="M1053 109h73v-109h-89q-97 0 -148.5 52t-51.5 150v198h-253v-195q0 -96 96 -96h69v-109h-85q-97 0 -148.5 52t-51.5 150v198h-223v-400h-120v400h-103v105h103v54q0 174 172 174h98v-105h-78q-38 0 -55 -17t-17 -57v-49h226l16 128h101v-128h256l16 128h101v-128h167
v-105h-167v-195q0 -96 96 -96z" />
    <glyph glyph-name="r_f.liga" unicode="rf" horiz-adv-x="809" 
d="M795 505v-110h-152v-395h-120v395h-102v110h102v54q0 174 173 174h98v-105h-78q-38 0 -55.5 -17t-17.5 -57v-49h152zM187 438q55 67 156 67h44v-110h-54q-135 0 -135 -153v-242h-120v505h87z" />
    <glyph glyph-name="t_f.liga" unicode="tf" horiz-adv-x="782" 
d="M768 505v-105h-152v-400h-120v400h-258v-195q0 -96 95 -96h69v-109h-84q-97 0 -148.5 52t-51.5 150v198h-103v105h106l16 128h101v-128h258v54q0 174 172 174h99v-105h-79q-38 0 -55 -17t-17 -57v-49h152z" />
    <glyph glyph-name=".notdef" horiz-adv-x="463" 
d="M380 733v-926h-294v926h294zM308 671h-152v-31h60v-34h-61v-30h153v30h-61v34h61v31zM247 552h-92v-97h153v32h-61v65zM216 520v-33h-31v33h31zM308 430h-153v-30h61v-35h-61v-30h92v65h61v30zM308 375h-30v-61h-123v-32h153v93zM308 262h-92v-52h31v21h31v-43h-93v74
h-30v-105h153v105zM308 101h-153v-104h153v104zM278 71v-44h-93v44h93zM308 -24h-153v-31h64l-64 -44v-30h153v30h-94l65 44h29v31z" />
    <glyph glyph-name=".null" 
 />
    <glyph glyph-name="nonmarkingreturn" horiz-adv-x="333" 
 />
    <glyph glyph-name="space" unicode=" " horiz-adv-x="253" 
 />
    <glyph glyph-name="exclam" unicode="!" horiz-adv-x="313" 
d="M94 224v509h125v-509h-125zM90 0v137h133v-137h-133z" />
    <glyph glyph-name="quotedbl" unicode="&#x22;" horiz-adv-x="426" 
d="M63 475v258h110v-258h-110zM252 475v258h111v-258h-111z" />
    <glyph glyph-name="numbersign" unicode="#" horiz-adv-x="655" 
d="M609 418h-90l-21 -137h89v-100h-105l-29 -181h-109l29 181h-145l-28 -181h-109l29 181h-74v100h90l21 137h-90v101h106l29 181h109l-29 -181h145l28 181h109l-29 -181h74v-101zM389 281l23 137h-147l-21 -137h145z" />
    <glyph glyph-name="dollar" unicode="$" horiz-adv-x="626" 
d="M569 199q0 -83 -53.5 -140t-147.5 -70v-96h-103v97q-98 14 -152 76t-56 156h128q5 -117 137 -117q58 0 88.5 24.5t30.5 63.5q0 21 -9.5 37.5t-19.5 26t-35.5 20.5t-38 15t-47.5 15q-50 15 -79.5 27t-66.5 36t-55 60.5t-18 87.5q0 76 50 128.5t140 64.5v98h103v-99
q89 -13 138 -70.5t49 -146.5h-128q0 46 -31 74t-85 28q-52 0 -80 -22.5t-28 -56.5q0 -16 8 -30t17 -22t31 -17.5t33.5 -13.5t42.5 -13q9 -3 13 -4q50 -15 81 -27.5t68.5 -37t56 -62.5t18.5 -90z" />
    <glyph glyph-name="percent" unicode="%" horiz-adv-x="801" 
d="M198 403q-70 0 -114.5 44t-44.5 112t44.5 111.5t114.5 43.5t114 -43.5t44 -111.5t-44 -112t-114 -44zM148 0l400 700h106l-401 -700h-105zM198 494q28 0 46 18.5t18 46.5q0 27 -18 45.5t-46 18.5t-46.5 -18.5t-18.5 -45.5q0 -28 18.5 -46.5t46.5 -18.5zM604 -14
q-70 0 -114.5 43.5t-44.5 111.5t44.5 112t114.5 44t114 -44t44 -112t-44 -111.5t-114 -43.5zM604 77q27 0 45.5 18.5t18.5 45.5q0 28 -18.5 46.5t-45.5 18.5q-28 0 -46.5 -18.5t-18.5 -46.5q0 -27 18.5 -45.5t46.5 -18.5z" />
    <glyph glyph-name="ampersand" unicode="&#x26;" horiz-adv-x="652" 
d="M654 0h-139l-45 49q-84 -62 -200 -62q-107 0 -168.5 52.5t-61.5 138.5q0 113 136 207q-40 53 -55.5 90.5t-15.5 76.5q0 72 53 116.5t142 44.5q88 0 140 -43.5t52 -112.5q0 -35 -12.5 -64.5t-39 -54t-49 -40t-60.5 -37.5q23 -27 134 -151q23 48 28 114h114
q-4 -115 -64 -200zM301 615q-37 0 -58.5 -19t-21.5 -53q0 -36 47 -103q74 42 92 61q19 21 19 46q0 31 -21 49.5t-57 18.5zM160 190q0 -44 31.5 -70.5t87.5 -26.5q67 0 119 35q-77 86 -155 178q-83 -58 -83 -116z" />
    <glyph glyph-name="quotesingle" unicode="'" horiz-adv-x="236" 
d="M63 475v258h110v-258h-110z" />
    <glyph glyph-name="parenleft" unicode="(" horiz-adv-x="365" 
d="M78 272q0 267 142 479h132q-64 -88 -109 -212.5t-45 -266.5q0 -141 45 -266t109 -212h-132q-142 210 -142 478z" />
    <glyph glyph-name="parenright" unicode=")" horiz-adv-x="365" 
d="M287 272q0 -268 -142 -478h-132q64 87 109 212t45 266q0 142 -45 266.5t-109 212.5h132q142 -212 142 -479z" />
    <glyph glyph-name="asterisk" unicode="*" horiz-adv-x="426" 
d="M385 580l-97 -33l66 -80l-72 -59l-69 87l-69 -87l-73 59l66 80l-96 33l32 87l93 -34v100h93v-100l94 34z" />
    <glyph glyph-name="plus" unicode="+" horiz-adv-x="534" 
d="M501 393v-114h-174v-180h-120v180h-174v114h174v181h120v-181h174z" />
    <glyph glyph-name="comma" unicode="," horiz-adv-x="256" 
d="M62 137h132v-127q0 -72 -34 -114t-95 -51v64q65 12 65 91h-68v137z" />
    <glyph glyph-name="hyphen" unicode="-" horiz-adv-x="453" 
d="M63 223v113h327v-113h-327z" />
    <glyph glyph-name="period" unicode="." horiz-adv-x="256" 
d="M62 0v137h132v-137h-132z" />
    <glyph glyph-name="slash" unicode="/" horiz-adv-x="425" 
d="M0 -70l300 831h125l-300 -831h-125z" />
    <glyph glyph-name="zero" unicode="0" horiz-adv-x="652" 
d="M326 -14q-118 0 -191 92.5t-73 271.5t73 271.5t191 92.5t191 -92.5t73 -271.5t-73 -271.5t-191 -92.5zM326 105q136 0 136 245t-136 245t-136 -245t136 -245z" />
    <glyph glyph-name="one" unicode="1" horiz-adv-x="386" 
d="M188 700h108v-700h-126v563l-137 -63v123z" />
    <glyph glyph-name="two" unicode="2" horiz-adv-x="563" 
d="M232 119h281v-119h-461v107q185 174 252 256.5t67 146.5q0 40 -25 62.5t-68 22.5q-46 0 -72.5 -26t-26.5 -70v-16h-126v17q0 97 60.5 155.5t164.5 58.5q101 0 161 -54.5t60 -141.5q0 -82 -63.5 -175t-203.5 -224z" />
    <glyph glyph-name="three" unicode="3" horiz-adv-x="560" 
d="M408 374q51 -26 77.5 -72.5t26.5 -101.5q0 -96 -63.5 -155t-174.5 -59q-110 0 -174 59t-66 156h128q3 -47 32 -73t81 -26q51 0 80 28t29 74t-30.5 74t-85.5 28h-64v113h58q48 0 73.5 24t25.5 66q0 41 -24.5 65t-64.5 24q-42 0 -68 -24t-28 -62h-127q2 89 63.5 145.5
t163.5 56.5q96 0 154 -53.5t58 -134.5q0 -102 -80 -152z" />
    <glyph glyph-name="four" unicode="4" horiz-adv-x="557" 
d="M536 253v-118h-67v-135h-127v135h-310v101l220 464h137l-214 -447h170l21 169h103v-169h67z" />
    <glyph glyph-name="five" unicode="5" horiz-adv-x="558" 
d="M299 447q99 0 160 -62t61 -164q0 -109 -64 -172t-175 -63q-101 0 -164.5 55.5t-69.5 143.5h126q6 -36 33 -58.5t75 -22.5q52 0 82 30.5t30 83.5q0 55 -30.5 86t-81.5 31q-68 0 -98 -47h-119l39 412h373v-116h-258l-16 -157q42 20 97 20z" />
    <glyph glyph-name="six" unicode="6" horiz-adv-x="585" 
d="M313 447q105 0 170 -63t65 -163q0 -102 -69 -168.5t-180 -66.5q-114 0 -184.5 66.5t-70.5 171.5q0 106 73 223l155 253h142q-47 -78 -98 -159t-63 -101q25 7 60 7zM297 104q56 0 89.5 32t33.5 83t-33.5 83t-89.5 32t-90 -32t-34 -83t34 -83t90 -32z" />
    <glyph glyph-name="seven" unicode="7" horiz-adv-x="520" 
d="M38 700h448v-106l-257 -594h-133l253 581h-311v119z" />
    <glyph glyph-name="eight" unicode="8" horiz-adv-x="615" 
d="M455 373q47 -25 75.5 -70.5t28.5 -103.5q0 -96 -66.5 -154.5t-185.5 -58.5t-185 59t-66 154q0 58 28.5 103.5t74.5 70.5q-79 53 -79 152q0 82 61 135.5t166 53.5q106 0 167 -53.5t61 -135.5q0 -100 -80 -152zM307 601q-46 0 -72.5 -24.5t-26.5 -63.5q0 -40 26.5 -64.5
t72.5 -24.5t73 24.5t27 64.5q0 39 -27 63.5t-73 24.5zM307 100q56 0 89 30t33 77t-33 77.5t-89 30.5q-55 0 -88 -30.5t-33 -77.5t33 -77t88 -30z" />
    <glyph glyph-name="nine" unicode="9" horiz-adv-x="588" 
d="M292 714q114 0 184.5 -66.5t70.5 -171.5q0 -108 -72 -224l-157 -252h-142q42 69 94 150.5t67 107.5q-24 -6 -55 -6q-106 0 -173 64t-67 163q0 102 69.5 168.5t180.5 66.5zM294 366q56 0 89.5 32t33.5 83t-33.5 83t-89.5 32t-89.5 -32t-33.5 -83t33.5 -83t89.5 -32z" />
    <glyph glyph-name="colon" unicode=":" horiz-adv-x="276" 
d="M72 368v137h132v-137h-132zM72 0v137h132v-137h-132z" />
    <glyph glyph-name="semicolon" unicode=";" horiz-adv-x="276" 
d="M72 505h132v-137h-132v137zM72 0v137h132v-127q0 -72 -34 -114t-95 -51v64q65 12 65 91h-68z" />
    <glyph glyph-name="less" unicode="&#x3c;" horiz-adv-x="537" 
d="M467 618v-134l-286 -148l286 -149v-134l-437 232v101z" />
    <glyph glyph-name="equal" unicode="=" horiz-adv-x="534" 
d="M43 376v111h448v-111h-448zM43 163v111h448v-111h-448z" />
    <glyph glyph-name="greater" unicode="&#x3e;" horiz-adv-x="537" 
d="M70 618l437 -232v-101l-437 -232v134l286 149l-286 148v134z" />
    <glyph glyph-name="question" unicode="?" horiz-adv-x="540" 
d="M196 224v11q0 50 18 87t44 59.5t51.5 43t43.5 48t18 63.5q0 41 -28 67.5t-71 26.5q-48 0 -78 -26.5t-32 -73.5h-123q1 100 66 158.5t166 58.5q103 0 164 -57t61 -147q0 -53 -18 -93t-44 -64.5t-51.5 -45.5t-43.5 -47t-18 -58v-11h-125zM193 0v137h132v-137h-132z" />
    <glyph glyph-name="at" unicode="@" horiz-adv-x="1029" 
d="M515 689q207 0 336.5 -120.5t129.5 -306.5q0 -112 -51 -173.5t-130 -61.5q-95 0 -134 72q-59 -78 -164 -78q-95 0 -158 64.5t-63 161.5t63 161t158 64q90 0 150 -60l20 46h64v-243q0 -90 65 -90q77 0 77 138q0 147 -96.5 237.5t-263.5 90.5q-164 0 -264 -95.5
t-100 -247.5t94 -243t254 -91q94 0 170 34v-97q-78 -35 -177 -35q-202 0 -323 119t-121 313q0 193 129.5 317t334.5 124zM507 124q53 0 86 34t33 89t-33 89t-86 34q-51 0 -84 -34.5t-33 -88.5q0 -55 33 -89t84 -34z" />
    <glyph glyph-name="A" unicode="A" horiz-adv-x="717" 
d="M565 0l-58 144h-300l-57 -144h-135l281 700h124l282 -700h-137zM357 539l-109 -281h218z" />
    <glyph glyph-name="B" unicode="B" horiz-adv-x="652" 
d="M496 364q49 -22 76 -65t27 -101q0 -86 -62 -142t-166 -56h-281v700h278q100 0 156.5 -51t56.5 -133q0 -47 -22.5 -87.5t-62.5 -64.5zM453 501q0 39 -25.5 62.5t-70.5 23.5h-141v-173h141q45 0 70.5 23.5t25.5 63.5zM364 113q51 0 79 26t28 70t-28 70t-79 26h-148v-192
h148z" />
    <glyph glyph-name="C" unicode="C" horiz-adv-x="811" 
d="M419 -14q-159 0 -261 102t-102 262q0 158 102 261t258 103q130 0 222 -73t118 -195h-127q-25 70 -81 109.5t-131 39.5q-102 0 -167.5 -67.5t-65.5 -177.5q0 -109 65.5 -177t167.5 -68q79 0 135 41.5t79 117.5h128q-26 -127 -117.5 -202.5t-222.5 -75.5z" />
    <glyph glyph-name="D" unicode="D" horiz-adv-x="754" 
d="M343 700q156 0 255.5 -98.5t99.5 -251.5t-99.5 -251.5t-255.5 -98.5h-253v700h253zM339 117q105 0 168 63.5t63 169.5t-63 169.5t-168 63.5h-123v-466h123z" />
    <glyph glyph-name="E" unicode="E" horiz-adv-x="578" 
d="M216 117h296v-117h-422v700h411v-117h-285v-170h259v-115h-259v-181z" />
    <glyph glyph-name="F" unicode="F" horiz-adv-x="553" 
d="M499 582h-283v-183h257v-116h-257v-283h-126v700h409v-118z" />
    <glyph glyph-name="G" unicode="G" horiz-adv-x="825" 
d="M399 357h372q-3 -167 -100.5 -269t-254.5 -102q-158 0 -259 102t-101 262q0 159 101.5 261.5t256.5 102.5q133 0 225 -70.5t118 -178.5h-131q-26 60 -78.5 95t-129.5 35q-104 0 -169 -66.5t-65 -178.5q0 -111 65 -178t171 -67q84 0 140.5 39t73.5 107h-235v106z" />
    <glyph glyph-name="H" unicode="H" horiz-adv-x="736" 
d="M519 700h127v-700h-127v301h-303v-301h-126v700h126v-281h303v281z" />
    <glyph glyph-name="I" unicode="I" horiz-adv-x="307" 
d="M90 0v700h126v-700h-126z" />
    <glyph glyph-name="J" unicode="J" horiz-adv-x="623" 
d="M288 -14q-112 0 -182 69.5t-70 180.5v23h127v-16q0 -66 33.5 -102t91.5 -36q57 0 91 36t34 100v459h126v-462q0 -115 -68 -183.5t-183 -68.5z" />
    <glyph glyph-name="K" unicode="K" horiz-adv-x="666" 
d="M502 0l-207 301h-79v-301h-126v700h126v-281h81l188 281h149l-232 -338l253 -362h-153z" />
    <glyph glyph-name="L" unicode="L" horiz-adv-x="540" 
d="M216 119h285v-119h-411v700h126v-581z" />
    <glyph glyph-name="M" unicode="M" horiz-adv-x="986" 
d="M938 0h-129l-76 488l-205 -458h-70l-205 457l-76 -487h-128l112 700h128l204 -466l204 466h130z" />
    <glyph glyph-name="N" unicode="N" horiz-adv-x="760" 
d="M544 700h126v-700h-116l-338 474v-474h-126v700h116l338 -474v474z" />
    <glyph glyph-name="O" unicode="O" horiz-adv-x="852" 
d="M427 -14q-161 0 -266 104t-105 260t105 260t266 104q159 0 264.5 -104t105.5 -260t-105.5 -260t-264.5 -104zM427 105q103 0 172 70t69 175t-69 175t-172 70q-104 0 -173.5 -69.5t-69.5 -175.5t69.5 -175.5t173.5 -69.5z" />
    <glyph glyph-name="P" unicode="P" horiz-adv-x="636" 
d="M350 700q107 0 175.5 -66.5t68.5 -168.5q0 -101 -68.5 -167.5t-175.5 -66.5h-134v-231h-126v700h260zM339 347q59 0 93 32.5t34 85.5q0 54 -34 86t-93 32h-123v-236h123z" />
    <glyph glyph-name="Q" unicode="Q" horiz-adv-x="853" 
d="M826 -87h-145l-92 107q-74 -34 -162 -34q-161 0 -266 104t-105 260t105 260t266 104q159 0 264.5 -104t105.5 -260q0 -164 -115 -269zM427 105q42 0 79 12l-146 170h145l95 -111q68 70 68 174q0 105 -69 175t-172 70q-104 0 -173.5 -69.5t-69.5 -175.5t69.5 -175.5
t173.5 -69.5z" />
    <glyph glyph-name="R" unicode="R" horiz-adv-x="662" 
d="M485 0l-145 252h-124v-252h-126v700h276q105 0 172 -64t67 -160q0 -68 -37.5 -122t-102.5 -79l162 -275h-142zM475 476q0 48 -32 77.5t-87 29.5h-140v-215h140q55 0 87 29.5t32 78.5z" />
    <glyph glyph-name="S" unicode="S" horiz-adv-x="639" 
d="M325 -14q-125 0 -196.5 65t-71.5 171h129q0 -54 36 -85.5t103 -31.5q63 0 96 26t33 67q0 19 -9 35t-21 25.5t-35.5 19t-40.5 14.5t-49 13q-40 10 -65.5 18t-60 24.5t-54.5 36.5t-34.5 52.5t-14.5 73.5q0 91 65.5 147.5t182.5 56.5q118 0 182 -59.5t64 -161.5h-127
q0 46 -32 74t-91 28q-57 0 -86 -22.5t-29 -58.5q0 -40 36.5 -59.5t110.5 -37.5q42 -11 67 -18.5t62 -24.5t57 -37.5t35.5 -55t15.5 -77.5q0 -96 -69 -157t-189 -61z" />
    <glyph glyph-name="T" unicode="T" horiz-adv-x="599" 
d="M564 700v-119h-202v-581h-126v581h-201v119h529z" />
    <glyph glyph-name="U" unicode="U" horiz-adv-x="739" 
d="M370 -14q-129 0 -206.5 77.5t-77.5 203.5v433h126v-427q0 -80 42.5 -124t115.5 -44t115 44.5t42 123.5v427h126v-433q0 -126 -77.5 -203.5t-205.5 -77.5z" />
    <glyph glyph-name="V" unicode="V" horiz-adv-x="696" 
d="M544 700h137l-270 -700h-124l-273 700h140l196 -525z" />
    <glyph glyph-name="W" unicode="W" horiz-adv-x="1038" 
d="M888 700h131l-215 -700h-119l-167 507l-165 -507h-119l-216 700h134l148 -492l160 492h116l163 -492z" />
    <glyph glyph-name="X" unicode="X" horiz-adv-x="637" 
d="M621 0h-144l-161 270l-160 -270h-141l224 366l-206 334h144l144 -241l142 241h140l-204 -337z" />
    <glyph glyph-name="Y" unicode="Y" horiz-adv-x="668" 
d="M649 700l-252 -419v-281h-126v281l-251 419h142l172 -294l172 294h143z" />
    <glyph glyph-name="Z" unicode="Z" horiz-adv-x="577" 
d="M192 115h357v-115h-514v99l341 486h-324v115h480v-99z" />
    <glyph glyph-name="bracketleft" unicode="[" horiz-adv-x="352" 
d="M90 -205v956h235v-108h-115v-740h117v-108h-237z" />
    <glyph glyph-name="backslash" unicode="\" horiz-adv-x="425" 
d="M425 -70h-125l-300 831h125z" />
    <glyph glyph-name="bracketright" unicode="]" horiz-adv-x="352" 
d="M262 -205h-237v108h117v740h-115v108h235v-956z" />
    <glyph glyph-name="asciicircum" unicode="^" horiz-adv-x="521" 
d="M498 348h-123l-115 221l-115 -221h-122l187 352h100z" />
    <glyph glyph-name="underscore" unicode="_" horiz-adv-x="516" 
d="M0 -160v113h516v-113h-516z" />
    <glyph glyph-name="grave" unicode="`" horiz-adv-x="600" 
d="M210 567l-101 157h132l64 -157h-95z" />
    <glyph glyph-name="a" unicode="a" horiz-adv-x="589" 
d="M297 519q103 0 161.5 -55.5t58.5 -152.5v-311h-86l-18 60q-65 -74 -173 -74q-86 0 -136.5 41t-50.5 112q0 73 51.5 114.5t143.5 41.5h150v18q0 51 -27 77.5t-76 26.5q-87 0 -103 -68h-124q14 79 74 124.5t155 45.5zM260 88q65 0 101.5 31.5t36.5 82.5v7h-139
q-83 0 -83 -60q0 -61 84 -61z" />
    <glyph glyph-name="b" unicode="b" horiz-adv-x="677" 
d="M369 519q113 0 187 -75t74 -192q0 -116 -74 -191t-187 -75q-111 0 -186 73l-18 -59h-87v734h120v-274q72 59 171 59zM351 94q70 0 114.5 44.5t44.5 113.5q0 70 -44 114.5t-115 44.5q-70 0 -114.5 -44.5t-44.5 -114.5q0 -69 44.5 -113.5t114.5 -44.5z" />
    <glyph glyph-name="c" unicode="c" horiz-adv-x="628" 
d="M319 -14q-119 0 -195.5 75t-76.5 190q0 117 76.5 192.5t196.5 75.5q100 0 171.5 -56.5t91.5 -150.5h-121q-16 47 -54 72.5t-89 25.5q-65 0 -108 -44.5t-43 -113.5t43 -113t109 -44q50 0 87.5 25t54.5 73h121q-21 -94 -92.5 -150.5t-171.5 -56.5z" />
    <glyph glyph-name="d" unicode="d" horiz-adv-x="677" 
d="M479 733h120v-733h-87l-18 59q-75 -73 -186 -73q-113 0 -187 75t-74 191q0 117 74 192t187 75q100 0 171 -60v274zM326 94q70 0 114.5 44.5t44.5 113.5q0 70 -44.5 114.5t-114.5 44.5t-114.5 -44.5t-44.5 -114.5q0 -69 44.5 -113.5t114.5 -44.5z" />
    <glyph glyph-name="e" unicode="e" horiz-adv-x="634" 
d="M587 254q0 -23 -3 -40h-415q10 -60 50.5 -93t103.5 -33q88 0 128 63h124q-30 -77 -95.5 -121t-158.5 -44q-121 0 -197.5 75.5t-76.5 190.5q0 116 76 191.5t194 75.5t194 -75t76 -190zM318 417q-54 0 -93.5 -30.5t-52.5 -84.5h292q-12 54 -50 84.5t-96 30.5z" />
    <glyph glyph-name="f" unicode="f" horiz-adv-x="406" 
d="M392 505v-105h-151v-400h-120v400h-103v105h103v54q0 174 172 174h98v-105h-78q-38 0 -55 -17t-17 -57v-49h151z" />
    <glyph glyph-name="g" unicode="g" horiz-adv-x="677" 
d="M511 505h88v-443q0 -128 -72 -198.5t-201 -70.5q-106 0 -175 47.5t-87 127.5h124q28 -72 136 -72q74 0 114 37t40 110v24q-71 -58 -169 -58q-114 0 -188 72t-74 183q0 110 73.5 182t186.5 72q110 0 186 -71zM325 116q70 0 114 42t44 106q0 63 -44 105t-114 42t-114 -41.5
t-44 -105.5t44 -106t114 -42z" />
    <glyph glyph-name="h" unicode="h" horiz-adv-x="639" 
d="M365 519q92 0 147 -59.5t55 -164.5v-295h-120v271q0 69 -30 103.5t-85 34.5q-59 0 -96.5 -43.5t-37.5 -115.5v-250h-120v733h120v-281q62 67 167 67z" />
    <glyph glyph-name="i" unicode="i" horiz-adv-x="276" 
d="M74 611v122h128v-122h-128zM78 0v505h120v-505h-120z" />
    <glyph glyph-name="j" unicode="j" horiz-adv-x="287" 
d="M85 611v122h128v-122h-128zM-35 -193v109h34q90 0 90 91v498h120v-500q0 -93 -51 -145.5t-140 -52.5h-53z" />
    <glyph glyph-name="k" unicode="k" horiz-adv-x="574" 
d="M414 0l-147 204h-69v-204h-120v733h120v-420h67l136 192h139l-173 -242l192 -263h-145z" />
    <glyph glyph-name="l" unicode="l" horiz-adv-x="276" 
d="M78 0v733h120v-733h-120z" />
    <glyph glyph-name="m" unicode="m" horiz-adv-x="940" 
d="M679 519q87 0 138 -55t51 -153v-311h-120v282q0 127 -100 127q-48 0 -81.5 -41t-33.5 -106v-262h-120v282q0 63 -25.5 95t-71.5 32q-49 0 -83.5 -40.5t-34.5 -106.5v-262h-120v505h87l20 -61q64 75 163 75q109 0 157 -87q62 87 174 87z" />
    <glyph glyph-name="n" unicode="n" horiz-adv-x="639" 
d="M365 519q92 0 147 -59.5t55 -164.5v-295h-120v271q0 69 -30 103.5t-85 34.5q-59 0 -96.5 -43.5t-37.5 -115.5v-250h-120v505h87l22 -65q63 79 178 79z" />
    <glyph glyph-name="o" unicode="o" horiz-adv-x="651" 
d="M325 -14q-121 0 -199.5 76.5t-78.5 189.5q0 114 78.5 190.5t199.5 76.5t200 -76.5t79 -190.5q0 -113 -79 -189.5t-200 -76.5zM325 94q69 0 114 45t45 113q0 69 -45 114t-114 45q-68 0 -113 -45t-45 -114q0 -68 45 -113t113 -45z" />
    <glyph glyph-name="p" unicode="p" horiz-adv-x="677" 
d="M369 519q113 0 187 -75t74 -192q0 -116 -74 -191t-187 -75q-100 0 -171 60v-239h-120v698h87l18 -59q75 73 186 73zM351 94q70 0 114.5 44.5t44.5 113.5q0 70 -44.5 114.5t-114.5 44.5t-114.5 -44.5t-44.5 -114.5q0 -69 44.5 -113.5t114.5 -44.5z" />
    <glyph glyph-name="q" unicode="q" horiz-adv-x="677" 
d="M512 505h87v-698h-120v239q-71 -60 -171 -60q-113 0 -187 75t-74 191q0 117 74 192t187 75q111 0 186 -73zM326 94q70 0 114.5 44.5t44.5 113.5q0 70 -44.5 114.5t-114.5 44.5t-114.5 -44.5t-44.5 -114.5q0 -69 44.5 -113.5t114.5 -44.5z" />
    <glyph glyph-name="r" unicode="r" horiz-adv-x="421" 
d="M343 505h51v-116h-66q-130 0 -130 -142v-247h-120v505h87l22 -67q56 67 156 67z" />
    <glyph glyph-name="s" unicode="s" horiz-adv-x="529" 
d="M270 -14q-106 0 -163 45t-62 121h121q11 -67 107 -67q90 0 90 58q0 27 -26 39t-88 25q-35 8 -54.5 13t-49.5 17.5t-46.5 27.5t-29 40.5t-12.5 58.5q0 66 54.5 110.5t151.5 44.5q96 0 149.5 -44t60.5 -115h-119q-8 60 -92 60q-42 0 -63 -14.5t-21 -36.5q0 -27 28 -40
t86 -24q34 -7 54 -12t50 -17t46.5 -27t29 -41t12.5 -60q0 -70 -56 -116t-158 -46z" />
    <glyph glyph-name="t" unicode="t" horiz-adv-x="447" 
d="M333 109h74v-109h-89q-97 0 -148.5 52t-51.5 150v197h-103v106h106l16 128h101v-128h167v-106h-167v-194q0 -96 95 -96z" />
    <glyph glyph-name="u" unicode="u" horiz-adv-x="640" 
d="M442 505h120v-505h-87l-22 65q-65 -79 -176 -79q-94 0 -146.5 57.5t-52.5 162.5v299h120v-276q0 -134 114 -134q56 0 93 44.5t37 117.5v248z" />
    <glyph glyph-name="v" unicode="v" horiz-adv-x="572" 
d="M437 505h127l-216 -505h-118l-222 505h131l150 -356z" />
    <glyph glyph-name="w" unicode="w" horiz-adv-x="835" 
d="M701 505h120l-169 -505h-108l-127 347l-127 -347h-109l-167 505h123l106 -329l120 329h108l122 -330z" />
    <glyph glyph-name="x" unicode="x" horiz-adv-x="548" 
d="M536 0h-139l-123 180l-124 -180h-137l183 260l-167 245h139l105 -159l111 159h137l-172 -238z" />
    <glyph glyph-name="y" unicode="y" horiz-adv-x="580" 
d="M444 505h129l-224 -508q-46 -105 -100.5 -147.5t-146.5 -42.5h-47v109h44q53 0 78.5 20.5t52.5 85.5l3 7l-216 476h132l150 -338z" />
    <glyph glyph-name="z" unicode="z" horiz-adv-x="510" 
d="M201 106h269v-106h-425v91l257 308h-247v106h404v-92z" />
    <glyph glyph-name="braceleft" unicode="{" horiz-adv-x="370" 
d="M240 385q0 -86 -68 -112q68 -26 68 -112v-201q0 -29 15 -44q14 -13 42 -13h48v-108h-76q-73 0 -111 37.5t-38 108.5v212q0 28 -15 43t-42 15h-20v124h20q27 0 42 15t15 43v213q0 70 38.5 107.5t110.5 37.5h76v-108h-48q-29 0 -43 -14t-14 -43v-201z" />
    <glyph glyph-name="bar" unicode="|" horiz-adv-x="331" 
d="M106 -190v1030h120v-1030h-120z" />
    <glyph glyph-name="braceright" unicode="}" horiz-adv-x="370" 
d="M307 335h20v-124h-20q-27 0 -42 -15t-15 -43v-212q0 -71 -38 -108.5t-111 -37.5h-76v108h48q28 0 44 14q13 16 13 43v201q0 86 68 112q-68 26 -68 112v201q0 26 -12 40q-13 17 -45 17h-48v108h76q72 0 110.5 -37.5t38.5 -107.5v-213q0 -28 15 -43t42 -15z" />
    <glyph glyph-name="asciitilde" unicode="~" horiz-adv-x="536" 
d="M374 219q-34 0 -64.5 13.5t-49 30.5t-39.5 30.5t-37 13.5q-38 0 -38 -48v-35h-110v51q0 73 34 111t92 38q34 0 64.5 -14t48.5 -30t39 -30t37 -14q38 0 38 49v34h110v-51q0 -73 -33.5 -111t-91.5 -38z" />
    <glyph glyph-name="uni00A0" unicode="&#xa0;" horiz-adv-x="253" 
 />
    <glyph glyph-name="exclamdown" unicode="&#xa1;" horiz-adv-x="311" 
d="M89 505h133v-137h-133v137zM93 281h125v-474h-125v474z" />
    <glyph glyph-name="cent" unicode="&#xa2;" horiz-adv-x="628" 
d="M320 96q49 0 86.5 25t55.5 72h121q-18 -80 -73.5 -134t-135.5 -68v-77h-115v78q-96 18 -154 89t-58 170q0 100 58 171.5t154 90.5v80h115v-79q80 -14 136 -68t73 -134h-121q-17 46 -55 71t-88 25q-64 0 -106.5 -44t-42.5 -112t43 -112t107 -44z" />
    <glyph glyph-name="sterling" unicode="&#xa3;" horiz-adv-x="612" 
d="M440 191h121v-191h-518v91l72 19v166h-64v110h64v115q0 98 58 155.5t158 57.5q98 0 153.5 -54t55.5 -145v-14h-126v7q0 43 -22.5 66.5t-63.5 23.5t-64 -25t-23 -71v-116h146v-110h-146v-162h199v77z" />
    <glyph glyph-name="currency" unicode="&#xa4;" horiz-adv-x="609" 
d="M523 303q0 -64 -35 -118l69 -71l-72 -72l-73 72q-51 -27 -107 -27q-57 0 -108 27l-72 -72l-73 72l69 71q-35 54 -35 118t35 118l-69 70l73 73l73 -73q48 28 107 28q57 0 107 -28l73 73l72 -73l-69 -70q35 -54 35 -118zM305 190q47 0 79.5 32.5t32.5 80.5t-32.5 80.5
t-79.5 32.5q-48 0 -80.5 -32.5t-32.5 -80.5t32.5 -80.5t80.5 -32.5z" />
    <glyph glyph-name="yen" unicode="&#xa5;" horiz-adv-x="652" 
d="M633 700l-227 -335h139v-87h-156v-66h156v-87h-156v-125h-126v125h-156v87h156v66h-156v87h138l-226 335h141l167 -252l165 252h141z" />
    <glyph glyph-name="brokenbar" unicode="&#xa6;" horiz-adv-x="331" 
d="M106 400v440h120v-440h-120zM106 -190v450h120v-450h-120z" />
    <glyph glyph-name="section" unicode="&#xa7;" horiz-adv-x="552" 
d="M423 192q48 -40 48 -108q0 -67 -50.5 -110t-140.5 -43q-96 0 -148.5 45.5t-53.5 119.5h111q5 -69 91 -69q39 0 58.5 15.5t19.5 40.5q0 30 -27.5 45.5t-86.5 31.5q-34 10 -53 16t-48 20t-44.5 29.5t-27.5 41.5t-12 59q0 82 77 132q-46 39 -46 102q0 67 50 110.5t135 43.5
q91 0 142.5 -46t51.5 -119h-112q0 31 -21 49.5t-59 18.5q-37 0 -56 -15.5t-19 -39.5q0 -19 17 -34t36.5 -22.5t56.5 -17.5q34 -10 52 -16.5t47 -21t44.5 -30t27.5 -42t12 -59.5q0 -77 -72 -127zM171 339q0 -16 6.5 -28.5t15.5 -20.5t27.5 -16t31.5 -12.5t39.5 -12.5
t41.5 -13q49 27 49 72q0 15 -7.5 28t-16 21.5t-27.5 17.5t-31 13t-37.5 12t-36.5 12q-55 -26 -55 -73z" />
    <glyph glyph-name="dieresis" unicode="&#xa8;" horiz-adv-x="600" 
d="M99 583v123h133v-123h-133zM317 583v123h133v-123h-133z" />
    <glyph glyph-name="copyright" unicode="&#xa9;" horiz-adv-x="844" 
d="M422 -13q-164 0 -267.5 102t-103.5 260q0 159 103.5 261t267.5 102q163 0 266.5 -102t103.5 -261q0 -158 -103.5 -260t-266.5 -102zM422 69q126 0 204.5 78t78.5 202q0 125 -78.5 203t-204.5 78t-205 -78t-79 -203q0 -124 79 -202t205 -78zM427 166q-81 0 -134 52
t-53 132t53 132.5t133 52.5q66 0 114.5 -38t61.5 -102h-89q-27 57 -88 57q-42 0 -69 -28.5t-27 -73.5t27.5 -73t69.5 -28q63 0 88 59h89q-13 -65 -61.5 -103.5t-114.5 -38.5z" />
    <glyph glyph-name="ordfeminine" unicode="&#xaa;" horiz-adv-x="419" 
d="M216 716q68 0 106.5 -37.5t38.5 -101.5v-200h-63l-14 41q-40 -51 -116 -51q-53 0 -84 28.5t-31 72.5q0 46 32.5 73.5t94.5 27.5h89v13q0 56 -54 56q-47 0 -54 -38h-100q8 53 47.5 84.5t107.5 31.5zM192 445q36 0 56.5 17.5t20.5 44.5v2h-78q-44 0 -44 -32t45 -32z" />
    <glyph glyph-name="guillemotleft" unicode="&#xab;" horiz-adv-x="652" 
d="M213 56l-163 204v14l163 204h140l-168 -211l168 -211h-140zM471 56l-162 204v14l162 204h140l-168 -211l168 -211h-140z" />
    <glyph glyph-name="logicalnot" unicode="&#xac;" horiz-adv-x="534" 
d="M33 411h455v-258h-119v145h-336v113z" />
    <glyph glyph-name="registered" unicode="&#xae;" horiz-adv-x="488" 
d="M244 714q88 0 145.5 -57.5t57.5 -144.5q0 -86 -57.5 -143.5t-145.5 -57.5t-145 57.5t-57 143.5q0 87 57 144.5t145 57.5zM244 362q65 0 106.5 41.5t41.5 108.5t-41.5 109t-106.5 42t-106.5 -42t-41.5 -109q0 -66 41.5 -108t106.5 -42zM331 545q0 -39 -37 -57l41 -75h-59
l-34 65h-17v-65h-54v202h83q36 0 56.5 -19.5t20.5 -50.5zM225 566v-41h26q24 0 24 20q0 21 -24 21h-26z" />
    <glyph glyph-name="macron" unicode="&#xaf;" horiz-adv-x="507" 
d="M95 597v92h319v-92h-319z" />
    <glyph glyph-name="degree" unicode="&#xb0;" horiz-adv-x="356" 
d="M178 545q-64 0 -106.5 41.5t-42.5 102.5t42.5 102t106.5 41t106.5 -41t42.5 -102t-42.5 -102.5t-106.5 -41.5zM178 628q28 0 45.5 17.5t17.5 43.5t-18 43.5t-45 17.5t-45 -17.5t-18 -43.5t17.5 -43.5t45.5 -17.5z" />
    <glyph glyph-name="plusminus" unicode="&#xb1;" horiz-adv-x="534" 
d="M327 449h164v-110h-164v-153h-120v153h-164v110h164v158h120v-158zM43 9v106h448v-106h-448z" />
    <glyph glyph-name="acute" unicode="&#xb4;" horiz-adv-x="529" 
d="M100 567l65 157h131l-101 -157h-95z" />
    <glyph glyph-name="paragraph" unicode="&#xb6;" horiz-adv-x="669" 
d="M632 700v-112h-88v-702h-113v702h-92v-702h-112v393q-82 14 -129 69.5t-47 136.5q0 97 62 156t169 59h350z" />
    <glyph glyph-name="periodcentered" unicode="&#xb7;" horiz-adv-x="253" 
d="M60 234v137h133v-137h-133z" />
    <glyph glyph-name="cedilla" unicode="&#xb8;" horiz-adv-x="388" 
d="M196 -45q49 -4 74 -28.5t25 -62.5q0 -45 -32 -71.5t-93 -26.5h-70v67h70q39 0 39 31q0 32 -39 32h-42l-11 11l36 136h67z" />
    <glyph glyph-name="ordmasculine" unicode="&#xba;" horiz-adv-x="425" 
d="M213 368q-79 0 -129.5 49.5t-50.5 124.5t50.5 124.5t129.5 49.5q78 0 128.5 -49.5t50.5 -124.5t-50.5 -124.5t-128.5 -49.5zM213 452q37 0 61.5 25.5t24.5 64.5t-24.5 64.5t-61.5 25.5q-38 0 -62.5 -25t-24.5 -65t24.5 -65t62.5 -25z" />
    <glyph glyph-name="guillemotright" unicode="&#xbb;" horiz-adv-x="652" 
d="M181 56h-140l168 211l-168 211h140l162 -204v-14zM439 56h-140l168 211l-168 211h140l163 -204v-14z" />
    <glyph glyph-name="onequarter" unicode="&#xbc;" horiz-adv-x="706" 
d="M463 730h100l-404 -760h-100zM93 315v289l-70 -34v87l78 43h80v-385h-88zM691 149v-83h-39v-66h-88v66h-172v72l123 247h96l-118 -236h73l25 92h61v-92h39z" />
    <glyph glyph-name="onehalf" unicode="&#xbd;" horiz-adv-x="731" 
d="M463 730h100l-404 -760h-100zM93 315v289l-70 -34v87l78 43h80v-385h-88zM557 83h142v-83h-273v74q97 78 137 121.5t40 74.5q0 20 -11.5 31t-31.5 11q-22 0 -35 -12.5t-13 -34.5v-8h-88v8q0 59 37 94t101 35q60 0 95 -32t35 -84q0 -86 -135 -195z" />
    <glyph glyph-name="threequarters" unicode="&#xbe;" horiz-adv-x="818" 
d="M575 730h100l-404 -760h-100zM309 426q0 -53 -37.5 -86t-100.5 -33q-65 0 -103 33.5t-40 87.5h88q2 -18 16 -30t38 -12q23 0 36 12t13 33q0 20 -14.5 32t-40.5 12h-38v72h35q23 0 36 12t13 32q0 18 -11.5 29t-31.5 11t-32 -10.5t-14 -28.5h-88q2 51 39.5 84t97.5 33
q59 0 94 -31t35 -80q0 -51 -45 -82q55 -29 55 -90zM803 149v-83h-39v-66h-88v66h-172v72l123 247h96l-118 -236h73l25 92h61v-92h39z" />
    <glyph glyph-name="questiondown" unicode="&#xbf;" horiz-adv-x="514" 
d="M340 505v-137h-133v137h133zM337 281v-7q0 -49 -18 -86t-43.5 -58.5t-51.5 -40t-44 -42t-18 -53.5q0 -36 27.5 -60t72.5 -24q48 0 77 26t31 72h123q-1 -100 -65.5 -157.5t-166.5 -57.5q-103 0 -164 54.5t-61 137.5q0 46 18 82t43.5 59t51.5 44t44 47t18 57v7h126z" />
    <glyph glyph-name="Agrave" unicode="&#xc0;" horiz-adv-x="717" 
d="M313 768l-108 147h135l68 -147h-95zM565 0l-58 144h-300l-57 -144h-135l281 700h124l282 -700h-137zM357 539l-109 -281h218z" />
    <glyph glyph-name="Aacute" unicode="&#xc1;" horiz-adv-x="717" 
d="M304 768l69 147h134l-108 -147h-95zM565 0l-58 144h-300l-57 -144h-135l281 700h124l282 -700h-137zM357 539l-109 -281h218z" />
    <glyph glyph-name="Acircumflex" unicode="&#xc2;" horiz-adv-x="717" 
d="M357 860l-76 -92h-107l120 147h124l122 -147h-108zM420 700l282 -700h-137l-58 144h-300l-57 -144h-135l281 700h124zM248 258h218l-109 281z" />
    <glyph glyph-name="Atilde" unicode="&#xc3;" horiz-adv-x="717" 
d="M438 775q-35 0 -63 16.5t-49 33t-39 16.5q-32 0 -32 -41v-21h-81v25q0 116 103 116q35 0 63 -16.5t48.5 -33t38.5 -16.5q33 0 33 41v20h80v-24q0 -58 -26.5 -87t-75.5 -29zM565 0l-58 144h-300l-57 -144h-135l281 700h124l282 -700h-137zM357 539l-109 -281h218z" />
    <glyph glyph-name="Adieresis" unicode="&#xc4;" horiz-adv-x="717" 
d="M177 775v122h133v-122h-133zM404 775v122h133v-122h-133zM565 0l-58 144h-300l-57 -144h-135l281 700h124l282 -700h-137zM357 539l-109 -281h218z" />
    <glyph glyph-name="Aring" unicode="&#xc5;" horiz-adv-x="717" 
d="M357 750q-56 0 -91.5 34t-35.5 86t35.5 86t91.5 34q55 0 91 -34t36 -86q0 -51 -36 -85.5t-91 -34.5zM357 815q25 0 41 15.5t16 39.5t-16 39.5t-41 15.5t-41.5 -16t-16.5 -39t16.5 -39t41.5 -16zM565 0l-58 144h-300l-57 -144h-135l281 700h124l282 -700h-137zM357 539
l-109 -281h218z" />
    <glyph glyph-name="AE" unicode="&#xc6;" horiz-adv-x="926" 
d="M573 117h288v-117h-415v140h-237l-82 -140h-144l413 700h454v-117h-277v-170h251v-115h-251v-181zM271 252h175v299z" />
    <glyph glyph-name="Ccedilla" unicode="&#xc7;" horiz-adv-x="811" 
d="M759 264q-25 -122 -111 -197t-210 -81l-8 -31q49 -4 74 -28t25 -63q0 -45 -32 -71.5t-92 -26.5h-71v67h70q40 0 40 31q0 32 -40 32h-42l-11 11l22 81q-142 16 -229.5 115.5t-87.5 246.5q0 158 102 261t258 103q130 0 222 -73t118 -195h-127q-25 70 -81 109.5t-131 39.5
q-102 0 -167.5 -67.5t-65.5 -177.5q0 -109 65.5 -177t167.5 -68q79 0 135 41.5t79 117.5h128z" />
    <glyph glyph-name="Egrave" unicode="&#xc8;" horiz-adv-x="578" 
d="M250 768l-108 147h135l68 -147h-95zM216 117h296v-117h-422v700h411v-117h-285v-170h259v-115h-259v-181z" />
    <glyph glyph-name="Eacute" unicode="&#xc9;" horiz-adv-x="578" 
d="M242 768l69 147h134l-108 -147h-95zM216 117h296v-117h-422v700h411v-117h-285v-170h259v-115h-259v-181z" />
    <glyph glyph-name="Ecircumflex" unicode="&#xca;" horiz-adv-x="578" 
d="M295 860l-76 -92h-107l120 147h124l122 -147h-108zM216 117h296v-117h-422v700h411v-117h-285v-170h259v-115h-259v-181z" />
    <glyph glyph-name="Edieresis" unicode="&#xcb;" horiz-adv-x="578" 
d="M115 775v122h133v-122h-133zM342 775v122h133v-122h-133zM216 117h296v-117h-422v700h411v-117h-285v-170h259v-115h-259v-181z" />
    <glyph glyph-name="Igrave" unicode="&#xcc;" horiz-adv-x="307" 
d="M197 768h-96l-75 147h129zM90 0v700h126v-700h-126z" />
    <glyph glyph-name="Iacute" unicode="&#xcd;" horiz-adv-x="307" 
d="M105 768l42 147h128l-76 -147h-94zM90 0v700h126v-700h-126z" />
    <glyph glyph-name="Icircumflex" unicode="&#xce;" horiz-adv-x="307" 
d="M153 858l-62 -90h-103l103 147h123l104 -147h-103zM90 0v700h126v-700h-126z" />
    <glyph glyph-name="Idieresis" unicode="&#xcf;" horiz-adv-x="307" 
d="M8 775v122h120v-122h-120zM179 775v122h121v-122h-121zM90 0v700h126v-700h-126z" />
    <glyph glyph-name="Eth" unicode="&#xd0;" horiz-adv-x="778" 
d="M367 700q156 0 255.5 -98.5t99.5 -251.5t-99.5 -251.5t-255.5 -98.5h-253v298h-98v106h98v296h253zM363 117q105 0 168 63.5t63 169.5t-63 169.5t-168 63.5h-123v-179h168v-106h-168v-181h123z" />
    <glyph glyph-name="Ntilde" unicode="&#xd1;" horiz-adv-x="760" 
d="M463 775q-35 0 -63 16.5t-49 33t-39 16.5q-32 0 -32 -41v-21h-81v25q0 116 103 116q35 0 63 -16.5t48.5 -33t38.5 -16.5q33 0 33 41v20h80v-24q0 -58 -26.5 -87t-75.5 -29zM544 700h126v-700h-116l-338 474v-474h-126v700h116l338 -474v474z" />
    <glyph glyph-name="Ograve" unicode="&#xd2;" horiz-adv-x="852" 
d="M382 768l-108 147h135l68 -147h-95zM427 -14q-161 0 -266 104t-105 260t105 260t266 104q159 0 264.5 -104t105.5 -260t-105.5 -260t-264.5 -104zM427 105q103 0 172 70t69 175t-69 175t-172 70q-104 0 -173.5 -69.5t-69.5 -175.5t69.5 -175.5t173.5 -69.5z" />
    <glyph glyph-name="Oacute" unicode="&#xd3;" horiz-adv-x="852" 
d="M373 768l69 147h134l-108 -147h-95zM427 -14q-161 0 -266 104t-105 260t105 260t266 104q159 0 264.5 -104t105.5 -260t-105.5 -260t-264.5 -104zM427 105q103 0 172 70t69 175t-69 175t-172 70q-104 0 -173.5 -69.5t-69.5 -175.5t69.5 -175.5t173.5 -69.5z" />
    <glyph glyph-name="Ocircumflex" unicode="&#xd4;" horiz-adv-x="852" 
d="M427 860l-76 -92h-107l120 147h124l122 -147h-108zM427 714q159 0 264.5 -104t105.5 -260t-105.5 -260t-264.5 -104q-161 0 -266 104t-105 260t105 260t266 104zM427 105q103 0 172 70t69 175t-69 175t-172 70q-104 0 -173.5 -69.5t-69.5 -175.5t69.5 -175.5t173.5 -69.5
z" />
    <glyph glyph-name="Otilde" unicode="&#xd5;" horiz-adv-x="852" 
d="M507 775q-35 0 -63 16.5t-49 33t-39 16.5q-32 0 -32 -41v-21h-81v25q0 116 103 116q35 0 63 -16.5t48.5 -33t38.5 -16.5q33 0 33 41v20h80v-24q0 -58 -26.5 -87t-75.5 -29zM427 -14q-161 0 -266 104t-105 260t105 260t266 104q159 0 264.5 -104t105.5 -260t-105.5 -260
t-264.5 -104zM427 105q103 0 172 70t69 175t-69 175t-172 70q-104 0 -173.5 -69.5t-69.5 -175.5t69.5 -175.5t173.5 -69.5z" />
    <glyph glyph-name="Odieresis" unicode="&#xd6;" horiz-adv-x="852" 
d="M247 775v122h133v-122h-133zM474 775v122h133v-122h-133zM427 -14q-161 0 -266 104t-105 260t105 260t266 104q159 0 264.5 -104t105.5 -260t-105.5 -260t-264.5 -104zM427 105q103 0 172 70t69 175t-69 175t-172 70q-104 0 -173.5 -69.5t-69.5 -175.5t69.5 -175.5
t173.5 -69.5z" />
    <glyph glyph-name="multiply" unicode="&#xd7;" horiz-adv-x="533" 
d="M480 466l-130 -130l129 -129l-84 -84l-129 129l-129 -130l-84 84l130 130l-129 129l84 84l129 -129l129 130z" />
    <glyph glyph-name="Oslash" unicode="&#xd8;" horiz-adv-x="852" 
d="M664 634q62 -50 97.5 -123.5t35.5 -160.5q0 -156 -105.5 -260t-264.5 -104q-74 0 -141 25l-44 -73h-131l77 128q-62 50 -97 123.5t-35 160.5q0 156 105 260t266 104q73 0 139 -25l44 73h131zM427 598q-106 0 -175.5 -70t-69.5 -178q0 -111 74 -182l252 417q-41 13 -81 13
zM427 102q105 0 174.5 70t69.5 178q0 111 -74 182l-253 -417q42 -13 83 -13z" />
    <glyph glyph-name="Ugrave" unicode="&#xd9;" horiz-adv-x="739" 
d="M325 768l-108 147h135l68 -147h-95zM370 -14q-129 0 -206.5 77.5t-77.5 203.5v433h126v-427q0 -80 42.5 -124t115.5 -44t115 44.5t42 123.5v427h126v-433q0 -126 -77.5 -203.5t-205.5 -77.5z" />
    <glyph glyph-name="Uacute" unicode="&#xda;" horiz-adv-x="739" 
d="M316 768l69 147h134l-108 -147h-95zM370 -14q-129 0 -206.5 77.5t-77.5 203.5v433h126v-427q0 -80 42.5 -124t115.5 -44t115 44.5t42 123.5v427h126v-433q0 -126 -77.5 -203.5t-205.5 -77.5z" />
    <glyph glyph-name="Ucircumflex" unicode="&#xdb;" horiz-adv-x="739" 
d="M370 860l-76 -92h-107l120 147h124l122 -147h-108zM527 700h126v-433q0 -126 -77.5 -203.5t-205.5 -77.5q-129 0 -206.5 77.5t-77.5 203.5v433h126v-427q0 -80 42.5 -124t115.5 -44t115 44.5t42 123.5v427z" />
    <glyph glyph-name="Udieresis" unicode="&#xdc;" horiz-adv-x="739" 
d="M190 775v122h133v-122h-133zM417 775v122h133v-122h-133zM370 -14q-129 0 -206.5 77.5t-77.5 203.5v433h126v-427q0 -80 42.5 -124t115.5 -44t115 44.5t42 123.5v427h126v-433q0 -126 -77.5 -203.5t-205.5 -77.5z" />
    <glyph glyph-name="Yacute" unicode="&#xdd;" horiz-adv-x="668" 
d="M281 768l69 147h134l-108 -147h-95zM649 700l-252 -419v-281h-126v281l-251 419h142l172 -294l172 294h143z" />
    <glyph glyph-name="Thorn" unicode="&#xde;" horiz-adv-x="641" 
d="M350 583q108 0 177 -66.5t69 -165.5q0 -100 -69 -166.5t-177 -66.5h-134v-118h-126v700h126v-117h134zM343 235q57 0 91 32t34 84t-34 83.5t-91 31.5h-127v-231h127z" />
    <glyph glyph-name="germandbls" unicode="&#xdf;" horiz-adv-x="628" 
d="M472 389q51 -23 80 -70.5t29 -108.5q0 -96 -63 -153t-177 -57h-71v105h63q61 0 94.5 30.5t33.5 83.5q0 50 -33.5 80t-94.5 30h-55v105h39q54 0 84 28t30 76q0 46 -29.5 75t-79.5 29q-59 0 -91.5 -37t-32.5 -108v-497h-120v487q0 123 65.5 191.5t179.5 68.5
q103 0 165.5 -57t62.5 -143q0 -106 -79 -158z" />
    <glyph glyph-name="agrave" unicode="&#xe0;" horiz-adv-x="589" 
d="M257 567l-101 157h132l64 -157h-95zM297 519q103 0 161.5 -55.5t58.5 -152.5v-311h-86l-18 60q-65 -74 -173 -74q-86 0 -136.5 41t-50.5 112q0 73 51.5 114.5t143.5 41.5h150v18q0 51 -27 77.5t-76 26.5q-87 0 -103 -68h-124q14 79 74 124.5t155 45.5zM260 88
q65 0 101.5 31.5t36.5 82.5v7h-139q-83 0 -83 -60q0 -61 84 -61z" />
    <glyph glyph-name="aacute" unicode="&#xe1;" horiz-adv-x="589" 
d="M435 724l-101 -157h-95l65 157h131zM297 519q103 0 161.5 -55.5t58.5 -152.5v-311h-86l-18 60q-64 -74 -173 -74q-86 0 -136.5 41t-50.5 112q0 73 51.5 114.5t143.5 41.5h150v18q0 51 -27 77.5t-76 26.5q-87 0 -103 -68h-124q14 79 74 124.5t155 45.5zM260 88
q65 0 101.5 31.5t36.5 82.5v7h-139q-83 0 -83 -60q0 -61 84 -61z" />
    <glyph glyph-name="acircumflex" unicode="&#xe2;" horiz-adv-x="589" 
d="M295 667l-73 -100h-107l116 157h128l117 -157h-107zM297 519q103 0 161.5 -55.5t58.5 -152.5v-311h-86l-18 60q-65 -74 -173 -74q-86 0 -136.5 41t-50.5 112q0 73 51.5 114.5t143.5 41.5h150v18q0 51 -27 77.5t-76 26.5q-87 0 -103 -68h-124q14 79 74 124.5t155 45.5z
M398 202v7h-139q-83 0 -83 -60q0 -61 84 -61q65 0 101.5 31.5t36.5 82.5z" />
    <glyph glyph-name="atilde" unicode="&#xe3;" horiz-adv-x="589" 
d="M374 575q-35 0 -63 16.5t-49 33t-38 16.5q-31 0 -31 -41v-21h-81v25q0 57 27 86.5t75 29.5q35 0 62.5 -16.5t48.5 -33t38 -16.5q32 0 32 41v20h80v-24q0 -57 -26.5 -86.5t-74.5 -29.5zM297 519q103 0 161.5 -55.5t58.5 -152.5v-311h-86l-18 60q-65 -74 -173 -74
q-86 0 -136.5 41t-50.5 112q0 73 51.5 114.5t143.5 41.5h150v18q0 51 -27 77.5t-76 26.5q-87 0 -103 -68h-124q14 79 74 124.5t155 45.5zM260 88q65 0 101.5 31.5t36.5 82.5v7h-139q-83 0 -83 -60q0 -61 84 -61z" />
    <glyph glyph-name="adieresis" unicode="&#xe4;" horiz-adv-x="589" 
d="M119 583v123h133v-123h-133zM337 583v123h133v-123h-133zM297 519q103 0 161.5 -55.5t58.5 -152.5v-311h-86l-18 60q-65 -74 -173 -74q-86 0 -136.5 41t-50.5 112q0 73 51.5 114.5t143.5 41.5h150v18q0 51 -27 77.5t-76 26.5q-87 0 -103 -68h-124q14 79 74 124.5
t155 45.5zM260 88q65 0 101.5 31.5t36.5 82.5v7h-139q-83 0 -83 -60q0 -61 84 -61z" />
    <glyph glyph-name="aring" unicode="&#xe5;" horiz-adv-x="589" 
d="M294 551q-53 0 -87 32.5t-34 82.5t34 82t87 32q52 0 86 -32t34 -82t-34 -82.5t-86 -32.5zM294 613q23 0 38.5 15t15.5 38q0 22 -15.5 37t-38.5 15q-24 0 -39.5 -15t-15.5 -37q0 -23 15.5 -38t39.5 -15zM297 519q103 0 161.5 -55.5t58.5 -152.5v-311h-86l-18 60
q-65 -74 -173 -74q-86 0 -136.5 41t-50.5 112q0 73 51.5 114.5t143.5 41.5h150v18q0 51 -27 77.5t-76 26.5q-87 0 -103 -68h-124q14 79 74 124.5t155 45.5zM260 88q65 0 101.5 31.5t36.5 82.5v7h-139q-83 0 -83 -60q0 -61 84 -61z" />
    <glyph glyph-name="ae" unicode="&#xe6;" horiz-adv-x="971" 
d="M924 253q0 -25 -3 -45h-391q10 -58 47 -89t92 -31q84 0 119 63h125q-30 -76 -93 -120.5t-147 -44.5q-136 0 -208 105q-30 -46 -85.5 -75.5t-130.5 -29.5q-92 0 -144 43.5t-52 113.5q0 69 50 110.5t142 41.5h160v11q0 54 -27.5 82.5t-78.5 28.5q-88 0 -105 -66h-124
q14 77 74 122.5t152 45.5q122 0 184 -86q72 86 188 86q110 0 183 -75t73 -191zM665 417q-51 0 -88 -32.5t-47 -89.5h272q-11 58 -46 90t-91 32zM268 88q63 0 100 32.5t37 83.5v4h-148q-81 0 -81 -57q0 -63 92 -63z" />
    <glyph glyph-name="ccedilla" unicode="&#xe7;" horiz-adv-x="628" 
d="M320 95q50 0 87.5 25t54.5 73h121q-20 -89 -86 -145t-159 -61l-9 -32q49 -4 74 -28t25 -63q0 -45 -31.5 -71.5t-92.5 -26.5h-71v67h70q40 0 40 31q0 32 -40 32h-42l-11 11l22 82q-101 15 -163 87t-62 175q0 117 76.5 192.5t196.5 75.5q100 0 171.5 -56.5t91.5 -150.5
h-121q-16 47 -54 72.5t-89 25.5q-65 0 -108 -44.5t-43 -113.5t43 -113t109 -44z" />
    <glyph glyph-name="egrave" unicode="&#xe8;" horiz-adv-x="634" 
d="M371 567h-95l-101 157h132zM587 254q0 -23 -3 -40h-415q10 -60 50.5 -93t103.5 -33q88 0 128 63h124q-30 -77 -95.5 -121t-158.5 -44q-121 0 -197.5 75.5t-76.5 190.5q0 116 76 191.5t194 75.5t194 -75t76 -190zM318 417q-54 0 -93.5 -30.5t-52.5 -84.5h292
q-12 54 -50 84.5t-96 30.5z" />
    <glyph glyph-name="eacute" unicode="&#xe9;" horiz-adv-x="634" 
d="M454 724l-101 -157h-95l65 157h131zM587 254q0 -23 -3 -40h-415q10 -60 50.5 -93t103.5 -33q88 0 128 63h124q-30 -77 -95.5 -121t-158.5 -44q-121 0 -197.5 75.5t-76.5 190.5q0 116 76 191.5t194 75.5t194 -75t76 -190zM318 417q-54 0 -93.5 -30.5t-52.5 -84.5h292
q-12 54 -50 84.5t-96 30.5z" />
    <glyph glyph-name="ecircumflex" unicode="&#xea;" horiz-adv-x="634" 
d="M314 666l-73 -99h-107l116 157h128l117 -157h-107zM587 254q0 -23 -3 -40h-415q10 -60 50.5 -93t103.5 -33q88 0 128 63h124q-30 -77 -95.5 -121t-158.5 -44q-121 0 -197.5 75.5t-76.5 190.5q0 116 76 191.5t194 75.5t194 -75t76 -190zM318 417q-54 0 -93.5 -30.5
t-52.5 -84.5h292q-12 54 -50 84.5t-96 30.5z" />
    <glyph glyph-name="edieresis" unicode="&#xeb;" horiz-adv-x="634" 
d="M271 706v-123h-133v123h133zM489 706v-123h-133v123h133zM587 254q0 -23 -3 -40h-415q10 -60 50.5 -93t103.5 -33q88 0 128 63h124q-30 -77 -95.5 -121t-158.5 -44q-121 0 -197.5 75.5t-76.5 190.5q0 116 76 191.5t194 75.5t194 -75t76 -190zM318 417q-54 0 -93.5 -30.5
t-52.5 -84.5h292q-12 54 -50 84.5t-96 30.5z" />
    <glyph glyph-name="igrave" unicode="&#xec;" horiz-adv-x="276" 
d="M183 567h-96l-76 157h129zM78 0v505h120v-505h-120z" />
    <glyph glyph-name="iacute" unicode="&#xed;" horiz-adv-x="276" 
d="M87 567l43 157h129l-76 -157h-96zM78 0v505h120v-505h-120z" />
    <glyph glyph-name="icircumflex" unicode="&#xee;" horiz-adv-x="276" 
d="M199 724l104 -157h-102l-63 96l-64 -96h-101l103 157h123zM78 0v505h120v-505h-120z" />
    <glyph glyph-name="idieresis" unicode="&#xef;" horiz-adv-x="276" 
d="M-10 583v124h115v-124h-115zM170 583v123h115v-123h-115zM78 0v505h120v-505h-120z" />
    <glyph glyph-name="eth" unicode="&#xf0;" horiz-adv-x="661" 
d="M407 707q200 -110 200 -390q0 -56 -11 -105q-23 -110 -95 -168t-180 -58q-123 0 -199.5 72.5t-76.5 184.5q0 108 75 180.5t190 72.5q103 0 169 -60q-22 130 -152 187l-81 -85l-52 45l60 63q-62 14 -135 14h-1v110h1q128 -2 221 -34l76 80l51 -46zM322 94q70 0 114 42.5
t44 106.5t-43.5 106t-113.5 42t-114 -42.5t-44 -106.5t44 -106t113 -42z" />
    <glyph glyph-name="ntilde" unicode="&#xf1;" horiz-adv-x="639" 
d="M412 575q-35 0 -63 16.5t-49 33t-38 16.5q-31 0 -31 -41v-21h-81v25q0 57 27 86.5t75 29.5q35 0 62.5 -16.5t48.5 -33t38 -16.5q32 0 32 41v20h80v-24q0 -57 -26.5 -86.5t-74.5 -29.5zM365 519q92 0 147 -59.5t55 -164.5v-295h-120v271q0 69 -30 103.5t-85 34.5
q-59 0 -96.5 -43.5t-37.5 -115.5v-250h-120v505h87l22 -65q63 79 178 79z" />
    <glyph glyph-name="ograve" unicode="&#xf2;" horiz-adv-x="651" 
d="M289 567l-101 157h132l64 -157h-95zM325 -14q-121 0 -199.5 76.5t-78.5 189.5q0 114 78.5 190.5t199.5 76.5t200 -76.5t79 -190.5q0 -113 -79 -189.5t-200 -76.5zM325 94q69 0 114 45t45 113q0 69 -45 114t-114 45q-68 0 -113 -45t-45 -114q0 -68 45 -113t113 -45z" />
    <glyph glyph-name="oacute" unicode="&#xf3;" horiz-adv-x="651" 
d="M272 567l65 157h131l-101 -157h-95zM325 -14q-121 0 -199.5 76.5t-78.5 189.5q0 114 78.5 190.5t199.5 76.5t200 -76.5t79 -190.5q0 -113 -79 -189.5t-200 -76.5zM325 94q69 0 114 45t45 113q0 69 -45 114t-114 45q-68 0 -113 -45t-45 -114q0 -68 45 -113t113 -45z" />
    <glyph glyph-name="ocircumflex" unicode="&#xf4;" horiz-adv-x="651" 
d="M509 567h-107l-74 99l-73 -99h-107l116 157h128zM325 -14q-121 0 -199.5 76.5t-78.5 189.5q0 114 78.5 190.5t199.5 76.5t200 -76.5t79 -190.5q0 -113 -79 -189.5t-200 -76.5zM325 94q69 0 114 45t45 113q0 69 -45 114t-114 45q-68 0 -113 -45t-45 -114q0 -68 45 -113
t113 -45z" />
    <glyph glyph-name="otilde" unicode="&#xf5;" horiz-adv-x="651" 
d="M407 575q-35 0 -63 16.5t-49 33t-38 16.5q-31 0 -31 -41v-21h-81v25q0 57 27 86.5t75 29.5q35 0 62.5 -16.5t48.5 -33t38 -16.5q32 0 32 41v20h80v-24q0 -57 -26.5 -86.5t-74.5 -29.5zM325 -14q-121 0 -199.5 76.5t-78.5 189.5q0 114 78.5 190.5t199.5 76.5t200 -76.5
t79 -190.5q0 -113 -79 -189.5t-200 -76.5zM325 94q69 0 114 45t45 113q0 69 -45 114t-114 45q-68 0 -113 -45t-45 -114q0 -68 45 -113t113 -45z" />
    <glyph glyph-name="odieresis" unicode="&#xf6;" horiz-adv-x="651" 
d="M152 583v123h133v-123h-133zM370 583v123h133v-123h-133zM325 -14q-121 0 -199.5 76.5t-78.5 189.5q0 114 78.5 190.5t199.5 76.5t200 -76.5t79 -190.5q0 -113 -79 -189.5t-200 -76.5zM325 94q69 0 114 45t45 113q0 69 -45 114t-114 45q-68 0 -113 -45t-45 -114
q0 -68 45 -113t113 -45z" />
    <glyph glyph-name="divide" unicode="&#xf7;" horiz-adv-x="534" 
d="M267 455q-32 0 -53.5 21t-21.5 52t21.5 52t53.5 21t54 -21t22 -52t-22 -52t-54 -21zM33 282v109h468v-109h-468zM267 71q-32 0 -53.5 21.5t-21.5 52.5q0 30 21.5 51.5t53.5 21.5t54 -21.5t22 -51.5q0 -31 -22 -52.5t-54 -21.5z" />
    <glyph glyph-name="oslash" unicode="&#xf8;" horiz-adv-x="651" 
d="M496 467q51 -36 79.5 -92.5t28.5 -122.5q0 -113 -79 -189.5t-200 -76.5q-47 0 -87 12l-32 -59h-107l55 100q-50 36 -78.5 91.5t-28.5 121.5q0 114 78.5 190.5t199.5 76.5q46 0 88 -12l32 59h106zM325 415q-71 0 -116.5 -46t-45.5 -117q0 -73 48 -119l152 278q-16 4 -38 4
zM325 90q71 0 117 45.5t46 116.5q0 73 -48 119l-153 -277q16 -4 38 -4z" />
    <glyph glyph-name="ugrave" unicode="&#xf9;" horiz-adv-x="640" 
d="M282 567l-101 157h132l64 -157h-95zM442 505h120v-505h-87l-22 65q-65 -79 -176 -79q-94 0 -146.5 57.5t-52.5 162.5v299h120v-276q0 -134 114 -134q56 0 93 44.5t37 117.5v248z" />
    <glyph glyph-name="uacute" unicode="&#xfa;" horiz-adv-x="640" 
d="M461 724l-101 -157h-95l65 157h131zM442 505h120v-505h-87l-22 66q-65 -80 -176 -80q-94 0 -146.5 57.5t-52.5 162.5v299h120v-276q0 -134 114 -134q56 0 93 44.5t37 117.5v248z" />
    <glyph glyph-name="ucircumflex" unicode="&#xfb;" horiz-adv-x="640" 
d="M502 567h-107l-74 99l-73 -99h-107l116 157h128zM442 505h120v-505h-87l-22 65q-65 -79 -176 -79q-94 0 -146.5 57.5t-52.5 162.5v299h120v-276q0 -134 114 -134q56 0 93 44.5t37 117.5v248z" />
    <glyph glyph-name="udieresis" unicode="&#xfc;" horiz-adv-x="640" 
d="M145 583v123h133v-123h-133zM363 583v123h133v-123h-133zM442 505h120v-505h-87l-22 65q-65 -79 -176 -79q-94 0 -146.5 57.5t-52.5 162.5v299h120v-276q0 -134 114 -134q56 0 93 44.5t37 117.5v248z" />
    <glyph glyph-name="yacute" unicode="&#xfd;" horiz-adv-x="580" 
d="M437 724l-101 -157h-95l65 157h131zM444 505h129l-224 -508q-46 -105 -100.5 -147.5t-146.5 -42.5h-47v109h44q53 0 78.5 20.5t52.5 85.5l3 7l-216 476h132l150 -338z" />
    <glyph glyph-name="thorn" unicode="&#xfe;" horiz-adv-x="677" 
d="M369 519q113 0 187 -75t74 -192q0 -116 -74 -191t-187 -75q-100 0 -171 60v-239h-120v926h120v-274q71 60 171 60zM351 94q70 0 114.5 44.5t44.5 113.5q0 70 -44.5 114.5t-114.5 44.5t-114.5 -44.5t-44.5 -114.5q0 -69 44.5 -113.5t114.5 -44.5z" />
    <glyph glyph-name="ydieresis" unicode="&#xff;" horiz-adv-x="580" 
d="M254 706v-123h-133v123h133zM472 706v-123h-133v123h133zM444 505h129l-224 -508q-46 -105 -100.5 -147.5t-146.5 -42.5h-47v109h44q53 0 78.5 20.5t52.5 85.5l3 7l-216 476h132l150 -338z" />
    <glyph glyph-name="Amacron" unicode="&#x100;" horiz-adv-x="717" 
d="M198 797v94h319v-94h-319zM565 0l-58 144h-300l-57 -144h-135l281 700h124l282 -700h-137zM357 539l-109 -281h218z" />
    <glyph glyph-name="amacron" unicode="&#x101;" horiz-adv-x="589" 
d="M136 597v92h319v-92h-319zM297 519q103 0 161.5 -55.5t58.5 -152.5v-311h-86l-18 60q-65 -74 -173 -74q-86 0 -136.5 41t-50.5 112q0 73 51.5 114.5t143.5 41.5h150v18q0 51 -27 77.5t-76 26.5q-87 0 -103 -68h-124q14 79 74 124.5t155 45.5zM260 88q65 0 101.5 31.5
t36.5 82.5v7h-139q-83 0 -83 -60q0 -61 84 -61z" />
    <glyph glyph-name="Abreve" unicode="&#x102;" horiz-adv-x="717" 
d="M357 764q-79 0 -124 40.5t-45 109.5h97v-3q0 -31 19 -48t53 -17t53 17t19 48v3h98q0 -69 -45 -109.5t-125 -40.5zM565 0l-58 144h-300l-57 -144h-135l281 700h124l282 -700h-137zM357 539l-109 -281h218z" />
    <glyph glyph-name="abreve" unicode="&#x103;" horiz-adv-x="589" 
d="M295 563q-80 0 -126.5 43.5t-46.5 116.5h97v-3q0 -36 20.5 -56t55.5 -20t55 20t20 56v3h98q0 -73 -46.5 -116.5t-126.5 -43.5zM297 519q103 0 161.5 -55.5t58.5 -152.5v-311h-86l-18 60q-65 -74 -173 -74q-86 0 -136.5 41t-50.5 112q0 73 51.5 114.5t143.5 41.5h150v18
q0 51 -27 77.5t-76 26.5q-87 0 -103 -68h-124q14 79 74 124.5t155 45.5zM260 88q65 0 101.5 31.5t36.5 82.5v7h-139q-83 0 -83 -60q0 -61 84 -61z" />
    <glyph glyph-name="Aogonek" unicode="&#x104;" horiz-adv-x="717" 
d="M664 0q-32 -25 -51 -41t-35 -38.5t-16 -40.5q0 -36 51 -36h37v-72q-20 -6 -56 -6q-65 0 -96.5 23.5t-31.5 63.5q0 66 99 148l-58 143h-299l-58 -144h-135l281 700h124l282 -700h-38zM357 538l-109 -280h218z" />
    <glyph glyph-name="aogonek" unicode="&#x105;" horiz-adv-x="589" 
d="M517 0q-49 -37 -75 -65.5t-26 -54.5q0 -36 51 -36h37v-72q-19 -6 -56 -6q-65 0 -96.5 23.5t-31.5 63.5q0 71 108 156l-15 51q-64 -74 -173 -74q-86 0 -136.5 41t-50.5 112q0 73 51.5 114.5t143.5 41.5h150v18q0 51 -27 77.5t-76 26.5q-87 0 -103 -68h-124q14 79 74 124.5
t155 45.5q103 0 161.5 -55.5t58.5 -152.5v-311zM260 88q65 0 101.5 31.5t36.5 82.5v7h-139q-83 0 -83 -60q0 -61 84 -61z" />
    <glyph glyph-name="Cacute" unicode="&#x106;" horiz-adv-x="811" 
d="M355 768l69 147h134l-108 -147h-95zM419 -14q-159 0 -261 102t-102 262q0 158 102 261t258 103q130 0 222 -73t118 -195h-127q-25 70 -81 109.5t-131 39.5q-102 0 -167.5 -67.5t-65.5 -177.5q0 -109 65.5 -177t167.5 -68q79 0 135 41.5t79 117.5h128
q-26 -127 -117.5 -202.5t-222.5 -75.5z" />
    <glyph glyph-name="cacute" unicode="&#x107;" horiz-adv-x="628" 
d="M260 567l65 157h131l-101 -157h-95zM319 -14q-119 0 -195.5 75t-76.5 190q0 117 76.5 192.5t196.5 75.5q100 0 171.5 -56.5t91.5 -150.5h-121q-16 47 -54 72.5t-89 25.5q-65 0 -108 -44.5t-43 -113.5t43 -113t109 -44q50 0 87.5 25t54.5 73h121q-21 -94 -92.5 -150.5
t-171.5 -56.5z" />
    <glyph glyph-name="Ccircumflex" unicode="&#x108;" horiz-adv-x="811" 
d="M409 860l-76 -92h-107l120 147h124l122 -147h-108zM631 264h128q-26 -127 -117.5 -202.5t-222.5 -75.5q-159 0 -261 102t-102 262q0 158 102 261t258 103q130 0 222 -73t118 -195h-127q-25 70 -81 109.5t-131 39.5q-102 0 -167.5 -67.5t-65.5 -177.5q0 -109 65.5 -177
t167.5 -68q79 0 135 41.5t79 117.5z" />
    <glyph glyph-name="ccircumflex" unicode="&#x109;" horiz-adv-x="628" 
d="M497 567h-107l-74 99l-73 -99h-107l116 157h128zM319 -14q-119 0 -195.5 75t-76.5 190q0 117 76.5 192.5t196.5 75.5q100 0 171.5 -56.5t91.5 -150.5h-121q-16 47 -54 72.5t-89 25.5q-65 0 -108 -44.5t-43 -113.5t43 -113t109 -44q50 0 87.5 25t54.5 73h121
q-21 -94 -92.5 -150.5t-171.5 -56.5z" />
    <glyph glyph-name="Cdotaccent" unicode="&#x10a;" horiz-adv-x="811" 
d="M343 775v122h131v-122h-131zM419 -14q-159 0 -261 102t-102 262q0 158 102 261t258 103q130 0 222 -73t118 -195h-127q-25 70 -81 109.5t-131 39.5q-102 0 -167.5 -67.5t-65.5 -177.5q0 -109 65.5 -177t167.5 -68q79 0 135 41.5t79 117.5h128q-26 -127 -117.5 -202.5
t-222.5 -75.5z" />
    <glyph glyph-name="cdotaccent" unicode="&#x10b;" horiz-adv-x="628" 
d="M253 583v123h126v-123h-126zM319 -14q-119 0 -195.5 75t-76.5 190q0 117 76.5 192.5t196.5 75.5q100 0 171.5 -56.5t91.5 -150.5h-121q-16 47 -54 72.5t-89 25.5q-65 0 -108 -44.5t-43 -113.5t43 -113t109 -44q50 0 87.5 25t54.5 73h121q-21 -94 -92.5 -150.5
t-171.5 -56.5z" />
    <glyph glyph-name="Ccaron" unicode="&#x10c;" horiz-adv-x="811" 
d="M470 768h-124l-121 147h108l76 -92l75 92h107zM631 264h128q-26 -127 -117.5 -202.5t-222.5 -75.5q-159 0 -261 102t-102 262q0 158 102 261t258 103q130 0 222 -73t118 -195h-127q-25 70 -81 109.5t-131 39.5q-102 0 -167.5 -67.5t-65.5 -177.5q0 -109 65.5 -177
t167.5 -68q79 0 135 41.5t79 117.5z" />
    <glyph glyph-name="ccaron" unicode="&#x10d;" horiz-adv-x="628" 
d="M379 567h-128l-116 157h107l73 -100l74 100h107zM320 95q50 0 87.5 25t54.5 73h121q-21 -94 -92.5 -150.5t-171.5 -56.5q-119 0 -195.5 75t-76.5 190q0 117 76.5 192.5t196.5 75.5q100 0 171.5 -56.5t91.5 -150.5h-121q-16 47 -54 72.5t-89 25.5q-65 0 -108 -44.5
t-43 -113.5t43 -113t109 -44z" />
    <glyph glyph-name="Dcaron" unicode="&#x10e;" horiz-adv-x="754" 
d="M360 768h-124l-121 147h108l76 -92l75 92h107zM343 700q156 0 255.5 -98.5t99.5 -251.5t-99.5 -251.5t-255.5 -98.5h-253v700h253zM339 117q105 0 168 63.5t63 169.5t-63 169.5t-168 63.5h-123v-466h123z" />
    <glyph glyph-name="dcaron" unicode="&#x10f;" horiz-adv-x="719" 
d="M479 459v274h120v-733h-87l-18 59q-75 -73 -186 -73q-113 0 -187 75t-74 191q0 117 74 192t187 75q100 0 171 -60zM668 733h116v-94q0 -54 -30.5 -91.5t-81.5 -42.5v55q26 3 40.5 22t14.5 47h-59v104zM326 94q70 0 114.5 44.5t44.5 113.5q0 70 -44.5 114.5t-114.5 44.5
t-114.5 -44.5t-44.5 -114.5q0 -69 44.5 -113.5t114.5 -44.5z" />
    <glyph glyph-name="Dcroat" unicode="&#x110;" horiz-adv-x="778" 
d="M367 700q156 0 255.5 -98.5t99.5 -251.5t-99.5 -251.5t-255.5 -98.5h-253v298h-98v106h98v296h253zM363 117q105 0 168 63.5t63 169.5t-63 169.5t-168 63.5h-123v-179h168v-106h-168v-181h123z" />
    <glyph glyph-name="dcroat" unicode="&#x111;" horiz-adv-x="677" 
d="M682 667v-79h-83v-588h-87l-18 59q-75 -73 -186 -73q-113 0 -187 75t-74 191q0 117 74 192t187 75q100 0 171 -60v129h-180v79h180v66h120v-66h83zM326 94q70 0 114.5 44.5t44.5 113.5q0 70 -44.5 114.5t-114.5 44.5t-114.5 -44.5t-44.5 -114.5q0 -69 44.5 -113.5
t114.5 -44.5z" />
    <glyph glyph-name="Emacron" unicode="&#x112;" horiz-adv-x="578" 
d="M136 797v94h319v-94h-319zM216 117h296v-117h-422v700h411v-117h-285v-170h259v-115h-259v-181z" />
    <glyph glyph-name="emacron" unicode="&#x113;" horiz-adv-x="634" 
d="M474 689v-92h-319v92h319zM587 254q0 -23 -3 -40h-415q10 -60 50.5 -93t103.5 -33q88 0 128 63h124q-30 -77 -95.5 -121t-158.5 -44q-121 0 -197.5 75.5t-76.5 190.5q0 116 76 191.5t194 75.5t194 -75t76 -190zM318 417q-54 0 -93.5 -30.5t-52.5 -84.5h292
q-12 54 -50 84.5t-96 30.5z" />
    <glyph glyph-name="Ebreve" unicode="&#x114;" horiz-adv-x="578" 
d="M295 764q-79 0 -124 40.5t-45 109.5h97v-3q0 -31 19 -48t53 -17t53 17t19 48v3h98q0 -69 -45 -109.5t-125 -40.5zM216 117h296v-117h-422v700h411v-117h-285v-170h259v-115h-259v-181z" />
    <glyph glyph-name="ebreve" unicode="&#x115;" horiz-adv-x="634" 
d="M314 563q-80 0 -126.5 43.5t-46.5 116.5h97v-3q0 -36 20.5 -56t55.5 -20t55 20t20 56v3h98q0 -73 -46.5 -116.5t-126.5 -43.5zM587 254q0 -23 -3 -40h-415q10 -60 50.5 -93t103.5 -33q88 0 128 63h124q-30 -77 -95.5 -121t-158.5 -44q-121 0 -197.5 75.5t-76.5 190.5
q0 116 76 191.5t194 75.5t194 -75t76 -190zM318 417q-54 0 -93.5 -30.5t-52.5 -84.5h292q-12 54 -50 84.5t-96 30.5z" />
    <glyph glyph-name="Edotaccent" unicode="&#x116;" horiz-adv-x="578" 
d="M230 775v122h131v-122h-131zM216 117h296v-117h-422v700h411v-117h-285v-170h259v-115h-259v-181z" />
    <glyph glyph-name="edotaccent" unicode="&#x117;" horiz-adv-x="634" 
d="M378 706v-123h-126v123h126zM587 254q0 -23 -3 -40h-415q10 -60 50.5 -93t103.5 -33q88 0 128 63h124q-30 -77 -95.5 -121t-158.5 -44q-121 0 -197.5 75.5t-76.5 190.5q0 116 76 191.5t194 75.5t194 -75t76 -190zM318 417q-54 0 -93.5 -30.5t-52.5 -84.5h292
q-12 54 -50 84.5t-96 30.5z" />
    <glyph glyph-name="Eogonek" unicode="&#x118;" horiz-adv-x="578" 
d="M512 0q-32 -25 -50 -41t-34.5 -38.5t-16.5 -40.5q0 -36 51 -36h37v-72q-19 -6 -56 -6q-65 0 -96.5 23.5t-31.5 63.5q0 65 97 147h-322v700h411v-117h-285v-170h259v-115h-259v-181h296v-117z" />
    <glyph glyph-name="eogonek" unicode="&#x119;" horiz-adv-x="634" 
d="M587 254q0 -23 -3 -40h-415q10 -60 50.5 -93t103.5 -33q88 0 128 63h124q-13 -36 -46 -78t-64 -72t-55 -63.5t-24 -57.5q0 -36 52 -36h36v-72q-19 -6 -56 -6q-65 0 -96.5 24t-31.5 64q0 63 77 136q-28 -4 -46 -4q-121 0 -197.5 75.5t-76.5 190.5q0 116 76 191.5t194 75.5
t194 -75t76 -190zM318 417q-54 0 -93.5 -30.5t-52.5 -84.5h291q-13 55 -50 85t-95 30z" />
    <glyph glyph-name="Ecaron" unicode="&#x11a;" horiz-adv-x="578" 
d="M357 768h-124l-121 147h108l76 -92l75 92h107zM216 117h296v-117h-422v700h411v-117h-285v-170h259v-115h-259v-181z" />
    <glyph glyph-name="ecaron" unicode="&#x11b;" horiz-adv-x="634" 
d="M378 567h-128l-116 157h107l73 -100l74 100h107zM587 254q0 -23 -3 -40h-415q10 -60 50.5 -93t103.5 -33q88 0 128 63h124q-30 -77 -95.5 -121t-158.5 -44q-121 0 -197.5 75.5t-76.5 190.5q0 116 76 191.5t194 75.5t194 -75t76 -190zM318 417q-54 0 -93.5 -30.5
t-52.5 -84.5h292q-12 54 -50 84.5t-96 30.5z" />
    <glyph glyph-name="Gcircumflex" unicode="&#x11c;" horiz-adv-x="825" 
d="M414 860l-76 -92h-107l120 147h124l122 -147h-108zM399 357h372q-3 -167 -100.5 -269t-254.5 -102q-158 0 -259 102t-101 262q0 159 101.5 261.5t256.5 102.5q133 0 225 -70.5t118 -178.5h-131q-26 60 -78.5 95t-129.5 35q-104 0 -169 -66.5t-65 -178.5q0 -111 65 -178
t171 -67q84 0 140.5 39t73.5 107h-235v106z" />
    <glyph glyph-name="gcircumflex" unicode="&#x11d;" horiz-adv-x="677" 
d="M317 666l-73 -99h-107l116 157h128l117 -157h-107zM511 505h88v-443q0 -128 -72 -198.5t-201 -70.5q-106 0 -175 47.5t-87 127.5h124q28 -72 136 -72q74 0 114 37t40 110v24q-71 -58 -169 -58q-114 0 -188 72t-74 183q0 110 73.5 182t186.5 72q110 0 186 -71zM325 116
q70 0 114 42t44 106q0 63 -44 105t-114 42t-114 -41.5t-44 -105.5t44 -106t114 -42z" />
    <glyph glyph-name="Gbreve" unicode="&#x11e;" horiz-adv-x="825" 
d="M414 764q-79 0 -124 40.5t-45 109.5h97v-3q0 -31 19 -48t53 -17t53 17t19 48v3h98q0 -69 -45 -109.5t-125 -40.5zM399 357h372q-3 -167 -100.5 -269t-254.5 -102q-158 0 -259 102t-101 262q0 159 101.5 261.5t256.5 102.5q133 0 225 -70.5t118 -178.5h-131
q-26 60 -78.5 95t-129.5 35q-104 0 -169 -66.5t-65 -178.5q0 -111 65 -178t171 -67q84 0 140.5 39t73.5 107h-235v106z" />
    <glyph glyph-name="gbreve" unicode="&#x11f;" horiz-adv-x="677" 
d="M317 563q-80 0 -126.5 43.5t-46.5 116.5h97v-3q0 -36 20.5 -56t55.5 -20t55 20t20 56v3h98q0 -73 -46.5 -116.5t-126.5 -43.5zM511 505h88v-443q0 -128 -72 -198.5t-201 -70.5q-106 0 -175 47.5t-87 127.5h124q28 -72 136 -72q74 0 114 37t40 110v24q-71 -58 -169 -58
q-114 0 -188 72t-74 183q0 110 73.5 182t186.5 72q110 0 186 -71zM325 116q70 0 114 42t44 106q0 63 -44 105t-114 42t-114 -41.5t-44 -105.5t44 -106t114 -42z" />
    <glyph glyph-name="Gdotaccent" unicode="&#x120;" horiz-adv-x="825" 
d="M349 775v122h131v-122h-131zM399 357h372q-3 -167 -100.5 -269t-254.5 -102q-158 0 -259 102t-101 262q0 159 101.5 261.5t256.5 102.5q133 0 225 -70.5t118 -178.5h-131q-26 60 -78.5 95t-129.5 35q-104 0 -169 -66.5t-65 -178.5q0 -111 65 -178t171 -67q84 0 140.5 39
t73.5 107h-235v106z" />
    <glyph glyph-name="gdotaccent" unicode="&#x121;" horiz-adv-x="677" 
d="M380 706v-123h-126v123h126zM511 505h88v-443q0 -128 -72 -198.5t-201 -70.5q-106 0 -175 47.5t-87 127.5h124q28 -72 136 -72q74 0 114 37t40 110v24q-71 -58 -169 -58q-114 0 -188 72t-74 183q0 110 73.5 182t186.5 72q110 0 186 -71zM325 116q70 0 114 42t44 106
q0 63 -44 105t-114 42t-114 -41.5t-44 -105.5t44 -106t114 -42z" />
    <glyph glyph-name="uni0122" unicode="&#x122;" horiz-adv-x="825" 
d="M399 357h372q-3 -167 -100.5 -269t-254.5 -102q-158 0 -259 102t-101 262q0 159 101.5 261.5t256.5 102.5q133 0 225 -70.5t118 -178.5h-131q-26 60 -78.5 95t-129.5 35q-104 0 -169 -66.5t-65 -178.5q0 -111 65 -178t171 -67q84 0 140.5 39t73.5 107h-235v106zM360 -158
v104h116v-94q0 -53 -31 -91t-81 -43v55q26 3 40.5 22t14.5 47h-59z" />
    <glyph glyph-name="uni0123" unicode="&#x123;" horiz-adv-x="677" 
d="M374 690v-104h-116v94q0 55 31 92t82 42v-55q-26 -3 -40.5 -22t-14.5 -47h58zM511 505h88v-443q0 -128 -72 -198.5t-201 -70.5q-106 0 -175 47.5t-87 127.5h124q28 -72 136 -72q74 0 114 37t40 110v24q-71 -58 -169 -58q-114 0 -188 72t-74 183q0 110 73.5 182t186.5 72
q110 0 186 -71zM325 116q70 0 114 42t44 106q0 63 -44 105t-114 42t-114 -41.5t-44 -105.5t44 -106t114 -42z" />
    <glyph glyph-name="Hcircumflex" unicode="&#x124;" horiz-adv-x="736" 
d="M370 860l-76 -92h-107l120 147h124l122 -147h-108zM519 700h127v-700h-127v301h-303v-301h-126v700h126v-281h303v281z" />
    <glyph glyph-name="hcircumflex" unicode="&#x125;" horiz-adv-x="639" 
d="M215 784l-75 92l-76 -92h-107l120 147h124l122 -147h-108zM365 519q92 0 147 -59.5t55 -164.5v-295h-120v271q0 69 -30 103.5t-85 34.5q-59 0 -96.5 -43.5t-37.5 -115.5v-250h-120v733h120v-281q62 67 167 67z" />
    <glyph glyph-name="Hbar" unicode="&#x126;" horiz-adv-x="745" 
d="M722 623v-96h-72v-527h-126v298h-303v-298h-127v527h-71v96h71v77h127v-77h303v77h126v-77h72zM524 413v114h-303v-114h303z" />
    <glyph glyph-name="hbar" unicode="&#x127;" horiz-adv-x="643" 
d="M369 519q92 0 147.5 -59.5t55.5 -164.5v-295h-120v269q0 68 -30.5 104t-85.5 36q-59 0 -96.5 -43.5t-37.5 -115.5v-250h-120v588h-91v81h91v64h120v-64h168v-81h-168v-136q62 67 167 67z" />
    <glyph glyph-name="Itilde" unicode="&#x128;" horiz-adv-x="307" 
d="M231 769q-34 0 -60 16.5t-44 32.5t-34 16q-29 0 -29 -37v-24h-81v33q0 53 25 81t69 28q35 0 61 -16.5t43.5 -32.5t33.5 -16q30 0 30 36v25h81v-33q0 -53 -25.5 -81t-69.5 -28zM90 0v700h126v-700h-126z" />
    <glyph glyph-name="itilde" unicode="&#x129;" horiz-adv-x="276" 
d="M214 575q-35 0 -60.5 16.5t-43 32.5t-32.5 16q-28 0 -28 -36v-24h-82v35q0 52 25 79.5t69 27.5q27 0 49.5 -10t34.5 -22.5t25.5 -22.5t26.5 -10q28 0 28 36v24h82v-35q0 -52 -25 -79.5t-69 -27.5zM78 0v505h120v-505h-120z" />
    <glyph glyph-name="Imacron" unicode="&#x12a;" horiz-adv-x="307" 
d="M25 797v97h258v-97h-258zM90 0v700h126v-700h-126z" />
    <glyph glyph-name="imacron" unicode="&#x12b;" horiz-adv-x="276" 
d="M9 604v92h258v-92h-258zM78 0v505h120v-505h-120z" />
    <glyph glyph-name="Ibreve" unicode="&#x12c;" horiz-adv-x="307" 
d="M154 764q-71 0 -112.5 40.5t-41.5 109.5h96v-4q0 -31 15.5 -47.5t42.5 -16.5t42 16.5t15 47.5v4h97q0 -69 -41.5 -109.5t-112.5 -40.5zM90 0v700h126v-700h-126z" />
    <glyph glyph-name="ibreve" unicode="&#x12d;" horiz-adv-x="276" 
d="M139 563q-74 0 -116.5 42.5t-42.5 117.5h96v-6q0 -35 17 -54t46 -19t45.5 19t16.5 54v6h97q0 -75 -42.5 -117.5t-116.5 -42.5zM78 0v505h120v-505h-120z" />
    <glyph glyph-name="Iogonek" unicode="&#x12e;" horiz-adv-x="307" 
d="M90 700h126v-700h-26q-32 -25 -51 -41t-35 -38.5t-16 -40.5q0 -36 52 -36h36v-72q-19 -6 -56 -6q-65 0 -96.5 23.5t-31.5 63.5q0 65 98 148v699z" />
    <glyph glyph-name="iogonek" unicode="&#x12f;" horiz-adv-x="276" 
d="M74 733h128v-122h-128v122zM78 0v505h120v-505h-19q-32 -25 -51 -41t-35 -38.5t-16 -40.5q0 -36 51 -36h37v-72q-19 -6 -56 -6q-65 0 -96.5 23.5t-31.5 63.5q0 65 97 147z" />
    <glyph glyph-name="Idotaccent" unicode="&#x130;" horiz-adv-x="307" 
d="M88 775v122h131v-122h-131zM90 0v700h126v-700h-126z" />
    <glyph glyph-name="dotlessi" unicode="&#x131;" horiz-adv-x="276" 
d="M78 0v505h120v-505h-120z" />
    <glyph glyph-name="IJ" unicode="&#x132;" horiz-adv-x="880" 
d="M90 0v700h126v-700h-126zM545 -14q-112 0 -182 69.5t-70 180.5v23h127v-16q0 -66 33.5 -102t91.5 -36q57 0 91 36t34 100v459h126v-462q0 -115 -68 -183.5t-183 -68.5z" />
    <glyph glyph-name="ij" unicode="&#x133;" horiz-adv-x="549" 
d="M74 611v122h128v-122h-128zM347 611v122h128v-122h-128zM78 0v505h120v-505h-120zM227 -193v109h34q90 0 90 91v498h120v-500q0 -93 -51 -145.5t-140 -52.5h-53z" />
    <glyph glyph-name="Jcircumflex" unicode="&#x134;" horiz-adv-x="623" 
d="M475 858l-62 -90h-103l103 147h123l104 -147h-103zM413 241v459h126v-462q0 -115 -68 -183.5t-183 -68.5q-112 0 -182 69.5t-70 180.5v23h127v-16q0 -66 33.5 -102t91.5 -36q57 0 91 36t34 100z" />
    <glyph glyph-name="jcircumflex" unicode="&#x135;" horiz-adv-x="287" 
d="M210 724l104 -157h-101l-64 96l-63 -96h-102l103 157h123zM89 6v499h120v-500q0 -93 -51 -145.5t-140 -52.5h-53v109h34q90 0 90 90z" />
    <glyph glyph-name="uni0136" unicode="&#x136;" horiz-adv-x="666" 
d="M402 362l253 -362h-153l-207 301h-79v-301h-126v700h126v-281h82l187 281h149zM289 -158v104h116v-94q0 -53 -31 -91t-81 -43v55q26 3 40.5 22t14.5 47h-59z" />
    <glyph glyph-name="uni0137" unicode="&#x137;" horiz-adv-x="574" 
d="M367 263l192 -263h-145l-147 204h-69v-204h-120v733h120v-420h67l136 192h139zM244 -158v104h116v-94q0 -53 -31 -91t-81 -43v55q26 3 40.5 22t14.5 47h-59z" />
    <glyph glyph-name="kgreenlandic" unicode="&#x138;" horiz-adv-x="574" 
d="M412 0l-146 203h-68v-203h-120v505h120v-193h64l137 193h141l-173 -242l192 -263h-147z" />
    <glyph glyph-name="Lacute" unicode="&#x139;" horiz-adv-x="540" 
d="M104 768l69 147h134l-108 -147h-95zM216 119h285v-119h-411v700h126v-581z" />
    <glyph glyph-name="lacute" unicode="&#x13a;" horiz-adv-x="276" 
d="M86 801l69 147h134l-108 -147h-95zM78 0v733h120v-733h-120z" />
    <glyph glyph-name="uni013B" unicode="&#x13b;" horiz-adv-x="540" 
d="M216 119h285v-119h-411v700h126v-581zM237 -158v104h116v-94q0 -53 -31 -91t-81 -43v55q26 3 40.5 22t14.5 47h-59z" />
    <glyph glyph-name="uni013C" unicode="&#x13c;" horiz-adv-x="276" 
d="M78 733h120v-733h-120v733zM81 -158v104h116v-94q0 -53 -31 -91t-81 -43v55q26 3 40.5 22t14.5 47h-59z" />
    <glyph glyph-name="Lcaron" unicode="&#x13d;" horiz-adv-x="540" 
d="M216 119h285v-119h-411v700h126v-581zM308 527q26 3 40.5 22t14.5 47h-59v104h116v-94q0 -54 -30.5 -91.5t-81.5 -42.5v55z" />
    <glyph glyph-name="lcaron" unicode="&#x13e;" horiz-adv-x="322" 
d="M78 0v733h120v-733h-120zM271 733h116v-94q0 -53 -31 -91t-81 -43v55q26 3 40.5 22t14.5 47h-59v104z" />
    <glyph glyph-name="Ldot" unicode="&#x13f;" horiz-adv-x="542" 
d="M216 119h285v-119h-411v700h126v-581zM352 290v137h133v-137h-133z" />
    <glyph glyph-name="ldot" unicode="&#x140;" horiz-adv-x="414" 
d="M78 0v733h120v-733h-120zM274 280v137h133v-137h-133z" />
    <glyph glyph-name="Lslash" unicode="&#x141;" horiz-adv-x="540" 
d="M216 119h285v-119h-411v234l-80 -40v115l80 41v350h126v-286l180 92v-117l-180 -91v-179z" />
    <glyph glyph-name="lslash" unicode="&#x142;" horiz-adv-x="325" 
d="M316 524v-116l-93 -50v-358h-120v294l-90 -48v115l90 48v324h120v-259z" />
    <glyph glyph-name="Nacute" unicode="&#x143;" horiz-adv-x="760" 
d="M329 768l69 147h134l-108 -147h-95zM544 700h126v-700h-116l-338 474v-474h-126v700h116l338 -474v474z" />
    <glyph glyph-name="nacute" unicode="&#x144;" horiz-adv-x="639" 
d="M473 724l-101 -157h-95l65 157h131zM365 519q92 0 147 -59.5t55 -164.5v-295h-120v271q0 69 -30 103.5t-85 34.5q-59 0 -96.5 -43.5t-37.5 -115.5v-250h-120v505h87l22 -65q63 79 178 79z" />
    <glyph glyph-name="uni0145" unicode="&#x145;" horiz-adv-x="760" 
d="M544 700h126v-700h-116l-338 474v-474h-126v700h116l338 -474v474zM328 -158v104h116v-94q0 -53 -31 -91t-81 -43v55q26 3 40.5 22t14.5 47h-59z" />
    <glyph glyph-name="uni0146" unicode="&#x146;" horiz-adv-x="639" 
d="M365 519q92 0 147 -59.5t55 -164.5v-295h-120v271q0 69 -30 103.5t-85 34.5q-59 0 -96.5 -43.5t-37.5 -115.5v-250h-120v505h87l22 -65q63 79 178 79zM264 -158v104h116v-94q0 -53 -31 -91t-81 -43v55q26 3 40.5 22t14.5 47h-59z" />
    <glyph glyph-name="Ncaron" unicode="&#x147;" horiz-adv-x="760" 
d="M444 768h-124l-121 147h108l76 -92l75 92h107zM544 700h126v-700h-116l-338 474v-474h-126v700h116l338 -474v474z" />
    <glyph glyph-name="ncaron" unicode="&#x148;" horiz-adv-x="639" 
d="M396 567h-128l-116 157h107l73 -100l74 100h107zM365 519q92 0 147 -59.5t55 -164.5v-295h-120v271q0 69 -30 103.5t-85 34.5q-59 0 -96.5 -43.5t-37.5 -115.5v-250h-120v505h87l22 -65q63 79 178 79z" />
    <glyph glyph-name="Eng" unicode="&#x14a;" horiz-adv-x="760" 
d="M544 700h126v-690q0 -98 -50.5 -150.5t-140.5 -52.5h-56v115h32q89 0 89 93l-328 458v-473h-126v700h116l338 -474v474z" />
    <glyph glyph-name="eng" unicode="&#x14b;" horiz-adv-x="639" 
d="M365 519q92 0 147 -59.5t55 -164.5v-290q0 -93 -51 -145.5t-140 -52.5h-45v109h27q89 0 89 90v265q0 69 -30 103.5t-85 34.5q-59 0 -96.5 -43.5t-37.5 -115.5v-250h-120v505h87l22 -65q63 79 178 79z" />
    <glyph glyph-name="Omacron" unicode="&#x14c;" horiz-adv-x="852" 
d="M267 797v94h319v-94h-319zM427 -14q-161 0 -266 104t-105 260t105 260t266 104q159 0 264.5 -104t105.5 -260t-105.5 -260t-264.5 -104zM427 105q103 0 172 70t69 175t-69 175t-172 70q-104 0 -173.5 -69.5t-69.5 -175.5t69.5 -175.5t173.5 -69.5z" />
    <glyph glyph-name="omacron" unicode="&#x14d;" horiz-adv-x="651" 
d="M168 597v92h319v-92h-319zM325 -14q-121 0 -199.5 76.5t-78.5 189.5q0 114 78.5 190.5t199.5 76.5t200 -76.5t79 -190.5q0 -113 -79 -189.5t-200 -76.5zM325 94q69 0 114 45t45 113q0 69 -45 114t-114 45q-68 0 -113 -45t-45 -114q0 -68 45 -113t113 -45z" />
    <glyph glyph-name="Obreve" unicode="&#x14e;" horiz-adv-x="852" 
d="M426 764q-79 0 -124 40.5t-45 109.5h97v-3q0 -31 19 -48t53 -17t53 17t19 48v3h98q0 -69 -45 -109.5t-125 -40.5zM427 -14q-161 0 -266 104t-105 260t105 260t266 104q159 0 264.5 -104t105.5 -260t-105.5 -260t-264.5 -104zM427 105q103 0 172 70t69 175t-69 175
t-172 70q-104 0 -173.5 -69.5t-69.5 -175.5t69.5 -175.5t173.5 -69.5z" />
    <glyph glyph-name="obreve" unicode="&#x14f;" horiz-adv-x="651" 
d="M328 563q-80 0 -126.5 43.5t-46.5 116.5h97v-3q0 -36 20.5 -56t55.5 -20t55 20t20 56v3h98q0 -73 -46.5 -116.5t-126.5 -43.5zM325 -14q-121 0 -199.5 76.5t-78.5 189.5q0 114 78.5 190.5t199.5 76.5t200 -76.5t79 -190.5q0 -113 -79 -189.5t-200 -76.5zM325 94
q69 0 114 45t45 113q0 69 -45 114t-114 45q-68 0 -113 -45t-45 -114q0 -68 45 -113t113 -45z" />
    <glyph glyph-name="Ohungarumlaut" unicode="&#x150;" horiz-adv-x="852" 
d="M283 768l69 147h118l-95 -147h-92zM466 768l73 147h119l-99 -147h-93zM427 -14q-161 0 -266 104t-105 260t105 260t266 104q159 0 264.5 -104t105.5 -260t-105.5 -260t-264.5 -104zM427 105q103 0 172 70t69 175t-69 175t-172 70q-104 0 -173.5 -69.5t-69.5 -175.5
t69.5 -175.5t173.5 -69.5z" />
    <glyph glyph-name="ohungarumlaut" unicode="&#x151;" horiz-adv-x="651" 
d="M181 567l64 157h114l-89 -157h-89zM372 567l67 157h116l-93 -157h-90zM325 -14q-121 0 -199.5 76.5t-78.5 189.5q0 114 78.5 190.5t199.5 76.5t200 -76.5t79 -190.5q0 -113 -79 -189.5t-200 -76.5zM325 94q69 0 114 45t45 113q0 69 -45 114t-114 45q-68 0 -113 -45
t-45 -114q0 -68 45 -113t113 -45z" />
    <glyph glyph-name="OE" unicode="&#x152;" horiz-adv-x="983" 
d="M917 117v-117h-383q-46 -14 -106 -14q-161 0 -266.5 104t-105.5 260t105.5 260t266.5 104q60 0 106 -14h372v-117h-277v-170h251v-115h-251v-181h288zM184 350q0 -106 70.5 -175.5t180.5 -69.5q39 0 68 8v474q-29 8 -68 8q-110 0 -180.5 -69.5t-70.5 -175.5z" />
    <glyph glyph-name="oe" unicode="&#x153;" horiz-adv-x="1056" 
d="M1009 254q0 -22 -3 -43h-402q10 -58 48.5 -90.5t95.5 -32.5q85 0 125 63h124q-31 -77 -94 -121t-153 -44q-136 0 -209 108q-77 -108 -219 -108q-119 0 -197 76t-78 190q0 115 78 191t197 76q141 0 219 -109q75 109 209 109q112 0 185.5 -75t73.5 -190zM745 417
q-53 0 -90.5 -31t-48.5 -87h280q-11 55 -48 86.5t-93 31.5zM324 94q69 0 113.5 44.5t44.5 113.5q0 70 -44.5 114.5t-113.5 44.5q-68 0 -112.5 -44.5t-44.5 -114.5q0 -69 44.5 -113.5t112.5 -44.5z" />
    <glyph glyph-name="Racute" unicode="&#x154;" horiz-adv-x="662" 
d="M255 768l69 147h134l-108 -147h-95zM485 0l-145 252h-124v-252h-126v700h276q105 0 172 -64t67 -160q0 -68 -37.5 -122t-102.5 -79l162 -275h-142zM475 476q0 48 -32 77.5t-87 29.5h-140v-215h140q55 0 87 29.5t32 78.5z" />
    <glyph glyph-name="racute" unicode="&#x155;" horiz-adv-x="421" 
d="M374 724l-101 -157h-95l65 157h131zM343 505h51v-116h-66q-130 0 -130 -142v-247h-120v505h87l22 -67q55 67 156 67z" />
    <glyph glyph-name="uni0156" unicode="&#x156;" horiz-adv-x="662" 
d="M465 275l162 -275h-142l-145 252h-124v-252h-126v700h276q105 0 172 -64t67 -160q0 -68 -37.5 -122t-102.5 -79zM356 368q55 0 87 29.5t32 78.5q0 48 -32 77.5t-87 29.5h-140v-215h140zM284 -158v104h116v-94q0 -53 -31 -91t-81 -43v55q26 3 40.5 22t14.5 47h-59z" />
    <glyph glyph-name="uni0157" unicode="&#x157;" horiz-adv-x="421" 
d="M343 505h51v-116h-66q-130 0 -130 -142v-247h-120v505h87l22 -67q56 67 156 67zM82 -158v104h116v-94q0 -53 -31 -91t-81 -43v55q26 3 40.5 22t14.5 47h-59z" />
    <glyph glyph-name="Rcaron" unicode="&#x158;" horiz-adv-x="662" 
d="M371 768h-124l-121 147h108l76 -92l75 92h107zM465 275l162 -275h-142l-145 252h-124v-252h-126v700h276q105 0 172 -64t67 -160q0 -68 -37.5 -122t-102.5 -79zM356 368q55 0 87 29.5t32 78.5q0 48 -32 77.5t-87 29.5h-140v-215h140z" />
    <glyph glyph-name="rcaron" unicode="&#x159;" horiz-adv-x="421" 
d="M297 567h-128l-116 157h107l73 -100l74 100h107zM187 438q56 67 156 67h51v-116h-66q-130 0 -130 -142v-247h-120v505h87z" />
    <glyph glyph-name="Sacute" unicode="&#x15a;" horiz-adv-x="639" 
d="M260 768l69 147h134l-108 -147h-95zM325 -14q-125 0 -196.5 65t-71.5 171h129q0 -54 36 -85.5t103 -31.5q63 0 96 26t33 67q0 19 -9 35t-21 25.5t-35.5 19t-40.5 14.5t-49 13q-40 10 -65.5 18t-60 24.5t-54.5 36.5t-34.5 52.5t-14.5 73.5q0 91 65.5 147.5t182.5 56.5
q118 0 182 -59.5t64 -161.5h-127q0 46 -32 74t-91 28q-57 0 -86 -22.5t-29 -58.5q0 -40 36.5 -59.5t110.5 -37.5q42 -11 67 -18.5t62 -24.5t57 -37.5t35.5 -55t15.5 -77.5q0 -96 -69 -157t-189 -61z" />
    <glyph glyph-name="sacute" unicode="&#x15b;" horiz-adv-x="529" 
d="M209 567l65 157h131l-101 -157h-95zM270 -14q-106 0 -163 45t-62 121h121q11 -67 107 -67q90 0 90 58q0 27 -26 39t-88 25q-35 8 -54.5 13t-49.5 17.5t-46.5 27.5t-29 40.5t-12.5 58.5q0 66 54.5 110.5t151.5 44.5q96 0 149.5 -44t60.5 -115h-119q-8 60 -92 60
q-42 0 -63 -14.5t-21 -36.5q0 -27 28 -40t86 -24q34 -7 54 -12t50 -17t46.5 -27t29 -41t12.5 -60q0 -70 -56 -116t-158 -46z" />
    <glyph glyph-name="Scircumflex" unicode="&#x15c;" horiz-adv-x="639" 
d="M313 860l-76 -92h-107l120 147h124l122 -147h-108zM346 417q42 -11 67 -18.5t62 -24.5t57 -37.5t35.5 -55t15.5 -77.5q0 -96 -69 -157t-189 -61q-125 0 -196.5 65t-71.5 171h129q0 -54 36 -85.5t103 -31.5q63 0 96 26t33 67q0 19 -9 35t-21 25.5t-35.5 19t-40.5 14.5
t-49 13q-40 10 -65.5 18t-60 24.5t-54.5 36.5t-34.5 52.5t-14.5 73.5q0 91 65.5 147.5t182.5 56.5q118 0 182 -59.5t64 -161.5h-127q0 46 -32 74t-91 28q-57 0 -86 -22.5t-29 -58.5q0 -40 36.5 -59.5t110.5 -37.5z" />
    <glyph glyph-name="scircumflex" unicode="&#x15d;" horiz-adv-x="529" 
d="M446 567h-107l-74 99l-73 -99h-107l116 157h128zM270 -14q-106 0 -163 45t-62 121h121q11 -67 107 -67q90 0 90 58q0 27 -26 39t-88 25q-35 8 -54.5 13t-49.5 17.5t-46.5 27.5t-29 40.5t-12.5 58.5q0 66 54.5 110.5t151.5 44.5q96 0 149.5 -44t60.5 -115h-119
q-8 60 -92 60q-42 0 -63 -14.5t-21 -36.5q0 -27 28 -40t86 -24q34 -7 54 -12t50 -17t46.5 -27t29 -41t12.5 -60q0 -70 -56 -116t-158 -46z" />
    <glyph glyph-name="Scedilla" unicode="&#x15e;" horiz-adv-x="639" 
d="M583 204q0 -90 -61.5 -150t-169.5 -67l-11 -39q49 -4 74 -28.5t25 -63.5q0 -45 -32 -71.5t-93 -26.5h-70v67h70q19 0 29.5 9t10.5 23q0 31 -40 31h-42l-11 12l23 88q-107 10 -167.5 73.5t-60.5 160.5h129q0 -54 36 -85.5t103 -31.5q63 0 96 26t33 67q0 24 -11.5 42
t-37.5 30t-46.5 18.5t-59.5 16.5q-41 10 -65.5 18t-59.5 24.5t-55 36.5t-34.5 52.5t-14.5 73.5q0 91 65.5 147.5t182.5 56.5q118 0 182 -59.5t64 -161.5h-127q0 46 -32 74t-91 28q-57 0 -86 -22.5t-29 -58.5q0 -17 8.5 -31t19.5 -23t34 -18t38.5 -13l46.5 -12
q33 -9 47.5 -13t45 -14.5t46.5 -20t38 -26t32.5 -35.5t19 -45.5t8.5 -58.5z" />
    <glyph glyph-name="scedilla" unicode="&#x15f;" horiz-adv-x="529" 
d="M484 148q0 -67 -51 -112.5t-146 -49.5l-9 -31q50 -4 75 -28t25 -63q0 -45 -32 -71.5t-93 -26.5h-71v67h71q39 0 39 31q0 32 -39 32h-42l-11 11l22 82q-83 9 -128 52.5t-49 110.5h121q11 -67 107 -67q90 0 90 58q0 10 -3.5 18t-13.5 14t-16.5 10t-24.5 9t-25.5 6.5
t-30.5 6.5q-35 8 -54.5 13t-49.5 17.5t-46.5 27.5t-29 40.5t-12.5 58.5q0 66 54.5 110.5t151.5 44.5q96 0 149.5 -44t60.5 -115h-119q-8 60 -92 60q-42 0 -63 -14.5t-21 -36.5q0 -20 18 -33t37 -18t59 -13q35 -7 54.5 -12t50 -17.5t46.5 -27t28.5 -40.5t12.5 -60z" />
    <glyph glyph-name="Scaron" unicode="&#x160;" horiz-adv-x="639" 
d="M375 768h-124l-121 147h108l76 -92l75 92h107zM346 417q42 -11 67 -18.5t62 -24.5t57 -37.5t35.5 -55t15.5 -77.5q0 -96 -69 -157t-189 -61q-125 0 -196.5 65t-71.5 171h129q0 -54 36 -85.5t103 -31.5q63 0 96 26t33 67q0 19 -9 35t-21 25.5t-35.5 19t-40.5 14.5t-49 13
q-40 10 -65.5 18t-60 24.5t-54.5 36.5t-34.5 52.5t-14.5 73.5q0 91 65.5 147.5t182.5 56.5q118 0 182 -59.5t64 -161.5h-127q0 46 -32 74t-91 28q-57 0 -86 -22.5t-29 -58.5q0 -40 36.5 -59.5t110.5 -37.5z" />
    <glyph glyph-name="scaron" unicode="&#x161;" horiz-adv-x="529" 
d="M328 567h-128l-116 157h107l73 -100l74 100h107zM292 305q34 -7 54 -12t50 -17t46.5 -27t29 -41t12.5 -60q0 -70 -56 -116t-158 -46q-106 0 -163 45t-62 121h121q11 -67 107 -67q90 0 90 58q0 27 -26 39t-88 25q-35 8 -54.5 13t-49.5 17.5t-46.5 27.5t-29 40.5
t-12.5 58.5q0 66 54.5 110.5t151.5 44.5q96 0 149.5 -44t60.5 -115h-119q-8 60 -92 60q-42 0 -63 -14.5t-21 -36.5q0 -27 28 -40t86 -24z" />
    <glyph glyph-name="uni0162" unicode="&#x162;" horiz-adv-x="599" 
d="M362 0h-28l-12 -45q46 -5 70.5 -29t24.5 -62q0 -45 -31 -71.5t-89 -26.5h-70v67h67q38 0 38 31q0 32 -38 32h-39l-10 11l22 93h-31v581h-201v119h529v-119h-202v-581z" />
    <glyph glyph-name="uni0163" unicode="&#x163;" horiz-adv-x="447" 
d="M318 0q-20 0 -30 1l-13 -46q49 -4 74 -28.5t25 -62.5q0 -45 -31.5 -71.5t-92.5 -26.5h-71v67h71q39 0 39 31q0 32 -39 32h-42l-11 11l28 109q-107 43 -107 186v197h-103v106h106l16 128h101v-128h167v-106h-167v-194q0 -96 95 -96h74v-109h-89z" />
    <glyph glyph-name="Tcaron" unicode="&#x164;" horiz-adv-x="599" 
d="M362 768h-124l-121 147h108l76 -92l75 92h107zM35 700h529v-119h-202v-581h-126v581h-201v119z" />
    <glyph glyph-name="tcaron" unicode="&#x165;" horiz-adv-x="495" 
d="M428 733h116v-94q0 -54 -30.5 -91.5t-81.5 -42.5v55q26 3 40.5 22t14.5 47h-59v104zM238 205q0 -96 95 -96h74v-109h-89q-97 0 -148.5 52t-51.5 150v197h-103v106h106l16 128h101v-128h167v-106h-167v-194z" />
    <glyph glyph-name="Tbar" unicode="&#x166;" horiz-adv-x="599" 
d="M564 581h-202v-185h133v-105h-133v-291h-126v291h-131v105h131v185h-201v119h529v-119z" />
    <glyph glyph-name="tbar" unicode="&#x167;" horiz-adv-x="491" 
d="M427 404h-171v-89h171v-86h-171v-24q0 -96 95 -96h73v-109h-88q-97 0 -148.5 52t-51.5 150v27h-98v86h98v89h-98v101h101l15 128h102v-128h171v-101z" />
    <glyph glyph-name="Utilde" unicode="&#x168;" horiz-adv-x="739" 
d="M450 775q-35 0 -63 16.5t-49 33t-39 16.5q-32 0 -32 -41v-21h-81v25q0 116 103 116q35 0 63 -16.5t48.5 -33t38.5 -16.5q33 0 33 41v20h80v-24q0 -58 -26.5 -87t-75.5 -29zM370 -14q-129 0 -206.5 77.5t-77.5 203.5v433h126v-427q0 -80 42.5 -124t115.5 -44t115 44.5
t42 123.5v427h126v-433q0 -126 -77.5 -203.5t-205.5 -77.5z" />
    <glyph glyph-name="utilde" unicode="&#x169;" horiz-adv-x="640" 
d="M400 575q-35 0 -63 16.5t-49 33t-38 16.5q-31 0 -31 -41v-21h-81v25q0 57 27 86.5t75 29.5q35 0 62.5 -16.5t48.5 -33t38 -16.5q32 0 32 41v20h80v-24q0 -57 -26.5 -86.5t-74.5 -29.5zM442 505h120v-505h-87l-22 65q-65 -79 -176 -79q-94 0 -146.5 57.5t-52.5 162.5v299
h120v-276q0 -134 114 -134q56 0 93 44.5t37 117.5v248z" />
    <glyph glyph-name="Umacron" unicode="&#x16a;" horiz-adv-x="739" 
d="M210 797v94h319v-94h-319zM370 -14q-129 0 -206.5 77.5t-77.5 203.5v433h126v-427q0 -80 42.5 -124t115.5 -44t115 44.5t42 123.5v427h126v-433q0 -126 -77.5 -203.5t-205.5 -77.5z" />
    <glyph glyph-name="umacron" unicode="&#x16b;" horiz-adv-x="640" 
d="M161 597v92h319v-92h-319zM442 505h120v-505h-87l-22 65q-65 -79 -176 -79q-94 0 -146.5 57.5t-52.5 162.5v299h120v-276q0 -134 114 -134q56 0 93 44.5t37 117.5v248z" />
    <glyph glyph-name="Ubreve" unicode="&#x16c;" horiz-adv-x="739" 
d="M369 764q-79 0 -124 40.5t-45 109.5h97v-3q0 -31 19 -48t53 -17t53 17t19 48v3h98q0 -69 -45 -109.5t-125 -40.5zM370 -14q-129 0 -206.5 77.5t-77.5 203.5v433h126v-427q0 -80 42.5 -124t115.5 -44t115 44.5t42 123.5v427h126v-433q0 -126 -77.5 -203.5t-205.5 -77.5z
" />
    <glyph glyph-name="ubreve" unicode="&#x16d;" horiz-adv-x="640" 
d="M321 563q-80 0 -126.5 43.5t-46.5 116.5h97v-3q0 -36 20.5 -56t55.5 -20t55 20t20 56v3h98q0 -73 -46.5 -116.5t-126.5 -43.5zM442 505h120v-505h-87l-22 65q-65 -79 -176 -79q-94 0 -146.5 57.5t-52.5 162.5v299h120v-276q0 -134 114 -134q56 0 93 44.5t37 117.5v248z
" />
    <glyph glyph-name="Uring" unicode="&#x16e;" horiz-adv-x="739" 
d="M370 750q-56 0 -91.5 34t-35.5 86t35.5 86t91.5 34q55 0 91 -34t36 -86q0 -51 -36 -85.5t-91 -34.5zM370 815q25 0 41 15.5t16 39.5t-16 39.5t-41 15.5t-41.5 -16t-16.5 -39t16.5 -39t41.5 -16zM370 -14q-129 0 -206.5 77.5t-77.5 203.5v433h126v-427q0 -80 42.5 -124
t115.5 -44t115 44.5t42 123.5v427h126v-433q0 -126 -77.5 -203.5t-205.5 -77.5z" />
    <glyph glyph-name="uring" unicode="&#x16f;" horiz-adv-x="640" 
d="M320 551q-53 0 -87 32.5t-34 82.5t34 82t87 32q52 0 86 -32t34 -82t-34 -82.5t-86 -32.5zM320 613q23 0 38.5 15t15.5 38q0 22 -15.5 37t-38.5 15q-24 0 -39.5 -15t-15.5 -37q0 -23 15.5 -38t39.5 -15zM442 505h120v-505h-87l-22 65q-65 -79 -176 -79q-94 0 -146.5 57.5
t-52.5 162.5v299h120v-276q0 -134 114 -134q56 0 93 44.5t37 117.5v248z" />
    <glyph glyph-name="Uhungarumlaut" unicode="&#x170;" horiz-adv-x="739" 
d="M226 768l69 147h118l-95 -147h-92zM409 768l73 147h119l-99 -147h-93zM370 -14q-129 0 -206.5 77.5t-77.5 203.5v433h126v-427q0 -80 42.5 -124t115.5 -44t115 44.5t42 123.5v427h126v-433q0 -126 -77.5 -203.5t-205.5 -77.5z" />
    <glyph glyph-name="uhungarumlaut" unicode="&#x171;" horiz-adv-x="640" 
d="M174 567l64 157h114l-89 -157h-89zM365 567l67 157h116l-93 -157h-90zM442 505h120v-505h-87l-22 65q-65 -79 -176 -79q-94 0 -146.5 57.5t-52.5 162.5v299h120v-276q0 -134 114 -134q56 0 93 44.5t37 117.5v248z" />
    <glyph glyph-name="Uogonek" unicode="&#x172;" horiz-adv-x="739" 
d="M527 700h126v-431q0 -156 -120 -239q-131 -92 -131 -150q0 -36 51 -36h37v-72q-20 -6 -56 -6q-65 0 -96.5 23.5t-31.5 63.5q0 62 77 133h-14q-128 0 -205.5 77.5t-77.5 203.5v433h126v-427q0 -80 42.5 -124t115.5 -44t115 44.5t42 123.5v427z" />
    <glyph glyph-name="uogonek" unicode="&#x173;" horiz-adv-x="640" 
d="M562 0q-49 -37 -75 -65.5t-26 -54.5q0 -36 51 -36h36v-72q-18 -6 -55 -6q-65 0 -96.5 23.5t-31.5 63.5q0 68 107 156l-19 57q-65 -80 -176 -80q-94 0 -146.5 57.5t-52.5 162.5v299h120v-276q0 -134 114 -134q56 0 93 44.5t37 117.5v248h120v-505z" />
    <glyph glyph-name="Wcircumflex" unicode="&#x174;" horiz-adv-x="1038" 
d="M518 860l-76 -92h-107l120 147h124l122 -147h-108zM888 700h131l-215 -700h-119l-167 507l-165 -507h-119l-216 700h134l148 -492l160 492h116l163 -492z" />
    <glyph glyph-name="wcircumflex" unicode="&#x175;" horiz-adv-x="835" 
d="M417 666l-73 -99h-107l116 157h128l117 -157h-107zM701 505h120l-169 -505h-108l-127 347l-127 -347h-109l-167 505h123l106 -329l120 329h108l122 -330z" />
    <glyph glyph-name="Ycircumflex" unicode="&#x176;" horiz-adv-x="668" 
d="M334 860l-76 -92h-107l120 147h124l122 -147h-108zM506 700h143l-252 -419v-281h-126v281l-251 419h142l172 -294z" />
    <glyph glyph-name="ycircumflex" unicode="&#x177;" horiz-adv-x="580" 
d="M297 666l-73 -99h-107l116 157h128l117 -157h-107zM444 505h129l-224 -508q-46 -105 -100.5 -147.5t-146.5 -42.5h-47v109h44q53 0 78.5 20.5t52.5 85.5l3 7l-216 476h132l150 -338z" />
    <glyph glyph-name="Ydieresis" unicode="&#x178;" horiz-adv-x="668" 
d="M154 775v122h133v-122h-133zM381 775v122h133v-122h-133zM649 700l-252 -419v-281h-126v281l-251 419h142l172 -294l172 294h143z" />
    <glyph glyph-name="Zacute" unicode="&#x179;" horiz-adv-x="577" 
d="M241 768l69 147h134l-108 -147h-95zM192 115h357v-115h-514v99l341 486h-324v115h480v-99z" />
    <glyph glyph-name="zacute" unicode="&#x17a;" horiz-adv-x="510" 
d="M399 724l-101 -157h-95l65 157h131zM201 106h269v-106h-425v91l258 308h-248v106h404v-92z" />
    <glyph glyph-name="Zdotaccent" unicode="&#x17b;" horiz-adv-x="577" 
d="M229 775v122h131v-122h-131zM192 115h357v-115h-514v99l341 486h-324v115h480v-99z" />
    <glyph glyph-name="zdotaccent" unicode="&#x17c;" horiz-adv-x="510" 
d="M196 583v123h126v-123h-126zM201 106h269v-106h-425v91l257 308h-247v106h404v-92z" />
    <glyph glyph-name="Zcaron" unicode="&#x17d;" horiz-adv-x="577" 
d="M356 768h-124l-121 147h108l76 -92l75 92h107zM192 115h357v-115h-514v99l341 486h-324v115h480v-99z" />
    <glyph glyph-name="zcaron" unicode="&#x17e;" horiz-adv-x="510" 
d="M323 567h-128l-116 157h107l73 -100l74 100h107zM201 106h269v-106h-425v91l257 308h-247v106h404v-92z" />
    <glyph glyph-name="longs" unicode="&#x17f;" horiz-adv-x="295" 
d="M78 0v559q0 174 172 174h89v-105h-68q-38 0 -55.5 -17.5t-17.5 -57.5v-553h-120z" />
    <glyph glyph-name="florin" unicode="&#x192;" horiz-adv-x="481" 
d="M382 625q-65 0 -74 -62l-10 -75h138l-16 -108h-137l-56 -395q-26 -178 -202 -178h-59l15 110h33q42 0 64.5 18t27.5 57l54 388h-100l16 108h99l13 90q21 155 178 155h104l-13 -108h-75z" />
    <glyph glyph-name="AEacute" unicode="&#x1fc;" horiz-adv-x="926" 
d="M471 768l69 147h134l-108 -147h-95zM573 117h288v-117h-415v140h-237l-82 -140h-144l413 700h454v-117h-277v-170h251v-115h-251v-181zM271 252h175v299z" />
    <glyph glyph-name="aeacute" unicode="&#x1fd;" horiz-adv-x="971" 
d="M625 724l-101 -157h-95l65 157h131zM924 253q0 -25 -3 -45h-391q10 -58 47 -89t92 -31q84 0 119 63h125q-30 -76 -93 -120.5t-147 -44.5q-136 0 -208 105q-30 -46 -85.5 -75.5t-130.5 -29.5q-92 0 -144 43.5t-52 113.5q0 69 50 110.5t142 41.5h160v11q0 54 -27.5 82.5
t-78.5 28.5q-88 0 -105 -66h-124q14 77 74 122.5t152 45.5q122 0 184 -86q72 86 188 86q110 0 183 -75t73 -191zM665 417q-51 0 -88 -32.5t-47 -89.5h272q-11 58 -46 90t-91 32zM268 88q63 0 100 32.5t37 83.5v4h-148q-81 0 -81 -57q0 -63 92 -63z" />
    <glyph glyph-name="Oslashacute" unicode="&#x1fe;" horiz-adv-x="852" 
d="M371 768l69 147h134l-108 -147h-95zM664 634q62 -50 97.5 -123.5t35.5 -160.5q0 -156 -105.5 -260t-264.5 -104q-74 0 -141 25l-44 -73h-131l77 128q-62 50 -97 123.5t-35 160.5q0 156 105 260t266 104q73 0 139 -25l44 73h131zM427 598q-106 0 -175.5 -70t-69.5 -178
q0 -111 74 -182l252 417q-41 13 -81 13zM427 102q105 0 174.5 70t69.5 178q0 111 -74 182l-253 -417q42 -13 83 -13z" />
    <glyph glyph-name="oslashacute" unicode="&#x1ff;" horiz-adv-x="651" 
d="M463 724l-101 -157h-95l65 157h131zM496 467q51 -36 79.5 -92.5t28.5 -122.5q0 -113 -79 -189.5t-200 -76.5q-47 0 -87 12l-32 -59h-107l55 100q-50 36 -78.5 91.5t-28.5 121.5q0 114 78.5 190.5t199.5 76.5q46 0 88 -12l32 59h106zM325 415q-71 0 -116.5 -46t-45.5 -117
q0 -73 48 -119l152 278q-16 4 -38 4zM325 90q71 0 117 45.5t46 116.5q0 73 -48 119l-153 -277q16 -4 38 -4z" />
    <glyph glyph-name="uni0218" unicode="&#x218;" horiz-adv-x="639" 
d="M346 417q42 -11 67 -18.5t62 -24.5t57 -37.5t35.5 -55t15.5 -77.5q0 -96 -69 -157t-189 -61q-125 0 -196.5 65t-71.5 171h129q0 -54 36 -85.5t103 -31.5q63 0 96 26t33 67q0 19 -9 35t-21 25.5t-35.5 19t-40.5 14.5t-49 13q-40 10 -65.5 18t-60 24.5t-54.5 36.5
t-34.5 52.5t-14.5 73.5q0 91 65.5 147.5t182.5 56.5q118 0 182 -59.5t64 -161.5h-127q0 46 -32 74t-91 28q-57 0 -86 -22.5t-29 -58.5q0 -40 36.5 -59.5t110.5 -37.5zM275 -158v104h116v-94q0 -53 -31 -91t-81 -43v55q26 3 40.5 22t14.5 47h-59z" />
    <glyph glyph-name="uni0219" unicode="&#x219;" horiz-adv-x="529" 
d="M292 305q34 -7 54 -12t50 -17t46.5 -27t29 -41t12.5 -60q0 -70 -56 -116t-158 -46q-106 0 -163 45t-62 121h121q11 -67 107 -67q90 0 90 58q0 27 -26 39t-88 25q-35 8 -54.5 13t-49.5 17.5t-46.5 27.5t-29 40.5t-12.5 58.5q0 66 54.5 110.5t151.5 44.5q96 0 149.5 -44
t60.5 -115h-119q-8 60 -92 60q-42 0 -63 -14.5t-21 -36.5q0 -27 28 -40t86 -24zM213 -158v104h116v-94q0 -53 -31 -91t-81 -43v55q26 3 40.5 22t14.5 47h-59z" />
    <glyph glyph-name="uni021A" unicode="&#x21a;" horiz-adv-x="599" 
d="M35 700h529v-119h-202v-581h-126v581h-201v119zM242 -158v104h116v-94q0 -53 -31 -91t-81 -43v55q26 3 40.5 22t14.5 47h-59z" />
    <glyph glyph-name="uni021B" unicode="&#x21b;" horiz-adv-x="447" 
d="M333 109h74v-109h-89q-97 0 -148.5 52t-51.5 150v197h-103v106h106l16 128h101v-128h167v-106h-167v-194q0 -96 95 -96zM210 -158v104h116v-94q0 -53 -31 -91t-81 -43v55q26 3 40.5 22t14.5 47h-59z" />
    <glyph glyph-name="circumflex" unicode="&#x2c6;" horiz-adv-x="600" 
d="M498 567h-107l-74 99l-73 -99h-107l116 157h128z" />
    <glyph glyph-name="caron" unicode="&#x2c7;" horiz-adv-x="600" 
d="M361 724h107l-117 -157h-128l-116 157h107l73 -100z" />
    <glyph glyph-name="breve" unicode="&#x2d8;" horiz-adv-x="600" 
d="M271 563q-80 0 -126.5 43.5t-46.5 116.5h97v-3q0 -36 20.5 -56t55.5 -20t55 20t20 56v3h98q0 -73 -46.5 -116.5t-126.5 -43.5z" />
    <glyph glyph-name="dotaccent" unicode="&#x2d9;" horiz-adv-x="329" 
d="M102 583v123h126v-123h-126z" />
    <glyph glyph-name="ring" unicode="&#x2da;" horiz-adv-x="410" 
d="M204 551q-53 0 -87 32.5t-34 82.5t34 82t87 32q52 0 86 -32t34 -82t-34 -82.5t-86 -32.5zM204 613q23 0 38.5 15t15.5 38q0 22 -15.5 37t-38.5 15q-24 0 -39.5 -15t-15.5 -37q0 -23 15.5 -38t39.5 -15z" />
    <glyph glyph-name="ogonek" unicode="&#x2db;" horiz-adv-x="433" 
d="M245 -234q-65 0 -96.5 23.5t-31.5 63.5q0 34 26 71.5t54 61.5t71 56l46 -42q-32 -25 -50 -41t-34.5 -38.5t-16.5 -40.5q0 -36 51 -36h37v-72q-19 -6 -56 -6z" />
    <glyph glyph-name="tilde" unicode="&#x2dc;" horiz-adv-x="600" 
d="M378 575q-35 0 -63 16.5t-49 33t-38 16.5q-31 0 -31 -41v-21h-81v25q0 57 27 86.5t75 29.5q35 0 62.5 -16.5t48.5 -33t38 -16.5q32 0 32 41v20h80v-24q0 -57 -26.5 -86.5t-74.5 -29.5z" />
    <glyph glyph-name="hungarumlaut" unicode="&#x2dd;" horiz-adv-x="579" 
d="M93 567l64 157h114l-89 -157h-89zM284 567l67 157h116l-93 -157h-90z" />
    <glyph glyph-name="gravecomb" unicode="&#x300;" 
d="M-181 567l-101 157h132l64 -157h-95z" />
    <glyph glyph-name="acutecomb" unicode="&#x301;" 
d="M-291 567l65 157h131l-101 -157h-95z" />
    <glyph glyph-name="uni0302" unicode="&#x302;" 
d="M-134 567h-107l-74 99l-73 -99h-107l116 157h128z" />
    <glyph glyph-name="tildecomb" unicode="&#x303;" 
d="M-222 575q-35 0 -63 16.5t-49 33t-38 16.5q-31 0 -31 -41v-21h-81v25q0 57 27 86.5t75 29.5q35 0 62.5 -16.5t48.5 -33t38 -16.5q32 0 32 41v20h80v-24q0 -57 -26.5 -86.5t-74.5 -29.5z" />
    <glyph glyph-name="uni0304" unicode="&#x304;" 
d="M-412 597v92h319v-92h-319z" />
    <glyph glyph-name="uni0306" unicode="&#x306;" 
d="M-268 563q-80 0 -126.5 43.5t-46.5 116.5h97v-3q0 -36 20.5 -56t55.5 -20t55 20t20 56v3h98q0 -73 -46.5 -116.5t-126.5 -43.5z" />
    <glyph glyph-name="uni0307" unicode="&#x307;" 
d="M-227 583v123h126v-123h-126z" />
    <glyph glyph-name="uni0308" unicode="&#x308;" 
d="M-446 583v123h133v-123h-133zM-228 583v123h133v-123h-133z" />
    <glyph glyph-name="uni030A" unicode="&#x30a;" 
d="M-206 551q-53 0 -87 32.5t-34 82.5t34 82t87 32q52 0 86 -32t34 -82t-34 -82.5t-86 -32.5zM-206 613q23 0 38.5 15t15.5 38q0 22 -15.5 37t-38.5 15q-24 0 -39.5 -15t-15.5 -37q0 -23 15.5 -38t39.5 -15z" />
    <glyph glyph-name="uni030B" unicode="&#x30b;" 
d="M-522 567l64 157h114l-89 -157h-89zM-331 567l67 157h116l-93 -157h-90z" />
    <glyph glyph-name="uni030C" unicode="&#x30c;" 
d="M-239 724h107l-117 -157h-128l-116 157h107l73 -100z" />
    <glyph glyph-name="uni0312" unicode="&#x312;" 
d="M-324 690h58v-104h-116v94q0 55 31 92t82 42v-55q-26 -3 -40.5 -22t-14.5 -47z" />
    <glyph glyph-name="uni0326" unicode="&#x326;" 
d="M-150 -54h116v-94q0 -53 -31 -91t-81 -43v55q26 3 40.5 22t14.5 47h-59v104z" />
    <glyph glyph-name="uni0327" unicode="&#x327;" 
d="M-192 -45q49 -4 74 -28.5t25 -62.5q0 -45 -32 -71.5t-93 -26.5h-70v67h70q39 0 39 31q0 32 -39 32h-42l-11 11l36 136h67z" />
    <glyph glyph-name="uni0328" unicode="&#x328;" 
d="M-188 -234q-65 0 -96.5 23.5t-31.5 63.5q0 34 26 71.5t54 61.5t71 56l46 -42q-32 -25 -50 -41t-34.5 -38.5t-16.5 -40.5q0 -36 51 -36h37v-72q-19 -6 -56 -6z" />
    <glyph glyph-name="uni0335" unicode="&#x335;" 
d="M-501 604v79h383v-79h-383z" />
    <glyph glyph-name="uni0337" unicode="&#x337;" 
d="M-407 226v116l302 162v-115z" />
    <glyph glyph-name="uni0338" unicode="&#x338;" 
d="M-531 -59l75 133l27 49l199 356l19 33l50 91h115l-62 -109l-22 -40l-286 -513h-115z" />
    <glyph glyph-name="tonos" unicode="&#x384;" horiz-adv-x="391" 
d="M100 566l64 160h131l-101 -160h-94z" />
    <glyph glyph-name="dieresistonos" unicode="&#x385;" horiz-adv-x="475" 
d="M158 566l41 160h117l-66 -160h-92zM32 597v97h99v-97h-99zM339 597v97h99v-97h-99z" />
    <glyph glyph-name="Alphatonos" unicode="&#x386;" horiz-adv-x="717" 
d="M14 551l75 149h132l-113 -149h-94zM565 0l-58 144h-300l-57 -144h-135l281 700h124l282 -700h-137zM357 539l-109 -281h218z" />
    <glyph glyph-name="Epsilontonos" unicode="&#x388;" horiz-adv-x="578" 
d="M-151 551l75 149h132l-113 -149h-94zM216 117h296v-117h-422v700h411v-117h-285v-170h259v-115h-259v-181z" />
    <glyph glyph-name="Etatonos" unicode="&#x389;" horiz-adv-x="736" 
d="M-151 551l75 149h132l-113 -149h-94zM519 700h127v-700h-127v301h-303v-301h-126v700h126v-281h303v281z" />
    <glyph glyph-name="Iotatonos" unicode="&#x38a;" horiz-adv-x="307" 
d="M-152 551l75 149h132l-113 -149h-94zM90 0v700h126v-700h-126z" />
    <glyph glyph-name="Omicrontonos" unicode="&#x38c;" horiz-adv-x="852" 
d="M427 -14q-161 0 -266 104t-105 260t105 260t266 104q159 0 264.5 -104t105.5 -260t-105.5 -260t-264.5 -104zM-63 551l75 149h132l-113 -149h-94zM427 105q103 0 172 70t69 175t-69 175t-172 70q-104 0 -173.5 -69.5t-69.5 -175.5t69.5 -175.5t173.5 -69.5z" />
    <glyph glyph-name="Upsilontonos" unicode="&#x38e;" horiz-adv-x="668" 
d="M-196 551l75 149h132l-113 -149h-94zM649 700l-252 -419v-281h-126v281l-251 419h142l172 -294l172 294h143z" />
    <glyph glyph-name="Omegatonos" unicode="&#x38f;" horiz-adv-x="853" 
d="M681 117h121v-117h-319v113q84 30 134 97t50 152q0 100 -68 166.5t-172 66.5t-172 -66.5t-68 -166.5q0 -85 49.5 -152t133.5 -97v-113h-319v117h122q-114 106 -114 257q0 143 104 241.5t264 98.5t264 -98.5t104 -241.5q0 -151 -114 -257zM8 700h132l-113 -149h-94z" />
    <glyph glyph-name="iotadieresistonos" unicode="&#x390;" horiz-adv-x="371" 
d="M91 566l33 160h109l-64 -160h-78zM-35 597v97h100v-97h-100zM253 597v97h99v-97h-99zM273 0q-96 0 -148 51t-52 143v311h120v-304q0 -92 96 -92h53v-109h-69z" />
    <glyph glyph-name="Alpha" unicode="&#x391;" horiz-adv-x="717" 
d="M565 0l-58 144h-300l-57 -144h-135l281 700h124l282 -700h-137zM357 539l-109 -281h218z" />
    <glyph glyph-name="Beta" unicode="&#x392;" horiz-adv-x="652" 
d="M496 364q49 -22 76 -65t27 -101q0 -86 -62 -142t-166 -56h-281v700h278q100 0 156.5 -51t56.5 -133q0 -47 -22.5 -87.5t-62.5 -64.5zM453 501q0 39 -25.5 62.5t-70.5 23.5h-141v-173h141q45 0 70.5 23.5t25.5 63.5zM364 113q51 0 79 26t28 70t-28 70t-79 26h-148v-192
h148z" />
    <glyph glyph-name="Gamma" unicode="&#x393;" horiz-adv-x="517" 
d="M480 700v-119h-264v-581h-126v700h390z" />
    <glyph glyph-name="uni0394" unicode="&#x394;" horiz-adv-x="722" 
d="M418 700l289 -700h-692l283 700h120zM357 526l-158 -410h317z" />
    <glyph glyph-name="Epsilon" unicode="&#x395;" horiz-adv-x="578" 
d="M216 117h296v-117h-422v700h411v-117h-285v-170h259v-115h-259v-181z" />
    <glyph glyph-name="Zeta" unicode="&#x396;" horiz-adv-x="577" 
d="M192 115h357v-115h-514v99l341 486h-324v115h480v-99z" />
    <glyph glyph-name="Eta" unicode="&#x397;" horiz-adv-x="736" 
d="M519 700h127v-700h-127v301h-303v-301h-126v700h126v-281h303v281z" />
    <glyph glyph-name="Theta" unicode="&#x398;" horiz-adv-x="852" 
d="M427 -14q-161 0 -266 104t-105 260t105 260t266 104q159 0 264.5 -104t105.5 -260t-105.5 -260t-264.5 -104zM427 104q105 0 173.5 69t68.5 177t-68.5 177t-173.5 69q-106 0 -175 -69t-69 -177t69 -177t175 -69zM267 295v113h317v-113h-317z" />
    <glyph glyph-name="Iota" unicode="&#x399;" horiz-adv-x="307" 
d="M90 0v700h126v-700h-126z" />
    <glyph glyph-name="Kappa" unicode="&#x39a;" horiz-adv-x="666" 
d="M502 0l-207 301h-79v-301h-126v700h126v-281h81l188 281h149l-232 -338l253 -362h-153z" />
    <glyph glyph-name="Lambda" unicode="&#x39b;" horiz-adv-x="686" 
d="M671 0h-136l-192 516l-193 -516h-135l268 700h121z" />
    <glyph glyph-name="Mu" unicode="&#x39c;" horiz-adv-x="986" 
d="M938 0h-129l-76 488l-205 -458h-70l-205 457l-76 -487h-128l112 700h128l204 -466l204 466h130z" />
    <glyph glyph-name="Nu" unicode="&#x39d;" horiz-adv-x="760" 
d="M544 700h126v-700h-116l-338 474v-474h-126v700h116l338 -474v474z" />
    <glyph glyph-name="Xi" unicode="&#x39e;" horiz-adv-x="585" 
d="M63 582v118h459v-118h-459zM102 299v116h381v-116h-381zM55 0v118h474v-118h-474z" />
    <glyph glyph-name="Omicron" unicode="&#x39f;" horiz-adv-x="852" 
d="M427 -14q-161 0 -266 104t-105 260t105 260t266 104q159 0 264.5 -104t105.5 -260t-105.5 -260t-264.5 -104zM427 105q103 0 172 70t69 175t-69 175t-172 70q-104 0 -173.5 -69.5t-69.5 -175.5t69.5 -175.5t173.5 -69.5z" />
    <glyph glyph-name="Pi" unicode="&#x3a0;" horiz-adv-x="729" 
d="M90 700h549v-700h-127v581h-296v-581h-126v700z" />
    <glyph glyph-name="Rho" unicode="&#x3a1;" horiz-adv-x="636" 
d="M350 700q107 0 175.5 -66.5t68.5 -168.5q0 -101 -68.5 -167.5t-175.5 -66.5h-134v-231h-126v700h260zM339 347q59 0 93 32.5t34 85.5q0 54 -34 86t-93 32h-123v-236h123z" />
    <glyph glyph-name="Sigma" unicode="&#x3a3;" horiz-adv-x="561" 
d="M200 116h321v-116h-487v99l208 256l-199 246v99h468v-116h-302l179 -223v-13z" />
    <glyph glyph-name="Tau" unicode="&#x3a4;" horiz-adv-x="599" 
d="M564 700v-119h-202v-581h-126v581h-201v119h529z" />
    <glyph glyph-name="Upsilon" unicode="&#x3a5;" horiz-adv-x="668" 
d="M649 700l-252 -419v-281h-126v281l-251 419h142l172 -294l172 294h143z" />
    <glyph glyph-name="Phi" unicode="&#x3a6;" horiz-adv-x="925" 
d="M869 350q0 -152 -96 -253t-247 -108v-97h-127v97q-151 7 -247 108t-96 253t96 253t247 108v91h127v-91q151 -7 247 -108t96 -253zM183 350q0 -106 59 -172t158 -73v490q-99 -7 -158 -73t-59 -172zM525 105q99 7 158 73t59 172t-59 172t-158 73v-490z" />
    <glyph glyph-name="Chi" unicode="&#x3a7;" horiz-adv-x="637" 
d="M621 0h-144l-161 270l-160 -270h-141l224 366l-206 334h144l144 -241l142 241h140l-204 -337z" />
    <glyph glyph-name="Psi" unicode="&#x3a8;" horiz-adv-x="843" 
d="M650 700h126v-252q0 -124 -79.5 -201.5t-209.5 -77.5h-2v-169h-127v169h-2q-130 0 -209.5 77.5t-79.5 201.5v252h126v-251q0 -75 43.5 -118.5t117.5 -43.5h4v413h127v-413h4q75 0 118 43t43 119v251z" />
    <glyph glyph-name="uni03A9" unicode="&#x3a9;" horiz-adv-x="853" 
d="M681 117h121v-117h-319v113q84 30 134 97t50 152q0 100 -68 166.5t-172 66.5t-172 -66.5t-68 -166.5q0 -85 49.5 -152t133.5 -97v-113h-319v117h122q-114 106 -114 257q0 143 104 241.5t264 98.5t264 -98.5t104 -241.5q0 -151 -114 -257z" />
    <glyph glyph-name="Iotadieresis" unicode="&#x3aa;" horiz-adv-x="307" 
d="M8 775v122h120v-122h-120zM179 775v122h121v-122h-121zM90 0v700h126v-700h-126z" />
    <glyph glyph-name="Upsilondieresis" unicode="&#x3ab;" horiz-adv-x="668" 
d="M154 775v122h133v-122h-133zM381 775v122h133v-122h-133zM649 700l-252 -419v-281h-126v281l-251 419h142l172 -294l172 294h143z" />
    <glyph glyph-name="alphatonos" unicode="&#x3ac;" horiz-adv-x="677" 
d="M463 726l-101 -160h-94l64 160h131zM512 505h87v-505h-87l-18 59q-75 -73 -186 -73q-113 0 -187 75t-74 191q0 117 74 192t187 75q111 0 186 -73zM326 94q70 0 114.5 44.5t44.5 113.5q0 70 -44.5 114.5t-114.5 44.5t-114.5 -44.5t-44.5 -114.5q0 -69 44.5 -113.5
t114.5 -44.5z" />
    <glyph glyph-name="epsilontonos" unicode="&#x3ad;" horiz-adv-x="520" 
d="M401 726l-101 -160h-94l64 160h131zM373 158h120q-8 -80 -64.5 -126t-160.5 -46q-103 0 -160.5 43.5t-57.5 112.5q0 89 80 124q-62 33 -62 105q0 63 54.5 105.5t145.5 42.5q93 0 149 -44t61 -116h-116q-4 27 -27 43t-61 16q-41 0 -63.5 -15t-22.5 -41q0 -55 82 -55h60
v-89h-65q-94 0 -94 -63q0 -32 25.5 -50t73.5 -18q90 0 103 71z" />
    <glyph glyph-name="etatonos" unicode="&#x3ae;" horiz-adv-x="639" 
d="M479 726l-101 -160h-94l64 160h131zM365 519q92 0 147 -59.5t55 -164.5v-488h-120v464q0 69 -30 103.5t-85 34.5q-59 0 -96.5 -43.5t-37.5 -115.5v-250h-120v505h87l22 -65q63 79 178 79z" />
    <glyph glyph-name="iotatonos" unicode="&#x3af;" horiz-adv-x="371" 
d="M82 566l64 160h131l-101 -160h-94zM273 0q-96 0 -148 51t-52 143v311h120v-304q0 -92 96 -92h53v-109h-69z" />
    <glyph glyph-name="upsilondieresistonos" unicode="&#x3b0;" horiz-adv-x="640" 
d="M247 566l41 160h117l-66 -160h-92zM121 597v97h99v-97h-99zM428 597v97h99v-97h-99zM442 505h120v-505h-87l-22 65q-65 -79 -176 -79q-94 0 -146.5 57.5t-52.5 162.5v299h120v-276q0 -134 114 -134q56 0 93 44.5t37 117.5v248z" />
    <glyph glyph-name="alpha" unicode="&#x3b1;" horiz-adv-x="677" 
d="M512 505h87v-505h-87l-18 59q-75 -73 -186 -73q-113 0 -187 75t-74 191q0 117 74 192t187 75q111 0 186 -73zM326 94q70 0 114.5 44.5t44.5 113.5q0 70 -44.5 114.5t-114.5 44.5t-114.5 -44.5t-44.5 -114.5q0 -69 44.5 -113.5t114.5 -44.5z" />
    <glyph glyph-name="beta" unicode="&#x3b2;" horiz-adv-x="639" 
d="M482 386q108 -52 108 -181q0 -98 -66 -158.5t-183 -60.5q-76 0 -143 26v-205h-120v664q0 132 68 204t186 72q105 0 168 -57.5t63 -145.5q0 -106 -81 -158zM330 92q69 0 104.5 32t35.5 88q0 53 -36 83.5t-106 30.5h-62v106h60q57 0 87 28t30 76q0 47 -30.5 76t-81.5 29
q-63 0 -98 -40.5t-35 -121.5v-356q55 -31 132 -31z" />
    <glyph glyph-name="gamma" unicode="&#x3b3;" horiz-adv-x="573" 
d="M564 505l-215 -498v-200h-120v200l-221 498h131l150 -355l148 355h127z" />
    <glyph glyph-name="delta" unicode="&#x3b4;" horiz-adv-x="633" 
d="M288 633q131 -58 216 -164.5t85 -219.5q0 -115 -75.5 -189t-195.5 -74q-121 0 -196 72t-75 181q0 107 71.5 176t183.5 69q21 0 39 -3q-102 97 -262 145v107h464v-109h-120zM318 94q68 0 109.5 40.5t41.5 104.5t-41.5 104.5t-109.5 40.5t-109.5 -40.5t-41.5 -104.5
t41.5 -104.5t109.5 -40.5z" />
    <glyph glyph-name="epsilon" unicode="&#x3b5;" horiz-adv-x="520" 
d="M373 158h120q-8 -80 -64.5 -126t-160.5 -46q-103 0 -160.5 43.5t-57.5 112.5q0 89 80 124q-62 33 -62 105q0 63 54.5 105.5t145.5 42.5q93 0 149 -44t61 -116h-116q-4 27 -27 43t-61 16q-41 0 -63.5 -15t-22.5 -41q0 -55 82 -55h60v-89h-65q-94 0 -94 -63q0 -32 25.5 -50
t73.5 -18q90 0 103 71z" />
    <glyph glyph-name="zeta" unicode="&#x3b6;" horiz-adv-x="515" 
d="M515 643q-177 -105 -265 -207t-88 -193q0 -60 37.5 -91.5t113.5 -59.5q33 -13 54.5 -22t49 -26t44 -35t28 -45t11.5 -59q0 -49 -17 -98h-116q13 39 13 72q0 24 -10 43t-33 33.5t-41.5 23.5t-53.5 22q-31 11 -49 19t-45 22.5t-43 30.5t-32 38.5t-23.5 53t-7.5 67.5
q0 98 71 201.5t198 190.5h-241v109h445v-90z" />
    <glyph glyph-name="eta" unicode="&#x3b7;" horiz-adv-x="639" 
d="M365 519q92 0 147 -59.5t55 -164.5v-488h-120v464q0 69 -30 103.5t-85 34.5q-59 0 -96.5 -43.5t-37.5 -115.5v-250h-120v505h87l22 -65q63 79 178 79z" />
    <glyph glyph-name="theta" unicode="&#x3b8;" horiz-adv-x="703" 
d="M351 747q131 0 217 -101t86 -279t-86 -279.5t-217 -101.5q-130 0 -216 101.5t-86 279.5t86 279t216 101zM351 638q-75 0 -123.5 -56.5t-57.5 -171.5h363q-9 115 -58 171.5t-124 56.5zM351 95q72 0 120 51.5t60 157.5h-359q11 -106 59.5 -157.5t119.5 -51.5z" />
    <glyph glyph-name="iota" unicode="&#x3b9;" horiz-adv-x="371" 
d="M273 0q-96 0 -148 51t-52 143v311h120v-304q0 -92 96 -92h53v-109h-69z" />
    <glyph glyph-name="kappa" unicode="&#x3ba;" horiz-adv-x="574" 
d="M412 0l-146 203h-68v-203h-120v505h120v-193h64l137 193h141l-173 -242l192 -263h-147z" />
    <glyph glyph-name="lambda" unicode="&#x3bb;" horiz-adv-x="581" 
d="M565 0h-129l-141 352l-156 -352h-129l222 496l-18 45q-21 49 -42.5 66t-60.5 17h-27v109h42q80 0 122.5 -32t79.5 -124z" />
    <glyph glyph-name="uni03BC" unicode="&#x3bc;" horiz-adv-x="642" 
d="M444 505h120v-505h-87l-20 61q-57 -75 -148 -75q-67 0 -111 31v-210h-120v698h120v-267q0 -143 120 -143q54 0 90 44t36 118v248z" />
    <glyph glyph-name="nu" unicode="&#x3bd;" horiz-adv-x="572" 
d="M437 505h127l-216 -505h-118l-222 505h131l150 -356z" />
    <glyph glyph-name="xi" unicode="&#x3be;" horiz-adv-x="541" 
d="M319 89q47 -18 72.5 -30.5t57 -34.5t46 -51t14.5 -68q0 -55 -16 -98h-116q12 36 12 69q0 25 -11 44t-31 32t-43 23.5t-51 20.5q-8 3 -12 4q-43 16 -73 32t-61.5 41t-47.5 60.5t-16 81.5q0 57 28 103t77 70q-40 24 -62.5 64.5t-22.5 90.5q0 88 64.5 146t171.5 58
q102 0 166.5 -55.5t70.5 -144.5h-119q-8 41 -39.5 66t-78.5 25q-54 0 -85 -28t-31 -73t31 -72.5t88 -27.5h73v-104h-77q-65 0 -99.5 -29.5t-34.5 -78.5q0 -19 4.5 -34.5t17.5 -28.5t22.5 -21.5t33.5 -19.5t35 -15.5t42 -16.5z" />
    <glyph glyph-name="omicron" unicode="&#x3bf;" horiz-adv-x="651" 
d="M325 -14q-121 0 -199.5 76.5t-78.5 189.5q0 114 78.5 190.5t199.5 76.5t200 -76.5t79 -190.5q0 -113 -79 -189.5t-200 -76.5zM325 94q69 0 114 45t45 113q0 69 -45 114t-114 45q-68 0 -113 -45t-45 -114q0 -68 45 -113t113 -45z" />
    <glyph glyph-name="pi" unicode="&#x3c0;" horiz-adv-x="633" 
d="M78 505h477v-505h-120v396h-237v-396h-120v505z" />
    <glyph glyph-name="rho" unicode="&#x3c1;" horiz-adv-x="680" 
d="M352 518q120 0 200 -77t80 -189t-78 -188.5t-195 -76.5q-102 0 -169 58v-238h-120v427q0 127 78.5 205.5t203.5 78.5zM351 95q72 0 116.5 44t44.5 113t-44.5 113.5t-116.5 44.5q-71 0 -116 -44.5t-45 -113.5t45 -113t116 -44z" />
    <glyph glyph-name="uni03C2" unicode="&#x3c2;" horiz-adv-x="619" 
d="M47 267q0 109 75.5 180.5t194.5 71.5q104 0 175 -56.5t90 -150.5h-119q-36 98 -151 98q-65 0 -105 -39t-40 -102q0 -65 40.5 -100.5t121.5 -65.5q8 -3 31 -11.5t32 -12t29.5 -12t30 -14t26 -15.5t24.5 -18.5t19 -21t15.5 -25t8.5 -29t4 -34.5q0 -53 -16 -103h-115
q11 37 11 72q0 16 -4 29.5t-15 25t-19 19t-29 17.5t-30 14t-37 14t-37 14q-29 11 -50 21t-47.5 25.5t-45 34.5t-35 44t-25 58t-8.5 72z" />
    <glyph glyph-name="sigma" unicode="&#x3c3;" horiz-adv-x="689" 
d="M661 397h-71l-59 3q71 -65 71 -165q0 -104 -78 -176.5t-200 -72.5q-120 0 -198.5 75t-78.5 184q0 111 80 185.5t208 74.5h326v-108zM324 94q70 0 114 43t44 108q0 66 -44 109t-114 43q-69 0 -113 -43t-44 -109q0 -65 44 -108t113 -43z" />
    <glyph glyph-name="tau" unicode="&#x3c4;" horiz-adv-x="488" 
d="M445 397h-155v-196q0 -92 95 -92h54v-109h-69q-96 0 -148 51t-52 143v203h-153v108h428v-108z" />
    <glyph glyph-name="upsilon" unicode="&#x3c5;" horiz-adv-x="640" 
d="M442 505h120v-505h-87l-22 65q-65 -79 -176 -79q-94 0 -146.5 57.5t-52.5 162.5v299h120v-276q0 -134 114 -134q56 0 93 44.5t37 117.5v248z" />
    <glyph glyph-name="phi" unicode="&#x3c6;" horiz-adv-x="767" 
d="M720 245q0 -107 -74.5 -179.5t-197.5 -79.5v-179h-120v179q-128 5 -204.5 77.5t-76.5 179.5q0 89 52 158t142 99l38 -103q-53 -20 -82.5 -59.5t-29.5 -92.5q0 -65 42 -106.5t119 -45.5v412h100q132 0 212 -74t80 -186zM447 94q72 4 112.5 45t40.5 106t-40.5 106.5
t-112.5 45.5v-303z" />
    <glyph glyph-name="chi" unicode="&#x3c7;" horiz-adv-x="548" 
d="M536 0h-139l-123 180l-124 -180h-137l183 260l-167 245h139l105 -159l111 159h137l-172 -238z" />
    <glyph glyph-name="psi" unicode="&#x3c8;" horiz-adv-x="811" 
d="M617 505h120v-241q0 -127 -71 -200t-192 -73h-8v-184h-120v184h-9q-120 0 -191 73t-71 200v241h120v-247q0 -75 39.5 -116t111.5 -41v404h119v-404q72 0 112 41t40 116v247z" />
    <glyph glyph-name="omega" unicode="&#x3c9;" horiz-adv-x="874" 
d="M761 505q60 -120 60 -253q0 -123 -57.5 -194t-149.5 -71q-62 0 -109 30.5t-68 81.5q-21 -51 -68 -81.5t-109 -30.5q-91 0 -149 69t-58 196q0 133 60 253h122q-62 -126 -62 -248q0 -155 107 -155q43 0 70 34t27 100v135h120v-135q0 -66 27 -100t70 -34q107 0 107 155
q0 122 -62 248h122z" />
    <glyph glyph-name="iotadieresis" unicode="&#x3ca;" horiz-adv-x="371" 
d="M-40 583v123h133v-123h-133zM178 583v123h133v-123h-133zM273 0q-96 0 -148 51t-52 143v311h120v-304q0 -92 96 -92h53v-109h-69z" />
    <glyph glyph-name="upsilondieresis" unicode="&#x3cb;" horiz-adv-x="640" 
d="M145 583v123h133v-123h-133zM363 583v123h133v-123h-133zM442 505h120v-505h-87l-22 65q-65 -79 -176 -79q-94 0 -146.5 57.5t-52.5 162.5v299h120v-276q0 -134 114 -134q56 0 93 44.5t37 117.5v248z" />
    <glyph glyph-name="omicrontonos" unicode="&#x3cc;" horiz-adv-x="651" 
d="M274 566l64 160h131l-101 -160h-94zM325 -14q-121 0 -199.5 76.5t-78.5 189.5q0 114 78.5 190.5t199.5 76.5t200 -76.5t79 -190.5q0 -113 -79 -189.5t-200 -76.5zM325 94q69 0 114 45t45 113q0 69 -45 114t-114 45q-68 0 -113 -45t-45 -114q0 -68 45 -113t113 -45z" />
    <glyph glyph-name="upsilontonos" unicode="&#x3cd;" horiz-adv-x="640" 
d="M267 566l64 160h131l-101 -160h-94zM442 505h120v-505h-87l-22 65q-65 -79 -176 -79q-94 0 -146.5 57.5t-52.5 162.5v299h120v-276q0 -134 114 -134q56 0 93 44.5t37 117.5v248z" />
    <glyph glyph-name="omegatonos" unicode="&#x3ce;" horiz-adv-x="874" 
d="M578 726l-101 -160h-94l64 160h131zM761 505q60 -120 60 -253q0 -123 -57.5 -194t-149.5 -71q-62 0 -109 30.5t-68 81.5q-21 -51 -68 -81.5t-109 -30.5q-91 0 -149 69t-58 196q0 133 60 253h122q-62 -126 -62 -248q0 -155 107 -155q43 0 70 34t27 100v135h120v-135
q0 -66 27 -100t70 -34q107 0 107 155q0 122 -62 248h122z" />
    <glyph glyph-name="uni0401" unicode="&#x401;" horiz-adv-x="578" 
d="M115 775v122h133v-122h-133zM342 775v122h133v-122h-133zM216 117h296v-117h-422v700h411v-117h-285v-170h259v-115h-259v-181z" />
    <glyph glyph-name="uni0402" unicode="&#x402;" horiz-adv-x="781" 
d="M501 464q107 0 172.5 -65.5t65.5 -174.5q0 -110 -62.5 -174t-165.5 -64q-34 0 -60 7v111q20 -2 32 -2q60 0 94 33t34 90q0 55 -34 88t-91 33q-76 0 -123 -52v-294h-126v582h-202v118h529v-118h-201v-154q59 36 138 36z" />
    <glyph glyph-name="uni0403" unicode="&#x403;" horiz-adv-x="517" 
d="M207 768l69 147h134l-108 -147h-95zM480 700v-119h-264v-581h-126v700h390z" />
    <glyph glyph-name="uni0404" unicode="&#x404;" horiz-adv-x="811" 
d="M631 264h128q-26 -127 -117.5 -202.5t-222.5 -75.5q-159 0 -261 102t-102 262q0 158 102 261t258 103q130 0 222 -73t118 -195h-127q-25 72 -81 111t-131 39q-87 0 -149 -50t-79 -135h295v-116h-296q16 -88 78 -139.5t151 -51.5q79 0 135 42t79 118z" />
    <glyph glyph-name="uni0405" unicode="&#x405;" horiz-adv-x="639" 
d="M325 -14q-125 0 -196.5 65t-71.5 171h129q0 -54 36 -85.5t103 -31.5q63 0 96 26t33 67q0 19 -9 35t-21 25.5t-35.5 19t-40.5 14.5t-49 13q-40 10 -65.5 18t-60 24.5t-54.5 36.5t-34.5 52.5t-14.5 73.5q0 91 65.5 147.5t182.5 56.5q118 0 182 -59.5t64 -161.5h-127
q0 46 -32 74t-91 28q-57 0 -86 -22.5t-29 -58.5q0 -40 36.5 -59.5t110.5 -37.5q42 -11 67 -18.5t62 -24.5t57 -37.5t35.5 -55t15.5 -77.5q0 -96 -69 -157t-189 -61z" />
    <glyph glyph-name="uni0406" unicode="&#x406;" horiz-adv-x="307" 
d="M90 0v700h126v-700h-126z" />
    <glyph glyph-name="uni0407" unicode="&#x407;" horiz-adv-x="307" 
d="M8 775v122h120v-122h-120zM179 775v122h121v-122h-121zM90 0v700h126v-700h-126z" />
    <glyph glyph-name="uni0408" unicode="&#x408;" horiz-adv-x="623" 
d="M288 -14q-112 0 -182 69.5t-70 180.5v23h127v-16q0 -66 33.5 -102t91.5 -36q57 0 91 36t34 100v459h126v-462q0 -115 -68 -183.5t-183 -68.5z" />
    <glyph glyph-name="uni0409" unicode="&#x409;" horiz-adv-x="1075" 
d="M779 471q113 0 181.5 -65.5t68.5 -169.5q0 -105 -68 -170.5t-182 -65.5h-252v581h-208l-34 -332q-14 -133 -69.5 -191.5t-163.5 -58.5h-34v125h31q49 0 75.5 27.5t32.5 90.5l48 458h449v-229h125zM771 117q61 0 95.5 32.5t34.5 86.5t-34.5 86.5t-95.5 32.5h-117v-238h117
z" />
    <glyph glyph-name="uni040A" unicode="&#x40a;" horiz-adv-x="1058" 
d="M773 433q111 0 175.5 -59.5t64.5 -156.5q0 -98 -64 -157.5t-176 -59.5h-267v315h-290v-315h-126v700h126v-267h290v267h127v-267h140zM773 117q52 0 82 28t30 72t-30 72t-82 28h-140v-200h140z" />
    <glyph glyph-name="uni040B" unicode="&#x40b;" horiz-adv-x="804" 
d="M499 455q113 0 178 -65t65 -180v-210h-126v194q0 71 -35.5 107.5t-101.5 36.5q-58 0 -116 -26v-312h-126v582h-202v118h530v-118h-202v-152q63 25 136 25z" />
    <glyph glyph-name="uni040C" unicode="&#x40c;" horiz-adv-x="666" 
d="M286 768l69 147h134l-108 -147h-95zM502 0l-207 301h-79v-301h-126v700h126v-281h81l188 281h149l-232 -338l253 -362h-153z" />
    <glyph glyph-name="uni040D" unicode="&#x40d;" horiz-adv-x="748" 
d="M331 768l-108 147h135l68 -147h-95zM538 700h120v-700h-126v480l-322 -480h-120v700h126v-480z" />
    <glyph glyph-name="uni040E" unicode="&#x40e;" horiz-adv-x="618" 
d="M467 885v-94h-294v94h294zM487 700h134l-222 -488q-56 -125 -112 -168.5t-159 -43.5h-46v119h52q51 0 78.5 17t52.5 67l-249 497h139l173 -357z" />
    <glyph glyph-name="uni040F" unicode="&#x40f;" horiz-adv-x="721" 
d="M631 700v-700h-209v-133h-123v133h-209v700h126v-581h288v581h127z" />
    <glyph glyph-name="uni0410" unicode="&#x410;" horiz-adv-x="717" 
d="M565 0l-58 144h-300l-57 -144h-135l281 700h124l282 -700h-137zM357 539l-109 -281h218z" />
    <glyph glyph-name="uni0411" unicode="&#x411;" horiz-adv-x="631" 
d="M352 434q106 0 169.5 -60t63.5 -156q0 -97 -63.5 -157.5t-170.5 -60.5h-261v700h442v-115h-316v-151h136zM340 115q55 0 86 27.5t31 74.5t-31 75t-86 28h-124v-205h124z" />
    <glyph glyph-name="uni0412" unicode="&#x412;" horiz-adv-x="652" 
d="M496 364q49 -22 76 -65t27 -101q0 -86 -62 -142t-166 -56h-281v700h278q100 0 156.5 -51t56.5 -133q0 -47 -22.5 -87.5t-62.5 -64.5zM453 501q0 39 -25.5 62.5t-70.5 23.5h-141v-173h141q45 0 70.5 23.5t25.5 63.5zM364 113q51 0 79 26t28 70t-28 70t-79 26h-148v-192
h148z" />
    <glyph glyph-name="uni0413" unicode="&#x413;" horiz-adv-x="517" 
d="M480 700v-119h-264v-581h-126v700h390z" />
    <glyph glyph-name="uni0414" unicode="&#x414;" horiz-adv-x="757" 
d="M642 118h77v-251h-123v133h-455v-133h-124v251h57q47 33 66.5 135t48.5 447h453v-582zM303 582q-18 -232 -37 -328.5t-57 -135.5h306v464h-212z" />
    <glyph glyph-name="uni0415" unicode="&#x415;" horiz-adv-x="578" 
d="M216 117h296v-117h-422v700h411v-117h-285v-170h259v-115h-259v-181z" />
    <glyph glyph-name="uni0416" unicode="&#x416;" horiz-adv-x="1015" 
d="M849 0l-204 301h-74v-301h-127v301h-74l-204 -301h-156l251 362l-228 338h150l186 -281h75v281h127v-281h74l186 281h151l-228 -338l250 -362h-155z" />
    <glyph glyph-name="uni0417" unicode="&#x417;" horiz-adv-x="607" 
d="M449 368q50 -25 78 -69.5t28 -98.5q0 -93 -68 -153t-185 -60q-118 0 -186.5 60t-72.5 159h127q4 -48 38 -77t93 -29q60 0 92 28t32 74t-31.5 74.5t-89.5 28.5h-74v114h72q49 0 76.5 24.5t27.5 65.5q0 39 -29.5 65t-79.5 26q-51 0 -82 -25t-36 -65h-125q5 90 72 147
t176 57q107 0 170 -55.5t63 -139.5q0 -47 -23 -87t-63 -64z" />
    <glyph glyph-name="uni0418" unicode="&#x418;" horiz-adv-x="748" 
d="M538 700h120v-700h-126v480l-322 -480h-120v700h126v-480z" />
    <glyph glyph-name="uni0419" unicode="&#x419;" horiz-adv-x="748" 
d="M523 885v-94h-294v94h294zM538 700h120v-700h-126v479l-322 -479h-120v700h126v-481z" />
    <glyph glyph-name="uni041A" unicode="&#x41a;" horiz-adv-x="666" 
d="M502 0l-207 301h-79v-301h-126v700h126v-281h82l187 281h149l-232 -338l253 -362h-153z" />
    <glyph glyph-name="uni041B" unicode="&#x41b;" horiz-adv-x="749" 
d="M205 700h454v-700h-126v581h-214l-34 -332q-14 -133 -69.5 -191.5t-163.5 -58.5h-34v125h31q49 0 76 29t34 98z" />
    <glyph glyph-name="uni041C" unicode="&#x41c;" horiz-adv-x="986" 
d="M938 0h-129l-76 488l-205 -458h-70l-205 457l-76 -487h-128l112 700h128l204 -466l204 466h130z" />
    <glyph glyph-name="uni041D" unicode="&#x41d;" horiz-adv-x="736" 
d="M519 700h127v-700h-127v301h-303v-301h-126v700h126v-281h303v281z" />
    <glyph glyph-name="uni041E" unicode="&#x41e;" horiz-adv-x="852" 
d="M427 -14q-161 0 -266 104t-105 260t105 260t266 104q159 0 264.5 -104t105.5 -260t-105.5 -260t-264.5 -104zM427 105q103 0 172 70t69 175t-69 175t-172 70q-104 0 -173.5 -69.5t-69.5 -175.5t69.5 -175.5t173.5 -69.5z" />
    <glyph glyph-name="uni041F" unicode="&#x41f;" horiz-adv-x="729" 
d="M90 700h549v-700h-127v581h-296v-581h-126v700z" />
    <glyph glyph-name="uni0420" unicode="&#x420;" horiz-adv-x="636" 
d="M350 700q107 0 175.5 -66.5t68.5 -168.5q0 -101 -68.5 -167.5t-175.5 -66.5h-134v-231h-126v700h260zM339 347q59 0 93 32.5t34 85.5q0 54 -34 86t-93 32h-123v-236h123z" />
    <glyph glyph-name="uni0421" unicode="&#x421;" horiz-adv-x="811" 
d="M419 -14q-159 0 -261 102t-102 262q0 158 102 261t258 103q130 0 222 -73t118 -195h-127q-25 70 -81 109.5t-131 39.5q-102 0 -167.5 -67.5t-65.5 -177.5q0 -109 65.5 -177t167.5 -68q79 0 135 41.5t79 117.5h128q-26 -127 -117.5 -202.5t-222.5 -75.5z" />
    <glyph glyph-name="uni0422" unicode="&#x422;" horiz-adv-x="599" 
d="M564 700v-119h-202v-581h-126v581h-201v119h529z" />
    <glyph glyph-name="uni0423" unicode="&#x423;" horiz-adv-x="618" 
d="M487 700h134l-222 -488q-56 -125 -112 -168.5t-159 -43.5h-46v119h52q51 0 78.5 17t52.5 67l-249 497h139l173 -357z" />
    <glyph glyph-name="uni0424" unicode="&#x424;" horiz-adv-x="925" 
d="M869 350q0 -152 -96 -253t-247 -108v-97h-127v97q-151 7 -247 108t-96 253t96 253t247 108v91h127v-91q151 -7 247 -108t96 -253zM183 350q0 -106 59 -172t158 -73v490q-99 -7 -158 -73t-59 -172zM525 105q99 7 158 73t59 172t-59 172t-158 73v-490z" />
    <glyph glyph-name="uni0425" unicode="&#x425;" horiz-adv-x="637" 
d="M621 0h-144l-161 270l-160 -270h-141l224 366l-206 334h144l144 -241l142 241h140l-204 -337z" />
    <glyph glyph-name="uni0426" unicode="&#x426;" horiz-adv-x="733" 
d="M618 119h77v-252h-123v133h-482v700h126v-581h275v581h127v-581z" />
    <glyph glyph-name="uni0427" unicode="&#x427;" horiz-adv-x="688" 
d="M472 700h126v-700h-126v256q-66 -26 -140 -26q-119 0 -186.5 68.5t-67.5 194.5v207h126v-202q0 -77 36 -113t111 -36q67 0 121 29v322z" />
    <glyph glyph-name="uni0428" unicode="&#x428;" horiz-adv-x="984" 
d="M768 700h126v-700h-804v700h126v-581h213v581h126v-581h213v581z" />
    <glyph glyph-name="uni0429" unicode="&#x429;" horiz-adv-x="1010" 
d="M894 119h78v-252h-124v133h-758v700h126v-581h213v581h126v-581h213v581h126v-581z" />
    <glyph glyph-name="uni042A" unicode="&#x42a;" horiz-adv-x="727" 
d="M431 471q113 0 181.5 -65.5t68.5 -169.5q0 -105 -68 -170.5t-182 -65.5h-262v582h-151v118h278v-229h135zM423 117q61 0 95.5 32.5t34.5 86.5t-34.5 86.5t-95.5 32.5h-127v-238h127z" />
    <glyph glyph-name="uni042B" unicode="&#x42b;" horiz-adv-x="903" 
d="M352 471q113 0 181.5 -65.5t68.5 -169.5t-68.5 -170t-181.5 -66h-262v700h126v-229h136zM686 700h126v-700h-126v700zM344 117q61 0 95.5 32.5t34.5 86.5t-34.5 86.5t-95.5 32.5h-128v-238h128z" />
    <glyph glyph-name="uni042C" unicode="&#x42c;" horiz-adv-x="648" 
d="M352 471q113 0 181.5 -65.5t68.5 -169.5t-68.5 -170t-181.5 -66h-262v700h126v-229h136zM344 117q61 0 95.5 32.5t34.5 86.5t-34.5 86.5t-95.5 32.5h-128v-238h128z" />
    <glyph glyph-name="uni042D" unicode="&#x42d;" horiz-adv-x="813" 
d="M400 714q154 0 255.5 -103t101.5 -261q0 -159 -101.5 -261.5t-256.5 -102.5q-132 0 -225 75t-119 200h128q22 -74 79 -115.5t137 -41.5q87 0 148 51.5t77 139.5h-296v116h295q-17 85 -78 135t-146 50q-76 0 -132.5 -39t-81.5 -108h-128q27 120 120 192.5t223 72.5z" />
    <glyph glyph-name="uni042E" unicode="&#x42e;" horiz-adv-x="1074" 
d="M663 714q154 0 255 -102.5t101 -261.5t-101 -261.5t-255 -102.5q-140 0 -237 84.5t-116 221.5h-94v-292h-126v700h126v-290h94q20 136 117 220t236 84zM662 105q100 0 164 67.5t64 177.5t-64 177.5t-164 67.5q-101 0 -165 -67t-64 -178t64 -178t165 -67z" />
    <glyph glyph-name="uni042F" unicode="&#x42f;" horiz-adv-x="673" 
d="M304 700h279v-700h-126v251h-123l-142 -251h-145l155 271q-66 26 -103.5 79.5t-37.5 124.5q0 97 68 161t175 64zM311 583q-57 0 -89 -30t-32 -78q0 -49 32 -79t89 -30h146v217h-146z" />
    <glyph glyph-name="uni0430" unicode="&#x430;" horiz-adv-x="589" 
d="M297 519q103 0 161.5 -55.5t58.5 -152.5v-311h-86l-18 60q-65 -74 -173 -74q-86 0 -136.5 41t-50.5 112q0 73 51.5 114.5t143.5 41.5h150v18q0 51 -27 77.5t-76 26.5q-87 0 -103 -68h-124q14 79 74 124.5t155 45.5zM260 88q65 0 101.5 31.5t36.5 82.5v7h-139
q-83 0 -83 -60q0 -61 84 -61z" />
    <glyph glyph-name="uni0431" unicode="&#x431;" horiz-adv-x="663" 
d="M365 491q110 0 181 -70.5t71 -176.5q0 -112 -76 -185t-196 -73q-203 0 -264 181q-22 69 -22 153q0 194 71.5 293.5t234.5 114.5q27 2 72 4.5t80 5.5t65 9v-107q-34 -9 -110 -12.5t-101 -6.5q-94 -11 -138 -58.5t-53 -138.5q68 67 185 67zM342 93q69 0 112 40.5t43 105.5
q0 64 -42.5 104.5t-112.5 40.5t-113 -40.5t-43 -104.5q0 -65 42.5 -105.5t113.5 -40.5z" />
    <glyph glyph-name="uni0432" unicode="&#x432;" horiz-adv-x="582" 
d="M444 263q43 -14 66.5 -46t23.5 -75q0 -63 -45.5 -102.5t-126.5 -39.5h-284v505h280q75 0 117 -36.5t42 -94.5q0 -36 -19 -66t-54 -45zM395 356q0 53 -63 53h-135v-106h135q63 0 63 53zM340 96q72 0 72 59t-72 59h-143v-118h143z" />
    <glyph glyph-name="uni0433" unicode="&#x433;" horiz-adv-x="458" 
d="M431 505v-109h-233v-396h-120v505h353z" />
    <glyph glyph-name="uni0434" unicode="&#x434;" horiz-adv-x="643" 
d="M544 108h68v-238h-117v130h-363v-130h-117v238h55q31 28 46.5 98.5t35.5 298.5h392v-397zM260 398q-10 -139 -24 -198.5t-39 -91.5h227v290h-164z" />
    <glyph glyph-name="uni0435" unicode="&#x435;" horiz-adv-x="634" 
d="M587 254q0 -23 -3 -40h-415q10 -60 50.5 -93t103.5 -33q88 0 128 63h124q-30 -77 -95.5 -121t-158.5 -44q-121 0 -197.5 75.5t-76.5 190.5q0 116 76 191.5t194 75.5t194 -75t76 -190zM318 417q-54 0 -93.5 -30.5t-52.5 -84.5h292q-12 54 -50 84.5t-96 30.5z" />
    <glyph glyph-name="uni0436" unicode="&#x436;" horiz-adv-x="864" 
d="M703 0l-147 204h-64v-204h-120v204h-63l-147 -204h-147l194 263l-175 242h141l135 -192h62v192h120v-192h62l135 192h141l-174 -242l193 -263h-146z" />
    <glyph glyph-name="uni0437" unicode="&#x437;" horiz-adv-x="527" 
d="M406 260q77 -35 77 -116q0 -71 -57 -114.5t-158 -43.5q-106 0 -164.5 46.5t-64.5 124.5h121q12 -71 106 -71q48 0 72 17.5t24 46.5q0 60 -95 60h-68v90h69q78 0 78 59q0 28 -22 44t-62 16t-64.5 -17.5t-29.5 -47.5h-119q6 74 64 119.5t154 45.5q91 0 145 -43t54 -109
q0 -70 -60 -107z" />
    <glyph glyph-name="uni0438" unicode="&#x438;" horiz-adv-x="622" 
d="M425 505h119v-505h-117v321l-230 -321h-119v505h117v-320z" />
    <glyph glyph-name="uni0439" unicode="&#x439;" horiz-adv-x="622" 
d="M449 692v-91h-270v91h270zM425 505h119v-505h-117v321l-230 -321h-119v505h117v-320z" />
    <glyph glyph-name="uni043A" unicode="&#x43a;" horiz-adv-x="574" 
d="M412 0l-146 203h-68v-203h-120v505h120v-193h64l137 193h141l-173 -242l192 -263h-147z" />
    <glyph glyph-name="uni043B" unicode="&#x43b;" horiz-adv-x="623" 
d="M169 505h377v-505h-120v396h-153l-22 -185q-14 -118 -62 -165.5t-148 -47.5h-24v118h23q44 0 66 24t29 82z" />
    <glyph glyph-name="uni043C" unicode="&#x43c;" horiz-adv-x="789" 
d="M754 0h-123l-59 320l-147 -288h-61l-148 288l-58 -320h-123l95 505h113l151 -298l151 298h113z" />
    <glyph glyph-name="uni043D" unicode="&#x43d;" horiz-adv-x="632" 
d="M434 505h120v-505h-120v202h-236v-202h-120v505h120v-194h236v194z" />
    <glyph glyph-name="uni043E" unicode="&#x43e;" horiz-adv-x="651" 
d="M325 -14q-121 0 -199.5 76.5t-78.5 189.5q0 114 78.5 190.5t199.5 76.5t200 -76.5t79 -190.5q0 -113 -79 -189.5t-200 -76.5zM325 94q69 0 114 45t45 113q0 69 -45 114t-114 45q-68 0 -113 -45t-45 -114q0 -68 45 -113t113 -45z" />
    <glyph glyph-name="uni043F" unicode="&#x43f;" horiz-adv-x="633" 
d="M78 505h477v-505h-120v396h-237v-396h-120v505z" />
    <glyph glyph-name="uni0440" unicode="&#x440;" horiz-adv-x="677" 
d="M369 519q113 0 187 -75t74 -192q0 -116 -74 -191t-187 -75q-100 0 -171 60v-239h-120v698h87l18 -59q75 73 186 73zM351 94q70 0 114.5 44.5t44.5 113.5q0 70 -44.5 114.5t-114.5 44.5t-114.5 -44.5t-44.5 -114.5q0 -69 44.5 -113.5t114.5 -44.5z" />
    <glyph glyph-name="uni0441" unicode="&#x441;" horiz-adv-x="628" 
d="M319 -14q-119 0 -195.5 75t-76.5 190q0 117 76.5 192.5t196.5 75.5q100 0 171.5 -56.5t91.5 -150.5h-121q-16 47 -54 72.5t-89 25.5q-65 0 -108 -44.5t-43 -113.5t43 -113t109 -44q50 0 87.5 25t54.5 73h121q-21 -94 -92.5 -150.5t-171.5 -56.5z" />
    <glyph glyph-name="uni0442" unicode="&#x442;" horiz-adv-x="531" 
d="M507 505v-109h-181v-396h-120v396h-182v109h483z" />
    <glyph glyph-name="uni0443" unicode="&#x443;" horiz-adv-x="580" 
d="M444 505h129l-224 -508q-46 -105 -100.5 -147.5t-146.5 -42.5h-47v109h44q53 0 78.5 20.5t52.5 85.5l3 7l-216 476h132l150 -338z" />
    <glyph glyph-name="uni0444" unicode="&#x444;" horiz-adv-x="755" 
d="M708 252q0 -108 -75.5 -183.5t-195.5 -81.5v-180h-120v180q-119 7 -194.5 82t-75.5 183t75 183.5t195 82.5v215h120v-215q120 -6 195.5 -81.5t75.5 -184.5zM166 252q0 -69 40.5 -112t111.5 -47v319q-71 -5 -111.5 -48t-40.5 -112zM437 93q71 4 111.5 47t40.5 112
t-40.5 112t-111.5 48v-319z" />
    <glyph glyph-name="uni0445" unicode="&#x445;" horiz-adv-x="548" 
d="M536 0h-139l-123 180l-124 -180h-137l183 260l-167 245h139l105 -159l111 159h137l-172 -238z" />
    <glyph glyph-name="uni0446" unicode="&#x446;" horiz-adv-x="637" 
d="M538 109h69v-239h-117v130h-412v505h120v-396h220v396h120v-396z" />
    <glyph glyph-name="uni0447" unicode="&#x447;" horiz-adv-x="596" 
d="M398 505h120v-505h-120v171q-52 -21 -115 -21q-102 0 -159 58.5t-57 164.5v132h120v-129q0 -116 113 -116q61 0 98 22v223z" />
    <glyph glyph-name="uni0448" unicode="&#x448;" horiz-adv-x="847" 
d="M649 505h120v-505h-691v505h120v-396h166v396h119v-396h166v396z" />
    <glyph glyph-name="uni0449" unicode="&#x449;" horiz-adv-x="868" 
d="M769 109h68v-239h-117v130h-642v505h120v-396h166v396h119v-396h166v396h120v-396z" />
    <glyph glyph-name="uni044A" unicode="&#x44a;" horiz-adv-x="631" 
d="M391 350q93 0 147 -49t54 -126t-54 -126t-147 -49h-229v400h-145v105h265v-155h109zM379 100q91 0 91 75q0 74 -91 74h-97v-149h97z" />
    <glyph glyph-name="uni044B" unicode="&#x44b;" horiz-adv-x="790" 
d="M305 350q92 0 146 -49t54 -126t-53.5 -126t-146.5 -49h-227v505h120v-155h107zM592 505h120v-505h-120v505zM292 100q91 0 91 75q0 74 -91 74h-94v-149h94z" />
    <glyph glyph-name="uni044C" unicode="&#x44c;" horiz-adv-x="547" 
d="M307 350q92 0 146 -49t54 -126t-54 -126t-146 -49h-229v505h120v-155h109zM294 100q91 0 91 75q0 74 -91 74h-96v-149h96z" />
    <glyph glyph-name="uni044D" unicode="&#x44d;" horiz-adv-x="636" 
d="M316 519q120 0 196 -75.5t76 -192.5q0 -115 -76.5 -190t-195.5 -75q-105 0 -177 54.5t-92 146.5h121q15 -47 53 -71.5t92 -24.5q58 0 98.5 31t53.5 85h-205v92h204q-13 53 -53 83.5t-97 30.5q-54 0 -93 -24.5t-54 -70.5h-120q20 91 92.5 146t176.5 55z" />
    <glyph glyph-name="uni044E" unicode="&#x44e;" horiz-adv-x="862" 
d="M542 519q119 0 196 -76t77 -191t-77 -190.5t-196 -75.5q-104 0 -177.5 59t-90.5 154h-77v-199h-119v505h119v-197h77q19 94 92 152.5t176 58.5zM542 94q68 0 110.5 44t42.5 114q0 72 -42.5 115.5t-110.5 43.5t-110.5 -43.5t-42.5 -115.5q0 -70 42.5 -114t110.5 -44z" />
    <glyph glyph-name="uni044F" unicode="&#x44f;" horiz-adv-x="587" 
d="M246 505h263v-505h-120v174h-100l-113 -174h-133l126 193q-48 19 -75.5 59t-27.5 89q0 71 49.5 117.5t130.5 46.5zM264 404q-37 0 -56.5 -17.5t-19.5 -47.5q0 -31 19.5 -48.5t56.5 -17.5h125v131h-125z" />
    <glyph glyph-name="uni0451" unicode="&#x451;" horiz-adv-x="634" 
d="M271 706v-123h-133v123h133zM489 706v-123h-133v123h133zM587 254q0 -23 -3 -40h-415q10 -60 50.5 -93t103.5 -33q88 0 128 63h124q-30 -77 -95.5 -121t-158.5 -44q-121 0 -197.5 75.5t-76.5 190.5q0 116 76 191.5t194 75.5t194 -75t76 -190zM318 417q-54 0 -93.5 -30.5
t-52.5 -84.5h292q-12 54 -50 84.5t-96 30.5z" />
    <glyph glyph-name="uni0452" unicode="&#x452;" horiz-adv-x="639" 
d="M369 489q92 0 147.5 -59.5t55.5 -164.5v-259q0 -95 -51 -147t-141 -52h-40v109h22q90 0 90 89v234q0 68 -30.5 104t-85.5 36q-59 0 -96.5 -43.5t-37.5 -115.5v-220h-120v576h-91v84h91v73h120v-73h168v-84h-168v-154q62 67 167 67z" />
    <glyph glyph-name="uni0453" unicode="&#x453;" horiz-adv-x="458" 
d="M395 724l-101 -157h-95l65 157h131zM431 505v-109h-233v-396h-120v505h353z" />
    <glyph glyph-name="uni0454" unicode="&#x454;" horiz-adv-x="628" 
d="M318 91q109 0 145 101h120q-21 -94 -92.5 -150t-171.5 -56q-119 0 -195.5 75t-76.5 190q0 117 76.5 192.5t196.5 75.5q99 0 171 -56.5t92 -149.5h-120q-17 49 -55 74.5t-90 25.5q-56 0 -95 -30.5t-52 -83.5h206v-92h-206q12 -53 52 -84.5t95 -31.5z" />
    <glyph glyph-name="uni0455" unicode="&#x455;" horiz-adv-x="529" 
d="M270 -14q-106 0 -163 45t-62 121h121q11 -67 107 -67q90 0 90 58q0 27 -26 39t-88 25q-35 8 -54.5 13t-49.5 17.5t-46.5 27.5t-29 40.5t-12.5 58.5q0 66 54.5 110.5t151.5 44.5q96 0 149.5 -44t60.5 -115h-119q-8 60 -92 60q-42 0 -63 -14.5t-21 -36.5q0 -27 28 -40
t86 -24q34 -7 54 -12t50 -17t46.5 -27t29 -41t12.5 -60q0 -70 -56 -116t-158 -46z" />
    <glyph glyph-name="uni0456" unicode="&#x456;" horiz-adv-x="276" 
d="M74 611v122h128v-122h-128zM78 0v505h120v-505h-120z" />
    <glyph glyph-name="uni0457" unicode="&#x457;" horiz-adv-x="276" 
d="M-10 583v124h115v-124h-115zM170 583v123h115v-123h-115zM78 0v505h120v-505h-120z" />
    <glyph glyph-name="uni0458" unicode="&#x458;" horiz-adv-x="287" 
d="M85 611v122h128v-122h-128zM-35 -193v109h34q90 0 90 91v498h120v-500q0 -93 -51 -145.5t-140 -52.5h-53z" />
    <glyph glyph-name="uni0459" unicode="&#x459;" horiz-adv-x="867" 
d="M627 350q92 0 146 -49t54 -126t-54 -126t-146 -49h-217v396h-137l-22 -185q-14 -118 -62 -165.5t-148 -47.5h-24v118h23q44 0 66 23.5t29 80.5l34 285h361v-155h97zM614 100q91 0 91 75q0 74 -91 74h-84v-149h84z" />
    <glyph glyph-name="uni045A" unicode="&#x45a;" horiz-adv-x="869" 
d="M647 323q82 0 132 -45.5t50 -115.5q0 -71 -49.5 -116.5t-132.5 -45.5h-237v216h-212v-216h-120v505h120v-182h212v182h120v-182h117zM634 99q34 0 53.5 17.5t19.5 44.5q0 28 -19.5 45t-53.5 17h-104v-124h104z" />
    <glyph glyph-name="uni045B" unicode="&#x45b;" horiz-adv-x="639" 
d="M369 489q92 0 147.5 -59.5t55.5 -164.5v-265h-120v239q0 68 -30.5 104t-85.5 36q-59 0 -96.5 -43.5t-37.5 -115.5v-220h-120v576h-91v84h91v73h120v-73h168v-84h-168v-154q62 67 167 67z" />
    <glyph glyph-name="uni045C" unicode="&#x45c;" horiz-adv-x="574" 
d="M439 724l-101 -157h-95l65 157h131zM412 0l-146 203h-68v-203h-120v505h120v-193h64l137 193h141l-173 -242l192 -263h-147z" />
    <glyph glyph-name="uni045D" unicode="&#x45d;" horiz-adv-x="622" 
d="M370 567h-95l-101 157h132zM425 505h119v-505h-117v321l-230 -321h-119v505h117v-320z" />
    <glyph glyph-name="uni045E" unicode="&#x45e;" horiz-adv-x="580" 
d="M432 692v-91h-270v91h270zM444 505h129l-224 -508q-46 -105 -100.5 -147.5t-146.5 -42.5h-47v109h44q53 0 78.5 20.5t52.5 85.5l3 7l-216 476h132l150 -338z" />
    <glyph glyph-name="uni045F" unicode="&#x45f;" horiz-adv-x="628" 
d="M550 505v-505h-178v-130h-117v130h-177v505h120v-396h232v396h120z" />
    <glyph glyph-name="uni0490" unicode="&#x490;" horiz-adv-x="517" 
d="M480 805v-224h-264v-581h-126v700h266v105h124z" />
    <glyph glyph-name="uni0491" unicode="&#x491;" horiz-adv-x="458" 
d="M431 623v-227h-233v-396h-120v505h238v118h115z" />
    <glyph glyph-name="Wgrave" unicode="&#x1e80;" horiz-adv-x="1038" 
d="M474 768l-108 147h135l68 -147h-95zM888 700h131l-215 -700h-119l-167 507l-165 -507h-119l-216 700h134l148 -492l160 492h116l163 -492z" />
    <glyph glyph-name="wgrave" unicode="&#x1e81;" horiz-adv-x="835" 
d="M473 567h-95l-101 157h132zM701 505h120l-169 -505h-108l-127 347l-127 -347h-109l-167 505h123l106 -329l120 329h108l122 -330z" />
    <glyph glyph-name="Wacute" unicode="&#x1e82;" horiz-adv-x="1038" 
d="M465 768l69 147h134l-108 -147h-95zM888 700h131l-215 -700h-119l-167 507l-165 -507h-119l-216 700h134l148 -492l160 492h116l163 -492z" />
    <glyph glyph-name="wacute" unicode="&#x1e83;" horiz-adv-x="835" 
d="M557 724l-101 -157h-95l65 157h131zM701 505h120l-169 -505h-108l-127 347l-127 -347h-109l-167 505h123l106 -329l120 329h108l122 -330z" />
    <glyph glyph-name="Wdieresis" unicode="&#x1e84;" horiz-adv-x="1038" 
d="M338 775v122h133v-122h-133zM565 775v122h133v-122h-133zM888 700h131l-215 -700h-119l-167 507l-165 -507h-119l-216 700h134l148 -492l160 492h116l163 -492z" />
    <glyph glyph-name="wdieresis" unicode="&#x1e85;" horiz-adv-x="835" 
d="M374 706v-123h-133v123h133zM592 706v-123h-133v123h133zM701 505h120l-169 -505h-108l-127 347l-127 -347h-109l-167 505h123l106 -329l120 329h108l122 -330z" />
    <glyph glyph-name="uni1E9E" unicode="&#x1e9e;" horiz-adv-x="707" 
d="M458 425q99 -13 153.5 -69t54.5 -139q0 -98 -66.5 -157.5t-186.5 -59.5h-97v113h97q60 0 92.5 28t32.5 75t-32.5 75t-92.5 28h-97v102l135 166h-121q-124 0 -124 -122v-465h-126v471q0 106 61 167.5t167 61.5h288v-105z" />
    <glyph glyph-name="Ygrave" unicode="&#x1ef2;" horiz-adv-x="668" 
d="M289 768l-108 147h135l68 -147h-95zM649 700l-252 -419v-281h-126v281l-251 419h142l172 -294l172 294h143z" />
    <glyph glyph-name="ygrave" unicode="&#x1ef3;" horiz-adv-x="580" 
d="M353 567h-95l-101 157h132zM444 505h129l-224 -508q-46 -105 -100.5 -147.5t-146.5 -42.5h-47v109h44q53 0 78.5 20.5t52.5 85.5l3 7l-216 476h132l150 -338z" />
    <glyph glyph-name="endash" unicode="&#x2013;" horiz-adv-x="637" 
d="M63 226v109h511v-109h-511z" />
    <glyph glyph-name="emdash" unicode="&#x2014;" horiz-adv-x="900" 
d="M63 226v109h775v-109h-775z" />
    <glyph glyph-name="quoteleft" unicode="&#x2018;" horiz-adv-x="256" 
d="M126 611h68v-137h-133v127q0 72 34.5 114t94.5 50v-64q-64 -11 -64 -90z" />
    <glyph glyph-name="quoteright" unicode="&#x2019;" horiz-adv-x="257" 
d="M62 733h133v-127q0 -71 -34.5 -113.5t-94.5 -50.5v64q64 11 64 90h-68v137z" />
    <glyph glyph-name="quotesinglbase" unicode="&#x201a;" horiz-adv-x="256" 
d="M62 137h132v-127q0 -72 -34 -114t-95 -51v64q65 12 65 91h-68v137z" />
    <glyph glyph-name="quotedblleft" unicode="&#x201c;" horiz-adv-x="456" 
d="M190 703q-64 -12 -64 -91h68v-137h-133v127q0 72 34.5 114t94.5 51v-64zM326 612h67v-137h-132v127q0 72 34.5 114t94.5 51v-64q-64 -12 -64 -91z" />
    <glyph glyph-name="quotedblright" unicode="&#x201d;" horiz-adv-x="457" 
d="M62 592v137h133v-126q0 -72 -34.5 -114.5t-94.5 -50.5v64q64 11 64 90h-68zM262 729h133v-126q0 -72 -34.5 -114.5t-94.5 -50.5v64q64 11 64 90h-68v137z" />
    <glyph glyph-name="quotedblbase" unicode="&#x201e;" horiz-adv-x="456" 
d="M62 0v137h132v-127q0 -72 -34 -114t-95 -51v64q65 12 65 91h-68zM262 137h132v-127q0 -72 -34.5 -114t-94.5 -51v64q64 12 64 91h-67v137z" />
    <glyph glyph-name="dagger" unicode="&#x2020;" horiz-adv-x="543" 
d="M497 523v-109h-165v-459h-120v459h-166v109h166v177h120v-177h165z" />
    <glyph glyph-name="daggerdbl" unicode="&#x2021;" horiz-adv-x="558" 
d="M505 414h-166v-168h166v-108h-166v-183h-120v183h-166v108h166v168h-166v109h166v177h120v-177h166v-109z" />
    <glyph glyph-name="bullet" unicode="&#x2022;" horiz-adv-x="464" 
d="M232 181q-48 0 -80 32t-32 80t32 80t80 32q49 0 80.5 -32t31.5 -80t-31.5 -80t-80.5 -32z" />
    <glyph glyph-name="ellipsis" unicode="&#x2026;" horiz-adv-x="663" 
d="M62 0v137h132v-137h-132zM265 0v137h133v-137h-133zM468 0v137h133v-137h-133z" />
    <glyph glyph-name="perthousand" unicode="&#x2030;" horiz-adv-x="1166" 
d="M198 403q-70 0 -114.5 44t-44.5 112t44.5 111.5t114.5 43.5t114 -43.5t44 -111.5t-44 -112t-114 -44zM148 0l400 700h106l-401 -700h-105zM198 494q28 0 46 18.5t18 46.5q0 27 -18 45.5t-46 18.5t-46.5 -18.5t-18.5 -45.5q0 -28 18.5 -46.5t46.5 -18.5zM594 -14
q-70 0 -114 43.5t-44 111.5t44 112t114 44t114.5 -44t44.5 -112t-44.5 -111.5t-114.5 -43.5zM969 -14q-70 0 -114.5 43.5t-44.5 111.5t44.5 112t114.5 44t114 -44t44 -112t-44 -111.5t-114 -43.5zM594 77q28 0 46.5 18.5t18.5 45.5q0 28 -18.5 46.5t-46.5 18.5
q-27 0 -45.5 -18.5t-18.5 -46.5q0 -27 18.5 -45.5t45.5 -18.5zM969 77q27 0 45.5 18.5t18.5 45.5q0 28 -18.5 46.5t-45.5 18.5q-28 0 -46.5 -18.5t-18.5 -46.5q0 -27 18.5 -45.5t46.5 -18.5z" />
    <glyph glyph-name="guilsinglleft" unicode="&#x2039;" horiz-adv-x="396" 
d="M213 56l-163 204v14l163 204h143l-168 -211l168 -211h-143z" />
    <glyph glyph-name="guilsinglright" unicode="&#x203a;" horiz-adv-x="396" 
d="M184 56h-144l168 211l-168 211h144l162 -204v-14z" />
    <glyph glyph-name="fraction" unicode="&#x2044;" horiz-adv-x="168" 
d="M-168 -30l404 760h100l-404 -760h-100z" />
    <glyph glyph-name="Euro" unicode="&#x20ac;" horiz-adv-x="658" 
d="M479 598q-76 0 -132 -35t-82 -98h293l-24 -90h-290q-1 -8 -1 -25q0 -24 3 -46h270l-23 -91h-218q62 -112 202 -112q61 0 109 19v-115q-50 -19 -121 -19q-117 0 -205 61t-124 166h-106l22 91h64q-2 30 -2 46q0 17 1 25h-83l22 90h75q32 115 123 182t216 67q84 0 150 -32
l-28 -106q-51 22 -111 22z" />
    <glyph glyph-name="uni20B9" unicode="&#x20b9;" horiz-adv-x="618" 
d="M556 601h-117q29 -33 40 -84h77v-91h-75q-14 -81 -74 -131t-152 -54l274 -241h-173l-283 251v90h142q114 0 139 85h-281v91h280q-27 84 -138 84h-142v99h483v-99z" />
    <glyph glyph-name="uni20BD" unicode="&#x20bd;" horiz-adv-x="639" 
d="M362 291h-118v-76h198v-98h-198v-117h-126v117h-84v98h84v76h-84v108h84v301h244q107 0 170 -57.5t63 -148.5t-62.5 -147t-170.5 -56zM244 589v-190h113q51 0 80.5 26.5t29.5 68.5q0 43 -29 69t-81 26h-113z" />
    <glyph glyph-name="uni2113" unicode="&#x2113;" horiz-adv-x="491" 
d="M334 162h101v-6q0 -79 -44 -124.5t-121 -45.5q-79 0 -124 46.5t-45 132.5v22q-42 -16 -82 -29v105q42 15 82 33v232q0 89 44.5 137.5t122.5 48.5q77 0 121.5 -44.5t44.5 -123.5q0 -85 -60.5 -165.5t-169.5 -143.5v-79q0 -36 17.5 -55.5t48.5 -19.5q30 0 47 19t17 54v6z
M204 534v-181q128 85 128 191q0 74 -63 74q-30 0 -47.5 -21t-17.5 -63z" />
    <glyph glyph-name="uni2116" unicode="&#x2116;" horiz-adv-x="1125" 
d="M524 231v469h126v-700h-116l-318 469v-469h-126v700h116zM814 362q-37 35 -37 81.5t37 81.5t84 35t83 -35q37 -35 37 -81.5t-37 -81.5t-84 -35t-83 35zM853 471q-12 -19 -7 -39t24 -32q20 -12 39.5 -7.5t32.5 23.5q12 19 7 39t-24 32q-20 12 -40 7.5t-32 -23.5zM737 201
h320v-102h-320v102z" />
    <glyph glyph-name="uni2117" unicode="&#x2117;" horiz-adv-x="844" 
d="M422 712q163 0 266.5 -102t103.5 -261q0 -158 -103.5 -260t-266.5 -102q-164 0 -267.5 102t-103.5 260q0 159 103.5 261t267.5 102zM422 69q126 0 204.5 78t78.5 202q0 125 -78.5 203t-204.5 78t-205 -78t-79 -203q0 -124 79 -202t205 -78zM453 543q67 0 107 -38t40 -97
t-40 -97t-107 -38h-67v-130h-89v400h156zM444 351q30 0 47.5 16t17.5 41t-17.5 41t-47.5 16h-58v-114h58z" />
    <glyph glyph-name="trademark" unicode="&#x2122;" horiz-adv-x="611" 
d="M33 640v60h206v-60h-71v-189h-64v189h-71zM579 450h-66l-21 138l-61 -119h-28l-62 119l-21 -138h-66l39 250h60l64 -128l64 128h59z" />
    <glyph glyph-name="estimated" unicode="&#x212e;" horiz-adv-x="790" 
d="M728 301h-521v-182q78 -72 187 -72q61 0 118.5 23t96.5 63l72 -2q-46 -66 -124.5 -103.5t-162.5 -37.5q-140 0 -237 97t-97 237q0 137 98.5 235.5t235.5 98.5q134 0 235 -97.5t101 -226.5q0 -14 -2 -33zM394 601q-107 0 -187 -74v-171h375v171q-82 74 -188 74z" />
    <glyph glyph-name="uni2150" unicode="&#x2150;" horiz-adv-x="696" 
d="M463 730h100l-404 -760h-100zM93 315v289l-70 -34v87l78 43h80v-385h-88zM420 385h266v-76l-132 -309h-94l129 302h-169v83z" />
    <glyph glyph-name="uni2151" unicode="&#x2151;" horiz-adv-x="736" 
d="M463 730h100l-404 -760h-100zM93 315v289l-70 -34v87l78 43h80v-385h-88zM564 394q67 0 108.5 -39t41.5 -99q0 -58 -44 -131l-76 -125h-100l71 117q2 2 4.5 6.5t3.5 6.5q-12 -2 -20 -2q-61 0 -99 35.5t-38 92.5q0 61 41 99.5t107 38.5zM565 200q26 0 43 16t17 41t-17 41
t-43 16q-27 0 -43.5 -16t-16.5 -41t16.5 -41t43.5 -16z" />
    <glyph glyph-name="uni2152" unicode="&#x2152;" horiz-adv-x="1012" 
d="M463 730h100l-404 -760h-100zM93 315v289l-70 -34v87l78 43h80v-385h-88zM819 394q73 0 117 -53t44 -148q0 -94 -44 -147.5t-117 -53.5t-116.5 53.5t-43.5 147.5q0 95 43.5 148t116.5 53zM423 342l78 43h80v-385h-88v289l-70 -34v87zM819 74q33 0 52 29.5t19 89.5
t-19 89.5t-52 29.5q-71 0 -71 -119t71 -119z" />
    <glyph glyph-name="uni2153" unicode="&#x2153;" horiz-adv-x="734" 
d="M463 730h100l-404 -760h-100zM93 315v289l-70 -34v87l78 43h80v-385h-88zM649 201q55 -29 55 -90q0 -53 -37.5 -86t-100.5 -33q-65 0 -103 33.5t-40 87.5h88q2 -18 16 -30t38 -12q23 0 36 12t13 33q0 20 -14.5 32t-40.5 12h-38v72h35q23 0 36 12t13 32q0 18 -11.5 29
t-31.5 11t-32 -10.5t-14 -28.5h-88q2 51 39.5 84t97.5 33q59 0 94 -31t35 -80q0 -51 -45 -82z" />
    <glyph glyph-name="uni2154" unicode="&#x2154;" horiz-adv-x="843" 
d="M572 730h100l-404 -760h-100zM31 389q97 78 137 121.5t40 74.5q0 20 -11.5 31t-31.5 11q-22 0 -35 -12.5t-13 -34.5v-8h-88v8q0 59 37 94t101 35q60 0 95 -32t35 -84q0 -84 -134 -195h141v-83h-273v74zM758 201q55 -29 55 -90q0 -53 -37.5 -86t-100.5 -33
q-65 0 -103 33.5t-40 87.5h88q2 -18 16 -30t38 -12q23 0 36 12t13 33q0 20 -14.5 32t-40.5 12h-38v72h35q23 0 36 12t13 32q0 18 -11.5 29t-31.5 11t-32 -10.5t-14 -28.5h-88q2 51 39.5 84t97.5 33q59 0 94 -31t35 -80q0 -51 -45 -82z" />
    <glyph glyph-name="uni2155" unicode="&#x2155;" horiz-adv-x="720" 
d="M463 730h100l-404 -760h-100zM93 315v289l-70 -34v87l78 43h80v-385h-88zM579 247q57 0 90.5 -34t33.5 -90q0 -60 -37 -95.5t-100 -35.5t-100 31t-41 79h89q3 -14 16.5 -23.5t33.5 -9.5q23 0 37 14.5t14 38.5q0 25 -14 39t-38 14q-35 0 -47 -25h-85l22 235h226v-77h-147
l-6 -72q22 11 53 11z" />
    <glyph glyph-name="uni2156" unicode="&#x2156;" horiz-adv-x="829" 
d="M572 730h100l-404 -760h-100zM31 389q97 78 137 121.5t40 74.5q0 20 -11.5 31t-31.5 11q-22 0 -35 -12.5t-13 -34.5v-8h-88v8q0 59 37 94t101 35q60 0 95 -32t35 -84q0 -84 -134 -195h141v-83h-273v74zM688 247q57 0 90.5 -34t33.5 -90q0 -60 -37 -95.5t-100 -35.5
t-100 31t-41 79h89q3 -14 16.5 -23.5t33.5 -9.5q23 0 37 14.5t14 38.5q0 25 -14 39t-38 14q-34 0 -47 -25h-85l22 235h226v-77h-147l-6 -72q22 11 53 11z" />
    <glyph glyph-name="uni2157" unicode="&#x2157;" horiz-adv-x="832" 
d="M575 730h100l-404 -760h-100zM309 426q0 -53 -37.5 -86t-100.5 -33q-65 0 -103 33.5t-40 87.5h88q2 -18 16 -30t38 -12q23 0 36 12t13 33q0 20 -14.5 32t-40.5 12h-38v72h35q23 0 36 12t13 32q0 18 -11.5 29t-31.5 11t-32 -10.5t-14 -28.5h-88q2 51 39.5 84t97.5 33
q59 0 94 -31t35 -80q0 -51 -45 -82q55 -29 55 -90zM691 247q57 0 90.5 -34t33.5 -90q0 -60 -37 -95.5t-100 -35.5t-100 31t-41 79h89q3 -14 16.5 -23.5t33.5 -9.5q23 0 37 14.5t14 38.5q0 25 -14 39t-38 14q-35 0 -47 -25h-85l22 235h226v-77h-147l-6 -72q22 11 53 11z" />
    <glyph glyph-name="uni2158" unicode="&#x2158;" horiz-adv-x="835" 
d="M578 730h100l-404 -760h-100zM200 315v66h-172v72l123 247h96l-118 -236h73l25 92h61v-92h39v-83h-39v-66h-88zM694 247q57 0 90.5 -34t33.5 -90q0 -60 -37 -95.5t-100 -35.5t-100 31t-41 79h89q3 -14 16.5 -23.5t33.5 -9.5q23 0 37 14.5t14 38.5q0 25 -14 39t-38 14
q-34 0 -47 -25h-85l22 235h226v-77h-147l-6 -72q22 11 53 11z" />
    <glyph glyph-name="uni2159" unicode="&#x2159;" horiz-adv-x="716" 
d="M463 730h100l-404 -760h-100zM93 315v289l-70 -34v87l78 43h80v-385h-88zM558 258q61 0 98.5 -35.5t37.5 -92.5q0 -61 -41 -99.5t-107 -38.5q-68 0 -109 38.5t-41 99.5q0 56 41 125l79 130h100l-72 -117l-7 -12q12 2 21 2zM545 72q26 0 43 16.5t17 41.5t-17 41t-43 16
q-27 0 -43.5 -16t-16.5 -41q0 -26 16.5 -42t43.5 -16z" />
    <glyph glyph-name="uni215A" unicode="&#x215a;" horiz-adv-x="814" 
d="M561 730h100l-404 -760h-100zM308 438q0 -60 -37 -95.5t-100 -35.5t-100 31t-41 79h89q3 -14 16.5 -23.5t33.5 -9.5q23 0 37 14.5t14 38.5q0 25 -14 39t-38 14q-34 0 -47 -25h-85l22 235h226v-77h-147l-6 -72q22 11 53 11q57 0 90.5 -34t33.5 -90zM656 258
q61 0 98.5 -35.5t37.5 -92.5q0 -61 -41 -99.5t-107 -38.5q-68 0 -109 38.5t-41 99.5q0 56 41 125l79 130h100l-72 -117q-2 -4 -8 -12q14 2 22 2zM643 72q26 0 43 16.5t17 41.5t-17 41t-43 16q-27 0 -43.5 -16t-16.5 -41q0 -26 16.5 -42t43.5 -16z" />
    <glyph glyph-name="oneeighth" unicode="&#x215b;" horiz-adv-x="745" 
d="M463 730h100l-404 -760h-100zM93 315v289l-70 -34v87l78 43h80v-385h-88zM665 204q51 -34 51 -94q0 -52 -39 -85t-107 -33t-107 33t-39 85q0 62 52 94q-41 30 -41 81q0 47 37 78t98 31t98 -31t37 -78q0 -51 -40 -81zM570 320q-21 0 -34.5 -12t-13.5 -30t13.5 -30.5
t34.5 -12.5q22 0 35 12t13 31q0 18 -13 30t-35 12zM570 68q25 0 40.5 14t15.5 35t-15.5 35t-40.5 14t-40.5 -14t-15.5 -35t15.5 -35t40.5 -14z" />
    <glyph glyph-name="threeeighths" unicode="&#x215c;" horiz-adv-x="857" 
d="M575 730h100l-404 -760h-100zM309 426q0 -53 -37.5 -86t-100.5 -33q-65 0 -103 33.5t-40 87.5h88q2 -18 16 -30t38 -12q23 0 36 12t13 33q0 20 -14.5 32t-40.5 12h-38v72h35q23 0 36 12t13 32q0 18 -11.5 29t-31.5 11t-32 -10.5t-14 -28.5h-88q2 51 39.5 84t97.5 33
q59 0 94 -31t35 -80q0 -51 -45 -82q55 -29 55 -90zM777 204q51 -34 51 -94q0 -52 -39 -85t-107 -33t-107 33t-39 85q0 62 52 94q-41 30 -41 81q0 47 37 78t98 31t98 -31t37 -78q0 -51 -40 -81zM682 320q-21 0 -34.5 -12t-13.5 -30t13.5 -30.5t34.5 -12.5q22 0 35 12t13 31
q0 18 -13 30t-35 12zM682 68q25 0 40.5 14t15.5 35t-15.5 35t-40.5 14t-40.5 -14t-15.5 -35t15.5 -35t40.5 -14z" />
    <glyph glyph-name="fiveeighths" unicode="&#x215d;" horiz-adv-x="843" 
d="M561 730h100l-404 -760h-100zM308 438q0 -60 -37 -95.5t-100 -35.5t-100 31t-41 79h89q3 -14 16.5 -23.5t33.5 -9.5q23 0 37 14.5t14 38.5q0 25 -14 39t-38 14q-34 0 -47 -25h-85l22 235h226v-77h-147l-6 -72q22 11 53 11q57 0 90.5 -34t33.5 -90zM763 204q51 -34 51 -94
q0 -52 -39 -85t-107 -33t-107 33t-39 85q0 62 52 94q-41 30 -41 81q0 47 37 78t98 31t98 -31t37 -78q0 -51 -40 -81zM668 320q-21 0 -34.5 -12t-13.5 -30t13.5 -30.5t34.5 -12.5q22 0 35 12t13 31q0 18 -13 30t-35 12zM668 68q25 0 40.5 14t15.5 35t-15.5 35t-40.5 14
t-40.5 -14t-15.5 -35t15.5 -35t40.5 -14z" />
    <glyph glyph-name="seveneighths" unicode="&#x215e;" horiz-adv-x="774" 
d="M492 730h100l-404 -760h-100zM156 315h-94l129 302h-169v83h266v-76zM694 204q51 -34 51 -94q0 -52 -39 -85t-107 -33t-107 33t-39 85q0 62 52 94q-41 30 -41 81q0 47 37 78t98 31t98 -31t37 -78q0 -51 -40 -81zM599 320q-21 0 -34.5 -12t-13.5 -30t13.5 -30.5
t34.5 -12.5q22 0 35 12t13 31q0 18 -13 30t-35 12zM599 68q25 0 40.5 14t15.5 35t-15.5 35t-40.5 14t-40.5 -14t-15.5 -35t15.5 -35t40.5 -14z" />
    <glyph glyph-name="uni215F" unicode="&#x215f;" horiz-adv-x="395" 
d="M463 730h100l-404 -760h-100zM93 315v289l-70 -34v87l78 43h80v-385h-88z" />
    <glyph glyph-name="uni2189" unicode="&#x2189;" horiz-adv-x="892" 
d="M621 730h100l-404 -760h-100zM353 508q0 -94 -44 -147.5t-117 -53.5t-116.5 53.5t-43.5 147.5q0 95 43.5 148t116.5 53t117 -53t44 -148zM192 389q33 0 52 29.5t19 89.5t-19 89.5t-52 29.5q-71 0 -71 -119t71 -119zM807 201q55 -29 55 -90q0 -53 -37.5 -86t-100.5 -33
q-65 0 -103 33.5t-40 87.5h88q2 -18 16 -30t38 -12q23 0 36 12t13 33q0 20 -14.5 32t-40.5 12h-38v72h35q23 0 36 12t13 32q0 18 -11.5 29t-31.5 11t-32 -10.5t-14 -28.5h-88q2 51 39.5 84t97.5 33q59 0 94 -31t35 -80q0 -51 -45 -82z" />
    <glyph glyph-name="arrowleft" unicode="&#x2190;" horiz-adv-x="810" 
d="M690 387v-110h-398l157 -160l-77 -68l-271 277v12l271 277l77 -68l-157 -160h398z" />
    <glyph glyph-name="arrowup" unicode="&#x2191;" horiz-adv-x="810" 
d="M687 375l-67 -76l-160 157v-399h-110v400l-160 -158l-68 76l276 271h13z" />
    <glyph glyph-name="arrowright" unicode="&#x2192;" horiz-adv-x="810" 
d="M437 615l271 -277v-12l-271 -277l-76 68l157 160h-399v110h399l-157 160z" />
    <glyph glyph-name="arrowdown" unicode="&#x2193;" horiz-adv-x="810" 
d="M620 406l67 -77l-276 -271h-13l-276 271l68 77l160 -159v400h110v-399z" />
    <glyph glyph-name="uni2196" unicode="&#x2196;" horiz-adv-x="810" 
d="M677 163l-78 -78l-315 320v-232h-101v399l12 11h398v-101h-232z" />
    <glyph glyph-name="uni2197" unicode="&#x2197;" horiz-adv-x="810" 
d="M618 583l12 -11v-399h-101v232l-315 -320l-78 78l316 319h-232v101h398z" />
    <glyph glyph-name="uni2198" unicode="&#x2198;" horiz-adv-x="810" 
d="M529 504h101v-399l-12 -11h-398v101h232l-316 319l78 78l315 -320v232z" />
    <glyph glyph-name="uni2199" unicode="&#x2199;" horiz-adv-x="810" 
d="M671 515l-315 -319h232v-101h-399l-11 11v399h101v-232l315 320z" />
    <glyph glyph-name="partialdiff" unicode="&#x2202;" horiz-adv-x="630" 
d="M262 713q321 0 321 -324q0 -186 -79.5 -294t-237.5 -108q-113 0 -174 63t-61 158q0 111 77 193t207 82q93 0 151 -51q-10 172 -215 172q-52 0 -115 -11v109q68 11 126 11zM281 96q69 0 117 47.5t48 116.5q0 53 -35.5 86t-93.5 33q-70 0 -117.5 -46.5t-47.5 -114.5
q0 -56 35 -89t94 -33z" />
    <glyph glyph-name="emptyset" unicode="&#x2205;" horiz-adv-x="651" 
d="M498 465q50 -36 78 -92t28 -121q0 -113 -79 -189.5t-200 -76.5q-43 0 -85 11l-32 -58h-111l55 101q-105 78 -105 212q0 114 78.5 190.5t199.5 76.5q44 0 85 -11l33 58h111zM325 417q-73 0 -118.5 -46t-45.5 -119q0 -74 47 -119l154 281q-18 3 -37 3zM325 88q73 0 119 46
t46 118q0 75 -47 120l-155 -281q18 -3 37 -3z" />
    <glyph glyph-name="product" unicode="&#x220f;" horiz-adv-x="731" 
d="M699 700v-114h-99v-746h-120v746h-229v-746h-120v746h-98v114h666z" />
    <glyph glyph-name="summation" unicode="&#x2211;" horiz-adv-x="602" 
d="M208 -49h359v-111h-519v94l259 342l-250 330v94h499v-111h-340l233 -308v-12z" />
    <glyph glyph-name="minus" unicode="&#x2212;" horiz-adv-x="534" 
d="M33 279v114h468v-114h-468z" />
    <glyph glyph-name="radical" unicode="&#x221a;" horiz-adv-x="686" 
d="M576 750h121l-304 -750h-92l-150 397h-136v105h217l117 -318z" />
    <glyph glyph-name="infinity" unicode="&#x221e;" horiz-adv-x="973" 
d="M718 535q91 0 149.5 -56.5t58.5 -143.5t-58.5 -143.5t-149.5 -56.5q-68 0 -122.5 33t-108.5 92q-55 -59 -109.5 -92t-122.5 -33q-91 0 -149.5 56.5t-58.5 143.5t58.5 143.5t149.5 56.5q68 0 122 -33t110 -91q56 59 110 91.5t121 32.5zM262 237q41 0 76.5 25t80.5 73
q-44 48 -80.5 73t-76.5 25q-49 0 -77.5 -27t-28.5 -71t28.5 -71t77.5 -27zM712 237q48 0 76.5 27t28.5 71t-28.5 71t-76.5 27q-41 0 -77.5 -25t-79.5 -73q43 -47 79.5 -72.5t77.5 -25.5z" />
    <glyph glyph-name="integral" unicode="&#x222b;" horiz-adv-x="394" 
d="M-7 -302v110h36q56 0 82 27t26 86v791q0 98 52.5 151.5t146.5 53.5h65v-110h-36q-56 0 -82 -27t-26 -86v-791q0 -98 -52 -151.5t-146 -53.5h-66z" />
    <glyph glyph-name="approxequal" unicode="&#x2248;" horiz-adv-x="536" 
d="M362 354q-33 0 -61 11.5t-42.5 25.5t-33 25.5t-35.5 11.5q-43 0 -43 -49v-19h-101v28q0 68 35 105.5t92 37.5q34 0 61.5 -11.5t42.5 -25t33 -25t36 -11.5q42 0 42 48v19h101v-27q0 -68 -34.5 -106t-92.5 -38zM362 117q-33 0 -61 11.5t-42.5 25.5t-33 25.5t-35.5 11.5
q-43 0 -43 -50v-18h-101v28q0 68 35 105.5t92 37.5q43 0 74.5 -18.5t54.5 -37t44 -18.5q42 0 42 49v19h101v-28q0 -68 -34.5 -105.5t-92.5 -37.5z" />
    <glyph glyph-name="notequal" unicode="&#x2260;" horiz-adv-x="534" 
d="M491 376h-159l-28 -102h187v-111h-216l-34 -126h-102l34 126h-130v111h159l28 102h-187v111h216l34 126h102l-34 -126h130v-111z" />
    <glyph glyph-name="lessequal" unicode="&#x2264;" horiz-adv-x="551" 
d="M480 652v-123l-287 -125l287 -125v-123l-437 199v98zM48 0v106h432v-106h-432z" />
    <glyph glyph-name="greaterequal" unicode="&#x2265;" horiz-adv-x="551" 
d="M70 652l437 -199v-98l-437 -199v123l288 125l-288 125v123zM70 0v106h432v-106h-432z" />
    <glyph glyph-name="lozenge" unicode="&#x25ca;" horiz-adv-x="578" 
d="M242 0l-205 343v16l205 341h94l205 -341v-16l-205 -343h-94zM289 117l138 234l-138 232l-138 -232z" />
    <glyph glyph-name="germandbls.calt" horiz-adv-x="707" 
d="M458 425q99 -13 153.5 -69t54.5 -139q0 -98 -66.5 -157.5t-186.5 -59.5h-97v113h97q60 0 92.5 28t32.5 75t-32.5 75t-92.5 28h-97v102l135 166h-121q-124 0 -124 -122v-465h-126v471q0 106 61 167.5t167 61.5h288v-105z" />
    <glyph glyph-name="i.loclTRK" horiz-adv-x="276" 
d="M75 583v123h126v-123h-126zM78 0v505h120v-505h-120z" />
    <glyph glyph-name="uni0414.loclBGR" horiz-adv-x="758" 
d="M670 118h60v-251h-123v133h-456v-133h-122v251h60l229 582h120zM378 529l-158 -411h317z" />
    <glyph glyph-name="uni041B.loclBGR" horiz-adv-x="686" 
d="M671 0h-136l-192 516l-193 -516h-135l268 700h121z" />
    <glyph glyph-name="uni0414.ss01" horiz-adv-x="758" 
d="M670 118h60v-251h-123v133h-456v-133h-122v251h60l229 582h120zM378 529l-158 -411h317z" />
    <glyph glyph-name="uni041B.ss01" horiz-adv-x="686" 
d="M671 0h-136l-192 516l-193 -516h-135l268 700h121z" />
    <glyph glyph-name="uni0432.loclBGR" horiz-adv-x="645" 
d="M468 397q58 -25 89 -73.5t31 -112.5q0 -98 -67.5 -161t-185.5 -63q-127 0 -197 75t-70 217v183q0 135 68 209.5t190 74.5q104 0 167.5 -53t63.5 -139q0 -104 -89 -157zM326 641q-138 0 -138 -176v-49l110 17q70 10 104.5 36t34.5 77q0 46 -30 70.5t-81 24.5zM336 92
q63 0 97.5 33.5t34.5 88.5q0 50 -33.5 83t-97.5 33q-19 0 -40 -3l-109 -16v-33q0 -186 148 -186z" />
    <glyph glyph-name="uni0433.loclBGR" horiz-adv-x="544" 
d="M272 -14q-113 0 -168.5 42t-55.5 111q0 34 13 60.5t30 41.5t48.5 28t52.5 18t57 13q41 8 60.5 13.5t38 19t18.5 33.5q0 23 -20.5 37t-63.5 14q-92 0 -99 -65h-120q5 76 61 121.5t156 45.5q98 0 152 -43t54 -108q0 -35 -12.5 -61.5t-30 -42.5t-47.5 -28t-52 -17t-57 -11
q-32 -6 -46.5 -9t-35 -10.5t-29 -18.5t-8.5 -27q0 -55 101 -55q104 0 110 73h121q-4 -80 -61.5 -127.5t-166.5 -47.5z" />
    <glyph glyph-name="uni0434.loclBGR" horiz-adv-x="677" 
d="M511 505h88v-443q0 -128 -72 -198.5t-201 -70.5q-106 0 -175 47.5t-87 127.5h124q28 -72 136 -72q74 0 114 37t40 110v24q-71 -58 -169 -58q-114 0 -188 72t-74 183q0 110 73.5 182t186.5 72q110 0 186 -71zM325 116q70 0 114 42t44 106q0 63 -44 105t-114 42t-114 -41.5
t-44 -105.5t44 -106t114 -42z" />
    <glyph glyph-name="uni0436.loclBGR" horiz-adv-x="864" 
d="M703 0l-147 204h-64v-204h-120v204h-63l-147 -204h-147l194 263l-175 242h141l135 -192h62v420h120v-420h62l135 192h141l-174 -242l193 -263h-146z" />
    <glyph glyph-name="uni0437.loclBGR" horiz-adv-x="574" 
d="M436 176q104 -54 104 -173q0 -90 -67.5 -150t-181.5 -60q-118 0 -188 60t-76 156h120q8 -51 44.5 -80.5t96.5 -29.5q63 0 97.5 30.5t34.5 79.5q0 50 -33 79t-97 29h-82v107h77q53 0 80.5 24.5t27.5 67.5t-29 69.5t-79 26.5q-54 0 -86 -27.5t-38 -76.5h-119q5 93 70.5 152
t173.5 59q103 0 165 -55.5t62 -138.5q0 -92 -77 -149z" />
    <glyph glyph-name="uni0438.loclBGR" horiz-adv-x="640" 
d="M442 505h120v-505h-87l-22 65q-65 -79 -176 -79q-94 0 -146.5 57.5t-52.5 162.5v299h120v-276q0 -134 114 -134q56 0 93 44.5t37 117.5v248z" />
    <glyph glyph-name="uni0439.loclBGR" horiz-adv-x="640" 
d="M185 601v91h271v-91h-271zM442 505h120v-505h-87l-22 65q-65 -79 -176 -79q-94 0 -146.5 57.5t-52.5 162.5v299h120v-276q0 -134 114 -134q56 0 93 44.5t37 117.5v248z" />
    <glyph glyph-name="uni045D.loclBGR" horiz-adv-x="640" 
d="M282 567l-101 157h132l64 -157h-95zM442 505h120v-505h-87l-22 65q-65 -79 -176 -79q-94 0 -146.5 57.5t-52.5 162.5v299h120v-276q0 -134 114 -134q56 0 93 44.5t37 117.5v248z" />
    <glyph glyph-name="uni043A.loclBGR" horiz-adv-x="574" 
d="M414 0l-147 204h-69v-204h-120v733h120v-420h67l136 192h139l-173 -242l192 -263h-145z" />
    <glyph glyph-name="uni043B.loclBGR" horiz-adv-x="552" 
d="M541 0h-126l-141 348l-139 -348h-124l205 505h116z" />
    <glyph glyph-name="uni043F.loclBGR" horiz-adv-x="639" 
d="M365 519q92 0 147 -59.5t55 -164.5v-295h-120v271q0 69 -30 103.5t-85 34.5q-59 0 -96.5 -43.5t-37.5 -115.5v-250h-120v505h87l22 -65q63 79 178 79z" />
    <glyph glyph-name="uni0442.loclBGR" horiz-adv-x="940" 
d="M679 519q87 0 138 -55t51 -153v-311h-120v282q0 127 -100 127q-48 0 -81.5 -41t-33.5 -106v-262h-120v282q0 63 -25.5 95t-71.5 32q-49 0 -83.5 -40.5t-34.5 -106.5v-262h-120v505h87l20 -61q64 75 163 75q109 0 157 -87q62 87 174 87z" />
    <glyph glyph-name="uni0446.loclBGR" horiz-adv-x="682" 
d="M566 183q0 -56 22 -79.5t73 -23.5v-215h-115v137q-59 14 -81 74q-58 -90 -185 -90q-94 0 -148 58.5t-54 168.5v292h120v-272q0 -138 114 -138q58 0 96 44.5t38 119.5v246h120v-322z" />
    <glyph glyph-name="uni0448.loclBGR" horiz-adv-x="955" 
d="M757 505h120v-505h-87l-20 60q-63 -74 -165 -74q-111 0 -160 89q-29 -42 -75.5 -65.5t-100.5 -23.5q-88 0 -139.5 55.5t-51.5 154.5v309h120v-280q0 -64 26.5 -97t75.5 -33q50 0 83.5 42t33.5 108v260h120v-280q0 -64 26 -97t74 -33q51 0 85.5 41.5t34.5 108.5v260z" />
    <glyph glyph-name="uni0449.loclBGR" horiz-adv-x="994" 
d="M877 183q0 -56 22 -79.5t73 -23.5v-215h-115v137q-57 16 -79 73q-27 -43 -72.5 -66t-99.5 -23q-112 0 -161 89q-29 -42 -75.5 -65.5t-100.5 -23.5q-88 0 -139.5 55.5t-51.5 154.5v309h120v-280q0 -64 26.5 -97t75.5 -33q50 0 83.5 42t33.5 108v260h120v-280q0 -64 26 -97
t74 -33q51 0 85.5 41.5t34.5 108.5v260h120v-322z" />
    <glyph glyph-name="uni044E.loclBGR" horiz-adv-x="862" 
d="M542 519q119 0 196 -76t77 -191t-77 -190.5t-196 -75.5q-104 0 -177.5 59t-90.5 154h-77v-199h-119v733h119v-425h77q19 94 92 152.5t176 58.5zM542 94q68 0 110.5 44t42.5 114q0 72 -42.5 115.5t-110.5 43.5t-110.5 -43.5t-42.5 -115.5q0 -70 42.5 -114t110.5 -44z" />
    <glyph glyph-name="uni0432.ss01" horiz-adv-x="645" 
d="M468 397q58 -25 89 -73.5t31 -112.5q0 -98 -67.5 -161t-185.5 -63q-127 0 -197 75t-70 217v183q0 135 68 209.5t190 74.5q104 0 167.5 -53t63.5 -139q0 -104 -89 -157zM326 641q-138 0 -138 -176v-49l110 17q70 10 104.5 36t34.5 77q0 46 -30 70.5t-81 24.5zM336 92
q63 0 97.5 33.5t34.5 88.5q0 50 -33.5 83t-97.5 33q-19 0 -40 -3l-109 -16v-33q0 -186 148 -186z" />
    <glyph glyph-name="uni0433.ss01" horiz-adv-x="544" 
d="M272 -14q-113 0 -168.5 42t-55.5 111q0 34 13 60.5t30 41.5t48.5 28t52.5 18t57 13q41 8 60.5 13.5t38 19t18.5 33.5q0 23 -20.5 37t-63.5 14q-92 0 -99 -65h-120q5 76 61 121.5t156 45.5q98 0 152 -43t54 -108q0 -35 -12.5 -61.5t-30 -42.5t-47.5 -28t-52 -17t-57 -11
q-32 -6 -46.5 -9t-35 -10.5t-29 -18.5t-8.5 -27q0 -55 101 -55q104 0 110 73h121q-4 -80 -61.5 -127.5t-166.5 -47.5z" />
    <glyph glyph-name="uni0434.ss01" horiz-adv-x="677" 
d="M511 505h88v-443q0 -128 -72 -198.5t-201 -70.5q-106 0 -175 47.5t-87 127.5h124q28 -72 136 -72q74 0 114 37t40 110v24q-71 -58 -169 -58q-114 0 -188 72t-74 183q0 110 73.5 182t186.5 72q110 0 186 -71zM325 116q70 0 114 42t44 106q0 63 -44 105t-114 42t-114 -41.5
t-44 -105.5t44 -106t114 -42z" />
    <glyph glyph-name="uni0436.ss01" horiz-adv-x="864" 
d="M703 0l-147 204h-64v-204h-120v204h-63l-147 -204h-147l194 263l-175 242h141l135 -192h62v420h120v-420h62l135 192h141l-174 -242l193 -263h-146z" />
    <glyph glyph-name="uni0437.ss01" horiz-adv-x="574" 
d="M436 176q104 -54 104 -173q0 -90 -67.5 -150t-181.5 -60q-118 0 -188 60t-76 156h120q8 -51 44.5 -80.5t96.5 -29.5q63 0 97.5 30.5t34.5 79.5q0 50 -33 79t-97 29h-82v107h77q53 0 80.5 24.5t27.5 67.5t-29 69.5t-79 26.5q-54 0 -86 -27.5t-38 -76.5h-119q5 93 70.5 152
t173.5 59q103 0 165 -55.5t62 -138.5q0 -92 -77 -149z" />
    <glyph glyph-name="uni0438.ss01" horiz-adv-x="640" 
d="M442 505h120v-505h-87l-22 65q-65 -79 -176 -79q-94 0 -146.5 57.5t-52.5 162.5v299h120v-276q0 -134 114 -134q56 0 93 44.5t37 117.5v248z" />
    <glyph glyph-name="uni0439.ss01" horiz-adv-x="640" 
d="M186 601v91h270v-91h-270zM442 505h120v-505h-87l-22 65q-65 -79 -176 -79q-94 0 -146.5 57.5t-52.5 162.5v299h120v-276q0 -134 114 -134q56 0 93 44.5t37 117.5v248z" />
    <glyph glyph-name="uni045D.ss01" horiz-adv-x="640" 
d="M282 567l-101 157h132l64 -157h-95zM442 505h120v-505h-87l-22 65q-65 -79 -176 -79q-94 0 -146.5 57.5t-52.5 162.5v299h120v-276q0 -134 114 -134q56 0 93 44.5t37 117.5v248z" />
    <glyph glyph-name="uni043A.ss01" horiz-adv-x="574" 
d="M414 0l-147 204h-69v-204h-120v733h120v-420h67l136 192h139l-173 -242l192 -263h-145z" />
    <glyph glyph-name="uni043B.ss01" horiz-adv-x="552" 
d="M541 0h-126l-141 348l-139 -348h-124l205 505h116z" />
    <glyph glyph-name="uni043F.ss01" horiz-adv-x="639" 
d="M365 519q92 0 147 -59.5t55 -164.5v-295h-120v271q0 69 -30 103.5t-85 34.5q-59 0 -96.5 -43.5t-37.5 -115.5v-250h-120v505h87l22 -65q63 79 178 79z" />
    <glyph glyph-name="uni0442.ss01" horiz-adv-x="940" 
d="M679 519q87 0 138 -55t51 -153v-311h-120v282q0 127 -100 127q-48 0 -81.5 -41t-33.5 -106v-262h-120v282q0 63 -25.5 95t-71.5 32q-49 0 -83.5 -40.5t-34.5 -106.5v-262h-120v505h87l20 -61q64 75 163 75q109 0 157 -87q62 87 174 87z" />
    <glyph glyph-name="uni0446.ss01" horiz-adv-x="682" 
d="M566 183q0 -56 22 -79.5t73 -23.5v-215h-115v137q-59 14 -81 74q-58 -90 -185 -90q-94 0 -148 58.5t-54 168.5v292h120v-272q0 -138 114 -138q58 0 96 44.5t38 119.5v246h120v-322z" />
    <glyph glyph-name="uni0448.ss01" horiz-adv-x="955" 
d="M757 505h120v-505h-87l-20 60q-63 -74 -165 -74q-111 0 -160 89q-29 -42 -75.5 -65.5t-100.5 -23.5q-88 0 -139.5 55.5t-51.5 154.5v309h120v-280q0 -64 26.5 -97t75.5 -33q50 0 83.5 42t33.5 108v260h120v-280q0 -64 26 -97t74 -33q51 0 85.5 41.5t34.5 108.5v260z" />
    <glyph glyph-name="uni0449.ss01" horiz-adv-x="994" 
d="M877 183q0 -56 22 -79.5t73 -23.5v-215h-115v137q-57 16 -79 73q-27 -43 -72.5 -66t-99.5 -23q-112 0 -161 89q-29 -42 -75.5 -65.5t-100.5 -23.5q-88 0 -139.5 55.5t-51.5 154.5v309h120v-280q0 -64 26.5 -97t75.5 -33q50 0 83.5 42t33.5 108v260h120v-280q0 -64 26 -97
t74 -33q51 0 85.5 41.5t34.5 108.5v260h120v-322z" />
    <glyph glyph-name="uni044E.ss01" horiz-adv-x="862" 
d="M542 519q119 0 196 -76t77 -191t-77 -190.5t-196 -75.5q-104 0 -177.5 59t-90.5 154h-77v-199h-119v733h119v-425h77q19 94 92 152.5t176 58.5zM542 94q68 0 110.5 44t42.5 114q0 72 -42.5 115.5t-110.5 43.5t-110.5 -43.5t-42.5 -115.5q0 -70 42.5 -114t110.5 -44z" />
    <glyph glyph-name="zero.osf" horiz-adv-x="673" 
d="M337 -14q-124 0 -205 80t-81 201q0 122 81 202t205 80t204.5 -80t80.5 -202q0 -121 -81 -201t-204 -80zM337 96q70 0 116.5 48t46.5 123q0 76 -46.5 124t-116.5 48q-71 0 -117.5 -48t-46.5 -124q0 -75 46.5 -123t117.5 -48z" />
    <glyph glyph-name="one.osf" horiz-adv-x="366" 
d="M179 535h105v-535h-122v403l-119 -58v121z" />
    <glyph glyph-name="two.osf" horiz-adv-x="534" 
d="M266 109h210v-109h-414v95q148 93 214.5 153.5t66.5 119.5q0 32 -20.5 51.5t-55.5 19.5q-40 0 -62 -22t-22 -60v-11h-121v14q0 82 56.5 135.5t149.5 53.5q89 0 143 -48.5t54 -126.5q0 -127 -199 -265z" />
    <glyph glyph-name="three.osf" horiz-adv-x="536" 
d="M385 219q48 -23 75.5 -68.5t27.5 -102.5q0 -93 -61 -149.5t-163 -56.5q-103 0 -165 56t-64 144h121q5 -42 32.5 -67t74.5 -25t74.5 27t27.5 75t-28.5 76t-80.5 28h-60v108h55q43 0 67.5 24.5t24.5 65.5t-22.5 63.5t-60.5 22.5t-61.5 -23t-26.5 -63h-122q2 85 60.5 139.5
t153.5 54.5q91 0 146 -50t55 -130q0 -97 -80 -149z" />
    <glyph glyph-name="four.osf" horiz-adv-x="522" 
d="M507 110v-110h-67v-144h-123v144h-287v93l209 442h132l-203 -425h152l26 157h94v-157h67z" />
    <glyph glyph-name="five.osf" horiz-adv-x="537" 
d="M294 284q91 0 148.5 -59.5t57.5 -156.5q0 -104 -61.5 -164.5t-166.5 -60.5q-100 0 -159 51t-65 132h119q6 -32 32.5 -53.5t71.5 -21.5q49 0 77.5 30t28.5 85t-29 84t-77 29q-66 0 -92 -48h-116l37 404h358v-108h-251l-15 -166q44 23 102 23z" />
    <glyph glyph-name="six.osf" horiz-adv-x="580" 
d="M310 434q98 0 160.5 -62t62.5 -158q0 -99 -66.5 -163.5t-172.5 -64.5q-109 0 -177.5 65t-68.5 166q0 107 84 230l147 218h140q-136 -188 -164 -237q25 6 55 6zM292 94q53 0 86 33t33 86q0 51 -33 83.5t-87 32.5q-53 0 -86 -32.5t-33 -84.5t33 -85t87 -33z" />
    <glyph glyph-name="seven.osf" horiz-adv-x="488" 
d="M32 535h421v-97l-241 -582h-124l233 569h-289v110z" />
    <glyph glyph-name="eight.osf" horiz-adv-x="593" 
d="M436 356q102 -54 102 -166q0 -90 -64.5 -147t-177.5 -57t-177.5 57t-64.5 147q0 111 102 166q-77 52 -77 144q0 77 58.5 128t158.5 51t159 -51t59 -128q0 -89 -78 -144zM296 574q-44 0 -70.5 -24t-26.5 -61t26.5 -61t70.5 -24q45 0 71 24t26 61t-26 61t-71 24zM296 93
q55 0 87.5 29.5t32.5 74.5t-32.5 74.5t-87.5 29.5q-54 0 -86.5 -29.5t-32.5 -74.5t32.5 -74.5t86.5 -29.5z" />
    <glyph glyph-name="nine.osf" horiz-adv-x="583" 
d="M289 549q110 0 178 -65t68 -166q0 -107 -83 -231l-154 -231h-139q134 197 162 245q-19 -3 -42 -3q-102 0 -165.5 62t-63.5 160q0 100 66.5 164.5t172.5 64.5zM292 203q53 0 86 32.5t33 85.5t-33 86t-87 33q-53 0 -86 -33t-33 -87q0 -52 33.5 -84.5t86.5 -32.5z" />
    <glyph glyph-name="zero.tf" horiz-adv-x="592" 
d="M296 -14q-118 0 -191 92.5t-73 271.5t73 271.5t191 92.5t191 -92.5t73 -271.5t-73 -271.5t-191 -92.5zM296 105q136 0 136 245t-136 245t-136 -245t136 -245z" />
    <glyph glyph-name="one.tf" horiz-adv-x="592" 
d="M386 117h142v-117h-423v117h155v444l-137 -65v127l154 77h109v-583z" />
    <glyph glyph-name="two.tf" horiz-adv-x="592" 
d="M247 119h281v-119h-460v107q185 174 251.5 256.5t66.5 146.5q0 40 -24.5 62.5t-67.5 22.5q-47 0 -73.5 -25.5t-26.5 -70.5v-16h-126v17q0 97 61 155.5t165 58.5q100 0 160.5 -54.5t60.5 -141.5q0 -82 -64 -174.5t-204 -224.5z" />
    <glyph glyph-name="three.tf" horiz-adv-x="592" 
d="M425 374q51 -26 77.5 -72.5t26.5 -101.5q0 -96 -63.5 -155t-174.5 -59q-110 0 -174 59t-66 156h128q3 -47 32 -73t81 -26q51 0 80 28t29 74t-30.5 74t-85.5 28h-64v113h58q47 0 73 24t26 66q0 41 -24 65t-65 24q-42 0 -68 -24t-28 -62h-127q2 89 63.5 145.5t163.5 56.5
q96 0 154 -53.5t58 -134.5q0 -102 -80 -152z" />
    <glyph glyph-name="four.tf" horiz-adv-x="592" 
d="M552 253v-118h-68v-135h-126v135h-311v101l221 464h137l-214 -447h170l21 169h102v-169h68z" />
    <glyph glyph-name="five.tf" horiz-adv-x="592" 
d="M322 447q98 0 159 -62t61 -164q0 -109 -64 -172t-175 -63q-101 0 -164 55t-69 144h126q6 -36 33 -58.5t75 -22.5q52 0 82 30.5t30 83.5q0 55 -30.5 86t-81.5 31q-70 0 -98 -47h-120l39 412h374v-116h-259l-15 -157q42 20 97 20z" />
    <glyph glyph-name="six.tf" horiz-adv-x="592" 
d="M316 447q105 0 170.5 -63t65.5 -163q0 -102 -69 -168.5t-180 -66.5q-115 0 -185.5 66.5t-70.5 171.5q0 104 73 223l156 253h141q-50 -83 -102.5 -166.5t-58.5 -93.5q25 7 60 7zM300 104q56 0 89.5 32t33.5 83t-33.5 83t-89.5 32t-89.5 -32t-33.5 -83t33.5 -83t89.5 -32z
" />
    <glyph glyph-name="seven.tf" horiz-adv-x="592" 
d="M74 700h448v-106l-258 -594h-133l253 581h-310v119z" />
    <glyph glyph-name="eight.tf" horiz-adv-x="592" 
d="M444 373q46 -25 74.5 -70.5t28.5 -103.5q0 -95 -66 -154t-185 -59t-185 59t-66 154q0 58 28.5 103.5t74.5 70.5q-79 53 -79 152q0 82 61 135.5t166 53.5t166 -53.5t61 -135.5q0 -99 -79 -152zM296 601q-46 0 -73 -24.5t-27 -63.5q0 -40 27 -64.5t73 -24.5t73 24.5
t27 64.5q0 39 -27 63.5t-73 24.5zM296 100q56 0 89 30t33 77t-33 77.5t-89 30.5t-89 -30.5t-33 -77.5t33 -77t89 -30z" />
    <glyph glyph-name="nine.tf" horiz-adv-x="592" 
d="M293 714q114 0 184.5 -66.5t70.5 -171.5q0 -108 -72 -224l-156 -252h-142q45 74 96 154.5t65 103.5q-26 -6 -55 -6q-107 0 -173.5 64t-66.5 163q0 102 69 168.5t180 66.5zM296 366q55 0 89 32t34 83t-34 83t-89 32q-56 0 -90 -32t-34 -83t34 -83t90 -32z" />
    <glyph glyph-name="zero.tosf" horiz-adv-x="592" 
d="M296 -14q-124 0 -205 80t-81 201q0 122 81 202t205 80t204.5 -80t80.5 -202q0 -121 -81 -201t-204 -80zM296 96q70 0 116.5 48t46.5 123q0 76 -46.5 124t-116.5 48q-71 0 -117.5 -48t-46.5 -124q0 -75 46.5 -123t117.5 -48z" />
    <glyph glyph-name="one.tosf" horiz-adv-x="592" 
d="M379 107h146v-107h-427v107h159v294l-127 -69v126l143 77h106v-428z" />
    <glyph glyph-name="two.tosf" horiz-adv-x="592" 
d="M291 109h210v-109h-414v95q148 93 214.5 153.5t66.5 119.5q0 32 -20.5 51.5t-55.5 19.5q-40 0 -62 -22t-22 -60v-11h-121v14q0 82 56.5 135.5t149.5 53.5q89 0 143 -48.5t54 -126.5q0 -127 -199 -265z" />
    <glyph glyph-name="three.tosf" horiz-adv-x="592" 
d="M415 219q48 -24 75.5 -69t27.5 -102q0 -93 -60.5 -149.5t-162.5 -56.5q-103 0 -165 56t-64 144h121q4 -42 31.5 -67t75.5 -25q46 0 74 27.5t28 74.5q0 48 -28.5 76t-80.5 28h-60v108h55q42 0 66.5 24.5t24.5 65.5t-22.5 63.5t-60.5 22.5t-61.5 -23t-26.5 -63h-121
q2 85 60.5 139.5t153.5 54.5q91 0 146 -50t55 -130q0 -98 -81 -149z" />
    <glyph glyph-name="four.tosf" horiz-adv-x="592" 
d="M548 110v-110h-68v-144h-122v144h-287v93l209 442h132l-203 -425h152l26 157h93v-157h68z" />
    <glyph glyph-name="five.tosf" horiz-adv-x="592" 
d="M332 284q91 0 148.5 -59.5t57.5 -156.5q0 -104 -61.5 -164.5t-166.5 -60.5q-100 0 -159 51t-65 132h119q6 -32 32.5 -53.5t71.5 -21.5q49 0 77.5 30t28.5 85t-29 84t-77 29q-66 0 -92 -48h-116l37 404h358v-108h-251l-15 -166q44 23 102 23z" />
    <glyph glyph-name="six.tosf" horiz-adv-x="592" 
d="M316 434q99 0 161.5 -62t62.5 -158q0 -99 -67 -163.5t-173 -64.5q-109 0 -177 65t-68 166q0 106 83 230l148 218h139q-136 -191 -164 -237q26 6 55 6zM298 94q53 0 86 33t33 86q0 51 -33 83.5t-86 32.5q-54 0 -87 -32.5t-33 -84.5t33 -85t87 -33z" />
    <glyph glyph-name="seven.tosf" horiz-adv-x="592" 
d="M89 535h421v-97l-241 -582h-124l233 569h-289v110z" />
    <glyph glyph-name="eight.tosf" horiz-adv-x="592" 
d="M436 356q102 -55 102 -166q0 -90 -64.5 -147t-177.5 -57t-177.5 57t-64.5 147q0 112 102 166q-78 52 -78 144q0 77 59 128t159 51t158.5 -51t58.5 -128q0 -92 -77 -144zM296 574q-45 0 -71 -24t-26 -61t26 -61t71 -24q44 0 70.5 24t26.5 61t-26.5 61t-70.5 24zM296 93
q54 0 86.5 29.5t32.5 74.5t-32.5 74.5t-86.5 29.5q-55 0 -87.5 -29.5t-32.5 -74.5t32.5 -74.5t87.5 -29.5z" />
    <glyph glyph-name="nine.tosf" horiz-adv-x="592" 
d="M295 549q109 0 177 -65t68 -166q0 -109 -83 -231l-153 -231h-140q134 197 162 245q-20 -3 -42 -3q-102 0 -165.5 62t-63.5 160q0 100 67 164.5t173 64.5zM297 203q53 0 86.5 33t33.5 85q0 53 -33.5 86t-86.5 33t-86 -33t-33 -87q0 -52 33 -84.5t86 -32.5z" />
    <glyph glyph-name="zero.sinf" horiz-adv-x="385" 
d="M192 -75q-73 0 -116.5 53.5t-43.5 147.5q0 95 43.5 148t116.5 53t117 -53t44 -148q0 -94 -44 -147.5t-117 -53.5zM192 7q33 0 52 29.5t19 89.5t-19 89.5t-52 29.5q-71 0 -71 -119t71 -119z" />
    <glyph glyph-name="one.sinf" horiz-adv-x="227" 
d="M101 318h80v-385h-88v289l-70 -34v87z" />
    <glyph glyph-name="two.sinf" horiz-adv-x="336" 
d="M162 16h142v-83h-273v74q97 78 137 121.5t40 74.5q0 20 -11.5 31t-31.5 11q-22 0 -35 -12.5t-13 -34.5v-8h-88v8q0 59 37 94t101 35q60 0 95 -32t35 -84q0 -86 -135 -195z" />
    <glyph glyph-name="three.sinf" horiz-adv-x="339" 
d="M254 134q55 -29 55 -90q0 -53 -37.5 -86t-100.5 -33q-65 0 -103 33.5t-40 87.5h88q2 -18 16 -30t38 -12q23 0 36 12t13 33q0 20 -14.5 32t-40.5 12h-38v72h35q23 0 36 12t13 32q0 18 -11.5 29t-31.5 11t-32 -10.5t-14 -28.5h-88q2 51 39.5 84t97.5 33q59 0 94 -31t35 -80
q0 -51 -45 -82z" />
    <glyph glyph-name="four.sinf" horiz-adv-x="342" 
d="M327 82v-83h-39v-66h-88v66h-172v72l123 247h96l-118 -236h73l25 92h61v-92h39z" />
    <glyph glyph-name="five.sinf" horiz-adv-x="325" 
d="M184 180q57 0 90.5 -34t33.5 -90q0 -60 -37 -95.5t-100 -35.5t-100 31t-41 79h89q3 -14 16.5 -23.5t33.5 -9.5q23 0 37 14.5t14 38.5q0 25 -14 39t-38 14q-34 0 -47 -25h-85l22 235h226v-77h-147l-6 -72q22 11 53 11z" />
    <glyph glyph-name="six.sinf" horiz-adv-x="346" 
d="M188 191q61 0 98.5 -35.5t37.5 -92.5q0 -61 -41 -99.5t-107 -38.5q-68 0 -109 38.5t-41 99.5q0 56 41 125l79 130h100l-72 -117l-7 -12q12 2 21 2zM175 5q26 0 43 16.5t17 41.5t-17 41t-43 16q-27 0 -43.5 -16t-16.5 -41q0 -26 16.5 -42t43.5 -16z" />
    <glyph glyph-name="seven.sinf" horiz-adv-x="298" 
d="M22 318h266v-76l-132 -309h-94l129 302h-169v83z" />
    <glyph glyph-name="eight.sinf" horiz-adv-x="350" 
d="M270 137q51 -34 51 -94q0 -52 -39 -85t-107 -33t-107 33t-39 85q0 62 52 94q-41 30 -41 81q0 47 37 78t98 31t98 -31t37 -78q0 -51 -40 -81zM175 253q-21 0 -34.5 -12t-13.5 -30t13.5 -30.5t34.5 -12.5q22 0 35 12t13 31q0 18 -13 30t-35 12zM175 1q25 0 40.5 14t15.5 35
t-15.5 35t-40.5 14t-40.5 -14t-15.5 -35t15.5 -35t40.5 -14z" />
    <glyph glyph-name="nine.sinf" horiz-adv-x="341" 
d="M169 327q67 0 108.5 -38.5t41.5 -99.5q0 -58 -44 -131l-76 -125h-100l71 117q1 2 3.5 6.5t4.5 6.5q-12 -2 -20 -2q-61 0 -99 35.5t-38 92.5q0 61 41 99.5t107 38.5zM170 133q26 0 43 16t17 41t-17 41t-43 16q-27 0 -43.5 -16t-16.5 -41t16.5 -41t43.5 -16z" />
    <glyph glyph-name="zero.dnom" horiz-adv-x="385" 
d="M192 -8q-73 0 -116.5 53.5t-43.5 147.5q0 95 43.5 148t116.5 53t117 -53t44 -148q0 -94 -44 -147.5t-117 -53.5zM192 74q33 0 52 29.5t19 89.5t-19 89.5t-52 29.5q-71 0 -71 -119t71 -119z" />
    <glyph glyph-name="one.dnom" horiz-adv-x="227" 
d="M101 385h80v-385h-88v289l-70 -34v87z" />
    <glyph glyph-name="two.dnom" horiz-adv-x="336" 
d="M162 83h142v-83h-273v74q97 78 137 121.5t40 74.5q0 20 -11.5 31t-31.5 11q-22 0 -35 -12.5t-13 -34.5v-8h-88v8q0 59 37 94t101 35q60 0 95 -32t35 -84q0 -86 -135 -195z" />
    <glyph glyph-name="three.dnom" horiz-adv-x="339" 
d="M254 201q55 -29 55 -90q0 -53 -37.5 -86t-100.5 -33q-65 0 -103 33.5t-40 87.5h88q2 -18 16 -30t38 -12q23 0 36 12t13 33q0 20 -14.5 32t-40.5 12h-38v72h35q23 0 36 12t13 32q0 18 -11.5 29t-31.5 11t-32 -10.5t-14 -28.5h-88q2 51 39.5 84t97.5 33q59 0 94 -31t35 -80
q0 -51 -45 -82z" />
    <glyph glyph-name="four.dnom" horiz-adv-x="342" 
d="M327 149v-83h-39v-66h-88v66h-172v72l123 247h96l-118 -236h73l25 92h61v-92h39z" />
    <glyph glyph-name="five.dnom" horiz-adv-x="325" 
d="M184 247q57 0 90.5 -34t33.5 -90q0 -60 -37 -95.5t-100 -35.5t-100 31t-41 79h89q3 -14 16.5 -23.5t33.5 -9.5q23 0 37 14.5t14 38.5q0 25 -14 39t-38 14q-34 0 -47 -25h-85l22 235h226v-77h-147l-6 -72q22 11 53 11z" />
    <glyph glyph-name="six.dnom" horiz-adv-x="346" 
d="M188 258q61 0 98.5 -35.5t37.5 -92.5q0 -61 -41 -99.5t-107 -38.5q-68 0 -109 38.5t-41 99.5q0 56 41 125l79 130h100l-72 -117q-2 -4 -8 -12q14 2 22 2zM175 72q26 0 43 16.5t17 41.5t-17 41t-43 16q-27 0 -43.5 -16t-16.5 -41q0 -26 16.5 -42t43.5 -16z" />
    <glyph glyph-name="seven.dnom" horiz-adv-x="298" 
d="M22 385h266v-76l-132 -309h-94l129 302h-169v83z" />
    <glyph glyph-name="eight.dnom" horiz-adv-x="350" 
d="M270 204q51 -34 51 -94q0 -52 -39 -85t-107 -33t-107 33t-39 85q0 62 52 94q-41 30 -41 81q0 47 37 78t98 31t98 -31t37 -78q0 -51 -40 -81zM175 320q-21 0 -34.5 -12t-13.5 -30t13.5 -30.5t34.5 -12.5q22 0 35 12t13 31q0 18 -13 30t-35 12zM175 68q25 0 40.5 14
t15.5 35t-15.5 35t-40.5 14t-40.5 -14t-15.5 -35t15.5 -35t40.5 -14z" />
    <glyph glyph-name="nine.dnom" horiz-adv-x="341" 
d="M169 394q67 0 108.5 -39t41.5 -99q0 -58 -44 -131l-76 -125h-100l71 117q1 2 3.5 6.5t4.5 6.5q-12 -2 -20 -2q-61 0 -99 35.5t-38 92.5q0 61 41 99.5t107 38.5zM170 200q26 0 43 16t17 41t-17 41t-43 16q-27 0 -43.5 -16t-16.5 -41t16.5 -41t43.5 -16z" />
    <glyph glyph-name="zero.numr" horiz-adv-x="385" 
d="M192 307q-73 0 -116.5 53.5t-43.5 147.5q0 95 43.5 148t116.5 53t117 -53t44 -148q0 -94 -44 -147.5t-117 -53.5zM192 389q33 0 52 29.5t19 89.5t-19 89.5t-52 29.5q-71 0 -71 -119t71 -119z" />
    <glyph glyph-name="one.numr" horiz-adv-x="227" 
d="M101 700h80v-385h-88v289l-70 -34v87z" />
    <glyph glyph-name="two.numr" horiz-adv-x="336" 
d="M163 398h141v-83h-273v74q97 78 137 121.5t40 74.5q0 20 -11.5 31t-31.5 11q-22 0 -35 -12.5t-13 -34.5v-8h-88v8q0 59 37 94t101 35q60 0 95 -32t35 -84q0 -84 -134 -195z" />
    <glyph glyph-name="three.numr" horiz-adv-x="339" 
d="M254 516q55 -29 55 -90q0 -53 -37.5 -86t-100.5 -33q-65 0 -103 33.5t-40 87.5h88q2 -18 16 -30t38 -12q23 0 36 12t13 33q0 20 -14.5 32t-40.5 12h-38v72h35q23 0 36 12t13 32q0 18 -11.5 29t-31.5 11t-32 -10.5t-14 -28.5h-88q2 51 39.5 84t97.5 33q59 0 94 -31t35 -80
q0 -51 -45 -82z" />
    <glyph glyph-name="four.numr" horiz-adv-x="342" 
d="M327 464v-83h-39v-66h-88v66h-172v72l123 247h96l-118 -236h73l25 92h61v-92h39z" />
    <glyph glyph-name="five.numr" horiz-adv-x="325" 
d="M184 562q57 0 90.5 -34t33.5 -90q0 -60 -37 -95.5t-100 -35.5t-100 31t-41 79h89q3 -14 16.5 -23.5t33.5 -9.5q23 0 37 14.5t14 38.5q0 25 -14 39t-38 14q-34 0 -47 -25h-85l22 235h226v-77h-147l-6 -72q22 11 53 11z" />
    <glyph glyph-name="six.numr" horiz-adv-x="346" 
d="M188 573q61 0 98.5 -35.5t37.5 -92.5q0 -61 -41 -99.5t-107 -38.5q-68 0 -109 38.5t-41 99.5q0 56 41 125l79 130h100l-72 -117l-7 -12q12 2 21 2zM175 387q26 0 43 16.5t17 41.5t-17 41t-43 16q-27 0 -43.5 -16t-16.5 -41q0 -26 16.5 -42t43.5 -16z" />
    <glyph glyph-name="seven.numr" horiz-adv-x="298" 
d="M22 700h266v-76l-132 -309h-94l129 302h-169v83z" />
    <glyph glyph-name="eight.numr" horiz-adv-x="350" 
d="M270 519q51 -34 51 -94q0 -52 -39 -85t-107 -33t-107 33t-39 85q0 62 52 94q-41 30 -41 81q0 47 37 78t98 31t98 -31t37 -78q0 -51 -40 -81zM175 635q-21 0 -34.5 -12t-13.5 -30t13.5 -30.5t34.5 -12.5q22 0 35 12t13 31q0 18 -13 30t-35 12zM175 383q25 0 40.5 14
t15.5 35t-15.5 35t-40.5 14t-40.5 -14t-15.5 -35t15.5 -35t40.5 -14z" />
    <glyph glyph-name="nine.numr" horiz-adv-x="341" 
d="M169 709q67 0 108.5 -38.5t41.5 -99.5q0 -58 -44 -131l-76 -125h-100l71 117q1 2 3.5 6.5t4.5 6.5q-12 -2 -20 -2q-61 0 -99 35.5t-38 92.5q0 61 41 99.5t107 38.5zM170 515q26 0 43 16t17 41t-17 41t-43 16q-27 0 -43.5 -16t-16.5 -41t16.5 -41t43.5 -16z" />
    <glyph glyph-name="zero.sups" horiz-adv-x="385" 
d="M192 407q-73 0 -116.5 53.5t-43.5 147.5q0 95 43.5 148t116.5 53t117 -53t44 -148q0 -94 -44 -147.5t-117 -53.5zM192 489q33 0 52 29.5t19 89.5t-19 89.5t-52 29.5q-71 0 -71 -119t71 -119z" />
    <glyph glyph-name="one.sups" horiz-adv-x="227" 
d="M101 800h80v-385h-88v289l-70 -34v87z" />
    <glyph glyph-name="two.sups" horiz-adv-x="336" 
d="M162 498h142v-83h-273v74q97 78 137 121.5t40 74.5q0 20 -11.5 31t-31.5 11q-22 0 -35 -12.5t-13 -34.5v-8h-88v8q0 59 37 94t101 35q60 0 95 -32t35 -84q0 -86 -135 -195z" />
    <glyph glyph-name="three.sups" horiz-adv-x="339" 
d="M254 616q55 -29 55 -90q0 -53 -37.5 -86t-100.5 -33q-65 0 -103 33.5t-40 87.5h88q2 -18 16 -30t38 -12q23 0 36 12t13 33q0 20 -14.5 32t-40.5 12h-38v72h35q23 0 36 12t13 32q0 18 -11.5 29t-31.5 11t-32 -10.5t-14 -28.5h-88q2 51 39.5 84t97.5 33q59 0 94 -31t35 -80
q0 -51 -45 -82z" />
    <glyph glyph-name="four.sups" horiz-adv-x="342" 
d="M327 564v-83h-39v-66h-88v66h-172v72l123 247h96l-118 -236h73l25 92h61v-92h39z" />
    <glyph glyph-name="five.sups" horiz-adv-x="325" 
d="M184 662q57 0 90.5 -34t33.5 -90q0 -60 -37 -95.5t-100 -35.5t-100 31t-41 79h89q3 -14 16.5 -23.5t33.5 -9.5q23 0 37 14.5t14 38.5q0 25 -14 39t-38 14q-34 0 -47 -25h-85l22 235h226v-77h-147l-6 -72q22 11 53 11z" />
    <glyph glyph-name="six.sups" horiz-adv-x="346" 
d="M188 673q61 0 98.5 -35.5t37.5 -92.5q0 -61 -41 -99.5t-107 -38.5q-68 0 -109 38.5t-41 99.5q0 56 41 125l79 130h100l-72 -117l-7 -12q12 2 21 2zM175 487q26 0 43 16.5t17 41.5t-17 41t-43 16q-27 0 -43.5 -16t-16.5 -41q0 -26 16.5 -42t43.5 -16z" />
    <glyph glyph-name="seven.sups" horiz-adv-x="298" 
d="M22 800h266v-76l-132 -309h-94l129 302h-169v83z" />
    <glyph glyph-name="eight.sups" horiz-adv-x="350" 
d="M270 619q51 -34 51 -94q0 -52 -39 -85t-107 -33t-107 33t-39 85q0 62 52 94q-41 30 -41 81q0 47 37 78t98 31t98 -31t37 -78q0 -51 -40 -81zM175 735q-21 0 -34.5 -12t-13.5 -30t13.5 -30.5t34.5 -12.5q22 0 35 12t13 31q0 18 -13 30t-35 12zM175 483q25 0 40.5 14
t15.5 35t-15.5 35t-40.5 14t-40.5 -14t-15.5 -35t15.5 -35t40.5 -14z" />
    <glyph glyph-name="nine.sups" horiz-adv-x="341" 
d="M169 809q67 0 108.5 -38.5t41.5 -99.5q0 -58 -44 -131l-76 -125h-100l71 117q2 2 4 6.5t4 6.5q-12 -2 -20 -2q-61 0 -99 35.5t-38 92.5q0 61 41 99.5t107 38.5zM170 615q26 0 43 16t17 41t-17 41t-43 16q-27 0 -43.5 -16t-16.5 -41t16.5 -41t43.5 -16z" />
    <glyph glyph-name="exclamdown.case" horiz-adv-x="313" 
d="M90 563v137h133v-137h-133zM94 0v476h125v-476h-125z" />
    <glyph glyph-name="questiondown.case" horiz-adv-x="524" 
d="M345 700v-137h-132v137h132zM342 476v-7q0 -49 -18 -86t-44 -59t-51.5 -40.5t-43.5 -42.5t-18 -54q0 -36 27.5 -60t73.5 -24q48 0 77 26t31 72h123q-1 -100 -65.5 -157.5t-166.5 -57.5q-104 0 -164.5 54.5t-60.5 137.5q0 46 18 82.5t43.5 60t51.5 44.5t44 47t18 57v7h125
z" />
    <glyph glyph-name="bullet.case" horiz-adv-x="464" 
d="M232 246q-48 0 -80 32t-32 80q0 49 32 80.5t80 31.5q49 0 80.5 -31.5t31.5 -80.5q0 -48 -31.5 -80t-80.5 -32z" />
    <glyph glyph-name="parenleft.case" horiz-adv-x="365" 
d="M78 342q0 267 142 479h132q-64 -88 -109 -212.5t-45 -266.5q0 -141 45 -266t109 -212h-132q-142 210 -142 478z" />
    <glyph glyph-name="parenright.case" horiz-adv-x="365" 
d="M287 342q0 -268 -142 -478h-132q64 87 109 212t45 266q0 142 -45 266.5t-109 212.5h132q142 -212 142 -479z" />
    <glyph glyph-name="braceleft.case" horiz-adv-x="370" 
d="M240 455q0 -86 -68 -112q68 -26 68 -112v-201q0 -29 14 -43t43 -14h48v-108h-76q-73 0 -111 37.5t-38 108.5v212q0 28 -15 43t-42 15h-20v124h20q27 0 42 15t15 43v213q0 70 38.5 107.5t110.5 37.5h76v-108h-48q-28 0 -42 -14q-15 -13 -15 -43v-201z" />
    <glyph glyph-name="braceright.case" horiz-adv-x="370" 
d="M307 405h20v-124h-20q-27 0 -42 -15t-15 -43v-212q0 -71 -38 -108.5t-111 -37.5h-76v108h48q29 0 43 14q14 16 14 43v201q0 86 68 112q-68 26 -68 112v201q0 26 -12 41q-15 16 -45 16h-48v108h76q72 0 110.5 -37.5t38.5 -107.5v-213q0 -28 15 -43t42 -15z" />
    <glyph glyph-name="bracketleft.case" horiz-adv-x="352" 
d="M90 -135v956h235v-108h-115v-740h117v-108h-237z" />
    <glyph glyph-name="bracketright.case" horiz-adv-x="352" 
d="M262 -135h-237v108h117v740h-115v108h235v-956z" />
    <glyph glyph-name="hyphen.case" horiz-adv-x="453" 
d="M63 291v113h327v-113h-327z" />
    <glyph glyph-name="endash.case" horiz-adv-x="637" 
d="M63 289v110h511v-110h-511z" />
    <glyph glyph-name="emdash.case" horiz-adv-x="900" 
d="M63 289v110h775v-110h-775z" />
    <glyph glyph-name="guillemotleft.case" horiz-adv-x="652" 
d="M213 121l-163 204v14l163 204h140l-168 -211l168 -211h-140zM471 121l-162 204v14l162 204h140l-168 -211l168 -211h-140z" />
    <glyph glyph-name="guillemotright.case" horiz-adv-x="652" 
d="M181 121h-141l168 212l-168 211h141l162 -204v-15zM439 121h-140l168 212l-168 211h140l162 -204v-15z" />
    <glyph glyph-name="guilsinglleft.case" horiz-adv-x="396" 
d="M213 121l-163 204v14l163 204h143l-168 -211l168 -211h-143z" />
    <glyph glyph-name="guilsinglright.case" horiz-adv-x="396" 
d="M184 121h-144l168 211l-168 211h144l162 -204v-14z" />
    <glyph glyph-name="cent.tf" horiz-adv-x="592" 
d="M303 96q49 0 86.5 25t55.5 72h121q-18 -80 -73.5 -134t-135.5 -68v-77h-116v78q-95 19 -153 89.5t-58 169.5q0 100 58 171.5t153 90.5v80h116v-79q80 -14 136 -68t73 -134h-121q-17 46 -55 71t-88 25q-64 0 -106.5 -44t-42.5 -112t43 -112t107 -44z" />
    <glyph glyph-name="currency.tf" horiz-adv-x="592" 
d="M514 303q0 -64 -35 -118l69 -71l-72 -72l-73 72q-51 -27 -107 -27q-57 0 -108 27l-72 -72l-73 72l69 71q-35 54 -35 118t35 118l-69 70l73 73l73 -73q48 28 107 28q57 0 107 -28l73 73l72 -73l-69 -70q35 -54 35 -118zM296 190q47 0 79.5 32.5t32.5 80.5t-32.5 80.5
t-79.5 32.5q-48 0 -80.5 -32.5t-32.5 -80.5t32.5 -80.5t80.5 -32.5z" />
    <glyph glyph-name="dollar.tf" horiz-adv-x="592" 
d="M557 199q0 -83 -53.5 -140t-148.5 -70v-96h-103v97q-97 14 -151.5 76t-55.5 156h128q3 -117 136 -117q58 0 88.5 24.5t30.5 63.5q0 21 -9 37.5t-19 26t-35.5 20.5t-38.5 15.5t-47 14.5q-51 15 -80.5 27t-66.5 36t-55 60.5t-18 87.5q0 76 50 128.5t141 64.5v98h103v-99
q89 -14 137.5 -71.5t48.5 -145.5h-127q0 46 -31.5 74t-84.5 28q-52 0 -80 -22.5t-28 -56.5q0 -38 32.5 -57.5t101.5 -39.5q3 -1 5.5 -1.5t5.5 -1.5q40 -12 64.5 -20.5t58.5 -27t53 -39t33.5 -54.5t14.5 -76z" />
    <glyph glyph-name="Euro.tf" horiz-adv-x="592" 
d="M437 598q-76 0 -132 -35t-82 -98h293l-24 -90h-290q-1 -8 -1 -25q0 -24 3 -46h271l-24 -91h-218q62 -112 202 -112q61 0 109 19v-115q-50 -19 -121 -19q-117 0 -205 61t-124 166h-106l23 91h63q-2 30 -2 46q0 17 1 25h-83l23 90h74q32 115 123 182t216 67q84 0 150 -32
l-27 -106q-51 22 -112 22z" />
    <glyph glyph-name="florin.tf" horiz-adv-x="592" 
d="M444 625q-35 0 -52 -15t-22 -47l-10 -75h137l-15 -108h-138l-56 -395q-25 -178 -202 -178h-58l15 110h33q82 0 92 75l54 388h-100l15 108h100l12 90q23 155 179 155h104l-14 -108h-74z" />
    <glyph glyph-name="uni20BD.tf" horiz-adv-x="592" 
d="M339 291h-118v-76h198v-98h-198v-117h-126v117h-84v98h84v76h-84v108h84v301h244q107 0 170 -57.5t63 -148.5t-62.5 -147t-170.5 -56zM221 589v-190h113q51 0 80.5 26.5t29.5 68.5q0 43 -29 69t-81 26h-113z" />
    <glyph glyph-name="uni20B9.tf" horiz-adv-x="592" 
d="M543 601h-116q29 -33 40 -84h76v-91h-74q-14 -81 -74.5 -131t-152.5 -54l274 -241h-173l-283 251v90h142q114 0 139 85h-281v91h280q-27 84 -138 84h-142v99h483v-99z" />
    <glyph glyph-name="sterling.tf" horiz-adv-x="592" 
d="M431 191h121v-191h-518v91l72 19v166h-64v110h64v115q0 98 58.5 155.5t158.5 57.5q98 0 153.5 -54t55.5 -145v-14h-126v7q0 43 -22.5 66.5t-63.5 23.5t-64 -25t-23 -71v-116h145v-110h-145v-162h198v77z" />
    <glyph glyph-name="yen.tf" horiz-adv-x="592" 
d="M603 700l-227 -335h139v-87h-156v-66h156v-87h-156v-125h-126v125h-156v87h156v66h-156v87h139l-227 335h142l166 -252l165 252h141z" />
    <glyph glyph-name="at.case" horiz-adv-x="1030" 
d="M515 784q207 0 336.5 -120.5t129.5 -306.5q0 -112 -51 -173.5t-130 -61.5q-95 0 -134 72q-59 -78 -164 -78q-95 0 -158 64.5t-63 161.5t63 161t158 64q90 0 150 -60l20 46h64v-243q0 -90 65 -90q77 0 77 138q0 148 -96.5 238t-263.5 90q-164 0 -264 -95.5t-100 -247.5
t94 -243t254 -91q94 0 170 34v-97q-78 -35 -177 -35q-202 0 -323 119t-121 313q0 193 129.5 317t334.5 124zM507 219q53 0 86 34t33 89t-33 89t-86 34q-51 0 -84 -34.5t-33 -88.5q0 -55 33 -89t84 -34z" />
    <glyph glyph-name="uni0308.case" 
d="M-459 775v122h133v-122h-133zM-232 775v122h133v-122h-133z" />
    <glyph glyph-name="uni0307.case" 
d="M-243 775v122h131v-122h-131z" />
    <glyph glyph-name="gravecomb.case" 
d="M-324 768l-108 147h135l68 -147h-95z" />
    <glyph glyph-name="acutecomb.case" 
d="M-354 768l69 147h134l-108 -147h-95z" />
    <glyph glyph-name="uni030B.case" 
d="M-483 768l69 147h118l-95 -147h-92zM-300 768l73 147h119l-99 -147h-93z" />
    <glyph glyph-name="uni0302.case" 
d="M-111 768h-108l-75 92l-76 -92h-107l120 147h124z" />
    <glyph glyph-name="uni030C.case" 
d="M-239 915h107l-121 -147h-124l-121 147h108l76 -92z" />
    <glyph glyph-name="uni0306.case" 
d="M-268 764q-79 0 -124 40.5t-45 109.5h97v-3q0 -31 19 -48t53 -17t53 17t19 48v3h98q0 -69 -45 -109.5t-125 -40.5z" />
    <glyph glyph-name="uni030A.case" 
d="M-218 750q-56 0 -91.5 34t-35.5 86t35.5 86t91.5 34q55 0 91 -34t36 -86q0 -51 -36 -85.5t-91 -34.5zM-218 815q25 0 41 15.5t16 39.5t-16 39.5t-41 15.5t-41.5 -16t-16.5 -39t16.5 -39t41.5 -16z" />
    <glyph glyph-name="tildecomb.case" 
d="M-220 775q-35 0 -63 16.5t-49 33t-39 16.5q-32 0 -32 -41v-21h-81v25q0 116 103 116q35 0 63 -16.5t48.5 -33t38.5 -16.5q33 0 33 41v20h80v-24q0 -58 -26.5 -87t-75.5 -29z" />
    <glyph glyph-name="uni0304.case" 
d="M-433 797v94h319v-94h-319z" />
    <glyph glyph-name="uni0326.case" 
d="M-164 -54h116v-94q0 -53 -31 -91t-81 -43v55q26 3 40.5 22t14.5 47h-59v104z" />
    <glyph glyph-name="uni0327.case" 
d="M-192 -45q49 -4 74 -28.5t25 -62.5q0 -45 -32 -71.5t-93 -26.5h-70v67h70q39 0 39 31q0 32 -39 32h-42l-11 11l36 136h67z" />
    <glyph glyph-name="uni0328.case" 
d="M-188 -234q-65 0 -96.5 23.5t-31.5 63.5q0 34 26 71.5t54 61.5t71 56l46 -42q-32 -25 -50 -41t-34.5 -38.5t-16.5 -40.5q0 -36 51 -36h37v-72q-19 -6 -56 -6z" />
    <glyph glyph-name="uni0335.case" 
d="M-490 300v105h390v-105h-390z" />
    <glyph glyph-name="uni0336.case" 
d="M-800 525v90h700v-90h-700z" />
    <glyph glyph-name="uni0337.case" 
d="M-427 204v115l386 197v-117z" />
    <glyph glyph-name="uni0338.case" 
d="M-508 -59l498 824h137l-498 -824h-137z" />
    <glyph glyph-name="uni0308.narrow.case" 
d="M-391 775v122h120v-122h-120zM-220 775v122h121v-122h-121z" />
    <glyph glyph-name="gravecomb.narrow.case" 
d="M-101 768h-96l-75 147h129z" />
    <glyph glyph-name="acutecomb.narrow.case" 
d="M-353 768l42 147h128l-76 -147h-94z" />
    <glyph glyph-name="uni0302.narrow.case" 
d="M-151 768h-103l-62 90l-62 -90h-103l103 147h123z" />
    <glyph glyph-name="uni0306.narrow.case" 
d="M-268 764q-71 0 -112.5 40.5t-41.5 109.5h96v-4q0 -31 15.5 -47.5t42.5 -16.5t42 16.5t15 47.5v4h97q0 -69 -41.5 -109.5t-112.5 -40.5z" />
    <glyph glyph-name="tildecomb.narrow.case" 
d="M-227 769q-34 0 -60 16.5t-44 32.5t-34 16q-29 0 -29 -37v-24h-81v33q0 53 25 81t69 28q35 0 61 -16.5t43.5 -32.5t33.5 -16q30 0 30 36v25h81v-33q0 -53 -25.5 -81t-69.5 -28z" />
    <glyph glyph-name="uni0304.narrow.case" 
d="M-354 797v97h258v-97h-258z" />
    <glyph glyph-name="uni0308.narrow" 
d="M-403 583v124h115v-124h-115zM-223 583v123h115v-123h-115z" />
    <glyph glyph-name="gravecomb.narrow" 
d="M-126 567h-96l-76 157h129z" />
    <glyph glyph-name="acutecomb.narrow" 
d="M-352 567l43 157h129l-76 -157h-96z" />
    <glyph glyph-name="uni0302.narrow" 
d="M-123 567h-102l-63 96l-64 -96h-101l103 157h123z" />
    <glyph glyph-name="uni0306.narrow" 
d="M-268 563q-74 0 -116.5 42.5t-42.5 117.5h96v-6q0 -35 17 -54t46 -19t45.5 19t16.5 54v6h97q0 -75 -42.5 -117.5t-116.5 -42.5z" />
    <glyph glyph-name="tildecomb.narrow" 
d="M-228 575q-35 0 -60.5 16.5t-43 32.5t-32.5 16q-28 0 -28 -36v-24h-82v35q0 52 25 79.5t69 27.5q27 0 49.5 -10t34.5 -22.5t25.5 -22.5t26.5 -10q28 0 28 36v24h82v-35q0 -52 -25 -79.5t-69 -27.5z" />
    <glyph glyph-name="uni0304.narrow" 
d="M-328 604v92h258v-92h-258z" />
    <glyph glyph-name="tonos.case" horiz-adv-x="381" 
d="M59 551l75 149h132l-113 -149h-94z" />
    <glyph glyph-name="dieresistonos.narrow" horiz-adv-x="571" 
d="M219 566l33 160h109l-64 -160h-78zM93 597v97h100v-97h-100zM381 597v97h99v-97h-99z" />
    <glyph glyph-name="brevecombcy" horiz-adv-x="469" 
d="M100 601v91h270v-91h-270z" />
    <glyph glyph-name="brevecombcy.case" horiz-adv-x="504" 
d="M105 791v94h294v-94h-294z" />
    <glyph glyph-name="fontfabric" horiz-adv-x="694" 
d="M100 0v700h514v-205h-313v-72h313v-205h-313v-218h-201zM185 97h24v217h322v22h-322v249h322v23h-346v-511z" />
    </font>
</defs>
</svg>
