<?xml version="1.0" standalone="no"?>
<!DOCTYPE svg PUBLIC "-//W3C//DTD SVG 1.1//EN" "http://www.w3.org/Graphics/SVG/1.1/DTD/svg11.dtd" >
<svg xmlns="http://www.w3.org/2000/svg" xmlns:xlink="http://www.w3.org/1999/xlink" version="1.1">
<metadata>
Created by FontForge 20190801 at Fri Jan 22 12:10:21 2021
 By www-data
Copyright (c) 2020 by Fontfabric. All rights reserved.
</metadata>
<defs>
<font id="Luxtower_regular" horiz-adv-x="0" >
  <font-face 
    font-family="Luxtower_regular"
    font-weight="400"
    font-stretch="normal"
    units-per-em="1000"
    panose-1="0 0 5 0 0 0 0 0 0 0"
    ascent="800"
    descent="-200"
    x-height="500"
    cap-height="700"
    bbox="-800 -302 1101 992"
    underline-thickness="50"
    underline-position="-100"
    unicode-range="U+0020-25CA"
  />
<missing-glyph horiz-adv-x="463" 
d="M380 733v-926h-294v926h294zM308 671h-152v-31h60v-34h-61v-30h153v30h-61v34h61v31zM247 552h-92v-97h153v32h-61v65zM216 520v-33h-31v33h31zM308 430h-153v-30h61v-35h-61v-30h92v65h61v30zM308 375h-30v-61h-123v-32h153v93zM308 262h-92v-52h31v21h31v-43h-93v74
h-30v-105h153v105zM308 101h-153v-104h153v104zM278 71v-44h-93v44h93zM308 -24h-153v-31h64l-64 -44v-30h153v30h-94l65 44h29v31z" />
    <glyph glyph-name="f_f.liga" unicode="ff" horiz-adv-x="744" 
d="M731 500v-77h-167v-423h-87v423h-265v-423h-87v423h-105v77h105v61q0 87 42 129.5t131 42.5h80v-77h-75q-49 0 -70 -21.5t-21 -72.5v-62h265v61q0 87 42 129.5t131 42.5h80v-77h-75q-49 0 -70 -21.5t-21 -72.5v-62h167z" />
    <glyph glyph-name="f_f_t.liga" unicode="fft" horiz-adv-x="1121" 
d="M1011 81h70v-81h-76q-90 0 -140.5 50.5t-50.5 141.5v231h-250v-423h-87v423h-265v-423h-87v423h-105v77h105v61q0 87 42 129.5t131 42.5h80v-77h-75q-49 0 -70 -21.5t-21 -72.5v-62h265v61q0 87 42 129.5t131 42.5h80v-77h-75q-49 0 -70 -21.5t-21 -72.5v-62h251l9 131
h77v-131h177v-77h-177v-229q0 -55 28.5 -84t81.5 -29z" />
    <glyph glyph-name="f_t.liga" unicode="ft" horiz-adv-x="769" 
d="M659 81h70v-81h-76q-90 0 -140.5 50.5t-50.5 141.5v231h-250v-423h-87v423h-105v77h105v61q0 87 42 129.5t131 42.5h80v-77h-75q-49 0 -70 -21.5t-21 -72.5v-62h251l9 131h77v-131h177v-77h-177v-229q0 -55 28.5 -84t81.5 -29z" />
    <glyph glyph-name="f_t_t.liga" unicode="ftt" horiz-adv-x="1141" 
d="M1031 81h70v-81h-76q-90 0 -140.5 50.5t-50.5 141.5v231h-285v-229q0 -55 28.5 -84t81.5 -29h70v-81h-76q-90 0 -140.5 50.5t-50.5 141.5v231h-250v-423h-87v423h-105v77h105v61q0 87 42 129.5t131 42.5h80v-77h-75q-49 0 -70 -21.5t-21 -72.5v-62h251l9 131h77v-131h286
l9 131h77v-131h177v-77h-177v-229q0 -55 28.5 -84t81.5 -29z" />
    <glyph glyph-name="r_f.liga" unicode="rf" horiz-adv-x="797" 
d="M784 500v-77h-167v-423h-87v423h-105v77h105v61q0 87 42 129.5t131 42.5h80v-77h-75q-49 0 -70 -21.5t-21 -72.5v-62h167zM172 427q58 73 166 73h48v-77h-46q-165 0 -165 -187v-236h-87v500h68z" />
    <glyph glyph-name="t_f.liga" unicode="tf" horiz-adv-x="749" 
d="M736 500v-77h-167v-423h-87v423h-275v-229q0 -55 28.5 -84t81.5 -29h70v-81h-76q-90 0 -140.5 50.5t-50.5 141.5v231h-105v77h106l9 131h77v-131h275v61q0 87 42 129.5t131 42.5h80v-77h-75q-49 0 -70 -21.5t-21 -72.5v-62h167z" />
    <glyph glyph-name=".notdef" horiz-adv-x="463" 
d="M380 733v-926h-294v926h294zM308 671h-152v-31h60v-34h-61v-30h153v30h-61v34h61v31zM247 552h-92v-97h153v32h-61v65zM216 520v-33h-31v33h31zM308 430h-153v-30h61v-35h-61v-30h92v65h61v30zM308 375h-30v-61h-123v-32h153v93zM308 262h-92v-52h31v21h31v-43h-93v74
h-30v-105h153v105zM308 101h-153v-104h153v104zM278 71v-44h-93v44h93zM308 -24h-153v-31h64l-64 -44v-30h153v30h-94l65 44h29v31z" />
    <glyph glyph-name=".null" 
 />
    <glyph glyph-name="nonmarkingreturn" horiz-adv-x="333" 
 />
    <glyph glyph-name="space" unicode=" " horiz-adv-x="270" 
 />
    <glyph glyph-name="exclam" unicode="!" horiz-adv-x="308" 
d="M110 205v528h88v-528h-88zM102 0v112h104v-112h-104z" />
    <glyph glyph-name="quotedbl" unicode="&#x22;" horiz-adv-x="378" 
d="M70 486v247h78v-247h-78zM230 486v247h78v-247h-78z" />
    <glyph glyph-name="numbersign" unicode="#" horiz-adv-x="660" 
d="M608 429h-94l-24 -151h95v-79h-107l-32 -199h-84l31 199h-174l-32 -199h-84l32 199h-83v79h95l24 151h-96v79h109l30 192h84l-31 -192h175l31 192h84l-30 -192h81v-79zM406 278l24 151h-175l-24 -151h175z" />
    <glyph glyph-name="dollar" unicode="$" horiz-adv-x="618" 
d="M554 191q0 -81 -53 -136t-147 -65v-100h-84v101q-95 12 -149.5 72.5t-56.5 153.5h91q8 -141 164 -141q69 0 106 30.5t37 78.5q0 25 -11 45.5t-23.5 32.5t-41 25t-44 18t-52.5 16q-38 11 -62 20t-55.5 26t-49 37t-30.5 51.5t-13 70.5q0 74 50 124t140 59v100h84v-101
q88 -12 135.5 -67.5t47.5 -141.5h-92q0 56 -38.5 90t-101.5 34q-64 0 -98.5 -28.5t-34.5 -71.5q0 -34 25 -58.5t47.5 -33.5t77.5 -26q10 -3 15 -5q39 -12 63.5 -21t57 -27t51 -38t32 -52t13.5 -72z" />
    <glyph glyph-name="percent" unicode="%" horiz-adv-x="775" 
d="M193 411q-67 0 -110 42.5t-43 108.5q0 65 43 107.5t110 42.5t109.5 -42.5t42.5 -107.5q0 -66 -42.5 -108.5t-109.5 -42.5zM143 0l401 700h88l-401 -700h-88zM193 486q32 0 53.5 21.5t21.5 54.5q0 32 -21.5 53.5t-53.5 21.5t-53.5 -21.5t-21.5 -53.5q0 -33 21.5 -54.5
t53.5 -21.5zM582 -12q-67 0 -109.5 42.5t-42.5 107.5q0 66 42.5 108.5t109.5 42.5t110 -42.5t43 -108.5q0 -65 -43 -107.5t-110 -42.5zM582 63q32 0 53.5 21.5t21.5 53.5q0 33 -21.5 54.5t-53.5 21.5t-53.5 -21.5t-21.5 -54.5q0 -32 21.5 -53.5t53.5 -21.5z" />
    <glyph glyph-name="ampersand" unicode="&#x26;" horiz-adv-x="650" 
d="M645 0h-104l-59 62q-86 -73 -208 -73q-103 0 -165 52.5t-62 138.5q0 66 38 113t104 89q-45 54 -63 91.5t-18 79.5q0 71 51 114.5t135 43.5q82 0 131.5 -42.5t49.5 -111.5q0 -27 -9.5 -51.5t-20.5 -40.5t-36.5 -35.5t-39 -28t-46.5 -27.5q-11 -7 -17 -10q40 -45 172 -185
q33 58 36 135h80q-3 -110 -60 -194zM294 636q-47 0 -74 -23.5t-27 -65.5q0 -45 64 -125q8 4 29.5 16t29 16.5t23.5 15t22.5 17.5t15.5 17t12 21t3 23q0 41 -26 64.5t-72 23.5zM134 187q0 -55 38 -86t106 -31q91 0 150 50q-32 35 -94.5 102.5t-93.5 101.5q-106 -69 -106 -137
z" />
    <glyph glyph-name="quotesingle" unicode="'" horiz-adv-x="218" 
d="M70 486v247h78v-247h-78z" />
    <glyph glyph-name="parenleft" unicode="(" horiz-adv-x="338" 
d="M85 272q0 269 142 479h96q-66 -90 -108.5 -214.5t-42.5 -264.5t42.5 -264.5t108.5 -212.5h-96q-142 208 -142 477z" />
    <glyph glyph-name="parenright" unicode=")" horiz-adv-x="338" 
d="M253 272q0 -269 -142 -477h-96q66 88 108.5 212.5t42.5 264.5t-42.5 264.5t-108.5 214.5h96q142 -210 142 -479z" />
    <glyph glyph-name="asterisk" unicode="*" horiz-adv-x="420" 
d="M370 596l-106 -35l71 -89l-54 -43l-71 93l-72 -93l-55 43l71 89l-104 35l23 64l102 -36v109h69v-109l102 36z" />
    <glyph glyph-name="plus" unicode="+" horiz-adv-x="525" 
d="M491 382v-82h-185v-192h-87v192h-185v82h185v192h87v-192h185z" />
    <glyph glyph-name="comma" unicode="," horiz-adv-x="240" 
d="M68 112h104v-106q0 -63 -27 -101t-75 -49v53q50 14 50 91h-52v112z" />
    <glyph glyph-name="hyphen" unicode="-" horiz-adv-x="454" 
d="M68 240v84h318v-84h-318z" />
    <glyph glyph-name="period" unicode="." horiz-adv-x="240" 
d="M68 0v112h104v-112h-104z" />
    <glyph glyph-name="slash" unicode="/" horiz-adv-x="381" 
d="M0 -70l294 831h87l-293 -831h-88z" />
    <glyph glyph-name="zero" unicode="0" horiz-adv-x="667" 
d="M334 -12q-114 0 -186.5 92.5t-72.5 269.5t72.5 269.5t186.5 92.5t186 -92.5t72 -269.5t-72 -269.5t-186 -92.5zM334 76q74 0 120 66.5t46 207.5t-46 207.5t-120 66.5q-75 0 -121 -66.5t-46 -207.5t46 -207.5t121 -66.5z" />
    <glyph glyph-name="one" unicode="1" horiz-adv-x="383" 
d="M205 700h76v-700h-92v597l-147 -69v91z" />
    <glyph glyph-name="two" unicode="2" horiz-adv-x="573" 
d="M193 88h322v-88h-453v78q143 137 208.5 206t100.5 126t35 107t-31.5 78.5t-86.5 28.5q-62 0 -96 -32.5t-34 -87.5v-17h-91v17q0 95 58.5 151.5t161.5 56.5q95 0 153.5 -52.5t58.5 -138.5q0 -89 -70.5 -183t-235.5 -250z" />
    <glyph glyph-name="three" unicode="3" horiz-adv-x="565" 
d="M403 373q104 -56 104 -173q0 -94 -63.5 -153t-170.5 -59q-102 0 -164.5 57t-64.5 151h92q2 -58 38 -90t102 -32q65 0 102 34.5t37 91.5t-37.5 91t-103.5 34h-70v84h69q56 0 87 29t31 81q0 48 -31 77.5t-84 29.5q-54 0 -88 -30t-36 -77h-93q2 84 62.5 138.5t154.5 54.5
q92 0 149.5 -53.5t57.5 -132.5q0 -102 -80 -153z" />
    <glyph glyph-name="four" unicode="4" horiz-adv-x="553" 
d="M528 227v-88h-68v-139h-92v139h-333v78l232 483h99l-228 -473h230v191h92v-191h68z" />
    <glyph glyph-name="five" unicode="5" horiz-adv-x="565" 
d="M294 440q99 0 161 -62t62 -162q0 -104 -63.5 -166t-171.5 -62q-96 0 -157 54.5t-68 138.5h93q6 -47 40 -76t95 -29q64 0 102 37.5t38 101.5q0 66 -37.5 104t-101.5 38q-84 0 -121 -55h-88l39 398h360v-86h-278l-20 -202q49 28 116 28z" />
    <glyph glyph-name="six" unicode="6" horiz-adv-x="592" 
d="M318 443q99 0 163 -63.5t64 -159.5q0 -102 -67 -167t-176 -65q-110 0 -178.5 65t-68.5 167q0 100 75 224l156 256h105q-50 -85 -101.5 -169t-62.5 -102q42 14 91 14zM301 76q69 0 110.5 39.5t41.5 102.5t-41.5 102.5t-110.5 39.5t-110.5 -39.5t-41.5 -102.5t41.5 -102.5
t110.5 -39.5z" />
    <glyph glyph-name="seven" unicode="7" horiz-adv-x="510" 
d="M37 700h438v-78l-276 -622h-99l271 612h-334v88z" />
    <glyph glyph-name="eight" unicode="8" horiz-adv-x="614" 
d="M445 374q47 -26 75.5 -71t28.5 -103q0 -95 -64.5 -153.5t-177.5 -58.5t-177.5 58.5t-64.5 153.5q0 58 28.5 103t75.5 71q-79 52 -79 153q0 80 58.5 132.5t158.5 52.5t158.5 -52.5t58.5 -132.5q0 -101 -79 -153zM307 626q-59 0 -92 -29.5t-33 -77.5t33 -77.5t92 -29.5
t92 29.5t33 77.5t-33 77.5t-92 29.5zM307 74q70 0 110 35.5t40 92.5t-40 92.5t-110 35.5t-110 -35.5t-40 -92.5t40 -92.5t110 -35.5z" />
    <glyph glyph-name="nine" unicode="9" horiz-adv-x="594" 
d="M295 712q110 0 178.5 -65t68.5 -167t-75 -224l-157 -256h-105q35 58 72 118t58 94.5t34 57.5q-35 -13 -90 -13q-99 0 -163 63.5t-64 159.5q0 102 67 167t176 65zM296 340q69 0 110.5 39.5t41.5 102.5t-41.5 102.5t-110.5 39.5t-110.5 -39.5t-41.5 -102.5t41.5 -102.5
t110.5 -39.5z" />
    <glyph glyph-name="colon" unicode=":" horiz-adv-x="260" 
d="M78 388v112h104v-112h-104zM78 0v112h104v-112h-104z" />
    <glyph glyph-name="semicolon" unicode=";" horiz-adv-x="260" 
d="M78 500h104v-112h-104v112zM78 0v112h104v-106q0 -63 -27 -101t-75 -49v53q50 14 50 91h-52z" />
    <glyph glyph-name="less" unicode="&#x3c;" horiz-adv-x="535" 
d="M460 620v-93l-333 -186l333 -186v-93l-430 243v72z" />
    <glyph glyph-name="equal" unicode="=" horiz-adv-x="525" 
d="M44 390v82h437v-82h-437zM44 190v82h437v-82h-437z" />
    <glyph glyph-name="greater" unicode="&#x3e;" horiz-adv-x="535" 
d="M75 620l430 -243v-72l-430 -243v93l333 186l-333 186v93z" />
    <glyph glyph-name="question" unicode="?" horiz-adv-x="537" 
d="M212 205v12q0 43 13.5 77.5t34.5 54.5t44.5 41.5t44.5 39t34.5 47t13.5 65.5q0 50 -35 83.5t-90 33.5q-59 0 -97 -32t-42 -90h-88q4 98 68.5 153t158.5 55q95 0 155 -57.5t60 -145.5q0 -53 -19 -94t-46.5 -66t-54.5 -47t-46 -51.5t-19 -66.5v-12h-90zM206 0v112h104v-112
h-104z" />
    <glyph glyph-name="at" unicode="@" horiz-adv-x="1022" 
d="M513 678q203 0 331 -119t128 -308q0 -108 -48 -166t-123 -58q-46 0 -80 21t-49 57q-30 -42 -76 -65.5t-100 -23.5q-97 0 -160.5 64.5t-63.5 162.5t63.5 162.5t160.5 64.5q98 0 160 -70l19 58h55v-256q0 -49 19.5 -73.5t53.5 -24.5q86 0 86 148q0 155 -101.5 252
t-272.5 97q-170 0 -274 -99.5t-104 -256.5q0 -158 98.5 -255t260.5 -97q99 0 177 42v-78q-80 -41 -186 -41q-194 0 -313.5 118.5t-119.5 309.5q0 193 128 313.5t331 120.5zM501 95q63 0 103.5 41.5t40.5 107.5q0 64 -41 105.5t-103 41.5t-103 -41.5t-41 -105.5
q0 -66 40.5 -107.5t103.5 -41.5z" />
    <glyph glyph-name="A" unicode="A" horiz-adv-x="707" 
d="M587 0l-66 161h-337l-66 -161h-98l289 700h89l289 -700h-100zM352 584l-133 -335h266z" />
    <glyph glyph-name="B" unicode="B" horiz-adv-x="660" 
d="M493 363q48 -21 76 -64t28 -100q0 -86 -60 -142.5t-157 -56.5h-278v700h278q90 0 144.5 -51.5t54.5 -132.5q0 -47 -23.5 -88.5t-62.5 -64.5zM487 509q0 48 -30 76.5t-83 28.5h-180v-211h180q53 0 83 29t30 77zM382 86q57 0 90 31.5t33 85.5q0 53 -33 84.5t-90 31.5h-188
v-233h188z" />
    <glyph glyph-name="C" unicode="C" horiz-adv-x="817" 
d="M423 -12q-156 0 -257.5 102t-101.5 260t101.5 260t257.5 102q123 0 213.5 -68.5t119.5 -183.5h-95q-28 77 -91.5 120.5t-146.5 43.5q-118 0 -192.5 -76t-74.5 -198t74.5 -198t192.5 -76q86 0 150 46t91 128h95q-29 -120 -120 -191t-216 -71z" />
    <glyph glyph-name="D" unicode="D" horiz-adv-x="758" 
d="M339 700q156 0 255.5 -98.5t99.5 -251.5t-99.5 -251.5t-255.5 -98.5h-237v700h237zM336 86q121 0 193.5 72.5t72.5 191.5t-72.5 191.5t-193.5 72.5h-142v-528h142z" />
    <glyph glyph-name="E" unicode="E" horiz-adv-x="586" 
d="M194 86h318v-86h-410v700h399v-86h-307v-212h281v-86h-281v-230z" />
    <glyph glyph-name="F" unicode="F" horiz-adv-x="558" 
d="M498 614h-304v-225h278v-86h-278v-303h-92v700h396v-86z" />
    <glyph glyph-name="G" unicode="G" horiz-adv-x="833" 
d="M400 350h371q-5 -161 -100.5 -261.5t-250.5 -100.5t-255.5 101.5t-100.5 260.5t100.5 260.5t255.5 101.5q129 0 218 -68t115 -172h-96q-27 68 -87 110t-150 42q-117 0 -190.5 -75.5t-73.5 -198.5t73.5 -198.5t190.5 -75.5q100 0 165.5 50.5t84.5 138.5h-270v85z" />
    <glyph glyph-name="H" unicode="H" horiz-adv-x="745" 
d="M551 700h92v-700h-92v316h-357v-316h-92v700h92v-296h357v296z" />
    <glyph glyph-name="I" unicode="I" horiz-adv-x="296" 
d="M102 0v700h92v-700h-92z" />
    <glyph glyph-name="J" unicode="J" horiz-adv-x="622" 
d="M286 -12q-108 0 -176 68t-68 177v15h92v-11q0 -75 41 -118t111 -43q67 0 108 42.5t41 115.5v466h92v-467q0 -109 -67 -177t-174 -68z" />
    <glyph glyph-name="K" unicode="K" horiz-adv-x="664" 
d="M528 0l-240 317h-94v-317h-92v700h92v-295h98l218 295h111l-254 -337l277 -363h-116z" />
    <glyph glyph-name="L" unicode="L" horiz-adv-x="545" 
d="M194 88h306v-88h-398v700h92v-612z" />
    <glyph glyph-name="M" unicode="M" horiz-adv-x="982" 
d="M927 0h-94l-90 539l-226 -511h-51l-228 513l-89 -541h-94l117 700h94l225 -522l225 522h96z" />
    <glyph glyph-name="N" unicode="N" horiz-adv-x="766" 
d="M572 700h92v-700h-86l-384 532v-532h-92v700h86l384 -532v532z" />
    <glyph glyph-name="O" unicode="O" horiz-adv-x="862" 
d="M431 -12q-159 0 -263 103t-104 259t104 259t263 103t263 -103t104 -259t-104 -259t-263 -103zM431 76q118 0 196.5 78t78.5 196t-78.5 196t-196.5 78t-196.5 -78t-78.5 -196t78.5 -196t196.5 -78z" />
    <glyph glyph-name="P" unicode="P" horiz-adv-x="636" 
d="M355 700q102 0 168 -64.5t66 -161.5t-66 -161.5t-168 -64.5h-161v-248h-92v700h253zM350 334q67 0 107 38.5t40 101.5t-40 101.5t-107 38.5h-156v-280h156z" />
    <glyph glyph-name="Q" unicode="Q" horiz-adv-x="863" 
d="M819 -81h-115l-96 110q-82 -41 -177 -41q-159 0 -263 103t-104 259t104 259t263 103t263 -103t104 -259q0 -168 -118 -272zM431 76q62 0 116 23l-165 190h113l125 -142q86 78 86 203q0 118 -78.5 196t-196.5 78t-196.5 -78t-78.5 -196t78.5 -196t196.5 -78z" />
    <glyph glyph-name="R" unicode="R" horiz-adv-x="659" 
d="M510 0l-158 270h-158v-270h-92v700h267q101 0 165.5 -61.5t64.5 -154.5q0 -71 -41 -126t-110 -76l166 -282h-104zM505 485q0 58 -38 93.5t-103 35.5h-170v-258h170q65 0 103 35.5t38 93.5z" />
    <glyph glyph-name="S" unicode="S" horiz-adv-x="637" 
d="M324 -12q-121 0 -190.5 63t-69.5 166h92q0 -63 44 -102t123 -39q76 0 117 33.5t41 84.5q0 24 -10.5 42.5t-23.5 30t-40.5 22t-46.5 15.5t-55 14q-42 10 -66.5 17t-59.5 23t-54 35t-33.5 50t-14.5 71q0 88 63 143t177 55q112 0 174 -57.5t62 -154.5h-92q0 55 -38.5 89.5
t-107.5 34.5q-72 0 -109 -29t-37 -75q0 -22 10 -39.5t23.5 -28.5t39 -21.5t44.5 -15.5t52 -13q32 -8 49 -12.5t46 -14t45 -18.5t37 -25t31.5 -33.5t18.5 -43t8 -55.5q0 -92 -67 -152t-182 -60z" />
    <glyph glyph-name="T" unicode="T" horiz-adv-x="588" 
d="M551 700v-88h-211v-612h-92v612h-211v88h514z" />
    <glyph glyph-name="U" unicode="U" horiz-adv-x="747" 
d="M374 -12q-124 0 -200.5 76.5t-76.5 200.5v435h92v-428q0 -92 50 -144t135 -52t134.5 52t49.5 144v428h92v-435q0 -124 -76.5 -200.5t-199.5 -76.5z" />
    <glyph glyph-name="V" unicode="V" horiz-adv-x="687" 
d="M567 700h100l-280 -700h-88l-279 700h102l222 -571z" />
    <glyph glyph-name="W" unicode="W" horiz-adv-x="1031" 
d="M912 700h96l-215 -700h-92l-186 561l-185 -561h-92l-215 700h98l168 -549l181 549h91l183 -548z" />
    <glyph glyph-name="X" unicode="X" horiz-adv-x="628" 
d="M608 0h-109l-187 294l-187 -294h-105l236 367l-218 333h109l169 -263l168 263h105l-217 -337z" />
    <glyph glyph-name="Y" unicode="Y" horiz-adv-x="654" 
d="M630 700l-257 -422v-278h-92v278l-257 422h106l197 -326l197 326h106z" />
    <glyph glyph-name="Z" unicode="Z" horiz-adv-x="572" 
d="M150 86h397v-86h-510v77l381 537h-366v86h478v-77z" />
    <glyph glyph-name="bracketleft" unicode="[" horiz-adv-x="344" 
d="M102 -205v956h215v-79h-128v-798h130v-79h-217z" />
    <glyph glyph-name="backslash" unicode="\" horiz-adv-x="381" 
d="M381 -70h-88l-293 831h87z" />
    <glyph glyph-name="bracketright" unicode="]" horiz-adv-x="344" 
d="M242 -205h-217v79h130v798h-128v79h215v-956z" />
    <glyph glyph-name="asciicircum" unicode="^" horiz-adv-x="510" 
d="M485 349h-92l-138 254l-138 -254h-92l194 351h72z" />
    <glyph glyph-name="underscore" unicode="_" horiz-adv-x="516" 
d="M0 -135v84h516v-84h-516z" />
    <glyph glyph-name="grave" unicode="`" horiz-adv-x="600" 
d="M202 563l-92 152h98l66 -152h-72z" />
    <glyph glyph-name="a" unicode="a" horiz-adv-x="584" 
d="M293 512q95 0 152.5 -55t57.5 -146v-311h-67l-12 67q-64 -79 -178 -79q-84 0 -134.5 41t-50.5 110t50.5 110t136.5 41h169v15q0 63 -32.5 95.5t-92.5 32.5q-102 0 -123 -76h-93q13 71 70.5 113t146.5 42zM250 67q77 0 122 40.5t45 104.5v6h-166q-48 0 -74.5 -20
t-26.5 -56q0 -35 26 -55t74 -20z" />
    <glyph glyph-name="b" unicode="b" horiz-adv-x="676" 
d="M362 512q111 0 185.5 -75t74.5 -187t-74.5 -187t-185.5 -75q-115 0 -191 79l-15 -67h-68v733h87v-295q76 74 187 74zM353 67q81 0 131.5 50.5t50.5 132.5t-50 132.5t-132 50.5q-81 0 -131.5 -50.5t-50.5 -132.5t50.5 -132.5t131.5 -50.5z" />
    <glyph glyph-name="c" unicode="c" horiz-adv-x="620" 
d="M318 -12q-115 0 -189.5 74t-74.5 188t74.5 188t189.5 74q93 0 161.5 -52.5t89.5 -144.5h-89q-17 57 -61 87t-104 30q-74 0 -124 -51.5t-50 -130.5t50 -130.5t124 -51.5q60 0 104 30t61 87h90q-21 -92 -90 -144.5t-162 -52.5z" />
    <glyph glyph-name="d" unicode="d" horiz-adv-x="676" 
d="M501 733h87v-733h-68l-15 67q-76 -79 -191 -79q-111 0 -185.5 75t-74.5 187t74.5 187t185.5 75t187 -74v295zM323 67q81 0 131.5 50.5t50.5 132.5t-50.5 132.5t-131.5 50.5t-131.5 -50.5t-50.5 -132.5t50.5 -132.5t131.5 -50.5z" />
    <glyph glyph-name="e" unicode="e" horiz-adv-x="629" 
d="M575 249q0 -12 -2 -30h-431q10 -69 58.5 -110.5t121.5 -41.5q102 0 149 77h91q-67 -156 -241 -156q-117 0 -192 74.5t-75 187.5t74.5 187.5t187.5 74.5q112 0 185.5 -74t73.5 -189zM316 433q-66 0 -112.5 -38t-59.5 -102h341q-12 62 -56 101t-113 39z" />
    <glyph glyph-name="f" unicode="f" horiz-adv-x="392" 
d="M379 500v-77h-167v-423h-87v423h-105v77h105v61q0 87 42 129.5t131 42.5h80v-77h-75q-49 0 -70 -21.5t-21 -72.5v-62h167z" />
    <glyph glyph-name="g" unicode="g" horiz-adv-x="677" 
d="M521 500h68v-444q0 -124 -70.5 -192.5t-197.5 -68.5q-97 0 -162 44t-84 119h91q33 -84 157 -84q84 0 131.5 42.5t47.5 129.5v31q-77 -74 -188 -74t-185.5 73.5t-74.5 181.5t74.5 181t185.5 73q115 0 193 -78zM324 83q80 0 131 49.5t51 125.5q0 75 -51 124.5t-131 49.5
q-81 0 -132 -49t-51 -125t51 -125.5t132 -49.5z" />
    <glyph glyph-name="h" unicode="h" horiz-adv-x="643" 
d="M358 512q89 0 146.5 -62t57.5 -166v-284h-87v266q0 81 -36 123t-105 42q-68 0 -113.5 -51t-45.5 -128v-252h-87v733h87v-301q67 80 183 80z" />
    <glyph glyph-name="i" unicode="i" horiz-adv-x="263" 
d="M81 630v103h101v-103h-101zM88 0v500h87v-500h-87z" />
    <glyph glyph-name="j" unicode="j" horiz-adv-x="273" 
d="M91 630v103h101v-103h-101zM-40 -193v81h33q51 0 78 27.5t27 79.5v505h87v-511q0 -81 -49.5 -131.5t-128.5 -50.5h-47z" />
    <glyph glyph-name="k" unicode="k" horiz-adv-x="566" 
d="M432 0l-175 218h-82v-218h-87v733h87v-434h84l157 201h105l-189 -241l209 -259h-109z" />
    <glyph glyph-name="l" unicode="l" horiz-adv-x="263" 
d="M88 0v733h87v-733h-87z" />
    <glyph glyph-name="m" unicode="m" horiz-adv-x="953" 
d="M681 512q87 0 139 -55t52 -151v-306h-87v277q0 75 -31.5 114.5t-91.5 39.5q-57 0 -97.5 -50.5t-40.5 -123.5v-257h-87v277q0 74 -30.5 114t-87.5 40q-59 0 -101.5 -50t-42.5 -124v-257h-87v500h68l15 -68q66 80 169 80q111 0 160 -94q29 44 77 69t104 25z" />
    <glyph glyph-name="n" unicode="n" horiz-adv-x="643" 
d="M358 512q89 0 146.5 -62t57.5 -166v-284h-87v266q0 81 -36 123t-105 42q-68 0 -113.5 -51t-45.5 -128v-252h-87v500h68l16 -72q67 84 186 84z" />
    <glyph glyph-name="o" unicode="o" horiz-adv-x="648" 
d="M324 -12q-116 0 -193 75t-77 187t77 187t193 75t193 -75t77 -187t-77 -187t-193 -75zM324 67q79 0 131 52.5t52 130.5q0 79 -52 131t-131 52t-131 -52t-52 -131q0 -78 52 -130.5t131 -52.5z" />
    <glyph glyph-name="p" unicode="p" horiz-adv-x="676" 
d="M362 512q111 0 185.5 -75t74.5 -187t-74.5 -187t-185.5 -75t-187 74v-255h-87v693h68l15 -67q76 79 191 79zM353 67q81 0 131.5 50.5t50.5 132.5t-50.5 132.5t-131.5 50.5t-131.5 -50.5t-50.5 -132.5t50.5 -132.5t131.5 -50.5z" />
    <glyph glyph-name="q" unicode="q" horiz-adv-x="676" 
d="M520 500h68v-693h-87v255q-76 -74 -187 -74t-185.5 75t-74.5 187t74.5 187t185.5 75q115 0 191 -79zM323 67q81 0 131.5 50.5t50.5 132.5t-50.5 132.5t-131.5 50.5t-131.5 -50.5t-50.5 -132.5t50.5 -132.5t131.5 -50.5z" />
    <glyph glyph-name="r" unicode="r" horiz-adv-x="416" 
d="M338 500h48v-85h-56q-76 0 -115.5 -43.5t-39.5 -125.5v-246h-87v500h68l16 -73q58 73 166 73z" />
    <glyph glyph-name="s" unicode="s" horiz-adv-x="526" 
d="M264 -12q-95 0 -151.5 44t-60.5 116h85q5 -39 39.5 -60t93.5 -21q117 0 117 75q0 14 -7 25t-16.5 18t-29.5 13t-34 9.5t-42 8.5q-35 7 -56 11.5t-51 16.5t-47 26.5t-29.5 39.5t-12.5 57q0 62 52.5 103.5t147.5 41.5q91 0 141.5 -41t58.5 -111h-82q-11 73 -120 73
q-57 0 -84 -18t-27 -46q0 -18 9.5 -31t31.5 -21.5t39 -13t51 -10.5q36 -7 55.5 -11.5t50.5 -16t47 -25.5t28.5 -38.5t12.5 -56.5q0 -67 -55 -112t-155 -45z" />
    <glyph glyph-name="t" unicode="t" horiz-adv-x="427" 
d="M317 81h70v-81h-76q-90 0 -140.5 50.5t-50.5 141.5v229h-105v79h106l9 131h77v-131h177v-79h-177v-227q0 -55 28.5 -84t81.5 -29z" />
    <glyph glyph-name="u" unicode="u" horiz-adv-x="644" 
d="M469 500h87v-500h-68l-17 72q-66 -84 -182 -84q-94 0 -147.5 58t-53.5 160v294h87v-276q0 -84 34.5 -119.5t103.5 -35.5q66 0 111 52.5t45 131.5v247z" />
    <glyph glyph-name="v" unicode="v" horiz-adv-x="566" 
d="M460 500h90l-222 -500h-84l-228 500h92l178 -394z" />
    <glyph glyph-name="w" unicode="w" horiz-adv-x="832" 
d="M726 500h87l-174 -500h-75l-148 384l-149 -384h-75l-173 500h90l126 -369l143 369h75l145 -371z" />
    <glyph glyph-name="x" unicode="x" horiz-adv-x="534" 
d="M514 0h-102l-145 203l-147 -203h-100l191 259l-175 241h102l128 -180l133 180h100l-178 -236z" />
    <glyph glyph-name="y" unicode="y" horiz-adv-x="567" 
d="M459 500h94l-242 -519q-46 -98 -93.5 -136t-131.5 -38h-38v81h37q53 0 82.5 23t60.5 90l17 36l-223 463h95l173 -366z" />
    <glyph glyph-name="z" unicode="z" horiz-adv-x="499" 
d="M160 79h299v-79h-409v69l288 352h-278v79h388v-69z" />
    <glyph glyph-name="braceleft" unicode="{" horiz-adv-x="368" 
d="M213 370q0 -73 -55 -97q55 -24 55 -97v-223q0 -43 21 -62q18 -17 57 -17h52v-79h-80q-63 0 -100 37.5t-37 103.5v232q0 29 -15.5 45t-44.5 16h-16v88h16q29 0 44.5 16t15.5 45v232q0 66 37 103.5t100 37.5h80v-79h-52q-41 0 -59 -19q-19 -19 -19 -60v-223z" />
    <glyph glyph-name="bar" unicode="|" horiz-adv-x="327" 
d="M120 -190v1030h87v-1030h-87z" />
    <glyph glyph-name="braceright" unicode="}" horiz-adv-x="368" 
d="M302 317h16v-88h-16q-29 0 -44.5 -16t-15.5 -45v-232q0 -66 -37 -103.5t-100 -37.5h-80v79h52q42 0 61 20q17 20 17 59v223q0 73 55 97q-55 24 -55 97v223q0 37 -15 56q-17 23 -63 23h-52v79h80q63 0 100 -37.5t37 -103.5v-232q0 -29 15.5 -45t44.5 -16z" />
    <glyph glyph-name="asciitilde" unicode="~" horiz-adv-x="526" 
d="M364 228q-33 0 -64 15.5t-50.5 34.5t-41.5 34.5t-39 15.5q-41 0 -41 -55v-42h-88v44q0 71 32 107.5t90 36.5q33 0 64 -15.5t50.5 -34.5t41.5 -34.5t39 -15.5q41 0 41 55v42h88v-44q0 -71 -32 -107.5t-90 -36.5z" />
    <glyph glyph-name="uni00A0" unicode="&#xa0;" horiz-adv-x="270" 
 />
    <glyph glyph-name="exclamdown" unicode="&#xa1;" horiz-adv-x="304" 
d="M100 500h104v-112h-104v112zM108 295h88v-488h-88v488z" />
    <glyph glyph-name="cent" unicode="&#xa2;" horiz-adv-x="620" 
d="M570 185q-19 -82 -76.5 -133t-137.5 -62v-77h-84v78q-97 15 -157.5 86t-60.5 173t60.5 173t157.5 86v78h84v-77q80 -11 137.5 -62t75.5 -133h-89q-18 54 -62.5 84t-102.5 30q-72 0 -121.5 -51t-49.5 -128t49.5 -128t121.5 -51q58 0 102.5 30t62.5 84h90z" />
    <glyph glyph-name="sterling" unicode="&#xa3;" horiz-adv-x="609" 
d="M467 165h85v-165h-507v69l81 14v192h-72v82h72v148q0 93 57 150t153 57q91 0 146 -54.5t55 -143.5v-10h-91v5q0 54 -30 84.5t-84 30.5q-55 0 -84.5 -32.5t-29.5 -91.5v-143h173v-82h-173v-190h249v80z" />
    <glyph glyph-name="currency" unicode="&#xa4;" horiz-adv-x="612" 
d="M518 299q0 -68 -39 -123l76 -76l-57 -57l-78 77q-53 -32 -114 -32t-114 32l-78 -77l-57 57l76 76q-39 55 -39 123t39 123l-76 76l57 57l78 -77q53 32 114 32t114 -32l78 77l57 -57l-76 -76q39 -55 39 -123zM306 167q54 0 92.5 38.5t38.5 93.5t-38.5 93.5t-92.5 38.5
t-92.5 -38.5t-38.5 -93.5t38.5 -93.5t92.5 -38.5z" />
    <glyph glyph-name="yen" unicode="&#xa5;" horiz-adv-x="622" 
d="M600 700l-225 -336h147v-75h-165v-65h165v-75h-165v-149h-92v149h-165v75h165v65h-165v75h147l-225 336h102l188 -285l187 285h101z" />
    <glyph glyph-name="brokenbar" unicode="&#xa6;" horiz-adv-x="327" 
d="M120 400v440h87v-440h-87zM120 -190v450h87v-450h-87z" />
    <glyph glyph-name="section" unicode="&#xa7;" horiz-adv-x="551" 
d="M410 183q51 -39 51 -107q0 -63 -48.5 -103.5t-134.5 -40.5q-90 0 -140.5 44.5t-52.5 117.5h83q9 -85 112 -85q46 0 70.5 18.5t24.5 47.5q0 19 -9 33.5t-30 25t-37 16.5t-49 15q-34 10 -53 16.5t-47.5 20.5t-43.5 30t-27 42t-12 59q0 87 86 135q-52 38 -52 102
q0 60 47.5 101t128.5 41q85 0 134.5 -45t49.5 -116h-85q0 38 -26 61t-73 23q-44 0 -67.5 -18t-23.5 -47q0 -18 8.5 -31t28.5 -23.5t35 -16t47 -15.5q34 -11 52 -17.5t46.5 -22t43.5 -31.5t27 -42t12 -59q0 -79 -76 -129zM152 339q0 -23 10 -40t32 -29t41 -19t52.5 -17
t51.5 -16q62 32 62 91q0 22 -9 38.5t-31 29.5t-37 19.5t-51 18.5t-49 17q-72 -33 -72 -93z" />
    <glyph glyph-name="dieresis" unicode="&#xa8;" horiz-adv-x="600" 
d="M99 590v103h104v-103h-104zM300 590v103h104v-103h-104z" />
    <glyph glyph-name="copyright" unicode="&#xa9;" horiz-adv-x="860" 
d="M430 -11q-163 0 -266.5 101.5t-103.5 258.5t103.5 258.5t266.5 101.5t266.5 -101.5t103.5 -258.5t-103.5 -258.5t-266.5 -101.5zM430 60q130 0 212.5 81.5t82.5 207.5t-82.5 207.5t-212.5 81.5t-212.5 -81.5t-82.5 -207.5t82.5 -207.5t212.5 -81.5zM436 166
q-80 0 -132.5 52.5t-52.5 131.5t52.5 131.5t132.5 52.5q63 0 110 -36t62 -98h-76q-30 63 -97 63q-48 0 -78.5 -31.5t-30.5 -81.5t30.5 -81.5t78.5 -31.5q67 0 97 63h76q-15 -62 -62 -98t-110 -36z" />
    <glyph glyph-name="ordfeminine" unicode="&#xaa;" horiz-adv-x="421" 
d="M218 712q64 0 101 -36t37 -97v-202h-53l-11 41q-47 -49 -120 -49q-52 0 -83 28t-31 71q0 46 31.5 73.5t92.5 27.5h100v10q0 67 -67 67q-58 0 -68 -44h-80q8 50 46 80t105 30zM188 435q42 0 68 22t26 52v2h-96q-53 0 -53 -38q0 -17 14 -27.5t41 -10.5z" />
    <glyph glyph-name="guillemotleft" unicode="&#xab;" horiz-adv-x="609" 
d="M225 58l-167 202v14l167 202h102l-171 -209l171 -209h-102zM459 58l-167 202v14l167 202h102l-171 -209l171 -209h-102z" />
    <glyph glyph-name="logicalnot" unicode="&#xac;" horiz-adv-x="525" 
d="M34 382h442v-224h-86v142h-356v82z" />
    <glyph glyph-name="registered" unicode="&#xae;" horiz-adv-x="476" 
d="M238 712q84 0 138.5 -54.5t54.5 -137.5t-54.5 -137.5t-138.5 -54.5t-138.5 54.5t-54.5 137.5t54.5 137.5t138.5 54.5zM238 375q62 0 102 40.5t40 104.5t-40 104.5t-102 40.5t-102 -40.5t-40 -104.5t40 -104.5t102 -40.5zM322 554q0 -40 -38 -57l40 -74h-53l-36 68h-16
v-68h-48v198h76q35 0 55 -18t20 -49zM219 577v-42h28q25 0 25 21t-25 21h-28z" />
    <glyph glyph-name="macron" unicode="&#xaf;" horiz-adv-x="507" 
d="M97 597v71h313v-71h-313z" />
    <glyph glyph-name="degree" unicode="&#xb0;" horiz-adv-x="340" 
d="M170 558q-60 0 -100 39t-40 97t40 97t100 39t100 -39t40 -97t-40 -97t-100 -39zM170 625q31 0 51 20t20 49t-20 49t-51 20t-51 -20t-20 -49t20 -49t51 -20z" />
    <glyph glyph-name="plusminus" unicode="&#xb1;" horiz-adv-x="525" 
d="M306 407h175v-80h-175v-167h-87v167h-175v80h175v167h87v-167zM44 10v80h437v-80h-437z" />
    <glyph glyph-name="acute" unicode="&#xb4;" horiz-adv-x="463" 
d="M100 563l66 152h98l-92 -152h-72z" />
    <glyph glyph-name="paragraph" unicode="&#xb6;" horiz-adv-x="643" 
d="M603 700v-81h-88v-733h-87v733h-112v-733h-87v408q-80 11 -129 65.5t-49 134.5q0 92 59.5 149t160.5 57h332z" />
    <glyph glyph-name="periodcentered" unicode="&#xb7;" horiz-adv-x="270" 
d="M83 253v112h104v-112h-104z" />
    <glyph glyph-name="cedilla" unicode="&#xb8;" horiz-adv-x="388" 
d="M194 -47q45 -4 69 -28.5t24 -60.5q0 -44 -29 -69.5t-80 -25.5h-78v58h75q20 0 32 10.5t12 26.5q0 36 -44 36h-38l-10 10l28 121h58z" />
    <glyph glyph-name="ordmasculine" unicode="&#xba;" horiz-adv-x="426" 
d="M213 370q-77 0 -126.5 48.5t-49.5 122.5t49.5 122.5t126.5 48.5t126.5 -48.5t49.5 -122.5t-49.5 -122.5t-126.5 -48.5zM213 439q44 0 72.5 28.5t28.5 73.5t-28.5 73.5t-72.5 28.5t-72.5 -28.5t-28.5 -73.5t28.5 -73.5t72.5 -28.5z" />
    <glyph glyph-name="guillemotright" unicode="&#xbb;" horiz-adv-x="609" 
d="M150 58h-102l171 209l-171 209h102l167 -202v-14zM384 58h-102l171 209l-171 209h102l167 -202v-14z" />
    <glyph glyph-name="onequarter" unicode="&#xbc;" horiz-adv-x="676" 
d="M460 730h82l-404 -760h-82zM98 320v302l-73 -35v72l76 41h68v-380h-71zM661 138v-68h-37v-70h-71v70h-173v61l117 249h77l-113 -242h93l10 97h60v-97h37z" />
    <glyph glyph-name="onehalf" unicode="&#xbd;" horiz-adv-x="704" 
d="M460 730h82l-404 -760h-82zM98 320v302l-73 -35v72l76 41h68v-380h-71zM520 69h149v-69h-257v61q95 78 137 125.5t42 82.5q0 24 -13.5 37.5t-38.5 13.5q-28 0 -44 -15t-16 -42v-8h-70v8q0 56 36 90.5t95 34.5q56 0 90 -30.5t34 -81.5q0 -86 -144 -207z" />
    <glyph glyph-name="threequarters" unicode="&#xbe;" horiz-adv-x="785" 
d="M569 730h82l-404 -760h-82zM297 429q0 -52 -36.5 -84t-96.5 -32q-59 0 -95 32t-38 85h72q5 -48 63 -48q27 0 42 13.5t15 37.5q0 23 -16 36t-45 13h-40v61h35q27 0 42.5 13.5t15.5 36.5t-13.5 35.5t-37.5 12.5q-50 0 -55 -48h-71q1 52 36 83.5t91 31.5q55 0 88.5 -31
t33.5 -81t-40 -80q50 -31 50 -87zM733 138h37v-68h-37v-70h-71v70h-173v61l117 249h77l-113 -242h93l10 97h60v-97z" />
    <glyph glyph-name="questiondown" unicode="&#xbf;" horiz-adv-x="505" 
d="M321 500v-112h-104v112h104zM315 295v-7q0 -42 -13.5 -75.5t-34.5 -54t-44.5 -40.5t-44.5 -36t-34.5 -40.5t-13.5 -53.5q0 -46 35 -76.5t93 -30.5q60 0 96 32t40 90h88q-4 -98 -68.5 -153t-158.5 -55q-97 0 -156 55t-59 138q0 45 19 80.5t46 59t54.5 45.5t46.5 51t19 64
v7h90z" />
    <glyph glyph-name="Agrave" unicode="&#xc0;" horiz-adv-x="707" 
d="M319 778l-97 142h98l71 -142h-72zM587 0l-66 161h-337l-66 -161h-98l289 700h89l289 -700h-100zM352 584l-133 -335h266z" />
    <glyph glyph-name="Aacute" unicode="&#xc1;" horiz-adv-x="707" 
d="M307 778l71 142h98l-97 -142h-72zM587 0l-66 161h-337l-66 -161h-98l289 700h89l289 -700h-100zM352 584l-133 -335h266z" />
    <glyph glyph-name="Acircumflex" unicode="&#xc2;" horiz-adv-x="707" 
d="M351 881l-86 -103h-85l118 142h105l119 -142h-85zM398 700l289 -700h-100l-66 161h-337l-66 -161h-98l289 700h89zM219 249h266l-133 335z" />
    <glyph glyph-name="Atilde" unicode="&#xc3;" horiz-adv-x="707" 
d="M423 778q-34 0 -60.5 19t-47 38t-40.5 19q-35 0 -35 -49v-23h-65v23q0 55 26 83.5t73 28.5q34 0 60.5 -19t47 -38t40.5 -19q35 0 35 49v23h65v-23q0 -55 -26 -83.5t-73 -28.5zM587 0l-66 161h-337l-66 -161h-98l289 700h89l289 -700h-100zM352 584l-133 -335h266z" />
    <glyph glyph-name="Adieresis" unicode="&#xc4;" horiz-adv-x="707" 
d="M190 784v103h104v-103h-104zM409 784v103h104v-103h-104zM587 0l-66 161h-337l-66 -161h-98l289 700h89l289 -700h-100zM352 584l-133 -335h266z" />
    <glyph glyph-name="Aring" unicode="&#xc5;" horiz-adv-x="707" 
d="M352 761q-55 0 -89.5 33t-34.5 83q0 51 34.5 83t89.5 32q54 0 88.5 -32t34.5 -83q0 -50 -34.5 -83t-88.5 -33zM352 816q28 0 45.5 17.5t17.5 43.5t-17.5 43t-45.5 17t-46 -17t-18 -43t18 -43.5t46 -17.5zM587 0l-66 161h-337l-66 -161h-98l289 700h89l289 -700h-100z
M352 584l-133 -335h266z" />
    <glyph glyph-name="AE" unicode="&#xc6;" horiz-adv-x="924" 
d="M532 86h318v-86h-410v152h-260l-91 -152h-104l419 700h435v-86h-307v-212h281v-86h-281v-230zM231 238h209v350z" />
    <glyph glyph-name="Ccedilla" unicode="&#xc7;" horiz-adv-x="817" 
d="M759 250q-28 -115 -113 -185t-202 -76l-9 -36q45 -4 69 -28.5t24 -60.5q0 -44 -29 -69.5t-80 -25.5h-78v58h75q20 0 32 10.5t12 26.5q0 36 -44 36h-38l-10 10l18 80q-142 12 -232 112t-90 248q0 158 101.5 260t257.5 102q123 0 213.5 -68.5t119.5 -183.5h-95
q-28 77 -91.5 120.5t-146.5 43.5q-118 0 -192.5 -76t-74.5 -198t74.5 -198t192.5 -76q86 0 150 46t91 128h95z" />
    <glyph glyph-name="Egrave" unicode="&#xc8;" horiz-adv-x="586" 
d="M267 778l-97 142h98l71 -142h-72zM194 86h318v-86h-410v700h399v-86h-307v-212h281v-86h-281v-230z" />
    <glyph glyph-name="Eacute" unicode="&#xc9;" horiz-adv-x="586" 
d="M255 778l71 142h98l-97 -142h-72zM194 86h318v-86h-410v700h399v-86h-307v-212h281v-86h-281v-230z" />
    <glyph glyph-name="Ecircumflex" unicode="&#xca;" horiz-adv-x="586" 
d="M299 881l-86 -103h-85l118 142h105l119 -142h-85zM194 86h318v-86h-410v700h399v-86h-307v-212h281v-86h-281v-230z" />
    <glyph glyph-name="Edieresis" unicode="&#xcb;" horiz-adv-x="586" 
d="M138 784v103h104v-103h-104zM357 784v103h104v-103h-104zM194 86h318v-86h-410v700h399v-86h-307v-212h281v-86h-281v-230z" />
    <glyph glyph-name="Igrave" unicode="&#xcc;" horiz-adv-x="296" 
d="M180 778h-73l-71 142h96zM102 0v700h92v-700h-92z" />
    <glyph glyph-name="Iacute" unicode="&#xcd;" horiz-adv-x="296" 
d="M110 778l48 142h94l-72 -142h-70zM102 0v700h92v-700h-92z" />
    <glyph glyph-name="Icircumflex" unicode="&#xce;" horiz-adv-x="296" 
d="M195 920l104 -142h-78l-73 100l-73 -100h-78l103 142h95zM102 0v700h92v-700h-92z" />
    <glyph glyph-name="Idieresis" unicode="&#xcf;" horiz-adv-x="296" 
d="M32 784v103h94v-103h-94zM172 784v103h94v-103h-94zM102 0v700h92v-700h-92z" />
    <glyph glyph-name="Eth" unicode="&#xd0;" horiz-adv-x="774" 
d="M355 700q156 0 255.5 -98.5t99.5 -251.5t-99.5 -251.5t-255.5 -98.5h-237v309h-100v84h100v307h237zM352 86q121 0 193.5 72.5t72.5 191.5t-72.5 191.5t-193.5 72.5h-142v-221h198v-84h-198v-223h142z" />
    <glyph glyph-name="Ntilde" unicode="&#xd1;" horiz-adv-x="766" 
d="M459 778q-34 0 -60.5 19t-47 38t-40.5 19q-35 0 -35 -49v-23h-65v23q0 55 26 83.5t73 28.5q34 0 60.5 -19t47 -38t40.5 -19q35 0 35 49v23h65v-23q0 -55 -26 -83.5t-73 -28.5zM572 700h92v-700h-86l-384 532v-532h-92v700h86l384 -532v532z" />
    <glyph glyph-name="Ograve" unicode="&#xd2;" horiz-adv-x="862" 
d="M398 778l-97 142h98l71 -142h-72zM431 -12q-159 0 -263 103t-104 259t104 259t263 103t263 -103t104 -259t-104 -259t-263 -103zM431 76q118 0 196.5 78t78.5 196t-78.5 196t-196.5 78t-196.5 -78t-78.5 -196t78.5 -196t196.5 -78z" />
    <glyph glyph-name="Oacute" unicode="&#xd3;" horiz-adv-x="862" 
d="M386 778l71 142h98l-97 -142h-72zM431 -12q-159 0 -263 103t-104 259t104 259t263 103t263 -103t104 -259t-104 -259t-263 -103zM431 76q118 0 196.5 78t78.5 196t-78.5 196t-196.5 78t-196.5 -78t-78.5 -196t78.5 -196t196.5 -78z" />
    <glyph glyph-name="Ocircumflex" unicode="&#xd4;" horiz-adv-x="862" 
d="M430 881l-86 -103h-85l118 142h105l119 -142h-85zM431 712q159 0 263 -103t104 -259t-104 -259t-263 -103t-263 103t-104 259t104 259t263 103zM431 76q118 0 196.5 78t78.5 196t-78.5 196t-196.5 78t-196.5 -78t-78.5 -196t78.5 -196t196.5 -78z" />
    <glyph glyph-name="Otilde" unicode="&#xd5;" horiz-adv-x="862" 
d="M502 778q-34 0 -60.5 19t-47 38t-40.5 19q-35 0 -35 -49v-23h-65v23q0 55 26 83.5t73 28.5q34 0 60.5 -19t47 -38t40.5 -19q35 0 35 49v23h65v-23q0 -55 -26 -83.5t-73 -28.5zM431 -12q-159 0 -263 103t-104 259t104 259t263 103t263 -103t104 -259t-104 -259t-263 -103z
M431 76q118 0 196.5 78t78.5 196t-78.5 196t-196.5 78t-196.5 -78t-78.5 -196t78.5 -196t196.5 -78z" />
    <glyph glyph-name="Odieresis" unicode="&#xd6;" horiz-adv-x="862" 
d="M269 784v103h104v-103h-104zM488 784v103h104v-103h-104zM431 -12q-159 0 -263 103t-104 259t104 259t263 103t263 -103t104 -259t-104 -259t-263 -103zM431 76q118 0 196.5 78t78.5 196t-78.5 196t-196.5 78t-196.5 -78t-78.5 -196t78.5 -196t196.5 -78z" />
    <glyph glyph-name="multiply" unicode="&#xd7;" horiz-adv-x="524" 
d="M461 479l-138 -138l138 -138l-61 -61l-138 138l-138 -138l-61 61l138 138l-138 138l61 61l138 -138l138 138z" />
    <glyph glyph-name="Oslash" unicode="&#xd8;" horiz-adv-x="862" 
d="M659 639q66 -50 102.5 -125t36.5 -164q0 -156 -104 -259t-263 -103q-82 0 -155 31l-50 -81h-99l76 123q-66 50 -102.5 125t-36.5 164q0 156 104 259t263 103q82 0 155 -31l50 81h99zM156 350q0 -132 96 -212l288 466q-51 20 -109 20q-118 0 -196.5 -78t-78.5 -196z
M431 76q118 0 196.5 78t78.5 196q0 132 -96 212l-288 -466q51 -20 109 -20z" />
    <glyph glyph-name="Ugrave" unicode="&#xd9;" horiz-adv-x="747" 
d="M341 778l-97 142h98l71 -142h-72zM374 -12q-124 0 -200.5 76.5t-76.5 200.5v435h92v-428q0 -92 50 -144t135 -52t134.5 52t49.5 144v428h92v-435q0 -124 -76.5 -200.5t-199.5 -76.5z" />
    <glyph glyph-name="Uacute" unicode="&#xda;" horiz-adv-x="747" 
d="M329 778l71 142h98l-97 -142h-72zM374 -12q-124 0 -200.5 76.5t-76.5 200.5v435h92v-428q0 -92 50 -144t135 -52t134.5 52t49.5 144v428h92v-435q0 -124 -76.5 -200.5t-199.5 -76.5z" />
    <glyph glyph-name="Ucircumflex" unicode="&#xdb;" horiz-adv-x="747" 
d="M373 881l-86 -103h-85l118 142h105l119 -142h-85zM558 700h92v-435q0 -124 -76.5 -200.5t-199.5 -76.5q-124 0 -200.5 76.5t-76.5 200.5v435h92v-428q0 -92 50 -144t135 -52t134.5 52t49.5 144v428z" />
    <glyph glyph-name="Udieresis" unicode="&#xdc;" horiz-adv-x="747" 
d="M212 784v103h104v-103h-104zM431 784v103h104v-103h-104zM374 -12q-124 0 -200.5 76.5t-76.5 200.5v435h92v-428q0 -92 50 -144t135 -52t134.5 52t49.5 144v428h92v-435q0 -124 -76.5 -200.5t-199.5 -76.5z" />
    <glyph glyph-name="Yacute" unicode="&#xdd;" horiz-adv-x="654" 
d="M282 778l71 142h98l-97 -142h-72zM630 700l-257 -422v-278h-92v278l-257 422h106l197 -326l197 326h106z" />
    <glyph glyph-name="Thorn" unicode="&#xde;" horiz-adv-x="641" 
d="M355 574q102 0 168 -64t66 -159t-66 -159t-168 -64h-161v-128h-92v700h92v-126h161zM350 214q67 0 107 38t40 99t-40 99t-107 38h-156v-274h156z" />
    <glyph glyph-name="germandbls" unicode="&#xdf;" horiz-adv-x="629" 
d="M465 386q49 -22 78 -69t29 -110q0 -93 -63 -150t-173 -57h-73v79h73q71 0 110 36.5t39 99.5q0 58 -39.5 93t-109.5 35h-64v79h53q64 0 97.5 31.5t33.5 89.5q0 55 -35 89t-96 34q-72 0 -111 -42t-39 -125v-499h-87v496q0 117 63.5 183t173.5 66q97 0 157.5 -56.5
t60.5 -140.5q0 -51 -21 -94.5t-57 -67.5z" />
    <glyph glyph-name="agrave" unicode="&#xe0;" horiz-adv-x="584" 
d="M262 563l-92 152h98l66 -152h-72zM293 512q95 0 152.5 -55t57.5 -146v-311h-67l-12 67q-64 -79 -178 -79q-84 0 -134.5 41t-50.5 110t50.5 110t136.5 41h169v15q0 63 -32.5 95.5t-92.5 32.5q-102 0 -123 -76h-93q13 71 70.5 113t146.5 42zM250 67q77 0 122 40.5t45 104.5
v6h-166q-48 0 -74.5 -20t-26.5 -56q0 -35 26 -55t74 -20z" />
    <glyph glyph-name="aacute" unicode="&#xe1;" horiz-adv-x="584" 
d="M411 715l-92 -152h-72l66 152h98zM293 512q95 0 152.5 -55t57.5 -146v-311h-67l-12 67q-64 -79 -178 -79q-84 0 -134.5 41t-50.5 110t50.5 110t136.5 41h169v15q0 63 -32.5 95.5t-92.5 32.5q-102 0 -123 -76h-93q13 71 70.5 113t146.5 42zM250 67q77 0 122 40.5t45 104.5
v6h-166q-48 0 -74.5 -20t-26.5 -56q0 -35 26 -55t74 -20z" />
    <glyph glyph-name="acircumflex" unicode="&#xe2;" horiz-adv-x="584" 
d="M291 672l-86 -109h-85l118 152h105l119 -152h-85zM293 512q95 0 152.5 -55t57.5 -146v-311h-67l-12 67q-64 -79 -178 -79q-84 0 -134.5 41t-50.5 110t50.5 110t136.5 41h169v15q0 63 -32.5 95.5t-92.5 32.5q-102 0 -123 -76h-93q13 71 70.5 113t146.5 42zM417 212v6h-166
q-48 0 -74.5 -20t-26.5 -56q0 -35 26 -55t74 -20q77 0 122 40.5t45 104.5z" />
    <glyph glyph-name="atilde" unicode="&#xe3;" horiz-adv-x="584" 
d="M362 569q-34 0 -60.5 19t-47 38t-40.5 19q-35 0 -35 -49v-23h-65v23q0 55 26 83.5t73 28.5q34 0 60.5 -19t47 -38t40.5 -19q35 0 35 49v23h65v-23q0 -55 -26 -83.5t-73 -28.5zM293 512q95 0 152.5 -55t57.5 -146v-311h-67l-12 67q-64 -79 -178 -79q-84 0 -134.5 41
t-50.5 110t50.5 110t136.5 41h169v15q0 63 -32.5 95.5t-92.5 32.5q-102 0 -123 -76h-93q13 71 70.5 113t146.5 42zM250 67q77 0 122 40.5t45 104.5v6h-166q-48 0 -74.5 -20t-26.5 -56q0 -35 26 -55t74 -20z" />
    <glyph glyph-name="adieresis" unicode="&#xe4;" horiz-adv-x="584" 
d="M137 590v103h104v-103h-104zM338 590v103h104v-103h-104zM293 512q95 0 152.5 -55t57.5 -146v-311h-67l-12 67q-64 -79 -178 -79q-84 0 -134.5 41t-50.5 110t50.5 110t136.5 41h169v15q0 63 -32.5 95.5t-92.5 32.5q-102 0 -123 -76h-93q13 71 70.5 113t146.5 42zM250 67
q77 0 122 40.5t45 104.5v6h-166q-48 0 -74.5 -20t-26.5 -56q0 -35 26 -55t74 -20z" />
    <glyph glyph-name="aring" unicode="&#xe5;" horiz-adv-x="584" 
d="M290 549q-51 0 -83.5 31t-32.5 78q0 48 32.5 78.5t83.5 30.5t83.5 -30.5t32.5 -78.5q0 -47 -32.5 -78t-83.5 -31zM290 601q26 0 43 16.5t17 40.5t-17 40.5t-43 16.5t-43 -16.5t-17 -40.5t17 -40.5t43 -16.5zM293 512q95 0 152.5 -55t57.5 -146v-311h-67l-12 67
q-64 -79 -178 -79q-84 0 -134.5 41t-50.5 110t50.5 110t136.5 41h169v15q0 63 -32.5 95.5t-92.5 32.5q-102 0 -123 -76h-93q13 71 70.5 113t146.5 42zM250 67q77 0 122 40.5t45 104.5v6h-166q-48 0 -74.5 -20t-26.5 -56q0 -35 26 -55t74 -20z" />
    <glyph glyph-name="ae" unicode="&#xe6;" horiz-adv-x="981" 
d="M927 247q0 -17 -2 -35h-402q10 -67 54 -106t107 -39q102 0 140 77h92q-32 -74 -92 -115t-141 -41q-66 0 -120 30t-89 86q-29 -50 -86.5 -83t-136.5 -33q-89 0 -139.5 43t-50.5 110q0 63 46.5 104t126.5 41h194v6q0 69 -33.5 105t-95.5 36q-105 0 -126 -76h-93
q13 70 70.5 112.5t145.5 42.5q134 0 189 -101q33 48 83.5 74.5t109.5 26.5q108 0 178.5 -74t70.5 -191zM678 433q-60 0 -102.5 -39.5t-52.5 -107.5h315q-9 67 -49.5 107t-110.5 40zM263 67q74 0 119.5 40.5t45.5 97.5v7h-186q-92 0 -92 -68q0 -77 113 -77z" />
    <glyph glyph-name="ccedilla" unicode="&#xe7;" horiz-adv-x="620" 
d="M570 185q-21 -88 -84.5 -140t-151.5 -57l-9 -35q45 -4 69 -28.5t24 -60.5q0 -44 -29 -69.5t-80 -25.5h-78v58h75q20 0 32 10.5t12 26.5q0 36 -44 36h-38l-10 10l19 81q-99 14 -161 85t-62 174q0 114 74.5 188t189.5 74q93 0 161.5 -52.5t89.5 -144.5h-89q-17 57 -61 87
t-104 30q-74 0 -124 -51.5t-50 -130.5t50 -130.5t124 -51.5q60 0 104 30t61 87h90z" />
    <glyph glyph-name="egrave" unicode="&#xe8;" horiz-adv-x="629" 
d="M284 563l-92 152h98l66 -152h-72zM575 249q0 -12 -2 -30h-431q10 -69 58.5 -110.5t121.5 -41.5q102 0 149 77h91q-67 -156 -241 -156q-117 0 -192 74.5t-75 187.5t74.5 187.5t187.5 74.5q112 0 185.5 -74t73.5 -189zM316 433q-66 0 -112.5 -38t-59.5 -102h341
q-12 62 -56 101t-113 39z" />
    <glyph glyph-name="eacute" unicode="&#xe9;" horiz-adv-x="629" 
d="M433 715l-92 -152h-72l66 152h98zM575 249q0 -12 -2 -30h-431q10 -69 58.5 -110.5t121.5 -41.5q102 0 149 77h91q-67 -156 -241 -156q-117 0 -192 74.5t-75 187.5t74.5 187.5t187.5 74.5q112 0 185.5 -74t73.5 -189zM316 433q-66 0 -112.5 -38t-59.5 -102h341
q-12 62 -56 101t-113 39z" />
    <glyph glyph-name="ecircumflex" unicode="&#xea;" horiz-adv-x="629" 
d="M313 672l-86 -109h-85l118 152h105l119 -152h-85zM575 249q0 -12 -2 -30h-431q10 -69 58.5 -110.5t121.5 -41.5q102 0 149 77h91q-67 -156 -241 -156q-117 0 -192 74.5t-75 187.5t74.5 187.5t187.5 74.5q112 0 185.5 -74t73.5 -189zM144 293h341q-12 62 -56 101t-113 39
q-66 0 -112.5 -38t-59.5 -102z" />
    <glyph glyph-name="edieresis" unicode="&#xeb;" horiz-adv-x="629" 
d="M159 590v103h104v-103h-104zM360 590v103h104v-103h-104zM575 249q0 -12 -2 -30h-431q10 -69 58.5 -110.5t121.5 -41.5q102 0 149 77h91q-67 -156 -241 -156q-117 0 -192 74.5t-75 187.5t74.5 187.5t187.5 74.5q112 0 185.5 -74t73.5 -189zM316 433q-66 0 -112.5 -38
t-59.5 -102h341q-12 62 -56 101t-113 39z" />
    <glyph glyph-name="igrave" unicode="&#xec;" horiz-adv-x="263" 
d="M166 563h-73l-71 152h96zM88 0v500h87v-500h-87z" />
    <glyph glyph-name="iacute" unicode="&#xed;" horiz-adv-x="263" 
d="M91 563l48 152h96l-71 -152h-73zM88 0v500h87v-500h-87z" />
    <glyph glyph-name="icircumflex" unicode="&#xee;" horiz-adv-x="263" 
d="M179 715l104 -152h-78l-73 104l-73 -104h-78l103 152h95zM88 0v500h87v-500h-87z" />
    <glyph glyph-name="idieresis" unicode="&#xef;" horiz-adv-x="263" 
d="M6 591v103h92v-103h-92zM163 590v103h92v-103h-92zM88 0v500h87v-500h-87z" />
    <glyph glyph-name="eth" unicode="&#xf0;" horiz-adv-x="657" 
d="M389 698q208 -107 208 -391q0 -41 -6 -79q-18 -116 -90 -178t-182 -62q-118 0 -193.5 72.5t-75.5 181.5q0 105 74.5 178t185.5 73q123 0 194 -77q-28 154 -181 219l-91 -88l-40 39l72 69q-64 17 -149 19h-1v83h1q125 -1 219 -35l87 84l39 -40zM318 67q81 0 132.5 49.5
t51.5 125.5q0 74 -51 123t-131 49t-131.5 -49.5t-51.5 -124.5q0 -74 51 -123.5t130 -49.5z" />
    <glyph glyph-name="ntilde" unicode="&#xf1;" horiz-adv-x="643" 
d="M222 596v-23h-65v23q0 55 26 83.5t73 28.5q34 0 60.5 -19t47 -38t40.5 -19q35 0 35 49v23h65v-23q0 -55 -26 -83.5t-73 -28.5q-34 0 -60.5 19t-47 38t-40.5 19q-35 0 -35 -49zM358 512q89 0 146.5 -62t57.5 -166v-284h-87v266q0 81 -36 123t-105 42q-68 0 -113.5 -51
t-45.5 -128v-252h-87v500h68l16 -72q67 84 186 84z" />
    <glyph glyph-name="ograve" unicode="&#xf2;" horiz-adv-x="648" 
d="M301 563l-92 152h98l66 -152h-72zM324 -12q-116 0 -193 75t-77 187t77 187t193 75t193 -75t77 -187t-77 -187t-193 -75zM324 67q79 0 131 52.5t52 130.5q0 79 -52 131t-131 52t-131 -52t-52 -131q0 -78 52 -130.5t131 -52.5z" />
    <glyph glyph-name="oacute" unicode="&#xf3;" horiz-adv-x="648" 
d="M286 563l66 152h98l-92 -152h-72zM324 -12q-116 0 -193 75t-77 187t77 187t193 75t193 -75t77 -187t-77 -187t-193 -75zM324 67q79 0 131 52.5t52 130.5q0 79 -52 131t-131 52t-131 -52t-52 -131q0 -78 52 -130.5t131 -52.5z" />
    <glyph glyph-name="ocircumflex" unicode="&#xf4;" horiz-adv-x="648" 
d="M330 672l-86 -109h-85l118 152h105l119 -152h-85zM324 512q116 0 193 -75t77 -187t-77 -187t-193 -75t-193 75t-77 187t77 187t193 75zM324 67q79 0 131 52.5t52 130.5q0 79 -52 131t-131 52t-131 -52t-52 -131q0 -78 52 -130.5t131 -52.5z" />
    <glyph glyph-name="otilde" unicode="&#xf5;" horiz-adv-x="648" 
d="M401 569q-34 0 -60.5 19t-47 38t-40.5 19q-35 0 -35 -49v-23h-65v23q0 55 26 83.5t73 28.5q34 0 60.5 -19t47 -38t40.5 -19q35 0 35 49v23h65v-23q0 -55 -26 -83.5t-73 -28.5zM324 -12q-116 0 -193 75t-77 187t77 187t193 75t193 -75t77 -187t-77 -187t-193 -75zM324 67
q79 0 131 52.5t52 130.5q0 79 -52 131t-131 52t-131 -52t-52 -131q0 -78 52 -130.5t131 -52.5z" />
    <glyph glyph-name="odieresis" unicode="&#xf6;" horiz-adv-x="648" 
d="M176 590v103h104v-103h-104zM377 590v103h104v-103h-104zM324 -12q-116 0 -193 75t-77 187t77 187t193 75t193 -75t77 -187t-77 -187t-193 -75zM324 67q79 0 131 52.5t52 130.5q0 79 -52 131t-131 52t-131 -52t-52 -131q0 -78 52 -130.5t131 -52.5z" />
    <glyph glyph-name="divide" unicode="&#xf7;" horiz-adv-x="525" 
d="M263 460q-26 0 -44 17.5t-18 43.5t18 43.5t44 17.5t44 -17.5t18 -43.5t-18 -43.5t-44 -17.5zM34 301v80h457v-80h-457zM263 100q-26 0 -44 17.5t-18 43.5t18 43.5t44 17.5t44 -17.5t18 -43.5t-18 -43.5t-44 -17.5z" />
    <glyph glyph-name="oslash" unicode="&#xf8;" horiz-adv-x="648" 
d="M485 463q51 -36 80 -91.5t29 -121.5q0 -112 -77 -187t-193 -75q-52 0 -95 15l-36 -64h-85l55 98q-51 36 -80 91.5t-29 121.5q0 112 77 187t193 75q51 0 95 -15l36 64h85zM324 435q-80 0 -132.5 -52.5t-52.5 -132.5q0 -90 64 -143l178 320q-29 8 -57 8zM324 65
q80 0 132.5 52.5t52.5 132.5q0 90 -64 143l-178 -320q29 -8 57 -8z" />
    <glyph glyph-name="ugrave" unicode="&#xf9;" horiz-adv-x="644" 
d="M295 563l-92 152h98l66 -152h-72zM469 500h87v-500h-68l-17 72q-66 -84 -182 -84q-94 0 -147.5 58t-53.5 160v294h87v-276q0 -84 34.5 -119.5t103.5 -35.5q66 0 111 52.5t45 131.5v247z" />
    <glyph glyph-name="uacute" unicode="&#xfa;" horiz-adv-x="644" 
d="M444 715l-92 -152h-72l66 152h98zM469 500h87v-500h-68l-17 72q-66 -84 -182 -84q-94 0 -147.5 58t-53.5 160v294h87v-276q0 -84 34.5 -119.5t103.5 -35.5q66 0 111 52.5t45 131.5v247z" />
    <glyph glyph-name="ucircumflex" unicode="&#xfb;" horiz-adv-x="644" 
d="M324 672l-86 -109h-85l118 152h105l119 -152h-85zM469 500h87v-500h-68l-17 72q-66 -84 -182 -84q-94 0 -147.5 58t-53.5 160v294h87v-276q0 -84 34.5 -119.5t103.5 -35.5q66 0 111 52.5t45 131.5v247z" />
    <glyph glyph-name="udieresis" unicode="&#xfc;" horiz-adv-x="644" 
d="M170 590v103h104v-103h-104zM371 590v103h104v-103h-104zM469 500h87v-500h-68l-17 72q-66 -84 -182 -84q-94 0 -147.5 58t-53.5 160v294h87v-276q0 -84 34.5 -119.5t103.5 -35.5q66 0 111 52.5t45 131.5v247z" />
    <glyph glyph-name="yacute" unicode="&#xfd;" horiz-adv-x="567" 
d="M409 715l-92 -152h-72l66 152h98zM459 500h94l-242 -519q-46 -98 -93.5 -136t-131.5 -38h-38v81h37q53 0 82.5 23t60.5 90l17 36l-223 463h95l173 -366z" />
    <glyph glyph-name="thorn" unicode="&#xfe;" horiz-adv-x="676" 
d="M362 512q111 0 185.5 -75t74.5 -187t-74.5 -187t-185.5 -75t-187 74v-255h-87v926h87v-295q76 74 187 74zM353 67q81 0 131.5 50.5t50.5 132.5t-50.5 132.5t-131.5 50.5t-131.5 -50.5t-50.5 -132.5t50.5 -132.5t131.5 -50.5z" />
    <glyph glyph-name="ydieresis" unicode="&#xff;" horiz-adv-x="567" 
d="M239 693v-103h-104v103h104zM440 693v-103h-104v103h104zM459 500h94l-242 -519q-46 -98 -93.5 -136t-131.5 -38h-38v81h37q53 0 82.5 23t60.5 90l17 36l-223 463h95l173 -366z" />
    <glyph glyph-name="Amacron" unicode="&#x100;" horiz-adv-x="707" 
d="M196 817v72h313v-72h-313zM587 0l-66 161h-337l-66 -161h-98l289 700h89l289 -700h-100zM352 584l-133 -335h266z" />
    <glyph glyph-name="amacron" unicode="&#x101;" horiz-adv-x="584" 
d="M133 597v71h313v-71h-313zM293 512q95 0 152.5 -55t57.5 -146v-311h-67l-12 67q-64 -79 -178 -79q-84 0 -134.5 41t-50.5 110t50.5 110t136.5 41h169v15q0 63 -32.5 95.5t-92.5 32.5q-102 0 -123 -76h-93q13 71 70.5 113t146.5 42zM250 67q77 0 122 40.5t45 104.5v6h-166
q-48 0 -74.5 -20t-26.5 -56q0 -35 26 -55t74 -20z" />
    <glyph glyph-name="Abreve" unicode="&#x102;" horiz-adv-x="707" 
d="M352 773q-71 0 -114 39.5t-43 107.5h72v-3q0 -39 23 -60.5t62 -21.5t61 21.5t22 60.5v3h74q0 -68 -43 -107.5t-114 -39.5zM587 0l-66 161h-337l-66 -161h-98l289 700h89l289 -700h-100zM352 584l-133 -335h266z" />
    <glyph glyph-name="abreve" unicode="&#x103;" horiz-adv-x="584" 
d="M290 558q-73 0 -117.5 42.5t-44.5 114.5h72v-3q0 -44 24.5 -68t65.5 -24t64.5 24t23.5 68v3h74q0 -72 -44.5 -114.5t-117.5 -42.5zM293 512q95 0 152.5 -55t57.5 -146v-311h-67l-12 67q-64 -79 -178 -79q-84 0 -134.5 41t-50.5 110t50.5 110t136.5 41h169v15
q0 63 -32.5 95.5t-92.5 32.5q-102 0 -123 -76h-93q13 71 70.5 113t146.5 42zM250 67q77 0 122 40.5t45 104.5v6h-166q-48 0 -74.5 -20t-26.5 -56q0 -35 26 -55t74 -20z" />
    <glyph glyph-name="Aogonek" unicode="&#x104;" horiz-adv-x="707" 
d="M668 0q-32 -27 -49.5 -42.5t-33.5 -39t-16 -43.5q0 -40 55 -40h36v-57q-20 -6 -54 -6q-59 0 -88 22.5t-29 59.5q0 65 97 147l-65 160h-337l-66 -161h-98l289 700h89l289 -700h-19zM352 584l-133 -335h266z" />
    <glyph glyph-name="aogonek" unicode="&#x105;" horiz-adv-x="584" 
d="M503 0q-32 -27 -49.5 -42.5t-33.5 -39t-16 -43.5q0 -40 55 -40h36v-57q-20 -6 -54 -6q-59 0 -88 22.5t-29 59.5q0 68 110 158l-10 55q-64 -79 -178 -79q-84 0 -134.5 41t-50.5 110t50.5 110t136.5 41h169v15q0 63 -32.5 95.5t-92.5 32.5q-102 0 -123 -76h-93
q13 71 70.5 113t146.5 42q95 0 152.5 -55t57.5 -146v-311zM250 67q77 0 122 40.5t45 104.5v6h-166q-48 0 -74.5 -20t-26.5 -56q0 -35 26 -55t74 -20z" />
    <glyph glyph-name="Cacute" unicode="&#x106;" horiz-adv-x="817" 
d="M373 778l71 142h98l-97 -142h-72zM423 -12q-156 0 -257.5 102t-101.5 260t101.5 260t257.5 102q123 0 213.5 -68.5t119.5 -183.5h-95q-28 77 -91.5 120.5t-146.5 43.5q-118 0 -192.5 -76t-74.5 -198t74.5 -198t192.5 -76q86 0 150 46t91 128h95q-29 -120 -120 -191
t-216 -71z" />
    <glyph glyph-name="cacute" unicode="&#x107;" horiz-adv-x="620" 
d="M271 563l66 152h98l-92 -152h-72zM318 -12q-115 0 -189.5 74t-74.5 188t74.5 188t189.5 74q93 0 161.5 -52.5t89.5 -144.5h-89q-17 57 -61 87t-104 30q-74 0 -124 -51.5t-50 -130.5t50 -130.5t124 -51.5q60 0 104 30t61 87h90q-21 -92 -90 -144.5t-162 -52.5z" />
    <glyph glyph-name="Ccircumflex" unicode="&#x108;" horiz-adv-x="817" 
d="M417 881l-86 -103h-85l118 142h105l119 -142h-85zM664 250h95q-29 -120 -120 -191t-216 -71q-156 0 -257.5 102t-101.5 260t101.5 260t257.5 102q123 0 213.5 -68.5t119.5 -183.5h-95q-28 77 -91.5 120.5t-146.5 43.5q-118 0 -192.5 -76t-74.5 -198t74.5 -198t192.5 -76
q86 0 150 46t91 128z" />
    <glyph glyph-name="ccircumflex" unicode="&#x109;" horiz-adv-x="620" 
d="M315 672l-86 -109h-85l118 152h105l119 -152h-85zM480 185h90q-21 -92 -90 -144.5t-162 -52.5q-115 0 -189.5 74t-74.5 188t74.5 188t189.5 74q93 0 161.5 -52.5t89.5 -144.5h-89q-17 57 -61 87t-104 30q-74 0 -124 -51.5t-50 -130.5t50 -130.5t124 -51.5q60 0 104 30
t61 87z" />
    <glyph glyph-name="Cdotaccent" unicode="&#x10a;" horiz-adv-x="817" 
d="M366 784v103h104v-103h-104zM423 -12q-156 0 -257.5 102t-101.5 260t101.5 260t257.5 102q123 0 213.5 -68.5t119.5 -183.5h-95q-28 77 -91.5 120.5t-146.5 43.5q-118 0 -192.5 -76t-74.5 -198t74.5 -198t192.5 -76q86 0 150 46t91 128h95q-29 -120 -120 -191t-216 -71z
" />
    <glyph glyph-name="cdotaccent" unicode="&#x10b;" horiz-adv-x="620" 
d="M265 590v103h98v-103h-98zM318 -12q-115 0 -189.5 74t-74.5 188t74.5 188t189.5 74q93 0 161.5 -52.5t89.5 -144.5h-89q-17 57 -61 87t-104 30q-74 0 -124 -51.5t-50 -130.5t50 -130.5t124 -51.5q60 0 104 30t61 87h90q-21 -92 -90 -144.5t-162 -52.5z" />
    <glyph glyph-name="Ccaron" unicode="&#x10c;" horiz-adv-x="817" 
d="M470 778h-105l-118 142h85l86 -103l86 103h85zM664 250h95q-29 -120 -120 -191t-216 -71q-156 0 -257.5 102t-101.5 260t101.5 260t257.5 102q123 0 213.5 -68.5t119.5 -183.5h-95q-28 77 -91.5 120.5t-146.5 43.5q-118 0 -192.5 -76t-74.5 -198t74.5 -198t192.5 -76
q86 0 150 46t91 128z" />
    <glyph glyph-name="ccaron" unicode="&#x10d;" horiz-adv-x="620" 
d="M366 563h-105l-118 152h85l86 -109l86 109h85zM480 185h90q-21 -92 -90 -144.5t-162 -52.5q-115 0 -189.5 74t-74.5 188t74.5 188t189.5 74q93 0 161.5 -52.5t89.5 -144.5h-89q-17 57 -61 87t-104 30q-74 0 -124 -51.5t-50 -130.5t50 -130.5t124 -51.5q60 0 104 30t61 87
z" />
    <glyph glyph-name="Dcaron" unicode="&#x10e;" horiz-adv-x="758" 
d="M356 778h-105l-118 142h85l86 -103l86 103h85zM339 700q156 0 255.5 -98.5t99.5 -251.5t-99.5 -251.5t-255.5 -98.5h-237v700h237zM336 86q121 0 193.5 72.5t72.5 191.5t-72.5 191.5t-193.5 72.5h-142v-528h142z" />
    <glyph glyph-name="dcaron" unicode="&#x10f;" horiz-adv-x="684" 
d="M501 438v295h87v-733h-68l-15 67q-76 -79 -191 -79q-111 0 -185.5 75t-74.5 187t74.5 187t185.5 75t187 -74zM666 733h93v-77q0 -41 -25.5 -72.5t-63.5 -37.5v43q21 4 32.5 20t11.5 39v1h-48v84zM323 67q81 0 131.5 50.5t50.5 132.5t-50.5 132.5t-131.5 50.5
t-131.5 -50.5t-50.5 -132.5t50.5 -132.5t131.5 -50.5z" />
    <glyph glyph-name="Dcroat" unicode="&#x110;" horiz-adv-x="774" 
d="M355 700q156 0 255.5 -98.5t99.5 -251.5t-99.5 -251.5t-255.5 -98.5h-237v309h-100v84h100v307h237zM352 86q121 0 193.5 72.5t72.5 191.5t-72.5 191.5t-193.5 72.5h-142v-221h198v-84h-198v-223h142z" />
    <glyph glyph-name="dcroat" unicode="&#x111;" horiz-adv-x="676" 
d="M672 660v-68h-84v-592h-68l-15 67q-76 -79 -191 -79q-111 0 -185.5 75t-74.5 187t74.5 187t185.5 75t187 -74v154h-197v68h197v73h87v-73h84zM323 67q81 0 131.5 50.5t50.5 132.5t-50.5 132.5t-131.5 50.5t-131.5 -50.5t-50.5 -132.5t50.5 -132.5t131.5 -50.5z" />
    <glyph glyph-name="Emacron" unicode="&#x112;" horiz-adv-x="586" 
d="M144 817v72h313v-72h-313zM194 86h318v-86h-410v700h399v-86h-307v-212h281v-86h-281v-230z" />
    <glyph glyph-name="emacron" unicode="&#x113;" horiz-adv-x="629" 
d="M155 597v71h313v-71h-313zM575 249q0 -12 -2 -30h-431q10 -69 58.5 -110.5t121.5 -41.5q102 0 149 77h91q-67 -156 -241 -156q-117 0 -192 74.5t-75 187.5t74.5 187.5t187.5 74.5q112 0 185.5 -74t73.5 -189zM316 433q-66 0 -112.5 -38t-59.5 -102h341q-12 62 -56 101
t-113 39z" />
    <glyph glyph-name="Ebreve" unicode="&#x114;" horiz-adv-x="586" 
d="M300 773q-71 0 -114 39.5t-43 107.5h72v-3q0 -39 23 -60.5t62 -21.5t61 21.5t22 60.5v3h74q0 -68 -43 -107.5t-114 -39.5zM194 86h318v-86h-410v700h399v-86h-307v-212h281v-86h-281v-230z" />
    <glyph glyph-name="ebreve" unicode="&#x115;" horiz-adv-x="629" 
d="M312 558q-73 0 -117.5 42.5t-44.5 114.5h72v-3q0 -44 24.5 -68t65.5 -24t64.5 24t23.5 68v3h74q0 -72 -44.5 -114.5t-117.5 -42.5zM575 249q0 -12 -2 -30h-431q10 -69 58.5 -110.5t121.5 -41.5q102 0 149 77h91q-67 -156 -241 -156q-117 0 -192 74.5t-75 187.5
t74.5 187.5t187.5 74.5q112 0 185.5 -74t73.5 -189zM316 433q-66 0 -112.5 -38t-59.5 -102h341q-12 62 -56 101t-113 39z" />
    <glyph glyph-name="Edotaccent" unicode="&#x116;" horiz-adv-x="586" 
d="M248 784v103h104v-103h-104zM194 86h318v-86h-410v700h399v-86h-307v-212h281v-86h-281v-230z" />
    <glyph glyph-name="edotaccent" unicode="&#x117;" horiz-adv-x="629" 
d="M263 590v103h98v-103h-98zM575 249q0 -12 -2 -30h-431q10 -69 58.5 -110.5t121.5 -41.5q102 0 149 77h91q-67 -156 -241 -156q-117 0 -192 74.5t-75 187.5t74.5 187.5t187.5 74.5q112 0 185.5 -74t73.5 -189zM316 433q-66 0 -112.5 -38t-59.5 -102h341q-12 62 -56 101
t-113 39z" />
    <glyph glyph-name="Eogonek" unicode="&#x118;" horiz-adv-x="586" 
d="M512 0q-32 -27 -49.5 -42.5t-33.5 -39t-16 -43.5q0 -40 55 -40h36v-57q-20 -6 -54 -6q-59 0 -88 22.5t-29 59.5q0 65 96 146h-327v700h399v-86h-307v-212h281v-86h-281v-230h318v-86z" />
    <glyph glyph-name="eogonek" unicode="&#x119;" horiz-adv-x="629" 
d="M575 249q0 -12 -2 -30h-431q10 -69 58.5 -110.5t121.5 -41.5q102 0 149 77h91q-20 -48 -68.5 -103t-84.5 -96.5t-36 -69.5q0 -40 55 -40h36v-57q-20 -6 -54 -6q-59 0 -88 22.5t-29 59.5q0 62 88 139q-32 -5 -60 -5q-117 0 -192 74.5t-75 187.5t74.5 187.5t187.5 74.5
q112 0 185.5 -74t73.5 -189zM316 433q-66 0 -112.5 -38t-59.5 -102h341q-12 62 -56 101t-113 39z" />
    <glyph glyph-name="Ecaron" unicode="&#x11a;" horiz-adv-x="586" 
d="M352 778h-105l-118 142h85l86 -103l86 103h85zM194 86h318v-86h-410v700h399v-86h-307v-212h281v-86h-281v-230z" />
    <glyph glyph-name="ecaron" unicode="&#x11b;" horiz-adv-x="629" 
d="M364 563h-105l-118 152h85l86 -109l86 109h85zM575 249q0 -12 -2 -30h-431q10 -69 58.5 -110.5t121.5 -41.5q102 0 149 77h91q-67 -156 -241 -156q-117 0 -192 74.5t-75 187.5t74.5 187.5t187.5 74.5q112 0 185.5 -74t73.5 -189zM144 293h341q-12 62 -56 101t-113 39
q-66 0 -112.5 -38t-59.5 -102z" />
    <glyph glyph-name="Gcircumflex" unicode="&#x11c;" horiz-adv-x="833" 
d="M419 881l-86 -103h-85l118 142h105l119 -142h-85zM400 350h371q-5 -161 -100.5 -261.5t-250.5 -100.5t-255.5 101.5t-100.5 260.5t100.5 260.5t255.5 101.5q129 0 218 -68t115 -172h-96q-27 68 -87 110t-150 42q-117 0 -190.5 -75.5t-73.5 -198.5t73.5 -198.5
t190.5 -75.5q100 0 165.5 50.5t84.5 138.5h-270v85z" />
    <glyph glyph-name="gcircumflex" unicode="&#x11d;" horiz-adv-x="677" 
d="M310 672l-86 -109h-85l118 152h105l119 -152h-85zM521 500h68v-444q0 -124 -70.5 -192.5t-197.5 -68.5q-97 0 -162 44t-84 119h91q33 -84 157 -84q84 0 131.5 42.5t47.5 129.5v31q-77 -74 -188 -74t-185.5 73.5t-74.5 181.5t74.5 181t185.5 73q115 0 193 -78zM324 83
q80 0 131 49.5t51 125.5q0 75 -51 124.5t-131 49.5q-81 0 -132 -49t-51 -125t51 -125.5t132 -49.5z" />
    <glyph glyph-name="Gbreve" unicode="&#x11e;" horiz-adv-x="833" 
d="M420 773q-71 0 -114 39.5t-43 107.5h72v-3q0 -39 23 -60.5t62 -21.5t61 21.5t22 60.5v3h74q0 -68 -43 -107.5t-114 -39.5zM400 350h371q-5 -161 -100.5 -261.5t-250.5 -100.5t-255.5 101.5t-100.5 260.5t100.5 260.5t255.5 101.5q129 0 218 -68t115 -172h-96
q-27 68 -87 110t-150 42q-117 0 -190.5 -75.5t-73.5 -198.5t73.5 -198.5t190.5 -75.5q100 0 165.5 50.5t84.5 138.5h-270v85z" />
    <glyph glyph-name="gbreve" unicode="&#x11f;" horiz-adv-x="677" 
d="M309 558q-73 0 -117.5 42.5t-44.5 114.5h72v-3q0 -44 24.5 -68t65.5 -24t64.5 24t23.5 68v3h74q0 -72 -44.5 -114.5t-117.5 -42.5zM521 500h68v-444q0 -124 -70.5 -192.5t-197.5 -68.5q-97 0 -162 44t-84 119h91q33 -84 157 -84q84 0 131.5 42.5t47.5 129.5v31
q-77 -74 -188 -74t-185.5 73.5t-74.5 181.5t74.5 181t185.5 73q115 0 193 -78zM324 83q80 0 131 49.5t51 125.5q0 75 -51 124.5t-131 49.5q-81 0 -132 -49t-51 -125t51 -125.5t132 -49.5z" />
    <glyph glyph-name="Gdotaccent" unicode="&#x120;" horiz-adv-x="833" 
d="M368 784v103h104v-103h-104zM400 350h371q-5 -161 -100.5 -261.5t-250.5 -100.5t-255.5 101.5t-100.5 260.5t100.5 260.5t255.5 101.5q129 0 218 -68t115 -172h-96q-27 68 -87 110t-150 42q-117 0 -190.5 -75.5t-73.5 -198.5t73.5 -198.5t190.5 -75.5q100 0 165.5 50.5
t84.5 138.5h-270v85z" />
    <glyph glyph-name="gdotaccent" unicode="&#x121;" horiz-adv-x="677" 
d="M260 590v103h98v-103h-98zM521 500h68v-444q0 -124 -70.5 -192.5t-197.5 -68.5q-97 0 -162 44t-84 119h91q33 -84 157 -84q84 0 131.5 42.5t47.5 129.5v31q-77 -74 -188 -74t-185.5 73.5t-74.5 181.5t74.5 181t185.5 73q115 0 193 -78zM324 83q80 0 131 49.5t51 125.5
q0 75 -51 124.5t-131 49.5q-81 0 -132 -49t-51 -125t51 -125.5t132 -49.5z" />
    <glyph glyph-name="uni0122" unicode="&#x122;" horiz-adv-x="833" 
d="M400 350h371q-5 -161 -100.5 -261.5t-250.5 -100.5t-255.5 101.5t-100.5 260.5t100.5 260.5t255.5 101.5q129 0 218 -68t115 -172h-96q-27 68 -87 110t-150 42q-117 0 -190.5 -75.5t-73.5 -198.5t73.5 -198.5t190.5 -75.5q100 0 165.5 50.5t84.5 138.5h-270v85zM376 -138
v84h93v-77q0 -41 -25.5 -72.5t-63.5 -37.5v43q21 4 32.5 20t11.5 39v1h-48z" />
    <glyph glyph-name="uni0123" unicode="&#x123;" horiz-adv-x="677" 
d="M355 673v-84h-93v77q0 42 25 73t64 37v-43q-42 -9 -44 -60h48zM521 500h68v-444q0 -124 -70.5 -192.5t-197.5 -68.5q-97 0 -162 44t-84 119h91q33 -84 157 -84q84 0 131.5 42.5t47.5 129.5v31q-77 -74 -188 -74t-185.5 73.5t-74.5 181.5t74.5 181t185.5 73q115 0 193 -78
zM324 83q80 0 131 49.5t51 125.5q0 75 -51 124.5t-131 49.5q-81 0 -132 -49t-51 -125t51 -125.5t132 -49.5z" />
    <glyph glyph-name="Hcircumflex" unicode="&#x124;" horiz-adv-x="745" 
d="M375 881l-86 -103h-85l118 142h105l119 -142h-85zM551 700h92v-700h-92v316h-357v-316h-92v700h92v-296h357v296z" />
    <glyph glyph-name="hcircumflex" unicode="&#x125;" horiz-adv-x="643" 
d="M219 778l-86 103l-86 -103h-85l118 142h105l119 -142h-85zM358 512q89 0 146.5 -62t57.5 -166v-284h-87v266q0 81 -36 123t-105 42q-68 0 -113.5 -51t-45.5 -128v-252h-87v733h87v-301q67 80 183 80z" />
    <glyph glyph-name="Hbar" unicode="&#x126;" horiz-adv-x="749" 
d="M723 612v-76h-78v-536h-92v316h-357v-316h-92v536h-78v76h78v88h92v-88h357v88h92v-88h78zM553 402v134h-357v-134h357z" />
    <glyph glyph-name="hbar" unicode="&#x127;" horiz-adv-x="642" 
d="M357 512q89 0 146.5 -62t57.5 -166v-284h-87v262q0 82 -36.5 125.5t-104.5 43.5t-113.5 -51t-45.5 -128v-252h-87v591h-93v74h93v68h87v-68h188v-74h-188v-159q67 80 183 80z" />
    <glyph glyph-name="Itilde" unicode="&#x128;" horiz-adv-x="296" 
d="M220 778q-34 0 -59 19t-43.5 38t-36.5 19q-33 0 -33 -44v-28h-65v23q0 55 25.5 83.5t70.5 28.5q34 0 59 -19t43.5 -38t36.5 -19q33 0 33 44v28h65v-23q0 -55 -25.5 -83.5t-70.5 -28.5zM102 0v700h92v-700h-92z" />
    <glyph glyph-name="itilde" unicode="&#x129;" horiz-adv-x="263" 
d="M198 572q-27 0 -48 12t-31 26t-23 26t-26 12q-33 0 -33 -44v-28h-65v28q0 53 24 80t68 27q27 0 48 -12t31 -26t23 -26t26 -12q33 0 33 44v28h65v-28q0 -53 -24 -80t-68 -27zM88 0v500h87v-500h-87z" />
    <glyph glyph-name="Imacron" unicode="&#x12a;" horiz-adv-x="296" 
d="M25 814v77h248v-77h-248zM102 0v700h92v-700h-92z" />
    <glyph glyph-name="imacron" unicode="&#x12b;" horiz-adv-x="263" 
d="M8 607v71h246v-71h-246zM88 0v500h87v-500h-87z" />
    <glyph glyph-name="Ibreve" unicode="&#x12c;" horiz-adv-x="296" 
d="M149 773q-67 0 -107 39.5t-40 107.5h72v-3q0 -39 20.5 -60.5t54.5 -21.5t53.5 21.5t19.5 60.5v3h74q0 -68 -40 -107.5t-107 -39.5zM102 0v700h92v-700h-92z" />
    <glyph glyph-name="ibreve" unicode="&#x12d;" horiz-adv-x="263" 
d="M132 558q-69 0 -110.5 42.5t-41.5 114.5h72v-3q0 -44 21.5 -68t58.5 -24q36 0 57 24t21 68v3h74q0 -72 -41.5 -114.5t-110.5 -42.5zM88 0v500h87v-500h-87z" />
    <glyph glyph-name="Iogonek" unicode="&#x12e;" horiz-adv-x="296" 
d="M102 700h92v-700h-9q-32 -27 -49.5 -42.5t-33.5 -39t-16 -43.5q0 -40 55 -40h36v-57q-20 -6 -54 -6q-59 0 -88 22.5t-29 59.5q0 65 96 146v700z" />
    <glyph glyph-name="iogonek" unicode="&#x12f;" horiz-adv-x="263" 
d="M81 733h101v-103h-101v103zM88 0v500h87v-500h-4q-32 -27 -49.5 -42.5t-33.5 -39t-16 -43.5q0 -40 55 -40h36v-57q-20 -6 -54 -6q-59 0 -88 22.5t-29 59.5q0 65 96 146z" />
    <glyph glyph-name="Idotaccent" unicode="&#x130;" horiz-adv-x="296" 
d="M96 784v103h104v-103h-104zM102 0v700h92v-700h-92z" />
    <glyph glyph-name="dotlessi" unicode="&#x131;" horiz-adv-x="263" 
d="M88 0v500h87v-500h-87z" />
    <glyph glyph-name="IJ" unicode="&#x132;" horiz-adv-x="859" 
d="M102 0v700h92v-700h-92zM523 -12q-108 0 -176 68t-68 177v15h92v-11q0 -75 41 -118t111 -43q67 0 108 42.5t41 115.5v466h92v-467q0 -109 -67 -177t-174 -68z" />
    <glyph glyph-name="ij" unicode="&#x133;" horiz-adv-x="528" 
d="M81 630v103h101v-103h-101zM346 630v103h101v-103h-101zM88 0v500h87v-500h-87zM215 -193v81h33q51 0 78 27.5t27 79.5v505h87v-511q0 -81 -49.5 -131.5t-128.5 -50.5h-47z" />
    <glyph glyph-name="Jcircumflex" unicode="&#x134;" horiz-adv-x="622" 
d="M527 920l104 -142h-78l-73 100l-73 -100h-78l103 142h95zM435 234v466h92v-467q0 -109 -67 -177t-174 -68q-108 0 -176 68t-68 177v15h92v-11q0 -75 41 -118t111 -43q67 0 108 42.5t41 115.5z" />
    <glyph glyph-name="jcircumflex" unicode="&#x135;" horiz-adv-x="273" 
d="M187 715l104 -152h-78l-73 104l-73 -104h-78l103 152h95zM98 -7v507h87v-511q0 -81 -49.5 -131.5t-128.5 -50.5h-47v81h34q104 0 104 105z" />
    <glyph glyph-name="uni0136" unicode="&#x136;" horiz-adv-x="664" 
d="M367 363l277 -363h-116l-240 317h-94v-317h-92v700h92v-295h98l218 295h111zM302 -138v84h93v-77q0 -41 -25.5 -72.5t-63.5 -37.5v43q21 4 32.5 20t11.5 39v1h-48z" />
    <glyph glyph-name="uni0137" unicode="&#x137;" horiz-adv-x="566" 
d="M332 259l209 -259h-109l-175 218h-82v-218h-87v733h87v-434h84l157 201h105zM252 -138v84h93v-77q0 -41 -25.5 -72.5t-63.5 -37.5v43q21 4 32.5 20t11.5 39v1h-48z" />
    <glyph glyph-name="kgreenlandic" unicode="&#x138;" horiz-adv-x="566" 
d="M432 0l-173 216h-84v-216h-87v500h87v-203h83l158 203h105l-189 -241l209 -259h-109z" />
    <glyph glyph-name="Lacute" unicode="&#x139;" horiz-adv-x="545" 
d="M112 778l71 142h98l-97 -142h-72zM194 88h306v-88h-398v700h92v-612z" />
    <glyph glyph-name="lacute" unicode="&#x13a;" horiz-adv-x="263" 
d="M87 811l71 142h98l-97 -142h-72zM88 0v733h87v-733h-87z" />
    <glyph glyph-name="uni013B" unicode="&#x13b;" horiz-adv-x="545" 
d="M194 88h306v-88h-398v700h92v-612zM250 -138v84h93v-77q0 -41 -25.5 -72.5t-63.5 -37.5v43q21 4 32.5 20t11.5 39v1h-48z" />
    <glyph glyph-name="uni013C" unicode="&#x13c;" horiz-adv-x="263" 
d="M175 733v-733h-87v733h87zM87 -54h93v-77q0 -41 -25.5 -72.5t-63.5 -37.5v43q21 4 32.5 20t11.5 39v1h-48v84z" />
    <glyph glyph-name="Lcaron" unicode="&#x13d;" horiz-adv-x="545" 
d="M194 88h306v-88h-398v700h92v-612zM339 615v1h-48v84h93v-77q0 -41 -25.5 -72.5t-63.5 -37.5v43q21 4 32.5 20t11.5 39z" />
    <glyph glyph-name="lcaron" unicode="&#x13e;" horiz-adv-x="278" 
d="M88 0v733h87v-733h-87zM260 733h93v-77q0 -41 -25.5 -72.5t-63.5 -37.5v43q21 4 32.5 20t11.5 39v1h-48v84z" />
    <glyph glyph-name="Ldot" unicode="&#x13f;" horiz-adv-x="545" 
d="M194 88h306v-88h-398v700h92v-612zM361 278v112h104v-112h-104z" />
    <glyph glyph-name="ldot" unicode="&#x140;" horiz-adv-x="379" 
d="M88 0v733h87v-733h-87zM260 305v112h104v-112h-104z" />
    <glyph glyph-name="Lslash" unicode="&#x141;" horiz-adv-x="545" 
d="M194 88h306v-88h-398v249l-87 -45v90l87 46v360h92v-312l207 108v-93l-207 -107v-208z" />
    <glyph glyph-name="lslash" unicode="&#x142;" horiz-adv-x="307" 
d="M302 536v-86l-104 -60v-390h-87v340l-99 -57v86l99 57v307h87v-257z" />
    <glyph glyph-name="Nacute" unicode="&#x143;" horiz-adv-x="766" 
d="M343 778l71 142h98l-97 -142h-72zM572 700h92v-700h-86l-384 532v-532h-92v700h86l384 -532v532z" />
    <glyph glyph-name="nacute" unicode="&#x144;" horiz-adv-x="643" 
d="M454 715l-92 -152h-72l66 152h98zM358 512q89 0 146.5 -62t57.5 -166v-284h-87v266q0 81 -36 123t-105 42q-68 0 -113.5 -51t-45.5 -128v-252h-87v500h68l16 -72q67 84 186 84z" />
    <glyph glyph-name="uni0145" unicode="&#x145;" horiz-adv-x="766" 
d="M572 700h92v-700h-86l-384 532v-532h-92v700h86l384 -532v532zM338 -138v84h93v-77q0 -41 -25.5 -72.5t-63.5 -37.5v43q21 4 32.5 20t11.5 39v1h-48z" />
    <glyph glyph-name="uni0146" unicode="&#x146;" horiz-adv-x="643" 
d="M358 512q89 0 146.5 -62t57.5 -166v-284h-87v266q0 81 -36 123t-105 42q-68 0 -113.5 -51t-45.5 -128v-252h-87v500h68l16 -72q67 84 186 84zM279 -138v84h93v-77q0 -41 -25.5 -72.5t-63.5 -37.5v43q21 4 32.5 20t11.5 39v1h-48z" />
    <glyph glyph-name="Ncaron" unicode="&#x147;" horiz-adv-x="766" 
d="M440 778h-105l-118 142h85l86 -103l86 103h85zM572 700h92v-700h-86l-384 532v-532h-92v700h86l384 -532v532z" />
    <glyph glyph-name="ncaron" unicode="&#x148;" horiz-adv-x="643" 
d="M385 563h-105l-118 152h85l86 -109l86 109h85zM358 512q89 0 146.5 -62t57.5 -166v-284h-87v266q0 81 -36 123t-105 42q-68 0 -113.5 -51t-45.5 -128v-252h-87v500h68l16 -72q67 84 186 84z" />
    <glyph glyph-name="Eng" unicode="&#x14a;" horiz-adv-x="766" 
d="M572 700h92v-701q0 -91 -48 -141.5t-130 -50.5h-52v86h34q104 0 104 107v7l-378 524v-531h-92v700h86l384 -531v531z" />
    <glyph glyph-name="eng" unicode="&#x14b;" horiz-adv-x="643" 
d="M358 512q89 0 146.5 -62t57.5 -166v-295q0 -81 -49.5 -131.5t-128.5 -50.5h-47v81h34q104 0 104 105v273q0 81 -36 123t-105 42q-68 0 -113.5 -51t-45.5 -128v-252h-87v500h68l16 -72q67 84 186 84z" />
    <glyph glyph-name="Omacron" unicode="&#x14c;" horiz-adv-x="862" 
d="M275 817v72h313v-72h-313zM431 -12q-159 0 -263 103t-104 259t104 259t263 103t263 -103t104 -259t-104 -259t-263 -103zM431 76q118 0 196.5 78t78.5 196t-78.5 196t-196.5 78t-196.5 -78t-78.5 -196t78.5 -196t196.5 -78z" />
    <glyph glyph-name="omacron" unicode="&#x14d;" horiz-adv-x="648" 
d="M172 597v71h313v-71h-313zM324 -12q-116 0 -193 75t-77 187t77 187t193 75t193 -75t77 -187t-77 -187t-193 -75zM324 67q79 0 131 52.5t52 130.5q0 79 -52 131t-131 52t-131 -52t-52 -131q0 -78 52 -130.5t131 -52.5z" />
    <glyph glyph-name="Obreve" unicode="&#x14e;" horiz-adv-x="862" 
d="M431 773q-71 0 -114 39.5t-43 107.5h72v-3q0 -39 23 -60.5t62 -21.5t61 21.5t22 60.5v3h74q0 -68 -43 -107.5t-114 -39.5zM431 -12q-159 0 -263 103t-104 259t104 259t263 103t263 -103t104 -259t-104 -259t-263 -103zM431 76q118 0 196.5 78t78.5 196t-78.5 196
t-196.5 78t-196.5 -78t-78.5 -196t78.5 -196t196.5 -78z" />
    <glyph glyph-name="obreve" unicode="&#x14f;" horiz-adv-x="648" 
d="M329 558q-73 0 -117.5 42.5t-44.5 114.5h72v-3q0 -44 24.5 -68t65.5 -24t64.5 24t23.5 68v3h74q0 -72 -44.5 -114.5t-117.5 -42.5zM324 -12q-116 0 -193 75t-77 187t77 187t193 75t193 -75t77 -187t-77 -187t-193 -75zM324 67q79 0 131 52.5t52 130.5q0 79 -52 131
t-131 52t-131 -52t-52 -131q0 -78 52 -130.5t131 -52.5z" />
    <glyph glyph-name="Ohungarumlaut" unicode="&#x150;" horiz-adv-x="862" 
d="M302 778l73 142h90l-96 -142h-67zM470 778l81 142h91l-103 -142h-69zM431 -12q-159 0 -263 103t-104 259t104 259t263 103t263 -103t104 -259t-104 -259t-263 -103zM431 76q118 0 196.5 78t78.5 196t-78.5 196t-196.5 78t-196.5 -78t-78.5 -196t78.5 -196t196.5 -78z" />
    <glyph glyph-name="ohungarumlaut" unicode="&#x151;" horiz-adv-x="648" 
d="M198 563l70 152h90l-95 -152h-65zM376 563l76 152h94l-102 -152h-68zM324 -12q-116 0 -193 75t-77 187t77 187t193 75t193 -75t77 -187t-77 -187t-193 -75zM324 67q79 0 131 52.5t52 130.5q0 79 -52 131t-131 52t-131 -52t-52 -131q0 -78 52 -130.5t131 -52.5z" />
    <glyph glyph-name="OE" unicode="&#x152;" horiz-adv-x="995" 
d="M921 86v-86h-390q-48 -12 -100 -12q-159 0 -263 103t-104 259t104 259t263 103q52 0 100 -12h379v-86h-307v-212h281v-86h-281v-230h318zM156 350q0 -118 79 -196t199 -78q41 0 77 9v530q-36 9 -77 9q-120 0 -199 -78t-79 -196z" />
    <glyph glyph-name="oe" unicode="&#x153;" horiz-adv-x="1067" 
d="M1013 249q0 -12 -2 -30h-415q9 -68 54.5 -110t112.5 -42q100 0 145 77h92q-68 -156 -240 -156q-67 0 -122 32t-89 89q-80 -121 -227 -121q-115 0 -191.5 75.5t-76.5 186.5t76.5 186.5t191.5 75.5q148 0 228 -123q75 123 213 123q107 0 178.5 -74t71.5 -189zM324 67
q79 0 131 52t52 131q0 80 -51.5 131.5t-131.5 51.5t-131.5 -51.5t-51.5 -131.5q0 -79 52 -131t131 -52zM759 433q-62 0 -106 -37.5t-55 -102.5h325q-12 63 -55 101.5t-109 38.5z" />
    <glyph glyph-name="Racute" unicode="&#x154;" horiz-adv-x="659" 
d="M263 778l71 142h98l-97 -142h-72zM510 0l-158 270h-158v-270h-92v700h267q101 0 165.5 -61.5t64.5 -154.5q0 -71 -41 -126t-110 -76l166 -282h-104zM505 485q0 58 -38 93.5t-103 35.5h-170v-258h170q65 0 103 35.5t38 93.5z" />
    <glyph glyph-name="racute" unicode="&#x155;" horiz-adv-x="416" 
d="M356 715l-92 -152h-72l66 152h98zM338 500h48v-85h-56q-76 0 -115.5 -43.5t-39.5 -125.5v-246h-87v500h68l16 -73q58 73 166 73z" />
    <glyph glyph-name="uni0156" unicode="&#x156;" horiz-adv-x="659" 
d="M448 282l166 -282h-104l-158 270h-158v-270h-92v700h267q101 0 165.5 -61.5t64.5 -154.5q0 -71 -41 -126t-110 -76zM194 356h170q65 0 103 35.5t38 93.5t-38 93.5t-103 35.5h-170v-258zM296 -138v84h93v-77q0 -41 -25.5 -72.5t-63.5 -37.5v43q21 4 32.5 20t11.5 39v1h-48
z" />
    <glyph glyph-name="uni0157" unicode="&#x157;" horiz-adv-x="416" 
d="M338 500h48v-85h-56q-76 0 -115.5 -43.5t-39.5 -125.5v-246h-87v500h68l16 -73q58 73 166 73zM88 -138v84h93v-77q0 -41 -25.5 -72.5t-63.5 -37.5v43q21 4 32.5 20t11.5 39v1h-48z" />
    <glyph glyph-name="Rcaron" unicode="&#x158;" horiz-adv-x="659" 
d="M360 778h-105l-118 142h85l86 -103l86 103h85zM448 282l166 -282h-104l-158 270h-158v-270h-92v700h267q101 0 165.5 -61.5t64.5 -154.5q0 -71 -41 -126t-110 -76zM194 356h170q65 0 103 35.5t38 93.5t-38 93.5t-103 35.5h-170v-258z" />
    <glyph glyph-name="rcaron" unicode="&#x159;" horiz-adv-x="416" 
d="M287 563h-105l-118 152h85l86 -109l86 109h85zM172 427q58 73 166 73h48v-85h-56q-76 0 -115.5 -43.5t-39.5 -125.5v-246h-87v500h68z" />
    <glyph glyph-name="Sacute" unicode="&#x15a;" horiz-adv-x="637" 
d="M265 778l71 142h98l-97 -142h-72zM324 -12q-121 0 -190.5 63t-69.5 166h92q0 -63 44 -102t123 -39q76 0 117 33.5t41 84.5q0 24 -10.5 42.5t-23.5 30t-40.5 22t-46.5 15.5t-55 14q-42 10 -66.5 17t-59.5 23t-54 35t-33.5 50t-14.5 71q0 88 63 143t177 55q112 0 174 -57.5
t62 -154.5h-92q0 55 -38.5 89.5t-107.5 34.5q-72 0 -109 -29t-37 -75q0 -22 10 -39.5t23.5 -28.5t39 -21.5t44.5 -15.5t52 -13q32 -8 49 -12.5t46 -14t45 -18.5t37 -25t31.5 -33.5t18.5 -43t8 -55.5q0 -92 -67 -152t-182 -60z" />
    <glyph glyph-name="sacute" unicode="&#x15b;" horiz-adv-x="526" 
d="M220 563l66 152h98l-92 -152h-72zM264 -12q-95 0 -151.5 44t-60.5 116h85q5 -39 39.5 -60t93.5 -21q117 0 117 75q0 14 -7 25t-16.5 18t-29.5 13t-34 9.5t-42 8.5q-35 7 -56 11.5t-51 16.5t-47 26.5t-29.5 39.5t-12.5 57q0 62 52.5 103.5t147.5 41.5q91 0 141.5 -41
t58.5 -111h-82q-11 73 -120 73q-57 0 -84 -18t-27 -46q0 -18 9.5 -31t31.5 -21.5t39 -13t51 -10.5q36 -7 55.5 -11.5t50.5 -16t47 -25.5t28.5 -38.5t12.5 -56.5q0 -67 -55 -112t-155 -45z" />
    <glyph glyph-name="Scircumflex" unicode="&#x15c;" horiz-adv-x="637" 
d="M309 881l-86 -103h-85l118 142h105l119 -142h-85zM338 402q32 -8 49 -12.5t46 -14t45 -18.5t37 -25t31.5 -33.5t18.5 -43t8 -55.5q0 -92 -67 -152t-182 -60q-121 0 -190.5 63t-69.5 166h92q0 -63 44 -102t123 -39q76 0 117 33.5t41 84.5q0 24 -10.5 42.5t-23.5 30
t-40.5 22t-46.5 15.5t-55 14q-42 10 -66.5 17t-59.5 23t-54 35t-33.5 50t-14.5 71q0 88 63 143t177 55q112 0 174 -57.5t62 -154.5h-92q0 55 -38.5 89.5t-107.5 34.5q-72 0 -109 -29t-37 -75q0 -22 10 -39.5t23.5 -28.5t39 -21.5t44.5 -15.5t52 -13z" />
    <glyph glyph-name="scircumflex" unicode="&#x15d;" horiz-adv-x="526" 
d="M264 672l-86 -109h-85l118 152h105l119 -152h-85zM280 293q36 -7 55.5 -11.5t50.5 -16t47 -25.5t28.5 -38.5t12.5 -56.5q0 -67 -55 -112t-155 -45q-95 0 -151.5 44t-60.5 116h85q5 -39 39.5 -60t93.5 -21q117 0 117 75q0 14 -7 25t-16.5 18t-29.5 13t-34 9.5t-42 8.5
q-35 7 -56 11.5t-51 16.5t-47 26.5t-29.5 39.5t-12.5 57q0 62 52.5 103.5t147.5 41.5q91 0 141.5 -41t58.5 -111h-82q-11 73 -120 73q-57 0 -84 -18t-27 -46q0 -18 9.5 -31t31.5 -21.5t39 -13t51 -10.5z" />
    <glyph glyph-name="Scedilla" unicode="&#x15e;" horiz-adv-x="637" 
d="M573 200q0 -87 -59.5 -145.5t-162.5 -65.5l-10 -41q45 -4 69 -28.5t24 -60.5q0 -44 -29 -69.5t-80 -25.5h-78v58h75q20 0 32 10.5t12 26.5q0 36 -44 36h-38l-10 10l19 84q-108 8 -168.5 70t-60.5 158h92q0 -63 44 -102t123 -39q76 0 117 33.5t41 84.5q0 24 -11 43
t-24.5 30.5t-41.5 22t-45.5 15t-53.5 13.5q-42 10 -66.5 17t-59.5 23t-54 35t-33.5 50t-14.5 71q0 88 63 143t177 55q112 0 174 -57.5t62 -154.5h-92q0 55 -38.5 89.5t-107.5 34.5q-72 0 -109 -29t-37 -75q0 -22 10 -39.5t23 -28.5t39.5 -21.5t44 -15l52.5 -13.5
q34 -8 48.5 -12t45.5 -14t45.5 -18.5t36.5 -24.5t32.5 -33.5t18.5 -43t8 -56.5z" />
    <glyph glyph-name="scedilla" unicode="&#x15f;" horiz-adv-x="526" 
d="M474 145q0 -64 -49.5 -108t-139.5 -48l-9 -36q45 -4 69 -28.5t24 -60.5q0 -44 -29 -69.5t-80 -25.5h-78v58h75q20 0 32 10.5t12 26.5q0 36 -44 36h-38l-10 10l18 80q-79 8 -125 50.5t-50 107.5h85q5 -39 39.5 -60t93.5 -21q117 0 117 75q0 12 -4 21.5t-15 17t-19.5 12
t-27.5 9.5t-29.5 7.5t-33.5 6.5q-31 6 -47 9.5t-43.5 12t-42.5 18.5t-31.5 25t-24 37t-7.5 49q0 62 52.5 103.5t147.5 41.5q91 0 141.5 -41t58.5 -111h-82q-11 73 -120 73q-57 0 -84 -18t-27 -46q0 -18 9.5 -31t31.5 -21.5t39 -13t51 -10.5q36 -7 55.5 -11.5t50.5 -16
t47 -25.5t28.5 -38.5t12.5 -56.5z" />
    <glyph glyph-name="Scaron" unicode="&#x160;" horiz-adv-x="637" 
d="M362 778h-105l-118 142h85l86 -103l86 103h85zM338 402q32 -8 49 -12.5t46 -14t45 -18.5t37 -25t31.5 -33.5t18.5 -43t8 -55.5q0 -92 -67 -152t-182 -60q-121 0 -190.5 63t-69.5 166h92q0 -63 44 -102t123 -39q76 0 117 33.5t41 84.5q0 24 -10.5 42.5t-23.5 30t-40.5 22
t-46.5 15.5t-55 14q-42 10 -66.5 17t-59.5 23t-54 35t-33.5 50t-14.5 71q0 88 63 143t177 55q112 0 174 -57.5t62 -154.5h-92q0 55 -38.5 89.5t-107.5 34.5q-72 0 -109 -29t-37 -75q0 -22 10 -39.5t23.5 -28.5t39 -21.5t44.5 -15.5t52 -13z" />
    <glyph glyph-name="scaron" unicode="&#x161;" horiz-adv-x="526" 
d="M315 563h-105l-118 152h85l86 -109l86 109h85zM280 293q36 -7 55.5 -11.5t50.5 -16t47 -25.5t28.5 -38.5t12.5 -56.5q0 -67 -55 -112t-155 -45q-95 0 -151.5 44t-60.5 116h85q5 -39 39.5 -60t93.5 -21q117 0 117 75q0 14 -7 25t-16.5 18t-29.5 13t-34 9.5t-42 8.5
q-35 7 -56 11.5t-51 16.5t-47 26.5t-29.5 39.5t-12.5 57q0 62 52.5 103.5t147.5 41.5q91 0 141.5 -41t58.5 -111h-82q-11 73 -120 73q-57 0 -84 -18t-27 -46q0 -18 9.5 -31t31.5 -21.5t39 -13t51 -10.5z" />
    <glyph glyph-name="uni0162" unicode="&#x162;" horiz-adv-x="588" 
d="M340 0h-16l-12 -47q45 -4 69 -28.5t24 -60.5q0 -44 -29 -69.5t-80 -25.5h-78v58h75q20 0 32 10.5t12 26.5q0 36 -44 36h-38l-10 10l21 90h-18v612h-211v88h514v-88h-211v-612z" />
    <glyph glyph-name="uni0163" unicode="&#x163;" horiz-adv-x="427" 
d="M311 0q-21 0 -40 3l-12 -50q45 -4 69 -28.5t24 -60.5q0 -44 -29 -69.5t-80 -25.5h-78v58h75q20 0 32 10.5t12 26.5q0 36 -44 36h-38l-10 10l25 108q-97 45 -97 174v229h-105v79h106l9 131h77v-131h177v-79h-177v-227q0 -55 28.5 -84t81.5 -29h70v-81h-76z" />
    <glyph glyph-name="Tcaron" unicode="&#x164;" horiz-adv-x="588" 
d="M348 778h-105l-118 142h85l86 -103l86 103h85zM551 700v-88h-211v-612h-92v612h-211v88h514z" />
    <glyph glyph-name="tcaron" unicode="&#x165;" horiz-adv-x="427" 
d="M391 733h93v-77q0 -41 -25.5 -72.5t-63.5 -37.5v43q21 4 32.5 20t11.5 39v1h-48v84zM207 194q0 -55 28.5 -84t81.5 -29h70v-81h-76q-90 0 -140.5 50.5t-50.5 141.5v229h-105v79h106l9 131h77v-131h177v-79h-177v-227z" />
    <glyph glyph-name="Tbar" unicode="&#x166;" horiz-adv-x="588" 
d="M551 612h-211v-214h151v-83h-151v-315h-92v315h-147v83h147v214h-211v88h514v-88z" />
    <glyph glyph-name="tbar" unicode="&#x167;" horiz-adv-x="482" 
d="M340 81h70v-81h-76q-90 0 -140.5 50.5t-50.5 141.5v44h-105v76h105v112h-105v76h106l9 131h77v-131h177v-76h-177v-112h177v-76h-177v-42q0 -55 28.5 -84t81.5 -29z" />
    <glyph glyph-name="Utilde" unicode="&#x168;" horiz-adv-x="747" 
d="M445 778q-34 0 -60.5 19t-47 38t-40.5 19q-35 0 -35 -49v-23h-65v23q0 55 26 83.5t73 28.5q34 0 60.5 -19t47 -38t40.5 -19q35 0 35 49v23h65v-23q0 -55 -26 -83.5t-73 -28.5zM374 -12q-124 0 -200.5 76.5t-76.5 200.5v435h92v-428q0 -92 50 -144t135 -52t134.5 52
t49.5 144v428h92v-435q0 -124 -76.5 -200.5t-199.5 -76.5z" />
    <glyph glyph-name="utilde" unicode="&#x169;" horiz-adv-x="644" 
d="M395 569q-34 0 -60.5 19t-47 38t-40.5 19q-35 0 -35 -49v-23h-65v23q0 55 26 83.5t73 28.5q34 0 60.5 -19t47 -38t40.5 -19q35 0 35 49v23h65v-23q0 -55 -26 -83.5t-73 -28.5zM469 500h87v-500h-68l-17 72q-66 -84 -182 -84q-94 0 -147.5 58t-53.5 160v294h87v-276
q0 -84 34.5 -119.5t103.5 -35.5q66 0 111 52.5t45 131.5v247z" />
    <glyph glyph-name="Umacron" unicode="&#x16a;" horiz-adv-x="747" 
d="M218 817v72h313v-72h-313zM374 -12q-124 0 -200.5 76.5t-76.5 200.5v435h92v-428q0 -92 50 -144t135 -52t134.5 52t49.5 144v428h92v-435q0 -124 -76.5 -200.5t-199.5 -76.5z" />
    <glyph glyph-name="umacron" unicode="&#x16b;" horiz-adv-x="644" 
d="M166 597v71h313v-71h-313zM469 500h87v-500h-68l-17 72q-66 -84 -182 -84q-94 0 -147.5 58t-53.5 160v294h87v-276q0 -84 34.5 -119.5t103.5 -35.5q66 0 111 52.5t45 131.5v247z" />
    <glyph glyph-name="Ubreve" unicode="&#x16c;" horiz-adv-x="747" 
d="M374 773q-71 0 -114 39.5t-43 107.5h72v-3q0 -39 23 -60.5t62 -21.5t61 21.5t22 60.5v3h74q0 -68 -43 -107.5t-114 -39.5zM374 -12q-124 0 -200.5 76.5t-76.5 200.5v435h92v-428q0 -92 50 -144t135 -52t134.5 52t49.5 144v428h92v-435q0 -124 -76.5 -200.5t-199.5 -76.5z
" />
    <glyph glyph-name="ubreve" unicode="&#x16d;" horiz-adv-x="644" 
d="M323 558q-73 0 -117.5 42.5t-44.5 114.5h72v-3q0 -44 24.5 -68t65.5 -24t64.5 24t23.5 68v3h74q0 -72 -44.5 -114.5t-117.5 -42.5zM469 500h87v-500h-68l-17 72q-66 -84 -182 -84q-94 0 -147.5 58t-53.5 160v294h87v-276q0 -84 34.5 -119.5t103.5 -35.5q66 0 111 52.5
t45 131.5v247z" />
    <glyph glyph-name="Uring" unicode="&#x16e;" horiz-adv-x="747" 
d="M374 761q-55 0 -89.5 33t-34.5 83q0 51 34.5 83t89.5 32q54 0 88.5 -32t34.5 -83q0 -50 -34.5 -83t-88.5 -33zM374 816q28 0 45.5 17.5t17.5 43.5t-17.5 43t-45.5 17t-46 -17t-18 -43t18 -43.5t46 -17.5zM374 -12q-124 0 -200.5 76.5t-76.5 200.5v435h92v-428
q0 -92 50 -144t135 -52t134.5 52t49.5 144v428h92v-435q0 -124 -76.5 -200.5t-199.5 -76.5z" />
    <glyph glyph-name="uring" unicode="&#x16f;" horiz-adv-x="644" 
d="M323 549q-51 0 -83.5 31t-32.5 78q0 48 32.5 78.5t83.5 30.5t83.5 -30.5t32.5 -78.5q0 -47 -32.5 -78t-83.5 -31zM323 601q26 0 43 16.5t17 40.5t-17 40.5t-43 16.5t-43 -16.5t-17 -40.5t17 -40.5t43 -16.5zM469 500h87v-500h-68l-17 72q-66 -84 -182 -84
q-94 0 -147.5 58t-53.5 160v294h87v-276q0 -84 34.5 -119.5t103.5 -35.5q66 0 111 52.5t45 131.5v247z" />
    <glyph glyph-name="Uhungarumlaut" unicode="&#x170;" horiz-adv-x="747" 
d="M245 778l73 142h90l-96 -142h-67zM413 778l81 142h91l-103 -142h-69zM374 -12q-124 0 -200.5 76.5t-76.5 200.5v435h92v-428q0 -92 50 -144t135 -52t134.5 52t49.5 144v428h92v-435q0 -124 -76.5 -200.5t-199.5 -76.5z" />
    <glyph glyph-name="uhungarumlaut" unicode="&#x171;" horiz-adv-x="644" 
d="M192 563l70 152h90l-95 -152h-65zM370 563l76 152h94l-102 -152h-68zM469 500h87v-500h-68l-17 72q-66 -84 -182 -84q-94 0 -147.5 58t-53.5 160v294h87v-276q0 -84 34.5 -119.5t103.5 -35.5q66 0 111 52.5t45 131.5v247z" />
    <glyph glyph-name="Uogonek" unicode="&#x172;" horiz-adv-x="747" 
d="M558 700h92v-433q0 -148 -117 -235q-138 -102 -138 -157q0 -40 55 -40h36v-57q-20 -6 -54 -6q-59 0 -88 22.5t-29 59.5q0 60 84 134h-25q-124 0 -200.5 76.5t-76.5 200.5v435h92v-428q0 -92 50 -144t135 -52t134.5 52t49.5 144v428z" />
    <glyph glyph-name="uogonek" unicode="&#x173;" horiz-adv-x="644" 
d="M556 0q-32 -27 -49.5 -42.5t-33.5 -39t-16 -43.5q0 -40 55 -40h36v-57q-20 -6 -54 -6q-59 0 -88 22.5t-29 59.5q0 67 109 157l-15 61q-66 -84 -182 -84q-94 0 -147.5 58t-53.5 160v294h87v-276q0 -84 34.5 -119.5t103.5 -35.5q66 0 111 52.5t45 131.5v247h87v-500z" />
    <glyph glyph-name="Wcircumflex" unicode="&#x174;" horiz-adv-x="1031" 
d="M514 881l-86 -103h-85l118 142h105l119 -142h-85zM912 700h96l-215 -700h-92l-186 561l-185 -561h-92l-215 700h98l168 -549l181 549h91l183 -548z" />
    <glyph glyph-name="wcircumflex" unicode="&#x175;" horiz-adv-x="832" 
d="M417 672l-86 -109h-85l118 152h105l119 -152h-85zM726 500h87l-174 -500h-75l-148 384l-149 -384h-75l-173 500h90l126 -369l143 369h75l145 -371z" />
    <glyph glyph-name="Ycircumflex" unicode="&#x176;" horiz-adv-x="654" 
d="M326 881l-86 -103h-85l118 142h105l119 -142h-85zM524 700h106l-257 -422v-278h-92v278l-257 422h106l197 -326z" />
    <glyph glyph-name="ycircumflex" unicode="&#x177;" horiz-adv-x="567" 
d="M289 672l-86 -109h-85l118 152h105l119 -152h-85zM459 500h94l-242 -519q-46 -98 -93.5 -136t-131.5 -38h-38v81h37q53 0 82.5 23t60.5 90l17 36l-223 463h95l173 -366z" />
    <glyph glyph-name="Ydieresis" unicode="&#x178;" horiz-adv-x="654" 
d="M165 784v103h104v-103h-104zM384 784v103h104v-103h-104zM630 700l-257 -422v-278h-92v278l-257 422h106l197 -326l197 326h106z" />
    <glyph glyph-name="Zacute" unicode="&#x179;" horiz-adv-x="572" 
d="M248 778l71 142h98l-97 -142h-72zM150 86h397v-86h-510v77l381 537h-366v86h478v-77z" />
    <glyph glyph-name="zacute" unicode="&#x17a;" horiz-adv-x="499" 
d="M376 715l-92 -152h-72l66 152h98zM160 79h299v-79h-409v69l288 352h-278v79h388v-69z" />
    <glyph glyph-name="Zdotaccent" unicode="&#x17b;" horiz-adv-x="572" 
d="M241 784v103h104v-103h-104zM150 86h397v-86h-510v77l381 537h-366v86h478v-77z" />
    <glyph glyph-name="zdotaccent" unicode="&#x17c;" horiz-adv-x="499" 
d="M304 693v-103h-98v103h98zM160 79h299v-79h-409v69l288 352h-278v79h388v-69z" />
    <glyph glyph-name="Zcaron" unicode="&#x17d;" horiz-adv-x="572" 
d="M345 778h-105l-118 142h85l86 -103l86 103h85zM150 86h397v-86h-510v77l381 537h-366v86h478v-77z" />
    <glyph glyph-name="zcaron" unicode="&#x17e;" horiz-adv-x="499" 
d="M307 563h-105l-118 152h85l86 -109l86 109h85zM160 79h299v-79h-409v69l288 352h-278v79h388v-69z" />
    <glyph glyph-name="longs" unicode="&#x17f;" horiz-adv-x="282" 
d="M88 0v561q0 87 42 129.5t131 42.5h70v-77h-63q-50 0 -71.5 -22t-21.5 -74v-560h-87z" />
    <glyph glyph-name="florin" unicode="&#x192;" horiz-adv-x="457" 
d="M371 651q-77 0 -88 -72l-16 -112h141l-12 -82h-140l-62 -435q-21 -143 -171 -143h-58l11 82h34q86 0 96 77l58 419h-100l12 82h100l18 131q9 64 51 99.5t110 35.5h92l-9 -82h-67z" />
    <glyph glyph-name="AEacute" unicode="&#x1fc;" horiz-adv-x="924" 
d="M463 778l71 142h98l-97 -142h-72zM532 86h318v-86h-410v152h-260l-91 -152h-104l419 700h435v-86h-307v-212h281v-86h-281v-230zM231 238h209v350z" />
    <glyph glyph-name="aeacute" unicode="&#x1fd;" horiz-adv-x="981" 
d="M621 715l-92 -152h-72l66 152h98zM927 247q0 -17 -2 -35h-402q10 -67 54 -106t107 -39q102 0 140 77h92q-32 -74 -92 -115t-141 -41q-66 0 -120 30t-89 86q-29 -50 -86.5 -83t-136.5 -33q-89 0 -139.5 43t-50.5 110q0 63 46.5 104t126.5 41h194v6q0 69 -33.5 105
t-95.5 36q-105 0 -126 -76h-93q13 70 70.5 112.5t145.5 42.5q134 0 189 -101q33 48 83.5 74.5t109.5 26.5q108 0 178.5 -74t70.5 -191zM678 433q-60 0 -102.5 -39.5t-52.5 -107.5h315q-9 67 -49.5 107t-110.5 40zM263 67q74 0 119.5 40.5t45.5 97.5v7h-186q-92 0 -92 -68
q0 -77 113 -77z" />
    <glyph glyph-name="Oslashacute" unicode="&#x1fe;" horiz-adv-x="862" 
d="M386 778l71 142h98l-97 -142h-72zM659 639q66 -50 102.5 -125t36.5 -164q0 -156 -104 -259t-263 -103q-82 0 -155 31l-50 -81h-99l76 123q-66 50 -102.5 125t-36.5 164q0 156 104 259t263 103q82 0 155 -31l50 81h99zM156 350q0 -132 96 -212l288 466q-51 20 -109 20
q-118 0 -196.5 -78t-78.5 -196zM431 76q118 0 196.5 78t78.5 196q0 132 -96 212l-288 -466q51 -20 109 -20z" />
    <glyph glyph-name="oslashacute" unicode="&#x1ff;" horiz-adv-x="648" 
d="M446 715l-92 -152h-72l66 152h98zM485 463q51 -36 80 -91.5t29 -121.5q0 -112 -77 -187t-193 -75q-52 0 -95 15l-36 -64h-85l55 98q-51 36 -80 91.5t-29 121.5q0 112 77 187t193 75q51 0 95 -15l36 64h85zM324 435q-80 0 -132.5 -52.5t-52.5 -132.5q0 -90 64 -143
l178 320q-29 8 -57 8zM324 65q80 0 132.5 52.5t52.5 132.5q0 90 -64 143l-178 -320q29 -8 57 -8z" />
    <glyph glyph-name="uni0218" unicode="&#x218;" horiz-adv-x="637" 
d="M338 402q32 -8 49 -12.5t46 -14t45 -18.5t37 -25t31.5 -33.5t18.5 -43t8 -55.5q0 -92 -67 -152t-182 -60q-121 0 -190.5 63t-69.5 166h92q0 -63 44 -102t123 -39q76 0 117 33.5t41 84.5q0 24 -10.5 42.5t-23.5 30t-40.5 22t-46.5 15.5t-55 14q-42 10 -66.5 17t-59.5 23
t-54 35t-33.5 50t-14.5 71q0 88 63 143t177 55q112 0 174 -57.5t62 -154.5h-92q0 55 -38.5 89.5t-107.5 34.5q-72 0 -109 -29t-37 -75q0 -22 10 -39.5t23.5 -28.5t39 -21.5t44.5 -15.5t52 -13zM287 -138v84h93v-77q0 -41 -25.5 -72.5t-63.5 -37.5v43q21 4 32.5 20t11.5 39v1
h-48z" />
    <glyph glyph-name="uni0219" unicode="&#x219;" horiz-adv-x="526" 
d="M280 293q36 -7 55.5 -11.5t50.5 -16t47 -25.5t28.5 -38.5t12.5 -56.5q0 -67 -55 -112t-155 -45q-95 0 -151.5 44t-60.5 116h85q5 -39 39.5 -60t93.5 -21q117 0 117 75q0 14 -7 25t-16.5 18t-29.5 13t-34 9.5t-42 8.5q-35 7 -56 11.5t-51 16.5t-47 26.5t-29.5 39.5
t-12.5 57q0 62 52.5 103.5t147.5 41.5q91 0 141.5 -41t58.5 -111h-82q-11 73 -120 73q-57 0 -84 -18t-27 -46q0 -18 9.5 -31t31.5 -21.5t39 -13t51 -10.5zM222 -138v84h93v-77q0 -41 -25.5 -72.5t-63.5 -37.5v43q21 4 32.5 20t11.5 39v1h-48z" />
    <glyph glyph-name="uni021A" unicode="&#x21a;" horiz-adv-x="588" 
d="M37 700h514v-88h-211v-612h-92v612h-211v88zM249 -138v84h93v-77q0 -41 -25.5 -72.5t-63.5 -37.5v43q21 4 32.5 20t11.5 39v1h-48z" />
    <glyph glyph-name="uni021B" unicode="&#x21b;" horiz-adv-x="427" 
d="M317 81h70v-81h-76q-90 0 -140.5 50.5t-50.5 141.5v229h-105v79h106l9 131h77v-131h177v-79h-177v-227q0 -55 28.5 -84t81.5 -29zM205 -138v84h93v-77q0 -41 -25.5 -72.5t-63.5 -37.5v43q21 4 32.5 20t11.5 39v1h-48z" />
    <glyph glyph-name="circumflex" unicode="&#x2c6;" horiz-adv-x="600" 
d="M487 563h-85l-86 109l-86 -109h-85l118 152h105z" />
    <glyph glyph-name="caron" unicode="&#x2c7;" horiz-adv-x="600" 
d="M372 715h85l-119 -152h-105l-118 152h85l86 -109z" />
    <glyph glyph-name="breve" unicode="&#x2d8;" horiz-adv-x="600" 
d="M271 558q-73 0 -117.5 42.5t-44.5 114.5h72v-3q0 -44 24.5 -68t65.5 -24t64.5 24t23.5 68v3h74q0 -72 -44.5 -114.5t-117.5 -42.5z" />
    <glyph glyph-name="dotaccent" unicode="&#x2d9;" horiz-adv-x="301" 
d="M102 590v103h98v-103h-98z" />
    <glyph glyph-name="ring" unicode="&#x2da;" horiz-adv-x="410" 
d="M205 549q-51 0 -83.5 31t-32.5 78q0 48 32.5 78.5t83.5 30.5t83.5 -30.5t32.5 -78.5q0 -47 -32.5 -78t-83.5 -31zM205 601q26 0 43 16.5t17 40.5t-17 40.5t-43 16.5t-43 -16.5t-17 -40.5t17 -40.5t43 -16.5z" />
    <glyph glyph-name="ogonek" unicode="&#x2db;" horiz-adv-x="433" 
d="M229 -228q-59 0 -88 22.5t-29 59.5q0 76 137 179l42 -33q-32 -27 -49.5 -42.5t-33.5 -39t-16 -43.5q0 -40 55 -40h36v-57q-20 -6 -54 -6z" />
    <glyph glyph-name="tilde" unicode="&#x2dc;" horiz-adv-x="600" 
d="M371 569q-34 0 -60.5 19t-47 38t-40.5 19q-35 0 -35 -49v-23h-65v23q0 55 26 83.5t73 28.5q34 0 60.5 -19t47 -38t40.5 -19q35 0 35 49v23h65v-23q0 -55 -26 -83.5t-73 -28.5z" />
    <glyph glyph-name="hungarumlaut" unicode="&#x2dd;" horiz-adv-x="540" 
d="M94 563l70 152h90l-95 -152h-65zM272 563l76 152h94l-102 -152h-68z" />
    <glyph glyph-name="gravecomb" unicode="&#x300;" 
d="M-162 563l-92 152h98l66 -152h-72z" />
    <glyph glyph-name="acutecomb" unicode="&#x301;" 
d="M-264 563l66 152h98l-92 -152h-72z" />
    <glyph glyph-name="uni0302" unicode="&#x302;" 
d="M-145 563h-85l-86 109l-86 -109h-85l118 152h105z" />
    <glyph glyph-name="tildecomb" unicode="&#x303;" 
d="M-229 569q-34 0 -60.5 19t-47 38t-40.5 19q-35 0 -35 -49v-23h-65v23q0 55 26 83.5t73 28.5q34 0 60.5 -19t47 -38t40.5 -19q35 0 35 49v23h65v-23q0 -55 -26 -83.5t-73 -28.5z" />
    <glyph glyph-name="uni0304" unicode="&#x304;" 
d="M-410 597v71h313v-71h-313z" />
    <glyph glyph-name="uni0306" unicode="&#x306;" 
d="M-268 558q-73 0 -117.5 42.5t-44.5 114.5h72v-3q0 -44 24.5 -68t65.5 -24t64.5 24t23.5 68v3h74q0 -72 -44.5 -114.5t-117.5 -42.5z" />
    <glyph glyph-name="uni0307" unicode="&#x307;" 
d="M-199 590v103h98v-103h-98z" />
    <glyph glyph-name="uni0308" unicode="&#x308;" 
d="M-401 590v103h104v-103h-104zM-200 590v103h104v-103h-104z" />
    <glyph glyph-name="uni030A" unicode="&#x30a;" 
d="M-205 549q-51 0 -83.5 31t-32.5 78q0 48 32.5 78.5t83.5 30.5t83.5 -30.5t32.5 -78.5q0 -47 -32.5 -78t-83.5 -31zM-205 601q26 0 43 16.5t17 40.5t-17 40.5t-43 16.5t-43 -16.5t-17 -40.5t17 -40.5t43 -16.5z" />
    <glyph glyph-name="uni030B" unicode="&#x30b;" 
d="M-472 563l70 152h90l-95 -152h-65zM-294 563l76 152h94l-102 -152h-68z" />
    <glyph glyph-name="uni030C" unicode="&#x30c;" 
d="M-228 715h85l-119 -152h-105l-118 152h85l86 -109z" />
    <glyph glyph-name="uni0312" unicode="&#x312;" 
d="M-323 673h48v-84h-93v77q0 42 25 73t64 37v-43q-42 -9 -44 -60z" />
    <glyph glyph-name="uni0326" unicode="&#x326;" 
d="M-129 -54h93v-77q0 -41 -25.5 -72.5t-63.5 -37.5v43q21 4 32.5 20t11.5 39v1h-48v84z" />
    <glyph glyph-name="uni0327" unicode="&#x327;" 
d="M-194 -47q45 -4 69 -28.5t24 -60.5q0 -44 -29 -69.5t-80 -25.5h-78v58h75q20 0 32 10.5t12 26.5q0 36 -44 36h-38l-10 10l28 121h58z" />
    <glyph glyph-name="uni0328" unicode="&#x328;" 
d="M-204 -228q-59 0 -88 22.5t-29 59.5q0 76 137 179l42 -33q-32 -27 -49.5 -42.5t-33.5 -39t-16 -43.5q0 -40 55 -40h36v-57q-20 -6 -54 -6z" />
    <glyph glyph-name="uni0335" unicode="&#x335;" 
d="M-497 608v68h368v-68h-368z" />
    <glyph glyph-name="uni0337" unicode="&#x337;" 
d="M-403 235v86l290 167v-86z" />
    <glyph glyph-name="uni0338" unicode="&#x338;" 
d="M-518 -59l330 590l40 72h86l-46 -82l-25 -44l-213 -383l-86 -153h-86z" />
    <glyph glyph-name="tonos" unicode="&#x384;" horiz-adv-x="364" 
d="M100 563l66 152h98l-92 -152h-72z" />
    <glyph glyph-name="dieresistonos" unicode="&#x385;" horiz-adv-x="453" 
d="M151 563l47 152h87l-64 -152h-70zM38 599v85h81v-85h-81zM317 599v85h81v-85h-81z" />
    <glyph glyph-name="Alphatonos" unicode="&#x386;" horiz-adv-x="707" 
d="M587 0l-66 161h-337l-66 -161h-98l289 700h89l289 -700h-100zM64 558l70 142h99l-97 -142h-72zM352 584l-133 -335h266z" />
    <glyph glyph-name="Epsilontonos" unicode="&#x388;" horiz-adv-x="586" 
d="M-100 558l70 142h99l-97 -142h-72zM194 86h318v-86h-410v700h399v-86h-307v-212h281v-86h-281v-230z" />
    <glyph glyph-name="Etatonos" unicode="&#x389;" horiz-adv-x="745" 
d="M-100 558l70 142h99l-97 -142h-72zM551 700h92v-700h-92v316h-357v-316h-92v700h92v-296h357v296z" />
    <glyph glyph-name="Iotatonos" unicode="&#x38a;" horiz-adv-x="296" 
d="M-102 558l70 142h99l-97 -142h-72zM102 0v700h92v-700h-92z" />
    <glyph glyph-name="Omicrontonos" unicode="&#x38c;" horiz-adv-x="862" 
d="M431 -12q-159 0 -263 103t-104 259t104 259t263 103t263 -103t104 -259t-104 -259t-263 -103zM-23 558l70 142h99l-97 -142h-72zM431 76q118 0 196.5 78t78.5 196t-78.5 196t-196.5 78t-196.5 -78t-78.5 -196t78.5 -196t196.5 -78z" />
    <glyph glyph-name="Upsilontonos" unicode="&#x38e;" horiz-adv-x="654" 
d="M-145 558l70 142h99l-97 -142h-72zM630 700l-257 -422v-278h-92v278l-257 422h106l197 -326l197 326h106z" />
    <glyph glyph-name="Omegatonos" unicode="&#x38f;" horiz-adv-x="860" 
d="M660 86h142v-86h-313v84q96 29 155.5 105.5t59.5 171.5q0 112 -78 187.5t-196 75.5t-195.5 -75.5t-77.5 -187.5q0 -95 59 -171.5t155 -105.5v-84h-313v86h142q-135 110 -135 282q0 143 104.5 243.5t260.5 100.5q157 0 261.5 -100.5t104.5 -243.5q0 -172 -136 -282z
M43 700h99l-97 -142h-72z" />
    <glyph glyph-name="iotadieresistonos" unicode="&#x390;" horiz-adv-x="368" 
d="M92 563l36 152h81l-57 -152h-60zM-19 599v85h81v-85h-81zM240 599v85h81v-85h-81zM269 0q-88 0 -137.5 48.5t-49.5 134.5v317h87v-313q0 -50 28.5 -78t80.5 -28h60v-81h-69z" />
    <glyph glyph-name="Alpha" unicode="&#x391;" horiz-adv-x="707" 
d="M587 0l-66 161h-337l-66 -161h-98l289 700h89l289 -700h-100zM352 584l-133 -335h266z" />
    <glyph glyph-name="Beta" unicode="&#x392;" horiz-adv-x="660" 
d="M493 363q48 -21 76 -64t28 -100q0 -86 -60 -142.5t-157 -56.5h-278v700h278q90 0 144.5 -51.5t54.5 -132.5q0 -47 -23.5 -88.5t-62.5 -64.5zM487 509q0 48 -30 76.5t-83 28.5h-180v-211h180q53 0 83 29t30 77zM382 86q57 0 90 31.5t33 85.5q0 53 -33 84.5t-90 31.5h-188
v-233h188z" />
    <glyph glyph-name="Gamma" unicode="&#x393;" horiz-adv-x="522" 
d="M480 700v-88h-286v-612h-92v700h378z" />
    <glyph glyph-name="uni0394" unicode="&#x394;" horiz-adv-x="708" 
d="M390 700l298 -700h-668l287 700h83zM349 574l-193 -488h390z" />
    <glyph glyph-name="Epsilon" unicode="&#x395;" horiz-adv-x="586" 
d="M194 86h318v-86h-410v700h399v-86h-307v-212h281v-86h-281v-230z" />
    <glyph glyph-name="Zeta" unicode="&#x396;" horiz-adv-x="572" 
d="M150 86h397v-86h-510v77l381 537h-366v86h478v-77z" />
    <glyph glyph-name="Eta" unicode="&#x397;" horiz-adv-x="745" 
d="M551 700h92v-700h-92v316h-357v-316h-92v700h92v-296h357v296z" />
    <glyph glyph-name="Theta" unicode="&#x398;" horiz-adv-x="862" 
d="M431 -12q-159 0 -263 103t-104 259t104 259t263 103t263 -103t104 -259t-104 -259t-263 -103zM431 76q118 0 196.5 78t78.5 196t-78.5 196t-196.5 78t-196.5 -78t-78.5 -196t78.5 -196t196.5 -78zM244 308v86h371v-86h-371z" />
    <glyph glyph-name="Iota" unicode="&#x399;" horiz-adv-x="296" 
d="M102 0v700h92v-700h-92z" />
    <glyph glyph-name="Kappa" unicode="&#x39a;" horiz-adv-x="664" 
d="M528 0l-240 317h-94v-317h-92v700h92v-295h98l218 295h111l-254 -337l277 -363h-116z" />
    <glyph glyph-name="Lambda" unicode="&#x39b;" horiz-adv-x="675" 
d="M655 0h-98l-219 572l-220 -572h-98l273 700h89z" />
    <glyph glyph-name="Mu" unicode="&#x39c;" horiz-adv-x="982" 
d="M927 0h-94l-90 539l-226 -511h-51l-228 513l-89 -541h-94l117 700h94l225 -522l225 522h96z" />
    <glyph glyph-name="Nu" unicode="&#x39d;" horiz-adv-x="766" 
d="M572 700h92v-700h-86l-384 532v-532h-92v700h86l384 -532v532z" />
    <glyph glyph-name="Xi" unicode="&#x39e;" horiz-adv-x="585" 
d="M68 614v86h450v-86h-450zM107 318v86h372v-86h-372zM60 0v86h465v-86h-465z" />
    <glyph glyph-name="Omicron" unicode="&#x39f;" horiz-adv-x="862" 
d="M431 -12q-159 0 -263 103t-104 259t104 259t263 103t263 -103t104 -259t-104 -259t-263 -103zM431 76q118 0 196.5 78t78.5 196t-78.5 196t-196.5 78t-196.5 -78t-78.5 -196t78.5 -196t196.5 -78z" />
    <glyph glyph-name="Pi" unicode="&#x3a0;" horiz-adv-x="738" 
d="M102 700h534v-700h-92v612h-350v-612h-92v700z" />
    <glyph glyph-name="Rho" unicode="&#x3a1;" horiz-adv-x="636" 
d="M355 700q102 0 168 -64.5t66 -161.5t-66 -161.5t-168 -64.5h-161v-248h-92v700h253zM350 334q67 0 107 38.5t40 101.5t-40 101.5t-107 38.5h-156v-280h156z" />
    <glyph glyph-name="Sigma" unicode="&#x3a3;" horiz-adv-x="562" 
d="M154 86h368v-86h-487v74l232 281l-223 271v74h468v-86h-349l207 -252v-15z" />
    <glyph glyph-name="Tau" unicode="&#x3a4;" horiz-adv-x="588" 
d="M551 700v-88h-211v-612h-92v612h-211v88h514z" />
    <glyph glyph-name="Upsilon" unicode="&#x3a5;" horiz-adv-x="654" 
d="M630 700l-257 -422v-278h-92v278l-257 422h106l197 -326l197 326h106z" />
    <glyph glyph-name="Phi" unicode="&#x3a6;" horiz-adv-x="926" 
d="M862 350q0 -155 -99 -256t-254 -105v-100h-92v100q-155 4 -254 105t-99 256t99 256t254 105v95h92v-95q155 -4 254 -105t99 -256zM156 350q0 -120 71.5 -195t189.5 -79v548q-118 -4 -189.5 -79t-71.5 -195zM509 76q118 4 189.5 79t71.5 195t-71.5 195t-189.5 79v-548z
" />
    <glyph glyph-name="Chi" unicode="&#x3a7;" horiz-adv-x="628" 
d="M608 0h-109l-187 294l-187 -294h-105l236 367l-218 333h109l169 -263l168 263h105l-217 -337z" />
    <glyph glyph-name="Psi" unicode="&#x3a8;" horiz-adv-x="844" 
d="M677 700h92v-239q0 -127 -80.5 -206.5t-210.5 -79.5h-10v-175h-92v175h-10q-130 0 -210.5 79.5t-80.5 206.5v239h92v-238q0 -91 53.5 -145t143.5 -54h12v437h92v-437h12q90 0 143.5 54t53.5 145v238z" />
    <glyph glyph-name="uni03A9" unicode="&#x3a9;" horiz-adv-x="860" 
d="M660 86h142v-86h-313v84q96 29 155.5 105.5t59.5 171.5q0 112 -78 187.5t-196 75.5t-195.5 -75.5t-77.5 -187.5q0 -95 59 -171.5t155 -105.5v-84h-313v86h142q-135 110 -135 282q0 143 104.5 243.5t260.5 100.5q157 0 261.5 -100.5t104.5 -243.5q0 -172 -136 -282z" />
    <glyph glyph-name="Iotadieresis" unicode="&#x3aa;" horiz-adv-x="296" 
d="M32 784v103h94v-103h-94zM172 784v103h94v-103h-94zM102 0v700h92v-700h-92z" />
    <glyph glyph-name="Upsilondieresis" unicode="&#x3ab;" horiz-adv-x="654" 
d="M165 784v103h104v-103h-104zM384 784v103h104v-103h-104zM630 700l-257 -422v-278h-92v278l-257 422h106l197 -326l197 326h106z" />
    <glyph glyph-name="alphatonos" unicode="&#x3ac;" horiz-adv-x="676" 
d="M443 715l-92 -152h-72l66 152h98zM520 500h68v-500h-68l-15 67q-76 -79 -191 -79q-111 0 -185.5 75t-74.5 187t74.5 187t185.5 75q115 0 191 -79zM323 67q81 0 131.5 50.5t50.5 132.5t-50.5 132.5t-131.5 50.5t-131.5 -50.5t-50.5 -132.5t50.5 -132.5t131.5 -50.5z" />
    <glyph glyph-name="epsilontonos" unicode="&#x3ad;" horiz-adv-x="507" 
d="M377 715l-92 -152h-72l66 152h98zM390 154h86q-9 -77 -64.5 -121.5t-149.5 -44.5q-93 0 -149 42.5t-56 111.5q0 85 77 123q-61 38 -61 105q0 64 52.5 103t139.5 39q85 0 138.5 -41t59.5 -109h-84q-5 34 -34 53.5t-76 19.5q-52 0 -81.5 -18.5t-29.5 -50.5
q0 -30 24.5 -49.5t75.5 -19.5h67v-73h-69q-112 0 -112 -74q0 -40 32.5 -62.5t89.5 -22.5q108 0 124 89z" />
    <glyph glyph-name="etatonos" unicode="&#x3ae;" horiz-adv-x="643" 
d="M464 715l-92 -152h-72l66 152h98zM358 512q89 0 146.5 -62t57.5 -166v-477h-87v459q0 81 -36 123t-105 42q-68 0 -113.5 -51t-45.5 -128v-252h-87v500h68l16 -72q67 84 186 84z" />
    <glyph glyph-name="iotatonos" unicode="&#x3af;" horiz-adv-x="368" 
d="M82 563l66 152h98l-92 -152h-72zM269 0q-88 0 -137.5 48.5t-49.5 134.5v317h87v-313q0 -50 28.5 -78t80.5 -28h60v-81h-69z" />
    <glyph glyph-name="upsilondieresistonos" unicode="&#x3b0;" horiz-adv-x="644" 
d="M263 563l47 152h87l-64 -152h-70zM150 599v85h81v-85h-81zM429 599v85h81v-85h-81zM469 500h87v-500h-68l-17 72q-66 -84 -182 -84q-94 0 -147.5 58t-53.5 160v294h87v-276q0 -84 34.5 -119.5t103.5 -35.5q66 0 111 52.5t45 131.5v247z" />
    <glyph glyph-name="alpha" unicode="&#x3b1;" horiz-adv-x="676" 
d="M520 500h68v-500h-68l-15 67q-76 -79 -191 -79q-111 0 -185.5 75t-74.5 187t74.5 187t185.5 75q115 0 191 -79zM323 67q81 0 131.5 50.5t50.5 132.5t-50.5 132.5t-131.5 50.5t-131.5 -50.5t-50.5 -132.5t50.5 -132.5t131.5 -50.5z" />
    <glyph glyph-name="beta" unicode="&#x3b2;" horiz-adv-x="640" 
d="M473 384q52 -21 81 -68t29 -112q0 -96 -66 -156t-179 -60q-87 0 -163 32v-213h-87v659q0 132 67.5 205.5t179.5 73.5q101 0 162 -56t61 -141q0 -54 -22.5 -97t-62.5 -67zM330 69q81 0 123.5 37t42.5 101q0 60 -41.5 95.5t-121.5 35.5h-77v81h79q66 0 101 32t35 88
t-36 90.5t-98 34.5q-76 0 -119 -49t-43 -144v-362q67 -40 155 -40z" />
    <glyph glyph-name="gamma" unicode="&#x3b3;" horiz-adv-x="566" 
d="M550 500l-221 -488v-205h-87v207l-226 486h92l178 -391l174 391h90z" />
    <glyph glyph-name="delta" unicode="&#x3b4;" horiz-adv-x="628" 
d="M246 661q135 -56 233.5 -173t98.5 -239q0 -115 -72.5 -188t-187.5 -73q-117 0 -190.5 71t-73.5 180q0 110 71.5 178.5t181.5 68.5q43 0 73 -8q-104 115 -294 174v81h454v-81h-139zM316 67q78 0 126.5 48t48.5 125t-48.5 125t-126.5 48t-126.5 -48t-48.5 -125t48.5 -125
t126.5 -48z" />
    <glyph glyph-name="epsilon" unicode="&#x3b5;" horiz-adv-x="507" 
d="M390 154h86q-9 -77 -64.5 -121.5t-149.5 -44.5q-93 0 -149 42.5t-56 111.5q0 85 77 123q-61 38 -61 105q0 64 52.5 103t139.5 39q85 0 138.5 -41t59.5 -109h-84q-5 34 -34 53.5t-76 19.5q-52 0 -81.5 -18.5t-29.5 -50.5q0 -30 24.5 -49.5t75.5 -19.5h67v-73h-69
q-112 0 -112 -74q0 -40 32.5 -62.5t89.5 -22.5q108 0 124 89z" />
    <glyph glyph-name="zeta" unicode="&#x3b6;" horiz-adv-x="512" 
d="M512 661q-184 -109 -279.5 -218.5t-95.5 -206.5q0 -66 38.5 -98t118.5 -60q43 -15 72.5 -28.5t62 -35t49 -51t16.5 -66.5q0 -42 -16 -90h-84q13 37 13 71q0 47 -38 74t-112 52q-48 16 -77 30t-63 40t-50.5 66t-16.5 94q0 101 78.5 211t225.5 207h-276v81h434v-72z" />
    <glyph glyph-name="eta" unicode="&#x3b7;" horiz-adv-x="643" 
d="M358 512q89 0 146.5 -62t57.5 -166v-477h-87v459q0 81 -36 123t-105 42q-68 0 -113.5 -51t-45.5 -128v-252h-87v500h68l16 -72q67 84 186 84z" />
    <glyph glyph-name="theta" unicode="&#x3b8;" horiz-adv-x="697" 
d="M348 745q125 0 209 -101t84 -277q0 -177 -84 -278t-209 -101q-124 0 -208 101t-84 278q0 176 84 277t208 101zM348 664q-83 0 -139.5 -66.5t-64.5 -193.5h409q-8 127 -65 193.5t-140 66.5zM348 69q83 0 139 64.5t65 189.5h-407q9 -125 65 -189.5t138 -64.5z" />
    <glyph glyph-name="iota" unicode="&#x3b9;" horiz-adv-x="368" 
d="M269 0q-88 0 -137.5 48.5t-49.5 134.5v317h87v-313q0 -50 28.5 -78t80.5 -28h60v-81h-69z" />
    <glyph glyph-name="kappa" unicode="&#x3ba;" horiz-adv-x="566" 
d="M432 0l-173 216h-84v-216h-87v500h87v-203h83l158 203h105l-189 -241l209 -259h-109z" />
    <glyph glyph-name="lambda" unicode="&#x3bb;" horiz-adv-x="572" 
d="M552 0h-94l-166 401l-183 -401h-94l233 508l-23 55q-21 52 -45 70.5t-64 18.5h-26v81h31q74 0 111.5 -28.5t72.5 -112.5z" />
    <glyph glyph-name="uni03BC" unicode="&#x3bc;" horiz-adv-x="648" 
d="M473 500h87v-500h-68l-16 70q-62 -82 -160 -82q-97 0 -141 49v-230h-87v693h87v-262q0 -169 145 -169q64 0 108.5 51t44.5 128v252z" />
    <glyph glyph-name="nu" unicode="&#x3bd;" horiz-adv-x="566" 
d="M460 500h90l-222 -500h-84l-228 500h92l178 -394z" />
    <glyph glyph-name="xi" unicode="&#x3be;" horiz-adv-x="535" 
d="M293 71q38 -14 58.5 -22t52 -24.5t47.5 -32t29 -40t13 -53.5q0 -44 -16 -92h-84q13 37 13 71q0 20 -9 37t-20 28t-34.5 22.5t-39.5 17t-47 16.5q-43 14 -75.5 30.5t-64 41.5t-48 60.5t-16.5 80.5q0 59 28 107t78 71q-41 22 -64 63.5t-23 92.5q0 85 62.5 142t165.5 57
q94 0 157 -53t69 -138h-86q-10 51 -48 80.5t-95 29.5q-64 0 -101 -33.5t-37 -87.5q0 -52 35.5 -83.5t100.5 -31.5h83v-81h-84q-74 0 -114 -34t-40 -91q0 -60 38.5 -92t115.5 -59z" />
    <glyph glyph-name="omicron" unicode="&#x3bf;" horiz-adv-x="648" 
d="M324 -12q-116 0 -193 75t-77 187t77 187t193 75t193 -75t77 -187t-77 -187t-193 -75zM324 67q79 0 131 52.5t52 130.5q0 79 -52 131t-131 52t-131 -52t-52 -131q0 -78 52 -130.5t131 -52.5z" />
    <glyph glyph-name="pi" unicode="&#x3c0;" horiz-adv-x="638" 
d="M88 500h462v-500h-87v419h-288v-419h-87v500z" />
    <glyph glyph-name="rho" unicode="&#x3c1;" horiz-adv-x="680" 
d="M354 511q116 0 194 -75.5t78 -185.5t-77.5 -186t-191.5 -76q-58 0 -108.5 21t-81.5 53v-255h-87v426q0 123 76.5 200.5t197.5 77.5zM353 67q82 0 134 51.5t52 131.5t-52 131t-134 51t-134 -51t-52 -131t52 -131.5t134 -51.5z" />
    <glyph glyph-name="uni03C2" unicode="&#x3c2;" horiz-adv-x="617" 
d="M54 265q0 107 73 177t190 70q100 0 169.5 -52.5t88.5 -144.5h-87q-38 117 -178 117q-77 0 -123 -45t-46 -119q0 -69 37 -107.5t114 -67.5q15 -6 47 -17t49.5 -17.5t44 -18.5t41.5 -24.5t31 -29t23 -38t7 -47.5q0 -50 -16 -94h-84q13 37 13 71q0 21 -9 38.5t-19.5 28.5
t-34 23t-38 18t-46.5 17.5t-46 16.5q-44 17 -75 34t-62 45t-47.5 70t-16.5 96z" />
    <glyph glyph-name="sigma" unicode="&#x3c3;" horiz-adv-x="687" 
d="M657 421h-84l-69 3q90 -70 90 -187q0 -103 -76.5 -176t-193.5 -73q-116 0 -193 74.5t-77 181.5q0 108 78.5 182t199.5 74h325v-79zM324 67q81 0 132 50t51 127q0 78 -51 127.5t-132 49.5t-132 -49.5t-51 -127.5q0 -77 51 -127t132 -50z" />
    <glyph glyph-name="tau" unicode="&#x3c4;" horiz-adv-x="494" 
d="M449 421h-174v-234q0 -106 109 -106h60v-81h-69q-88 0 -137.5 48.5t-49.5 134.5v238h-170v79h431v-79z" />
    <glyph glyph-name="upsilon" unicode="&#x3c5;" horiz-adv-x="644" 
d="M469 500h87v-500h-68l-17 72q-66 -84 -182 -84q-94 0 -147.5 58t-53.5 160v294h87v-276q0 -84 34.5 -119.5t103.5 -35.5q66 0 111 52.5t45 131.5v247z" />
    <glyph glyph-name="phi" unicode="&#x3c6;" horiz-adv-x="750" 
d="M696 244q0 -105 -75 -178t-196 -78v-181h-87v181q-129 4 -206.5 76.5t-77.5 179.5q0 87 53.5 154t144.5 96l24 -75q-64 -22 -99.5 -68.5t-35.5 -108.5q0 -75 52 -123.5t145 -51.5v433h72q127 0 206.5 -73.5t79.5 -182.5zM425 67q87 4 135.5 52t48.5 125t-48.5 125
t-135.5 52v-354z" />
    <glyph glyph-name="chi" unicode="&#x3c7;" horiz-adv-x="534" 
d="M514 0h-102l-145 203l-147 -203h-100l191 259l-175 241h102l128 -180l133 180h100l-178 -236z" />
    <glyph glyph-name="psi" unicode="&#x3c8;" horiz-adv-x="811" 
d="M638 500h87v-239q0 -125 -71 -198.5t-189 -73.5h-16v-182h-87v182h-16q-117 0 -188.5 73.5t-71.5 198.5v239h87v-235q0 -92 49.5 -143.5t137.5 -51.5h2v430h87v-430h3q87 0 136.5 51.5t49.5 143.5v235z" />
    <glyph glyph-name="omega" unicode="&#x3c9;" horiz-adv-x="878" 
d="M757 500q59 -124 59 -249q0 -124 -57 -193t-146 -69q-60 0 -106.5 28t-67.5 79q-21 -51 -67.5 -79t-106.5 -28q-89 0 -146 69t-57 193q0 125 59 249h90q-62 -134 -62 -252q0 -173 130 -173q50 0 83 40t33 113v139h87v-139q0 -72 33.5 -112.5t83.5 -40.5q130 0 130 173
q0 118 -62 252h90z" />
    <glyph glyph-name="iotadieresis" unicode="&#x3ca;" horiz-adv-x="368" 
d="M-26 590v103h104v-103h-104zM175 590v103h104v-103h-104zM269 0q-88 0 -137.5 48.5t-49.5 134.5v317h87v-313q0 -50 28.5 -78t80.5 -28h60v-81h-69z" />
    <glyph glyph-name="upsilondieresis" unicode="&#x3cb;" horiz-adv-x="644" 
d="M170 590v103h104v-103h-104zM371 590v103h104v-103h-104zM469 500h87v-500h-68l-17 72q-66 -84 -182 -84q-94 0 -147.5 58t-53.5 160v294h87v-276q0 -84 34.5 -119.5t103.5 -35.5q66 0 111 52.5t45 131.5v247z" />
    <glyph glyph-name="omicrontonos" unicode="&#x3cc;" horiz-adv-x="648" 
d="M284 563l66 152h98l-92 -152h-72zM324 -12q-116 0 -193 75t-77 187t77 187t193 75t193 -75t77 -187t-77 -187t-193 -75zM324 67q79 0 131 52.5t52 130.5q0 79 -52 131t-131 52t-131 -52t-52 -131q0 -78 52 -130.5t131 -52.5z" />
    <glyph glyph-name="upsilontonos" unicode="&#x3cd;" horiz-adv-x="644" 
d="M278 563l66 152h98l-92 -152h-72zM469 500h87v-500h-68l-17 72q-66 -84 -182 -84q-94 0 -147.5 58t-53.5 160v294h87v-276q0 -84 34.5 -119.5t103.5 -35.5q66 0 111 52.5t45 131.5v247z" />
    <glyph glyph-name="omegatonos" unicode="&#x3ce;" horiz-adv-x="878" 
d="M557 715l-92 -152h-72l66 152h98zM757 500q59 -124 59 -249q0 -124 -57 -193t-146 -69q-60 0 -106.5 28t-67.5 79q-21 -51 -67.5 -79t-106.5 -28q-89 0 -146 69t-57 193q0 125 59 249h90q-62 -134 -62 -252q0 -173 130 -173q50 0 83 40t33 113v139h87v-139
q0 -72 33.5 -112.5t83.5 -40.5q130 0 130 173q0 118 -62 252h90z" />
    <glyph glyph-name="uni0401" unicode="&#x401;" horiz-adv-x="586" 
d="M138 784v103h104v-103h-104zM357 784v103h104v-103h-104zM194 86h318v-86h-410v700h399v-86h-307v-212h281v-86h-281v-230z" />
    <glyph glyph-name="uni0402" unicode="&#x402;" horiz-adv-x="777" 
d="M487 472q105 0 171 -66.5t66 -174.5q0 -109 -64.5 -176t-167.5 -67q-26 0 -44 4v86q14 -2 29 -2q72 0 113.5 41.5t41.5 113.5q0 70 -41.5 111.5t-110.5 41.5q-88 0 -140 -63v-321h-92v612h-211v88h516v-88h-213v-183q64 43 147 43z" />
    <glyph glyph-name="uni0403" unicode="&#x403;" horiz-adv-x="522" 
d="M221 778l71 142h98l-97 -142h-72zM480 700v-88h-286v-612h-92v700h378z" />
    <glyph glyph-name="uni0404" unicode="&#x404;" horiz-adv-x="817" 
d="M664 250h95q-29 -120 -120 -191t-216 -71q-156 0 -257.5 102t-101.5 260t101.5 260t257.5 102q123 0 213.5 -68.5t119.5 -183.5h-95q-28 77 -91.5 120.5t-146.5 43.5q-106 0 -178 -62t-86 -166h333v-88h-333q13 -105 85 -168.5t179 -63.5q86 0 150 46t91 128z" />
    <glyph glyph-name="uni0405" unicode="&#x405;" horiz-adv-x="637" 
d="M324 -12q-121 0 -190.5 63t-69.5 166h92q0 -63 44 -102t123 -39q76 0 117 33.5t41 84.5q0 24 -10.5 42.5t-23.5 30t-40.5 22t-46.5 15.5t-55 14q-42 10 -66.5 17t-59.5 23t-54 35t-33.5 50t-14.5 71q0 88 63 143t177 55q112 0 174 -57.5t62 -154.5h-92q0 55 -38.5 89.5
t-107.5 34.5q-72 0 -109 -29t-37 -75q0 -22 10 -39.5t23.5 -28.5t39 -21.5t44.5 -15.5t52 -13q32 -8 49 -12.5t46 -14t45 -18.5t37 -25t31.5 -33.5t18.5 -43t8 -55.5q0 -92 -67 -152t-182 -60z" />
    <glyph glyph-name="uni0406" unicode="&#x406;" horiz-adv-x="296" 
d="M102 0v700h92v-700h-92z" />
    <glyph glyph-name="uni0407" unicode="&#x407;" horiz-adv-x="296" 
d="M32 784v103h94v-103h-94zM172 784v103h94v-103h-94zM102 0v700h92v-700h-92z" />
    <glyph glyph-name="uni0408" unicode="&#x408;" horiz-adv-x="622" 
d="M286 -12q-108 0 -176 68t-68 177v15h92v-11q0 -75 41 -118t111 -43q67 0 108 42.5t41 115.5v466h92v-467q0 -109 -67 -177t-174 -68z" />
    <glyph glyph-name="uni0409" unicode="&#x409;" horiz-adv-x="1079" 
d="M786 456q109 0 175 -63.5t66 -164.5t-66 -164.5t-175 -63.5h-244v612h-245l-36 -387q-11 -116 -62.5 -171t-148.5 -55h-30v92h29q55 0 84 31.5t35 99.5l43 478h423v-244h152zM783 86q70 0 111 39t41 103t-41 103t-111 39h-149v-284h149z" />
    <glyph glyph-name="uni040A" unicode="&#x40a;" horiz-adv-x="1073" 
d="M800 416q100 0 160.5 -58t60.5 -150t-60.5 -150t-160.5 -58h-269v328h-337v-328h-92v700h92v-284h337v284h92v-284h177zM797 86q60 0 96 34t36 88t-36 88t-96 34h-174v-244h174z" />
    <glyph glyph-name="uni040B" unicode="&#x40b;" horiz-adv-x="802" 
d="M489 461q111 0 176 -66t65 -180v-215h-92v205q0 83 -41.5 125.5t-119.5 42.5q-66 0 -137 -29v-344h-92v612h-211v88h517v-88h-214v-179q77 28 149 28z" />
    <glyph glyph-name="uni040C" unicode="&#x40c;" horiz-adv-x="664" 
d="M297 778l71 142h98l-97 -142h-72zM528 0l-240 317h-94v-317h-92v700h92v-295h98l218 295h111l-254 -337l277 -363h-116z" />
    <glyph glyph-name="uni040D" unicode="&#x40d;" horiz-adv-x="755" 
d="M344 778l-97 142h98l71 -142h-72zM568 700h85v-700h-92v539l-374 -539h-85v700h92v-539z" />
    <glyph glyph-name="uni040E" unicode="&#x40e;" horiz-adv-x="604" 
d="M457 882v-72h-286v72h286zM501 700h100l-229 -483q-61 -128 -114.5 -172.5t-149.5 -44.5h-32v88h37q58 0 89 22.5t66 93.5l-246 496h105l190 -393z" />
    <glyph glyph-name="uni040F" unicode="&#x40f;" horiz-adv-x="734" 
d="M632 700v-700h-220v-142h-90v142h-220v700h92v-612h346v612h92z" />
    <glyph glyph-name="uni0410" unicode="&#x410;" horiz-adv-x="707" 
d="M587 0l-66 161h-337l-66 -161h-98l289 700h89l289 -700h-100zM352 584l-133 -335h266z" />
    <glyph glyph-name="uni0411" unicode="&#x411;" horiz-adv-x="638" 
d="M357 422q101 0 164 -59t63 -150q0 -93 -63 -153t-166 -60h-253v700h431v-86h-339v-192h163zM351 86q66 0 103.5 34t37.5 91t-37 91t-103 34h-158v-250h157z" />
    <glyph glyph-name="uni0412" unicode="&#x412;" horiz-adv-x="660" 
d="M493 363q48 -21 76 -64t28 -100q0 -86 -60 -142.5t-157 -56.5h-278v700h278q90 0 144.5 -51.5t54.5 -132.5q0 -47 -23.5 -88.5t-62.5 -64.5zM487 509q0 48 -30 76.5t-83 28.5h-180v-211h180q53 0 83 29t30 77zM382 86q57 0 90 31.5t33 85.5q0 53 -33 84.5t-90 31.5h-188
v-233h188z" />
    <glyph glyph-name="uni0413" unicode="&#x413;" horiz-adv-x="522" 
d="M480 700v-88h-286v-612h-92v700h378z" />
    <glyph glyph-name="uni0414" unicode="&#x414;" horiz-adv-x="756" 
d="M637 88h74v-230h-90v142h-507v-142h-90v230h52q35 22 54 75t34 168.5t37 368.5h436v-612zM285 612q-21 -278 -41.5 -382t-62.5 -142h364v524h-260z" />
    <glyph glyph-name="uni0415" unicode="&#x415;" horiz-adv-x="586" 
d="M194 86h318v-86h-410v700h399v-86h-307v-212h281v-86h-281v-230z" />
    <glyph glyph-name="uni0416" unicode="&#x416;" horiz-adv-x="1006" 
d="M866 0l-234 317h-83v-317h-92v317h-83l-234 -317h-120l271 365l-245 335h113l213 -295h85v295h92v-295h85l213 295h113l-245 -335l271 -365h-120z" />
    <glyph glyph-name="uni0417" unicode="&#x417;" horiz-adv-x="606" 
d="M441 370q49 -24 76 -69.5t27 -98.5q0 -92 -67 -152.5t-181 -60.5q-110 0 -176.5 57.5t-71.5 151.5h93q5 -57 46 -90t111 -33q75 0 114.5 33.5t39.5 90.5t-37.5 91t-104.5 34h-83v84h81q59 0 91.5 29.5t32.5 79.5q0 47 -36.5 78t-98.5 31q-61 0 -100 -29.5t-46 -76.5h-91
q6 85 71.5 138.5t166.5 53.5q103 0 164.5 -54.5t61.5 -137.5q0 -47 -22.5 -87t-60.5 -63z" />
    <glyph glyph-name="uni0418" unicode="&#x418;" horiz-adv-x="755" 
d="M568 700h85v-700h-92v539l-374 -539h-85v700h92v-539z" />
    <glyph glyph-name="uni0419" unicode="&#x419;" horiz-adv-x="755" 
d="M520 882v-72h-286v72h286zM568 700h85v-700h-92v539l-374 -539h-85v700h92v-539z" />
    <glyph glyph-name="uni041A" unicode="&#x41a;" horiz-adv-x="664" 
d="M528 0l-240 317h-94v-317h-92v700h92v-295h98l218 295h111l-254 -337l277 -363h-116z" />
    <glyph glyph-name="uni041B" unicode="&#x41b;" horiz-adv-x="750" 
d="M211 700h437v-700h-92v612h-259l-36 -387q-11 -116 -62.5 -171t-148.5 -55h-30v92h29q54 0 84 34.5t37 114.5z" />
    <glyph glyph-name="uni041C" unicode="&#x41c;" horiz-adv-x="982" 
d="M927 0h-94l-90 539l-226 -511h-51l-228 513l-89 -541h-94l117 700h94l225 -522l225 522h96z" />
    <glyph glyph-name="uni041D" unicode="&#x41d;" horiz-adv-x="745" 
d="M551 700h92v-700h-92v316h-357v-316h-92v700h92v-296h357v296z" />
    <glyph glyph-name="uni041E" unicode="&#x41e;" horiz-adv-x="862" 
d="M431 -12q-159 0 -263 103t-104 259t104 259t263 103t263 -103t104 -259t-104 -259t-263 -103zM431 76q118 0 196.5 78t78.5 196t-78.5 196t-196.5 78t-196.5 -78t-78.5 -196t78.5 -196t196.5 -78z" />
    <glyph glyph-name="uni041F" unicode="&#x41f;" horiz-adv-x="738" 
d="M102 700h534v-700h-92v612h-350v-612h-92v700z" />
    <glyph glyph-name="uni0420" unicode="&#x420;" horiz-adv-x="636" 
d="M355 700q102 0 168 -64.5t66 -161.5t-66 -161.5t-168 -64.5h-161v-248h-92v700h253zM350 334q67 0 107 38.5t40 101.5t-40 101.5t-107 38.5h-156v-280h156z" />
    <glyph glyph-name="uni0421" unicode="&#x421;" horiz-adv-x="817" 
d="M423 -12q-156 0 -257.5 102t-101.5 260t101.5 260t257.5 102q123 0 213.5 -68.5t119.5 -183.5h-95q-28 77 -91.5 120.5t-146.5 43.5q-118 0 -192.5 -76t-74.5 -198t74.5 -198t192.5 -76q86 0 150 46t91 128h95q-29 -120 -120 -191t-216 -71z" />
    <glyph glyph-name="uni0422" unicode="&#x422;" horiz-adv-x="588" 
d="M551 700v-88h-211v-612h-92v612h-211v88h514z" />
    <glyph glyph-name="uni0423" unicode="&#x423;" horiz-adv-x="604" 
d="M501 700h100l-229 -483q-61 -128 -114.5 -172.5t-149.5 -44.5h-32v88h37q58 0 89 22.5t66 93.5l-246 496h105l190 -393z" />
    <glyph glyph-name="uni0424" unicode="&#x424;" horiz-adv-x="926" 
d="M862 350q0 -155 -99 -256t-254 -105v-100h-92v100q-155 4 -254 105t-99 256t99 256t254 105v95h92v-95q155 -4 254 -105t99 -256zM156 350q0 -120 71.5 -195t189.5 -79v548q-118 -4 -189.5 -79t-71.5 -195zM509 76q118 4 189.5 79t71.5 195t-71.5 195t-189.5 79v-548z
" />
    <glyph glyph-name="uni0425" unicode="&#x425;" horiz-adv-x="628" 
d="M608 0h-109l-187 294l-187 -294h-105l236 367l-218 333h109l169 -263l168 263h105l-217 -337z" />
    <glyph glyph-name="uni0426" unicode="&#x426;" horiz-adv-x="734" 
d="M615 88h74v-230h-90v142h-497v700h92v-612h329v612h92v-612z" />
    <glyph glyph-name="uni0427" unicode="&#x427;" horiz-adv-x="692" 
d="M498 700h92v-700h-92v274q-74 -31 -156 -31q-120 0 -186 65t-66 187v205h92v-198q0 -88 41.5 -129.5t127.5 -41.5q78 0 147 38v331z" />
    <glyph glyph-name="uni0428" unicode="&#x428;" horiz-adv-x="994" 
d="M800 700h92v-700h-790v700h92v-612h257v612h92v-612h257v612z" />
    <glyph glyph-name="uni0429" unicode="&#x429;" horiz-adv-x="1011" 
d="M892 88h74v-230h-90v142h-774v700h92v-612h257v612h92v-612h257v612h92v-612z" />
    <glyph glyph-name="uni042A" unicode="&#x42a;" horiz-adv-x="721" 
d="M428 456q109 0 175 -63.5t66 -164.5t-66 -164.5t-175 -63.5h-254v614h-159v86h251v-244h162zM425 86q70 0 111 39t41 103t-41 103t-111 39h-159v-284h159z" />
    <glyph glyph-name="uni042B" unicode="&#x42b;" horiz-adv-x="892" 
d="M356 456q109 0 175 -63.5t66 -164.5t-66 -164.5t-175 -63.5h-254v700h92v-244h162zM698 700h92v-700h-92v700zM353 86q70 0 111 39t41 103t-41 103t-111 39h-159v-284h159z" />
    <glyph glyph-name="uni042C" unicode="&#x42c;" horiz-adv-x="649" 
d="M356 456q109 0 175 -63.5t66 -164.5t-66 -164.5t-175 -63.5h-254v700h92v-244h162zM353 86q70 0 111 39t41 103t-41 103t-111 39h-159v-284h159z" />
    <glyph glyph-name="uni042D" unicode="&#x42d;" horiz-adv-x="824" 
d="M401 712q156 0 257.5 -102t101.5 -260t-101.5 -260t-257.5 -102q-127 0 -218.5 70.5t-120.5 191.5h95q27 -83 91.5 -128.5t152.5 -45.5q107 0 179 63.5t85 168.5h-333v88h333q-14 104 -86 166t-178 62q-85 0 -149 -43t-92 -121h-95q29 115 120 183.5t216 68.5z" />
    <glyph glyph-name="uni042E" unicode="&#x42e;" horiz-adv-x="1073" 
d="M655 712q154 0 254 -102t100 -260t-100 -260t-254 -102q-142 0 -240 88.5t-112 230.5h-109v-307h-92v700h92v-305h109q15 141 112.5 229t239.5 88zM655 76q116 0 189 75.5t73 198.5t-73 198.5t-189 75.5t-189 -75.5t-73 -198.5t73 -198.5t189 -75.5z" />
    <glyph glyph-name="uni042F" unicode="&#x42f;" horiz-adv-x="671" 
d="M300 700h269v-700h-92v268h-151l-161 -268h-110l169 280q-73 21 -116 75.5t-43 128.5q0 93 65.5 154.5t169.5 61.5zM158 484q0 -58 38.5 -94t104.5 -36h176v260h-176q-66 0 -104.5 -36t-38.5 -94z" />
    <glyph glyph-name="uni0430" unicode="&#x430;" horiz-adv-x="584" 
d="M293 512q95 0 152.5 -55t57.5 -146v-311h-67l-12 67q-64 -79 -178 -79q-84 0 -134.5 41t-50.5 110t50.5 110t136.5 41h169v15q0 63 -32.5 95.5t-92.5 32.5q-102 0 -123 -76h-93q13 71 70.5 113t146.5 42zM250 67q77 0 122 40.5t45 104.5v6h-166q-48 0 -74.5 -20
t-26.5 -56q0 -35 26 -55t74 -20z" />
    <glyph glyph-name="uni0431" unicode="&#x431;" horiz-adv-x="665" 
d="M364 493q105 0 176 -72t71 -177q0 -111 -75 -183.5t-193 -72.5q-98 0 -162 47t-92 132q-21 64 -21 148q0 193 67 293.5t231 115.5q20 2 63 4t78 5.5t68 11.5v-83q-40 -9 -113 -12.5t-88 -5.5q-113 -12 -161.5 -69t-57.5 -169q70 87 209 87zM342 67q82 0 132 48t50 127
q0 77 -50 124.5t-132 47.5q-81 0 -132 -48.5t-51 -123.5q0 -79 50.5 -127t132.5 -48z" />
    <glyph glyph-name="uni0432" unicode="&#x432;" horiz-adv-x="586" 
d="M445 261q39 -14 61.5 -45.5t22.5 -74.5q0 -60 -45.5 -100.5t-121.5 -40.5h-274v500h275q69 0 108.5 -35.5t39.5 -92.5q0 -36 -17.5 -65.5t-48.5 -45.5zM422 359q0 30 -19 47t-56 17h-172v-128h172q37 0 56 17t19 47zM355 77q42 0 63.5 19t21.5 52q0 34 -21.5 53t-63.5 19
h-180v-143h180z" />
    <glyph glyph-name="uni0433" unicode="&#x433;" horiz-adv-x="455" 
d="M427 500v-81h-252v-419h-87v500h339z" />
    <glyph glyph-name="uni0434" unicode="&#x434;" horiz-adv-x="652" 
d="M540 81h72v-221h-85v140h-422v-140h-85v221h56q23 21 34.5 50.5t23.5 112.5t26 256h380v-419zM240 419q-13 -173 -27.5 -238.5t-41.5 -99.5h282v338h-213z" />
    <glyph glyph-name="uni0435" unicode="&#x435;" horiz-adv-x="629" 
d="M575 249q0 -12 -2 -30h-431q10 -69 58.5 -110.5t121.5 -41.5q102 0 149 77h91q-67 -156 -241 -156q-117 0 -192 74.5t-75 187.5t74.5 187.5t187.5 74.5q112 0 185.5 -74t73.5 -189zM316 433q-66 0 -112.5 -38t-59.5 -102h341q-12 62 -56 101t-113 39z" />
    <glyph glyph-name="uni0436" unicode="&#x436;" horiz-adv-x="863" 
d="M729 0l-177 218h-77v-218h-87v218h-77l-177 -218h-109l213 259l-193 241h105l159 -201h79v201h87v-201h79l159 201h105l-193 -241l213 -259h-109z" />
    <glyph glyph-name="uni0437" unicode="&#x437;" horiz-adv-x="518" 
d="M394 259q72 -39 72 -115q0 -70 -57 -113t-151 -43t-150 44.5t-63 120.5h87q9 -46 40 -67t87 -21q60 0 90 22t30 56q0 72 -114 72h-71v73h80q90 0 90 73q0 35 -28.5 54.5t-78.5 19.5q-48 0 -79 -21t-38 -60h-86q8 71 63 114.5t140 43.5q86 0 139 -40t53 -106
q0 -70 -55 -107z" />
    <glyph glyph-name="uni0438" unicode="&#x438;" horiz-adv-x="624" 
d="M449 500h87v-500h-85v365l-276 -365h-87v500h85v-365z" />
    <glyph glyph-name="uni0439" unicode="&#x439;" horiz-adv-x="624" 
d="M445 674v-69h-264v69h264zM449 500h87v-500h-85v365l-276 -365h-87v500h85v-365z" />
    <glyph glyph-name="uni043A" unicode="&#x43a;" horiz-adv-x="566" 
d="M432 0l-173 216h-84v-216h-87v500h87v-203h83l158 203h105l-189 -241l209 -259h-109z" />
    <glyph glyph-name="uni043B" unicode="&#x43b;" horiz-adv-x="623" 
d="M173 500h362v-500h-87v419h-198l-25 -222q-13 -109 -56 -154t-133 -45h-16v87h21q44 0 67.5 27.5t30.5 91.5z" />
    <glyph glyph-name="uni043C" unicode="&#x43c;" horiz-adv-x="787" 
d="M744 0h-88l-73 364l-169 -334h-41l-169 334l-73 -364h-88l103 500h79l169 -336l168 336h79z" />
    <glyph glyph-name="uni043D" unicode="&#x43d;" horiz-adv-x="635" 
d="M460 500h87v-500h-87v215h-285v-215h-87v500h87v-204h285v204z" />
    <glyph glyph-name="uni043E" unicode="&#x43e;" horiz-adv-x="648" 
d="M324 -12q-116 0 -193 75t-77 187t77 187t193 75t193 -75t77 -187t-77 -187t-193 -75zM324 67q79 0 131 52.5t52 130.5q0 79 -52 131t-131 52t-131 -52t-52 -131q0 -78 52 -130.5t131 -52.5z" />
    <glyph glyph-name="uni043F" unicode="&#x43f;" horiz-adv-x="638" 
d="M88 500h462v-500h-87v419h-288v-419h-87v500z" />
    <glyph glyph-name="uni0440" unicode="&#x440;" horiz-adv-x="676" 
d="M362 512q111 0 185.5 -75t74.5 -187t-74.5 -187t-185.5 -75t-187 74v-255h-87v693h68l15 -67q76 79 191 79zM353 67q81 0 131.5 50.5t50.5 132.5t-50.5 132.5t-131.5 50.5t-131.5 -50.5t-50.5 -132.5t50.5 -132.5t131.5 -50.5z" />
    <glyph glyph-name="uni0441" unicode="&#x441;" horiz-adv-x="620" 
d="M318 -12q-115 0 -189.5 74t-74.5 188t74.5 188t189.5 74q93 0 161.5 -52.5t89.5 -144.5h-89q-17 57 -61 87t-104 30q-74 0 -124 -51.5t-50 -130.5t50 -130.5t124 -51.5q60 0 104 30t61 87h90q-21 -92 -90 -144.5t-162 -52.5z" />
    <glyph glyph-name="uni0442" unicode="&#x442;" horiz-adv-x="521" 
d="M496 500v-81h-192v-419h-87v419h-192v81h471z" />
    <glyph glyph-name="uni0443" unicode="&#x443;" horiz-adv-x="567" 
d="M459 500h94l-242 -519q-46 -98 -93.5 -136t-131.5 -38h-38v81h37q53 0 82.5 23t60.5 90l17 36l-223 463h95l173 -366z" />
    <glyph glyph-name="uni0444" unicode="&#x444;" horiz-adv-x="743" 
d="M689 250q0 -108 -76 -182.5t-198 -79.5v-181h-87v181q-122 5 -198 79.5t-76 182.5t76 182.5t198 79.5v221h87v-221q122 -5 198 -79.5t76 -182.5zM141 250q0 -78 50 -128.5t137 -54.5v366q-87 -4 -137 -54.5t-50 -128.5zM415 67q87 4 137 54.5t50 128.5t-50 128.5
t-137 54.5v-366z" />
    <glyph glyph-name="uni0445" unicode="&#x445;" horiz-adv-x="534" 
d="M514 0h-102l-145 203l-147 -203h-100l191 259l-175 241h102l128 -180l133 180h100l-178 -236z" />
    <glyph glyph-name="uni0446" unicode="&#x446;" horiz-adv-x="644" 
d="M532 81h72v-221h-85v140h-431v500h87v-419h270v419h87v-419z" />
    <glyph glyph-name="uni0447" unicode="&#x447;" horiz-adv-x="595" 
d="M420 500h87v-500h-87v185q-58 -25 -130 -25q-98 0 -155 57t-57 156v127h87v-120q0 -139 135 -139q70 0 120 30v229z" />
    <glyph glyph-name="uni0448" unicode="&#x448;" horiz-adv-x="851" 
d="M676 500h87v-500h-675v500h87v-419h207v419h87v-419h207v419z" />
    <glyph glyph-name="uni0449" unicode="&#x449;" horiz-adv-x="875" 
d="M763 81h72v-221h-85v140h-662v500h87v-419h207v419h87v-419h207v419h87v-419z" />
    <glyph glyph-name="uni044A" unicode="&#x44a;" horiz-adv-x="628" 
d="M391 333q88 0 139 -46.5t51 -120.5q0 -73 -51.5 -119.5t-138.5 -46.5h-224v423h-150v77h237v-167h137zM381 77q55 0 83 23.5t28 65.5q0 90 -111 90h-127v-179h127z" />
    <glyph glyph-name="uni044B" unicode="&#x44b;" horiz-adv-x="778" 
d="M312 333q88 0 139 -46.5t51 -120.5q0 -73 -51.5 -119.5t-138.5 -46.5h-224v500h87v-167h137zM603 500h87v-500h-87v500zM302 77q55 0 83 23.5t28 65.5q0 90 -111 90h-127v-179h127z" />
    <glyph glyph-name="uni044C" unicode="&#x44c;" horiz-adv-x="549" 
d="M312 333q88 0 139 -46.5t51 -120.5q0 -73 -51.5 -119.5t-138.5 -46.5h-224v500h87v-167h137zM302 77q55 0 83 23.5t28 65.5q0 90 -111 90h-127v-179h127z" />
    <glyph glyph-name="uni044D" unicode="&#x44d;" horiz-adv-x="628" 
d="M313 512q113 0 187 -74t74 -188t-74 -188t-187 -74q-99 0 -169 51.5t-92 140.5h90q17 -55 61.5 -84t106.5 -29q67 0 114.5 39.5t59.5 104.5h-240v77h241q-12 65 -60 105t-115 40q-62 0 -106.5 -29t-61.5 -84h-89q21 89 91 140.5t169 51.5z" />
    <glyph glyph-name="uni044E" unicode="&#x44e;" horiz-adv-x="850" 
d="M531 512q114 0 189.5 -75t75.5 -187t-75.5 -187t-189.5 -75q-103 0 -175.5 62t-86.5 159h-94v-209h-87v500h87v-210h94q14 97 86.5 159.5t175.5 62.5zM531 67q79 0 128.5 50.5t49.5 132.5t-49.5 132.5t-128.5 50.5t-128.5 -50.5t-49.5 -132.5t49.5 -132.5t128.5 -50.5z
" />
    <glyph glyph-name="uni044F" unicode="&#x44f;" horiz-adv-x="584" 
d="M243 500h253v-500h-87v184h-134l-124 -184h-101l132 196q-51 16 -81 56t-30 90q0 68 47.5 113t124.5 45zM160 342q0 -37 23.5 -59t67.5 -22h158v162h-158q-44 0 -67.5 -22t-23.5 -59z" />
    <glyph glyph-name="uni0451" unicode="&#x451;" horiz-adv-x="629" 
d="M159 590v103h104v-103h-104zM360 590v103h104v-103h-104zM575 249q0 -12 -2 -30h-431q10 -69 58.5 -110.5t121.5 -41.5q102 0 149 77h91q-67 -156 -241 -156q-117 0 -192 74.5t-75 187.5t74.5 187.5t187.5 74.5q112 0 185.5 -74t73.5 -189zM316 433q-66 0 -112.5 -38
t-59.5 -102h341q-12 62 -56 101t-113 39z" />
    <glyph glyph-name="uni0452" unicode="&#x452;" horiz-adv-x="636" 
d="M357 482q89 0 146.5 -62t57.5 -166v-264q0 -84 -49 -133.5t-131 -49.5h-36v81h25q104 0 104 102v242q0 82 -36.5 125.5t-104.5 43.5t-113.5 -51t-45.5 -128v-222h-87v581h-93v74h93v78h87v-78h188v-74h-188v-179q67 80 183 80z" />
    <glyph glyph-name="uni0453" unicode="&#x453;" horiz-adv-x="455" 
d="M372 715l-92 -152h-72l66 152h98zM427 500v-81h-252v-419h-87v500h339z" />
    <glyph glyph-name="uni0454" unicode="&#x454;" horiz-adv-x="620" 
d="M482 185h88q-21 -92 -90 -144.5t-162 -52.5q-115 0 -189.5 74t-74.5 188t74.5 188t189.5 74q93 0 161.5 -52.5t89.5 -144.5h-87q-18 58 -62.5 88t-104.5 30q-65 0 -112.5 -40t-59.5 -105h241v-77h-240q12 -64 59 -104t112 -40q60 0 104.5 30t62.5 88z" />
    <glyph glyph-name="uni0455" unicode="&#x455;" horiz-adv-x="526" 
d="M264 -12q-95 0 -151.5 44t-60.5 116h85q5 -39 39.5 -60t93.5 -21q117 0 117 75q0 14 -7 25t-16.5 18t-29.5 13t-34 9.5t-42 8.5q-35 7 -56 11.5t-51 16.5t-47 26.5t-29.5 39.5t-12.5 57q0 62 52.5 103.5t147.5 41.5q91 0 141.5 -41t58.5 -111h-82q-11 73 -120 73
q-57 0 -84 -18t-27 -46q0 -18 9.5 -31t31.5 -21.5t39 -13t51 -10.5q36 -7 55.5 -11.5t50.5 -16t47 -25.5t28.5 -38.5t12.5 -56.5q0 -67 -55 -112t-155 -45z" />
    <glyph glyph-name="uni0456" unicode="&#x456;" horiz-adv-x="263" 
d="M81 630v103h101v-103h-101zM88 0v500h87v-500h-87z" />
    <glyph glyph-name="uni0457" unicode="&#x457;" horiz-adv-x="263" 
d="M6 591v103h92v-103h-92zM163 590v103h92v-103h-92zM88 0v500h87v-500h-87z" />
    <glyph glyph-name="uni0458" unicode="&#x458;" horiz-adv-x="273" 
d="M91 630v103h101v-103h-101zM-40 -193v81h33q51 0 78 27.5t27 79.5v505h87v-511q0 -81 -49.5 -131.5t-128.5 -50.5h-47z" />
    <glyph glyph-name="uni0459" unicode="&#x459;" horiz-adv-x="874" 
d="M637 333q88 0 139 -46.5t51 -120.5q0 -73 -51.5 -119.5t-138.5 -46.5h-209v419h-178l-25 -222q-13 -109 -56 -154t-133 -45h-16v87h21q44 0 67.5 27t30.5 89l34 299h342v-167h122zM627 77q55 0 83 23.5t28 65.5q0 90 -111 90h-112v-179h112z" />
    <glyph glyph-name="uni045A" unicode="&#x45a;" horiz-adv-x="876" 
d="M664 303q72 0 118.5 -44t46.5 -108q0 -63 -46.5 -107t-118.5 -44h-239v226h-250v-226h-87v500h87v-197h250v197h87v-197h152zM654 77q40 0 63 21t23 53q0 33 -23 54t-63 21h-142v-149h142z" />
    <glyph glyph-name="uni045B" unicode="&#x45b;" horiz-adv-x="636" 
d="M357 482q89 0 146.5 -62t57.5 -166v-254h-87v232q0 82 -36.5 125.5t-104.5 43.5t-113.5 -51t-45.5 -128v-222h-87v581h-93v74h93v78h87v-78h188v-74h-188v-179q67 80 183 80z" />
    <glyph glyph-name="uni045C" unicode="&#x45c;" horiz-adv-x="566" 
d="M415 715l-92 -152h-72l66 152h98zM432 0l-173 216h-84v-216h-87v500h87v-203h83l158 203h105l-189 -241l209 -259h-109z" />
    <glyph glyph-name="uni045D" unicode="&#x45d;" horiz-adv-x="624" 
d="M357 563h-72l-92 152h98zM449 500h87v-500h-85v365l-276 -365h-87v500h85v-365z" />
    <glyph glyph-name="uni045E" unicode="&#x45e;" horiz-adv-x="567" 
d="M420 674v-69h-264v69h264zM459 500h94l-242 -519q-46 -98 -93.5 -136t-131.5 -38h-38v81h37q53 0 82.5 23t60.5 90l17 36l-223 463h95l173 -366z" />
    <glyph glyph-name="uni045F" unicode="&#x45f;" horiz-adv-x="631" 
d="M543 500v-500h-185v-140h-85v140h-185v500h87v-419h281v419h87z" />
    <glyph glyph-name="uni0490" unicode="&#x490;" horiz-adv-x="522" 
d="M480 805v-193h-286v-612h-92v700h288v105h90z" />
    <glyph glyph-name="uni0491" unicode="&#x491;" horiz-adv-x="455" 
d="M427 618v-199h-252v-419h-87v500h254v118h85z" />
    <glyph glyph-name="Wgrave" unicode="&#x1e80;" horiz-adv-x="1031" 
d="M482 778l-97 142h98l71 -142h-72zM912 700h96l-215 -700h-92l-186 561l-185 -561h-92l-215 700h98l168 -549l181 549h91l183 -548z" />
    <glyph glyph-name="wgrave" unicode="&#x1e81;" horiz-adv-x="832" 
d="M460 563h-72l-92 152h98zM726 500h87l-174 -500h-75l-148 384l-149 -384h-75l-173 500h90l126 -369l143 369h75l145 -371z" />
    <glyph glyph-name="Wacute" unicode="&#x1e82;" horiz-adv-x="1031" 
d="M470 778l71 142h98l-97 -142h-72zM912 700h96l-215 -700h-92l-186 561l-185 -561h-92l-215 700h98l168 -549l181 549h91l183 -548z" />
    <glyph glyph-name="wacute" unicode="&#x1e83;" horiz-adv-x="832" 
d="M537 715l-92 -152h-72l66 152h98zM726 500h87l-174 -500h-75l-148 384l-149 -384h-75l-173 500h90l126 -369l143 369h75l145 -371z" />
    <glyph glyph-name="Wdieresis" unicode="&#x1e84;" horiz-adv-x="1031" 
d="M353 784v103h104v-103h-104zM572 784v103h104v-103h-104zM912 700h96l-215 -700h-92l-186 561l-185 -561h-92l-215 700h98l168 -549l181 549h91l183 -548z" />
    <glyph glyph-name="wdieresis" unicode="&#x1e85;" horiz-adv-x="832" 
d="M367 693v-103h-104v103h104zM568 693v-103h-104v103h104zM726 500h87l-174 -500h-75l-148 384l-149 -384h-75l-173 500h90l126 -369l143 369h75l145 -371z" />
    <glyph glyph-name="uni1E9E" unicode="&#x1e9e;" horiz-adv-x="696" 
d="M411 421q111 -5 174 -62.5t63 -144.5q0 -97 -65.5 -155.5t-184.5 -58.5h-99v86h103q75 0 114.5 34t39.5 93t-39.5 93t-114.5 34h-103v73l173 201h-141q-152 0 -152 -150v-464h-92v471q0 107 61.5 168t167.5 61h266v-80z" />
    <glyph glyph-name="Ygrave" unicode="&#x1ef2;" horiz-adv-x="654" 
d="M294 778l-97 142h98l71 -142h-72zM630 700l-257 -422v-278h-92v278l-257 422h106l197 -326l197 326h106z" />
    <glyph glyph-name="ygrave" unicode="&#x1ef3;" horiz-adv-x="567" 
d="M332 563h-72l-92 152h98zM459 500h94l-242 -519q-46 -98 -93.5 -136t-131.5 -38h-38v81h37q53 0 82.5 23t60.5 90l17 36l-223 463h95l173 -366z" />
    <glyph glyph-name="endash" unicode="&#x2013;" horiz-adv-x="640" 
d="M68 238v81h504v-81h-504z" />
    <glyph glyph-name="emdash" unicode="&#x2014;" horiz-adv-x="897" 
d="M68 238v81h761v-81h-761z" />
    <glyph glyph-name="quoteleft" unicode="&#x2018;" horiz-adv-x="242" 
d="M121 621h52v-112h-104v106q0 63 27 101t75 49v-53q-50 -14 -50 -91z" />
    <glyph glyph-name="quoteright" unicode="&#x2019;" horiz-adv-x="242" 
d="M69 733h104v-106q0 -63 -27 -101t-75 -49v53q50 14 50 91h-52v112z" />
    <glyph glyph-name="quotesinglbase" unicode="&#x201a;" horiz-adv-x="240" 
d="M68 112h104v-106q0 -63 -27 -101t-75 -49v53q50 14 50 91h-52v112z" />
    <glyph glyph-name="quotedblleft" unicode="&#x201c;" horiz-adv-x="418" 
d="M171 714q-50 -14 -50 -91h52v-112h-104v106q0 63 27 101t75 49v-53zM297 623h52v-112h-104v106q0 63 27 101t75 49v-53q-50 -14 -50 -91z" />
    <glyph glyph-name="quotedblright" unicode="&#x201d;" horiz-adv-x="418" 
d="M69 621v112h104v-106q0 -63 -27 -101t-75 -49v53q50 14 50 91h-52zM245 733h104v-106q0 -63 -27 -101t-75 -49v53q50 14 50 91h-52v112z" />
    <glyph glyph-name="quotedblbase" unicode="&#x201e;" horiz-adv-x="416" 
d="M68 0v112h104v-106q0 -63 -27 -101t-75 -49v53q50 14 50 91h-52zM244 112h104v-106q0 -63 -27 -101t-75 -49v53q50 14 50 91h-52v112z" />
    <glyph glyph-name="dagger" unicode="&#x2020;" horiz-adv-x="557" 
d="M502 509v-80h-180v-469h-87v469h-180v80h180v191h87v-191h180z" />
    <glyph glyph-name="daggerdbl" unicode="&#x2021;" horiz-adv-x="567" 
d="M507 429h-180v-198h180v-80h-180v-191h-87v191h-180v80h180v198h-180v80h180v191h87v-191h180v-80z" />
    <glyph glyph-name="bullet" unicode="&#x2022;" horiz-adv-x="424" 
d="M212 201q-39 0 -65.5 26.5t-26.5 65.5q0 40 26.5 66t65.5 26q40 0 66 -26t26 -66q0 -39 -26 -65.5t-66 -26.5z" />
    <glyph glyph-name="ellipsis" unicode="&#x2026;" horiz-adv-x="590" 
d="M68 0v112h104v-112h-104zM243 0v112h104v-112h-104zM418 0v112h104v-112h-104z" />
    <glyph glyph-name="perthousand" unicode="&#x2030;" horiz-adv-x="1130" 
d="M193 411q-67 0 -110 42.5t-43 108.5q0 65 43 107.5t110 42.5t109.5 -42.5t42.5 -107.5q0 -66 -42.5 -108.5t-109.5 -42.5zM143 0l401 700h88l-401 -700h-88zM193 486q32 0 53.5 21.5t21.5 54.5q0 32 -21.5 53.5t-53.5 21.5t-53.5 -21.5t-21.5 -53.5q0 -33 21.5 -54.5
t53.5 -21.5zM572 -12q-67 0 -109.5 42.5t-42.5 107.5q0 66 42.5 108.5t109.5 42.5t110 -42.5t43 -108.5q0 -65 -43 -107.5t-110 -42.5zM937 -12q-67 0 -109.5 42.5t-42.5 107.5q0 66 42.5 108.5t109.5 42.5t110 -42.5t43 -108.5q0 -65 -43 -107.5t-110 -42.5zM572 63
q32 0 53.5 21.5t21.5 53.5q0 33 -21.5 54.5t-53.5 21.5t-53.5 -21.5t-21.5 -54.5q0 -32 21.5 -53.5t53.5 -21.5zM937 63q32 0 53.5 21.5t21.5 53.5q0 33 -21.5 54.5t-53.5 21.5t-53.5 -21.5t-21.5 -54.5q0 -32 21.5 -53.5t53.5 -21.5z" />
    <glyph glyph-name="guilsinglleft" unicode="&#x2039;" horiz-adv-x="377" 
d="M225 58l-167 202v14l167 202h104l-171 -209l171 -209h-104z" />
    <glyph glyph-name="guilsinglright" unicode="&#x203a;" horiz-adv-x="377" 
d="M152 58h-104l171 209l-171 209h104l167 -202v-14z" />
    <glyph glyph-name="fraction" unicode="&#x2044;" horiz-adv-x="160" 
d="M-163 -30l404 760h82l-404 -760h-82z" />
    <glyph glyph-name="Euro" unicode="&#x20ac;" horiz-adv-x="653" 
d="M470 624q-87 0 -152 -45.5t-92 -124.5h329l-19 -77h-325q-1 -9 -1 -27q0 -29 5 -61h299l-18 -77h-255q32 -64 92 -100.5t135 -36.5q57 0 108 18v-87q-51 -19 -120 -19q-110 0 -195 60.5t-121 164.5h-108l18 77h72q-4 27 -4 61q0 18 1 27h-84l18 77h77q29 118 119 188
t213 70q81 0 146 -29l-19 -83q-56 24 -119 24z" />
    <glyph glyph-name="uni20B9" unicode="&#x20b9;" horiz-adv-x="612" 
d="M547 700v-81h-123q41 -40 52 -99h71v-76h-70q-12 -83 -74.5 -133.5t-152.5 -50.5h-36l285 -260h-126l-295 270v73h167q57 0 94 27t47 74h-308v76h307q-11 46 -48 72.5t-92 26.5h-167v81h469z" />
    <glyph glyph-name="uni20BD" unicode="&#x20bd;" horiz-adv-x="639" 
d="M374 303h-152v-95h227v-76h-227v-132h-92v132h-90v76h90v95h-90v79h90v318h244q96 0 155.5 -57t59.5 -144t-59.5 -141.5t-155.5 -54.5zM222 616v-234h147q58 0 93 32.5t35 84.5t-35 84.5t-93 32.5h-147z" />
    <glyph glyph-name="uni2113" unicode="&#x2113;" horiz-adv-x="481" 
d="M341 155h80v-3q0 -76 -43 -120t-115 -44q-76 0 -119.5 45t-43.5 127v33q-43 -20 -81 -32v87q43 18 81 36v244q0 90 42.5 137t117.5 47t117.5 -43t42.5 -119q0 -84 -64 -167t-173 -147v-80q0 -42 21.5 -65.5t58.5 -23.5q36 0 57 22.5t21 62.5v3zM183 535v-204
q154 102 154 218q0 86 -76 86q-36 0 -57 -25.5t-21 -74.5z" />
    <glyph glyph-name="uni2116" unicode="&#x2116;" horiz-adv-x="1124" 
d="M552 168v532h92v-700h-86l-364 532v-532h-92v700h86zM894 288q-69 0 -114.5 44.5t-45.5 111.5t45.5 111.5t114.5 44.5t114.5 -44.5t45.5 -111.5t-45.5 -111.5t-114.5 -44.5zM894 528q-37 0 -61 -24t-24 -60t24 -60t61 -24t61 24t24 60t-24 60t-61 24zM734 111v76h320v-76
h-320z" />
    <glyph glyph-name="uni2117" unicode="&#x2117;" horiz-adv-x="860" 
d="M430 709q163 0 266.5 -101.5t103.5 -258.5t-103.5 -258.5t-266.5 -101.5t-266.5 101.5t-103.5 258.5t103.5 258.5t266.5 101.5zM430 60q130 0 212.5 81.5t82.5 207.5t-82.5 207.5t-212.5 81.5t-212.5 -81.5t-82.5 -207.5t82.5 -207.5t212.5 -81.5zM457 549
q69 0 110 -38.5t41 -98.5t-41 -98.5t-110 -38.5h-76v-139h-75v413h151zM456 346q35 0 55 18.5t20 47.5t-20 47.5t-55 18.5h-75v-132h75z" />
    <glyph glyph-name="trademark" unicode="&#x2122;" horiz-adv-x="610" 
d="M35 650v50h204v-50h-75v-199h-54v199h-75zM576 450h-55l-24 155l-71 -136h-23l-71 136l-24 -155h-55l40 250h50l72 -144l71 144h50z" />
    <glyph glyph-name="estimated" unicode="&#x212e;" horiz-adv-x="790" 
d="M728 301h-521v-182q78 -72 187 -72q61 0 118.5 23t96.5 63l72 -2q-46 -66 -124.5 -103.5t-162.5 -37.5q-140 0 -237 97t-97 237q0 137 98.5 235.5t235.5 98.5q134 0 235 -97.5t101 -226.5q0 -14 -2 -33zM394 601q-107 0 -187 -74v-171h375v171q-82 74 -188 74z" />
    <glyph glyph-name="uni2150" unicode="&#x2150;" horiz-adv-x="662" 
d="M460 730h82l-404 -760h-82zM98 320v302l-73 -35v72l76 41h68v-380h-71zM400 380h257v-68l-140 -312h-80l141 311h-178v69z" />
    <glyph glyph-name="uni2151" unicode="&#x2151;" horiz-adv-x="708" 
d="M460 730h82l-404 -760h-82zM98 320v302l-73 -35v72l76 41h68v-380h-71zM541 388q63 0 103 -37.5t40 -97.5t-45 -131l-77 -122h-85l72 118q1 2 3.5 5.5t3.5 5.5q-14 -2 -24 -2q-58 0 -95 35t-37 91q0 59 39.5 97t101.5 38zM542 188q31 0 50 18.5t19 47.5t-19 47.5
t-50 18.5t-50 -18.5t-19 -47.5t19 -47.5t50 -18.5z" />
    <glyph glyph-name="uni2152" unicode="&#x2152;" horiz-adv-x="976" 
d="M460 730h82l-404 -760h-82zM98 320v302l-73 -35v72l76 41h68v-380h-71zM787 388q71 0 112 -52.5t41 -144.5q0 -91 -41 -144.5t-112 -53.5t-112 53.5t-41 144.5q0 92 41 144.5t112 52.5zM404 339l76 41h68v-380h-71v302l-73 -35v72zM787 60q38 0 59.5 33.5t21.5 97.5
q0 63 -21.5 96.5t-59.5 33.5t-59.5 -33.5t-21.5 -96.5q0 -64 21.5 -97.5t59.5 -33.5z" />
    <glyph glyph-name="uni2153" unicode="&#x2153;" horiz-adv-x="707" 
d="M460 730h82l-404 -760h-82zM98 320v302l-73 -35v72l76 41h68v-380h-71zM626 196q50 -31 50 -87q0 -52 -36.5 -84t-96.5 -32q-59 0 -95 32t-38 85h72q5 -48 63 -48q27 0 42 13.5t15 37.5q0 23 -16 36t-45 13h-40v61h35q27 0 42.5 13.5t15.5 36.5t-13.5 35.5t-37.5 12.5
q-50 0 -55 -48h-71q1 52 36 83.5t91 31.5q55 0 88.5 -31t33.5 -81t-40 -80z" />
    <glyph glyph-name="uni2154" unicode="&#x2154;" horiz-adv-x="813" 
d="M566 730h82l-404 -760h-82zM33 381q95 78 137 125.5t42 82.5q0 24 -13.5 37.5t-38.5 13.5q-28 0 -44 -15t-16 -42v-8h-70v8q0 56 36 90.5t95 34.5q56 0 90 -30.5t34 -81.5q0 -86 -144 -207h149v-69h-257v61zM732 196q50 -31 50 -87q0 -52 -36.5 -84t-96.5 -32
q-59 0 -95 32t-38 85h72q5 -48 63 -48q27 0 42 13.5t15 37.5q0 23 -16 36t-45 13h-40v61h35q27 0 42.5 13.5t15.5 36.5t-13.5 35.5t-37.5 12.5q-50 0 -55 -48h-71q1 52 36 83.5t91 31.5q55 0 88.5 -31t33.5 -81t-40 -80z" />
    <glyph glyph-name="uni2155" unicode="&#x2155;" horiz-adv-x="692" 
d="M460 730h82l-404 -760h-82zM98 320v302l-73 -35v72l76 41h68v-380h-71zM556 243q54 0 87 -34t33 -90q0 -57 -36.5 -91.5t-96.5 -34.5q-56 0 -91 29t-40 75h72q11 -39 60 -39q27 0 43.5 16.5t16.5 45.5q0 30 -16.5 46t-45.5 16q-42 0 -55 -30h-68l21 228h217v-68h-153
l-7 -83q25 14 59 14z" />
    <glyph glyph-name="uni2156" unicode="&#x2156;" horiz-adv-x="798" 
d="M566 730h82l-404 -760h-82zM33 381q95 78 137 125.5t42 82.5q0 24 -13.5 37.5t-38.5 13.5q-28 0 -44 -15t-16 -42v-8h-70v8q0 56 36 90.5t95 34.5q56 0 90 -30.5t34 -81.5q0 -86 -144 -207h149v-69h-257v61zM662 243q54 0 87 -34t33 -90q0 -57 -36.5 -91.5t-96.5 -34.5
q-56 0 -91 29t-40 75h72q11 -39 60 -39q27 0 43.5 16.5t16.5 45.5q0 30 -16.5 46t-45.5 16q-42 0 -55 -30h-68l21 228h217v-68h-153l-7 -83q25 14 59 14z" />
    <glyph glyph-name="uni2157" unicode="&#x2157;" horiz-adv-x="801" 
d="M569 730h82l-404 -760h-82zM297 429q0 -52 -36.5 -84t-96.5 -32q-59 0 -95 32t-38 85h72q5 -48 63 -48q27 0 42 13.5t15 37.5q0 23 -16 36t-45 13h-40v61h35q27 0 42.5 13.5t15.5 36.5t-13.5 35.5t-37.5 12.5q-50 0 -55 -48h-71q1 52 36 83.5t91 31.5q55 0 88.5 -31
t33.5 -81t-40 -80q50 -31 50 -87zM665 243q54 0 87 -34t33 -90q0 -57 -36.5 -91.5t-96.5 -34.5q-56 0 -91 29t-40 75h72q11 -39 60 -39q27 0 43.5 16.5t16.5 45.5q0 30 -16.5 46t-45.5 16q-41 0 -55 -30h-68l21 228h217v-68h-153l-7 -83q25 14 59 14z" />
    <glyph glyph-name="uni2158" unicode="&#x2158;" horiz-adv-x="801" 
d="M569 730h82l-404 -760h-82zM205 320v70h-173v61l117 249h77l-113 -242h93l10 97h60v-97h37v-68h-37v-70h-71zM665 243q54 0 87 -34t33 -90q0 -57 -36.5 -91.5t-96.5 -34.5q-56 0 -91 29t-40 75h72q11 -39 60 -39q27 0 43.5 16.5t16.5 45.5q0 30 -16.5 46t-45.5 16
q-41 0 -55 -30h-68l21 228h217v-68h-153l-7 -83q25 14 59 14z" />
    <glyph glyph-name="uni2159" unicode="&#x2159;" horiz-adv-x="686" 
d="M460 730h82l-404 -760h-82zM98 320v302l-73 -35v72l76 41h68v-380h-71zM533 254q58 0 95 -35t37 -91q0 -59 -39.5 -97t-101.5 -38q-63 0 -103 37.5t-40 97.5q0 56 40 121l81 131h87l-74 -117l-8 -12q12 3 26 3zM523 61q31 0 50 18.5t19 47.5t-19 47.5t-50 18.5t-50 -18.5
t-19 -47.5t19 -47.5t50 -18.5z" />
    <glyph glyph-name="uni215A" unicode="&#x215a;" horiz-adv-x="780" 
d="M554 730h82l-404 -760h-82zM297 439q0 -57 -36.5 -91.5t-96.5 -34.5q-56 0 -91 29t-40 75h72q11 -39 60 -39q27 0 43.5 16.5t16.5 45.5q0 30 -16.5 46t-45.5 16q-41 0 -55 -30h-68l21 228h217v-68h-153l-7 -83q25 14 59 14q54 0 87 -34t33 -90zM627 254q58 0 95 -35
t37 -91q0 -59 -39.5 -97t-101.5 -38q-63 0 -103 37.5t-40 97.5q0 56 40 121l81 131h87l-74 -117l-8 -12q12 3 26 3zM617 61q31 0 50 18.5t19 47.5t-19 47.5t-50 18.5t-50 -18.5t-19 -47.5t19 -47.5t50 -18.5z" />
    <glyph glyph-name="oneeighth" unicode="&#x215b;" horiz-adv-x="720" 
d="M460 730h82l-404 -760h-82zM98 320v302l-73 -35v72l76 41h68v-380h-71zM640 203q49 -33 49 -90q0 -53 -39 -86.5t-101 -33.5t-100.5 33.5t-38.5 86.5q0 58 49 90q-38 30 -38 78q0 47 36 77t93 30t92.5 -30t35.5 -77q0 -50 -38 -78zM550 325q-26 0 -41.5 -13.5
t-15.5 -34.5t15.5 -34.5t41.5 -13.5t41 13.5t15 34.5t-15 34.5t-41 13.5zM550 58q30 0 47.5 16t17.5 41t-17.5 41t-47.5 16t-48 -16t-18 -41t18 -41t48 -16z" />
    <glyph glyph-name="threeeighths" unicode="&#x215c;" horiz-adv-x="829" 
d="M569 730h82l-404 -760h-82zM297 429q0 -52 -36.5 -84t-96.5 -32q-59 0 -95 32t-38 85h72q5 -48 63 -48q27 0 42 13.5t15 37.5q0 23 -16 36t-45 13h-40v61h35q27 0 42.5 13.5t15.5 36.5t-13.5 35.5t-37.5 12.5q-50 0 -55 -48h-71q1 52 36 83.5t91 31.5q55 0 88.5 -31
t33.5 -81t-40 -80q50 -31 50 -87zM749 203q49 -33 49 -90q0 -53 -39 -86.5t-101 -33.5t-100.5 33.5t-38.5 86.5q0 58 49 90q-38 30 -38 78q0 47 36 77t93 30t92.5 -30t35.5 -77q0 -50 -38 -78zM659 325q-26 0 -41.5 -13.5t-15.5 -34.5t15.5 -34.5t41.5 -13.5t41 13.5
t15 34.5t-15 34.5t-41 13.5zM659 58q30 0 47.5 16t17.5 41t-17.5 41t-47.5 16t-48 -16t-18 -41t18 -41t48 -16z" />
    <glyph glyph-name="fiveeighths" unicode="&#x215d;" horiz-adv-x="814" 
d="M554 730h82l-404 -760h-82zM297 439q0 -57 -36.5 -91.5t-96.5 -34.5q-56 0 -91 29t-40 75h72q11 -39 60 -39q27 0 43.5 16.5t16.5 45.5q0 30 -16.5 46t-45.5 16q-41 0 -55 -30h-68l21 228h217v-68h-153l-7 -83q25 14 59 14q54 0 87 -34t33 -90zM734 203q49 -33 49 -90
q0 -53 -39 -86.5t-101 -33.5t-100.5 33.5t-38.5 86.5q0 58 49 90q-38 30 -38 78q0 47 36 77t93 30t92.5 -30t35.5 -77q0 -50 -38 -78zM644 325q-26 0 -41.5 -13.5t-15.5 -34.5t15.5 -34.5t41.5 -13.5t41 13.5t15 34.5t-15 34.5t-41 13.5zM644 58q30 0 47.5 16t17.5 41
t-17.5 41t-47.5 16t-48 -16t-18 -41t18 -41t48 -16z" />
    <glyph glyph-name="seveneighths" unicode="&#x215e;" horiz-adv-x="742" 
d="M482 730h82l-404 -760h-82zM138 320h-80l141 311h-178v69h257v-68zM662 203q49 -33 49 -90q0 -53 -39 -86.5t-101 -33.5t-100.5 33.5t-38.5 86.5q0 58 49 90q-38 30 -38 78q0 47 36 77t93 30t92.5 -30t35.5 -77q0 -50 -38 -78zM572 325q-26 0 -41.5 -13.5t-15.5 -34.5
t15.5 -34.5t41.5 -13.5t41 13.5t15 34.5t-15 34.5t-41 13.5zM572 58q30 0 47.5 16t17.5 41t-17.5 41t-47.5 16t-48 -16t-18 -41t18 -41t48 -16z" />
    <glyph glyph-name="uni215F" unicode="&#x215f;" horiz-adv-x="379" 
d="M460 730h82l-404 -760h-82zM98 320v302l-73 -35v72l76 41h68v-380h-71z" />
    <glyph glyph-name="uni2189" unicode="&#x2189;" horiz-adv-x="866" 
d="M619 730h82l-404 -760h-82zM342 511q0 -91 -41 -144.5t-112 -53.5t-112 53.5t-41 144.5q0 92 41 144.5t112 52.5t112 -52.5t41 -144.5zM189 380q38 0 59.5 33.5t21.5 97.5q0 63 -21.5 96.5t-59.5 33.5t-59.5 -33.5t-21.5 -96.5q0 -64 21.5 -97.5t59.5 -33.5zM785 196
q50 -31 50 -87q0 -52 -36.5 -84t-96.5 -32q-59 0 -95 32t-38 85h72q5 -48 63 -48q27 0 42 13.5t15 37.5q0 23 -16 36t-45 13h-40v61h35q27 0 42.5 13.5t15.5 36.5t-13.5 35.5t-37.5 12.5q-50 0 -55 -48h-71q1 52 36 83.5t91 31.5q55 0 88.5 -31t33.5 -81t-40 -80z" />
    <glyph glyph-name="arrowleft" unicode="&#x2190;" horiz-adv-x="800" 
d="M687 373v-82h-447l186 -184l-57 -51l-271 270v12l271 270l57 -51l-186 -184h447z" />
    <glyph glyph-name="arrowup" unicode="&#x2191;" horiz-adv-x="800" 
d="M676 375l-51 -57l-184 186v-447h-82v447l-184 -186l-51 57l270 271h12z" />
    <glyph glyph-name="arrowright" unicode="&#x2192;" horiz-adv-x="800" 
d="M431 608l271 -270v-12l-271 -270l-57 51l186 184h-447v82h447l-186 184z" />
    <glyph glyph-name="arrowdown" unicode="&#x2193;" horiz-adv-x="800" 
d="M625 386l51 -57l-270 -271h-12l-270 271l51 57l184 -186v447h82v-447z" />
    <glyph glyph-name="uni2196" unicode="&#x2196;" horiz-adv-x="800" 
d="M670 153l-58 -58l-350 354v-276h-76v400l10 10h400v-76h-277z" />
    <glyph glyph-name="uni2197" unicode="&#x2197;" horiz-adv-x="800" 
d="M610 583l10 -10v-400h-76v276l-350 -354l-58 58l351 354h-277v76h400z" />
    <glyph glyph-name="uni2198" unicode="&#x2198;" horiz-adv-x="800" 
d="M544 504h76v-400l-10 -10h-400v76h277l-351 354l58 58l350 -354v276z" />
    <glyph glyph-name="uni2199" unicode="&#x2199;" horiz-adv-x="800" 
d="M660 525l-351 -354h277v-76h-400l-10 10v400h76v-276l350 354z" />
    <glyph glyph-name="partialdiff" unicode="&#x2202;" horiz-adv-x="622" 
d="M255 711q154 0 234 -82.5t80 -247.5q0 -183 -76.5 -288t-229.5 -105q-108 0 -168 61t-60 156q0 111 77 190.5t202 79.5q105 0 165 -65q-4 217 -232 217q-49 0 -113 -11v84q64 11 121 11zM274 72q79 0 134 54t55 133q0 59 -40 96.5t-107 37.5q-81 0 -135 -52.5t-54 -128.5
q0 -65 39.5 -102.5t107.5 -37.5z" />
    <glyph glyph-name="emptyset" unicode="&#x2205;" horiz-adv-x="648" 
d="M484 464q52 -36 81 -91.5t29 -122.5q0 -112 -77 -187t-193 -75q-49 0 -97 16l-36 -65h-81l54 97q-52 36 -81 91.5t-29 122.5q0 112 77 187t193 75q49 0 97 -16l36 65h81zM324 439q-83 0 -136 -53t-53 -136q0 -95 67 -148l183 328q-29 9 -61 9zM324 61q83 0 136 53t53 136
q0 95 -67 149l-183 -329q29 -9 61 -9z" />
    <glyph glyph-name="product" unicode="&#x220f;" horiz-adv-x="732" 
d="M699 700v-81h-105v-779h-87v779h-282v-779h-87v779h-105v81h666z" />
    <glyph glyph-name="summation" unicode="&#x2211;" horiz-adv-x="595" 
d="M167 -79h393v-81h-508v69l268 367l-259 355v69h488v-81h-373l244 -336v-14z" />
    <glyph glyph-name="minus" unicode="&#x2212;" horiz-adv-x="525" 
d="M34 300v82h457v-82h-457z" />
    <glyph glyph-name="radical" unicode="&#x221a;" horiz-adv-x="671" 
d="M591 750h91l-308 -750h-76l-155 408h-130v77h188l135 -361z" />
    <glyph glyph-name="infinity" unicode="&#x221e;" horiz-adv-x="994" 
d="M731 531q89 0 146 -55.5t57 -140.5t-57 -140.5t-146 -55.5q-69 0 -124 35.5t-110 99.5q-56 -63 -110.5 -99t-123.5 -36q-88 0 -145.5 55.5t-57.5 140.5t57.5 140.5t145.5 55.5q69 0 123.5 -36t110.5 -99q57 64 111 99.5t123 35.5zM268 217q47 0 86.5 30t90.5 88
q-51 58 -90.5 88t-86.5 30q-57 0 -91.5 -32t-34.5 -86t34.5 -86t91.5 -32zM727 217q57 0 91 32t34 86t-34 86t-91 32q-47 0 -87 -30t-90 -88q51 -58 90.5 -88t86.5 -30z" />
    <glyph glyph-name="integral" unicode="&#x222b;" horiz-adv-x="387" 
d="M-9 -302v79h32q65 0 96 33t31 104v800q0 96 52.5 149.5t144.5 53.5h49v-79h-32q-65 0 -96 -33t-31 -104v-800q0 -96 -52.5 -149.5t-144.5 -53.5h-49z" />
    <glyph glyph-name="approxequal" unicode="&#x2248;" horiz-adv-x="526" 
d="M353 358q-34 0 -61.5 12t-41.5 27t-33 27t-38 12q-49 0 -49 -57v-16h-80v20q0 62 33 97t90 35q34 0 61.5 -12t41.5 -27t33 -27t38 -12q49 0 49 56v17h80v-20q0 -62 -33 -97t-90 -35zM353 138q-34 0 -61.5 12t-41.5 27t-33 27t-38 12q-49 0 -49 -57v-16h-80v20q0 62 33 97
t90 35q34 0 61.5 -12t41.5 -27t33 -27t38 -12q49 0 49 56v17h80v-20q0 -62 -33 -97t-90 -35z" />
    <glyph glyph-name="notequal" unicode="&#x2260;" horiz-adv-x="525" 
d="M481 390h-162l-32 -118h194v-82h-215l-38 -142h-80l38 142h-142v82h163l32 118h-195v82h216l38 142h80l-38 -142h141v-82z" />
    <glyph glyph-name="lessequal" unicode="&#x2264;" horiz-adv-x="551" 
d="M476 630v-90l-325 -159l325 -159v-90l-430 213v72zM51 0v79h425v-79h-425z" />
    <glyph glyph-name="greaterequal" unicode="&#x2265;" horiz-adv-x="551" 
d="M75 630l430 -213v-72l-430 -213v90l325 159l-325 159v90zM75 0v79h425v-79h-425z" />
    <glyph glyph-name="lozenge" unicode="&#x25ca;" horiz-adv-x="574" 
d="M252 0l-209 344v16l209 340h71l208 -340v-16l-208 -344h-71zM287 81l161 271l-161 267l-161 -267z" />
    <glyph glyph-name="germandbls.calt" horiz-adv-x="696" 
d="M411 421q111 -5 174 -62.5t63 -144.5q0 -97 -65.5 -155.5t-184.5 -58.5h-99v86h103q75 0 114.5 34t39.5 93t-39.5 93t-114.5 34h-103v73l173 201h-141q-152 0 -152 -150v-464h-92v471q0 107 61.5 168t167.5 61h266v-80z" />
    <glyph glyph-name="i.loclTRK" horiz-adv-x="263" 
d="M82 590v103h98v-103h-98zM88 0v500h87v-500h-87z" />
    <glyph glyph-name="uni0414.loclBGR" horiz-adv-x="765" 
d="M672 88h58v-230h-88v142h-519v-142h-88v230h59l243 612h87zM381 571l-191 -483h384z" />
    <glyph glyph-name="uni041B.loclBGR" horiz-adv-x="675" 
d="M655 0h-98l-219 572l-220 -572h-98l273 700h89z" />
    <glyph glyph-name="uni0414.ss01" horiz-adv-x="765" 
d="M672 88h58v-230h-88v142h-519v-142h-88v230h59l243 612h87zM381 571l-191 -483h384z" />
    <glyph glyph-name="uni041B.ss01" horiz-adv-x="675" 
d="M655 0h-98l-219 572l-220 -572h-98l273 700h89z" />
    <glyph glyph-name="uni0432.loclBGR" horiz-adv-x="656" 
d="M460 399q63 -26 95.5 -75.5t32.5 -114.5q0 -96 -67 -158.5t-184 -62.5q-123 0 -191 74.5t-68 217.5v182q0 133 66 208t189 75q98 0 160.5 -50.5t62.5 -139.5q0 -108 -96 -156zM331 666q-166 0 -166 -204v-60l146 21q77 11 117.5 39.5t40.5 90.5q0 57 -37 85t-101 28z
M341 67q77 0 118.5 39.5t41.5 104.5q0 58 -39.5 98t-111.5 40q-18 0 -38 -3l-147 -21v-43q0 -215 176 -215z" />
    <glyph glyph-name="uni0433.loclBGR" horiz-adv-x="554" 
d="M273 -12q-108 0 -159.5 39t-51.5 106q0 33 13 59t29.5 40.5t48.5 26.5t52 17t58 12q29 6 42.5 9t34.5 9.5t31 13.5t18 19t8 27q0 30 -27 48.5t-83 18.5q-118 0 -126 -82h-87q5 73 58.5 117t150.5 44q96 0 148.5 -40.5t52.5 -101.5q0 -22 -4 -40t-14.5 -32t-19.5 -24
t-27.5 -19t-29.5 -14t-34.5 -11t-34 -8t-35.5 -7q-87 -17 -110 -32q-26 -17 -26 -47q0 -69 126 -69q68 0 98 23t35 71h87q-11 -173 -222 -173z" />
    <glyph glyph-name="uni0434.loclBGR" horiz-adv-x="677" 
d="M521 500h68v-444q0 -124 -70.5 -192.5t-197.5 -68.5q-97 0 -162 44t-84 119h91q33 -84 157 -84q84 0 131.5 42.5t47.5 129.5v31q-77 -74 -188 -74t-185.5 73.5t-74.5 181.5t74.5 181t185.5 73q115 0 193 -78zM324 83q80 0 131 49.5t51 125.5q0 75 -51 124.5t-131 49.5
q-81 0 -132 -49t-51 -125t51 -125.5t132 -49.5z" />
    <glyph glyph-name="uni0436.loclBGR" horiz-adv-x="863" 
d="M729 0l-177 218h-77v-218h-87v218h-77l-177 -218h-109l213 259l-193 241h105l159 -201h79v434h87v-434h79l159 201h105l-193 -241l213 -259h-109z" />
    <glyph glyph-name="uni0437.loclBGR" horiz-adv-x="572" 
d="M427 174q48 -23 76 -68t28 -106q0 -87 -66 -146t-176 -59q-113 0 -179.5 56t-75.5 149h86q11 -59 54.5 -91.5t111.5 -32.5q77 0 117.5 35t40.5 94q0 58 -37.5 91.5t-108.5 33.5h-92v81h88q61 0 92.5 28t31.5 78q0 51 -34.5 82.5t-96.5 31.5q-66 0 -105.5 -31.5
t-49.5 -89.5h-84q5 92 69.5 147t166.5 55q100 0 160.5 -54t60.5 -135q0 -93 -78 -149z" />
    <glyph glyph-name="uni0438.loclBGR" horiz-adv-x="644" 
d="M469 500h87v-500h-68l-17 72q-66 -84 -182 -84q-94 0 -147.5 58t-53.5 160v294h87v-276q0 -84 34.5 -119.5t103.5 -35.5q66 0 111 52.5t45 131.5v247z" />
    <glyph glyph-name="uni0439.loclBGR" horiz-adv-x="644" 
d="M191 605v69h264v-69h-264zM469 500h87v-500h-68l-17 72q-66 -84 -182 -84q-94 0 -147.5 58t-53.5 160v294h87v-276q0 -84 34.5 -119.5t103.5 -35.5q66 0 111 52.5t45 131.5v247z" />
    <glyph glyph-name="uni045D.loclBGR" horiz-adv-x="644" 
d="M295 563l-92 152h98l66 -152h-72zM469 500h87v-500h-68l-17 72q-66 -84 -182 -84q-94 0 -147.5 58t-53.5 160v294h87v-276q0 -84 34.5 -119.5t103.5 -35.5q66 0 111 52.5t45 131.5v247z" />
    <glyph glyph-name="uni043A.loclBGR" horiz-adv-x="566" 
d="M432 0l-175 218h-82v-218h-87v733h87v-434h84l157 201h105l-189 -241l209 -259h-109z" />
    <glyph glyph-name="uni043B.loclBGR" horiz-adv-x="549" 
d="M531 0h-92l-167 389l-164 -389h-90l212 500h84z" />
    <glyph glyph-name="uni043F.loclBGR" horiz-adv-x="643" 
d="M358 512q89 0 146.5 -62t57.5 -166v-284h-87v266q0 81 -36 123t-105 42q-68 0 -113.5 -51t-45.5 -128v-252h-87v500h68l16 -72q67 84 186 84z" />
    <glyph glyph-name="uni0442.loclBGR" horiz-adv-x="953" 
d="M681 512q87 0 139 -55t52 -151v-306h-87v277q0 75 -31.5 114.5t-91.5 39.5q-57 0 -97.5 -50.5t-40.5 -123.5v-257h-87v277q0 74 -30.5 114t-87.5 40q-59 0 -101.5 -50t-42.5 -124v-257h-87v500h68l15 -68q66 80 169 80q111 0 160 -94q29 44 77 69t104 25z" />
    <glyph glyph-name="uni0446.loclBGR" horiz-adv-x="681" 
d="M556 173q0 -60 23.5 -86t74.5 -26v-201h-85v146q-62 14 -84 78q-63 -96 -196 -96q-91 0 -146 60.5t-55 169.5v282h87v-270q0 -81 35.5 -121t100.5 -40q68 0 113 51.5t45 131.5v248h87v-327z" />
    <glyph glyph-name="uni0448.loclBGR" horiz-adv-x="960" 
d="M785 500h87v-500h-68l-15 68q-66 -80 -169 -80q-112 0 -161 96q-64 -96 -180 -96q-87 0 -139 55t-52 151v306h87v-277q0 -75 31.5 -114.5t91.5 -39.5q57 0 97.5 50.5t40.5 123.5v257h87v-277q0 -74 30.5 -114t87.5 -40q59 0 101.5 50t42.5 124v257z" />
    <glyph glyph-name="uni0449.loclBGR" horiz-adv-x="997" 
d="M872 173q0 -60 23.5 -86t74.5 -26v-201h-85v146q-59 14 -82 76q-61 -94 -183 -94q-112 0 -161 96q-64 -96 -180 -96q-87 0 -139 55t-52 151v306h87v-277q0 -75 31.5 -114.5t91.5 -39.5q57 0 97.5 50.5t40.5 123.5v257h87v-277q0 -74 30.5 -114t87.5 -40q59 0 101.5 50
t42.5 124v257h87v-327z" />
    <glyph glyph-name="uni044E.loclBGR" horiz-adv-x="850" 
d="M531 512q114 0 189.5 -75t75.5 -187t-75.5 -187t-189.5 -75q-103 0 -175.5 62t-86.5 159h-94v-209h-87v733h87v-443h94q14 97 86.5 159.5t175.5 62.5zM531 67q79 0 128.5 50.5t49.5 132.5t-49.5 132.5t-128.5 50.5t-128.5 -50.5t-49.5 -132.5t49.5 -132.5t128.5 -50.5z
" />
    <glyph glyph-name="uni0432.ss01" horiz-adv-x="656" 
d="M460 399q63 -26 95.5 -75.5t32.5 -114.5q0 -96 -67 -158.5t-184 -62.5q-123 0 -191 74.5t-68 217.5v182q0 133 66 208t189 75q98 0 160.5 -50.5t62.5 -139.5q0 -108 -96 -156zM331 666q-166 0 -166 -204v-60l146 21q77 11 117.5 39.5t40.5 90.5q0 57 -37 85t-101 28z
M341 67q77 0 118.5 39.5t41.5 104.5q0 58 -39.5 98t-111.5 40q-18 0 -38 -3l-147 -21v-43q0 -215 176 -215z" />
    <glyph glyph-name="uni0433.ss01" horiz-adv-x="554" 
d="M273 -12q-108 0 -159.5 39t-51.5 106q0 33 13 59t29.5 40.5t48.5 26.5t52 17t58 12q29 6 42.5 9t34.5 9.5t31 13.5t18 19t8 27q0 30 -27 48.5t-83 18.5q-118 0 -126 -82h-87q5 73 58.5 117t150.5 44q96 0 148.5 -40.5t52.5 -101.5q0 -22 -4 -40t-14.5 -32t-19.5 -24
t-27.5 -19t-29.5 -14t-34.5 -11t-34 -8t-35.5 -7q-87 -17 -110 -32q-26 -17 -26 -47q0 -69 126 -69q68 0 98 23t35 71h87q-11 -173 -222 -173z" />
    <glyph glyph-name="uni0434.ss01" horiz-adv-x="677" 
d="M521 500h68v-444q0 -124 -70.5 -192.5t-197.5 -68.5q-97 0 -162 44t-84 119h91q33 -84 157 -84q84 0 131.5 42.5t47.5 129.5v31q-77 -74 -188 -74t-185.5 73.5t-74.5 181.5t74.5 181t185.5 73q115 0 193 -78zM324 83q80 0 131 49.5t51 125.5q0 75 -51 124.5t-131 49.5
q-81 0 -132 -49t-51 -125t51 -125.5t132 -49.5z" />
    <glyph glyph-name="uni0436.ss01" horiz-adv-x="863" 
d="M729 0l-177 218h-77v-218h-87v218h-77l-177 -218h-109l213 259l-193 241h105l159 -201h79v434h87v-434h79l159 201h105l-193 -241l213 -259h-109z" />
    <glyph glyph-name="uni0437.ss01" horiz-adv-x="572" 
d="M427 174q48 -23 76 -68t28 -106q0 -87 -66 -146t-176 -59q-113 0 -179.5 56t-75.5 149h86q11 -59 54.5 -91.5t111.5 -32.5q77 0 117.5 35t40.5 94q0 58 -37.5 91.5t-108.5 33.5h-92v81h88q61 0 92.5 28t31.5 78q0 51 -34.5 82.5t-96.5 31.5q-66 0 -105.5 -31.5
t-49.5 -89.5h-84q5 92 69.5 147t166.5 55q100 0 160.5 -54t60.5 -135q0 -93 -78 -149z" />
    <glyph glyph-name="uni0438.ss01" horiz-adv-x="644" 
d="M469 500h87v-500h-68l-17 72q-66 -84 -182 -84q-94 0 -147.5 58t-53.5 160v294h87v-276q0 -84 34.5 -119.5t103.5 -35.5q66 0 111 52.5t45 131.5v247z" />
    <glyph glyph-name="uni0439.ss01" horiz-adv-x="644" 
d="M191 605v69h264v-69h-264zM469 500h87v-500h-68l-17 72q-66 -84 -182 -84q-94 0 -147.5 58t-53.5 160v294h87v-276q0 -84 34.5 -119.5t103.5 -35.5q66 0 111 52.5t45 131.5v247z" />
    <glyph glyph-name="uni045D.ss01" horiz-adv-x="644" 
d="M295 563l-92 152h98l66 -152h-72zM469 500h87v-500h-68l-17 72q-66 -84 -182 -84q-94 0 -147.5 58t-53.5 160v294h87v-276q0 -84 34.5 -119.5t103.5 -35.5q66 0 111 52.5t45 131.5v247z" />
    <glyph glyph-name="uni043A.ss01" horiz-adv-x="566" 
d="M432 0l-175 218h-82v-218h-87v733h87v-434h84l157 201h105l-189 -241l209 -259h-109z" />
    <glyph glyph-name="uni043B.ss01" horiz-adv-x="549" 
d="M531 0h-92l-167 389l-164 -389h-90l212 500h84z" />
    <glyph glyph-name="uni043F.ss01" horiz-adv-x="643" 
d="M358 512q89 0 146.5 -62t57.5 -166v-284h-87v266q0 81 -36 123t-105 42q-68 0 -113.5 -51t-45.5 -128v-252h-87v500h68l16 -72q67 84 186 84z" />
    <glyph glyph-name="uni0442.ss01" horiz-adv-x="953" 
d="M681 512q87 0 139 -55t52 -151v-306h-87v277q0 75 -31.5 114.5t-91.5 39.5q-57 0 -97.5 -50.5t-40.5 -123.5v-257h-87v277q0 74 -30.5 114t-87.5 40q-59 0 -101.5 -50t-42.5 -124v-257h-87v500h68l15 -68q66 80 169 80q111 0 160 -94q29 44 77 69t104 25z" />
    <glyph glyph-name="uni0446.ss01" horiz-adv-x="681" 
d="M556 173q0 -60 23.5 -86t74.5 -26v-201h-85v146q-62 14 -84 78q-63 -96 -196 -96q-91 0 -146 60.5t-55 169.5v282h87v-270q0 -81 35.5 -121t100.5 -40q68 0 113 51.5t45 131.5v248h87v-327z" />
    <glyph glyph-name="uni0448.ss01" horiz-adv-x="960" 
d="M785 500h87v-500h-68l-15 68q-66 -80 -169 -80q-112 0 -161 96q-64 -96 -180 -96q-87 0 -139 55t-52 151v306h87v-277q0 -75 31.5 -114.5t91.5 -39.5q57 0 97.5 50.5t40.5 123.5v257h87v-277q0 -74 30.5 -114t87.5 -40q59 0 101.5 50t42.5 124v257z" />
    <glyph glyph-name="uni0449.ss01" horiz-adv-x="997" 
d="M872 173q0 -60 23.5 -86t74.5 -26v-201h-85v146q-59 14 -82 76q-61 -94 -183 -94q-112 0 -161 96q-64 -96 -180 -96q-87 0 -139 55t-52 151v306h87v-277q0 -75 31.5 -114.5t91.5 -39.5q57 0 97.5 50.5t40.5 123.5v257h87v-277q0 -74 30.5 -114t87.5 -40q59 0 101.5 50
t42.5 124v257h87v-327z" />
    <glyph glyph-name="uni044E.ss01" horiz-adv-x="850" 
d="M531 512q114 0 189.5 -75t75.5 -187t-75.5 -187t-189.5 -75q-103 0 -175.5 62t-86.5 159h-94v-209h-87v733h87v-443h94q14 97 86.5 159.5t175.5 62.5zM531 67q79 0 128.5 50.5t49.5 132.5t-49.5 132.5t-128.5 50.5t-128.5 -50.5t-49.5 -132.5t49.5 -132.5t128.5 -50.5z
" />
    <glyph glyph-name="zero.osf" horiz-adv-x="676" 
d="M338 -12q-121 0 -200.5 79t-79.5 198t79.5 198t200.5 79t200.5 -79t79.5 -198t-79.5 -198t-200.5 -79zM338 69q83 0 137 55t54 141q0 87 -53.5 141.5t-137.5 54.5t-137.5 -54.5t-53.5 -141.5q0 -86 54 -141t137 -55z" />
    <glyph glyph-name="one.osf" horiz-adv-x="340" 
d="M173 530h75v-530h-89v433l-114 -55v86z" />
    <glyph glyph-name="two.osf" horiz-adv-x="525" 
d="M215 81h248v-81h-396v73q157 103 225 167.5t68 132.5q0 39 -26 63.5t-69 24.5q-52 0 -79 -27t-27 -73v-12h-88v12q0 78 52.5 129.5t140.5 51.5q84 0 134.5 -45t50.5 -124q0 -77 -63 -147.5t-171 -144.5z" />
    <glyph glyph-name="three.osf" horiz-adv-x="520" 
d="M364 220q49 -24 76.5 -68t27.5 -102q0 -93 -60 -149.5t-157 -56.5q-95 0 -154 52t-61 132h87q6 -47 39 -75t91 -28t92 32.5t34 90.5t-34.5 91.5t-99.5 33.5h-65v80h65q52 0 82.5 29.5t30.5 78.5q0 46 -28.5 72.5t-77.5 26.5q-48 0 -77.5 -28t-33.5 -75h-90q2 80 58 132
t144 52t141 -47.5t53 -125.5q0 -98 -83 -148z" />
    <glyph glyph-name="four.osf" horiz-adv-x="498" 
d="M488 81v-81h-68v-144h-89v144h-301v72l220 458h96l-215 -449h200v167h89v-167h68z" />
    <glyph glyph-name="five.osf" horiz-adv-x="520" 
d="M283 278q90 0 145.5 -58.5t55.5 -156.5q0 -100 -60.5 -159t-162.5 -59q-91 0 -148 49.5t-63 125.5h85q6 -41 39 -67.5t88 -26.5q61 0 97 36t36 100q0 66 -36.5 101t-95.5 35q-81 0 -113 -55h-82l36 387h338v-81h-264l-18 -203q51 32 123 32z" />
    <glyph glyph-name="six.osf" horiz-adv-x="572" 
d="M302 431q96 0 158 -61.5t62 -156.5q0 -99 -64.5 -162t-168.5 -63q-105 0 -171 62t-66 157q0 54 17.5 105.5t63.5 119.5l156 233h99q-137 -197 -165 -246q35 12 79 12zM289 69q65 0 104.5 39.5t39.5 104.5q0 61 -40 100t-105 39t-105 -39t-40 -101q0 -64 40 -103.5
t106 -39.5z" />
    <glyph glyph-name="seven.osf" horiz-adv-x="477" 
d="M30 530h409v-71l-258 -603h-91l252 591h-312v83z" />
    <glyph glyph-name="eight.osf" horiz-adv-x="586" 
d="M423 355q46 -25 74.5 -67.5t28.5 -97.5q0 -90 -62 -146t-171 -56t-171 56t-62 146q0 55 28.5 97.5t74.5 67.5q-78 53 -78 145q0 76 56.5 126.5t151.5 50.5t151.5 -50.5t56.5 -126.5q0 -92 -78 -145zM293 598q-56 0 -88.5 -29t-32.5 -75q0 -45 32.5 -74t88.5 -29t88.5 29
t32.5 74q0 46 -32.5 75t-88.5 29zM293 69q67 0 105.5 34t38.5 87q0 54 -38.5 88t-105.5 34t-105.5 -34t-38.5 -88q0 -53 38.5 -87t105.5 -34z" />
    <glyph glyph-name="nine.osf" horiz-adv-x="572" 
d="M285 542q105 0 171 -62t66 -157q0 -55 -17.5 -106t-62.5 -119l-161 -242h-100q134 194 168 252q-30 -9 -71 -9q-100 0 -163 61.5t-63 156.5q0 99 64.5 162t168.5 63zM286 178q65 0 105 39t40 101q0 64 -40 103.5t-106 39.5q-65 0 -104.5 -39.5t-39.5 -104.5
q0 -61 40 -100t105 -39z" />
    <glyph glyph-name="zero.tf" horiz-adv-x="575" 
d="M288 -12q-114 0 -186.5 92.5t-72.5 269.5t72.5 269.5t186.5 92.5t186 -92.5t72 -269.5t-72 -269.5t-186 -92.5zM288 76q74 0 120 66.5t46 207.5t-46 207.5t-120 66.5q-75 0 -121 -66.5t-46 -207.5t46 -207.5t121 -66.5z" />
    <glyph glyph-name="one.tf" horiz-adv-x="575" 
d="M359 88h146v-88h-395v88h157v506l-147 -75v100l161 81h78v-612z" />
    <glyph glyph-name="two.tf" horiz-adv-x="575" 
d="M193 88h322v-88h-453v78q143 137 208.5 206t100.5 126t35 107t-31.5 78.5t-86.5 28.5q-62 0 -96 -32.5t-34 -87.5v-17h-91v17q0 95 58.5 151.5t161.5 56.5q95 0 153.5 -52.5t58.5 -138.5q0 -89 -70.5 -183t-235.5 -250z" />
    <glyph glyph-name="three.tf" horiz-adv-x="575" 
d="M408 373q104 -56 104 -173q0 -94 -63.5 -153t-170.5 -59q-102 0 -164.5 57t-64.5 151h92q2 -58 38 -90t102 -32q65 0 102 34.5t37 91.5t-37.5 91t-103.5 34h-70v84h69q56 0 87 29t31 81q0 48 -31 77.5t-84 29.5q-54 0 -88 -30t-36 -77h-93q2 84 62.5 138.5t154.5 54.5
q92 0 149.5 -53.5t57.5 -132.5q0 -102 -80 -153z" />
    <glyph glyph-name="four.tf" horiz-adv-x="575" 
d="M537 227v-88h-68v-139h-92v139h-333v78l232 483h99l-228 -473h230v191h92v-191h68z" />
    <glyph glyph-name="five.tf" horiz-adv-x="575" 
d="M307 440q99 0 161 -62t62 -162q0 -104 -63.5 -166t-171.5 -62q-96 0 -157 54.5t-68 138.5h93q6 -47 40 -76t95 -29q64 0 102 37.5t38 101.5q0 66 -37.5 104t-101.5 38q-84 0 -121 -55h-88l39 398h360v-86h-278l-20 -202q49 28 116 28z" />
    <glyph glyph-name="six.tf" horiz-adv-x="575" 
d="M310 443q99 0 163 -63.5t64 -159.5q0 -102 -67 -167t-176 -65q-110 0 -178.5 65t-68.5 167q0 100 75 224l156 256h105q-50 -85 -101.5 -169t-62.5 -102q42 14 91 14zM293 76q69 0 110.5 39.5t41.5 102.5t-41.5 102.5t-110.5 39.5t-110.5 -39.5t-41.5 -102.5t41.5 -102.5
t110.5 -39.5z" />
    <glyph glyph-name="seven.tf" horiz-adv-x="575" 
d="M74 700h438v-78l-276 -622h-99l271 612h-334v88z" />
    <glyph glyph-name="eight.tf" horiz-adv-x="575" 
d="M426 374q47 -26 75.5 -71t28.5 -103q0 -95 -64.5 -153.5t-177.5 -58.5t-177.5 58.5t-64.5 153.5q0 58 28.5 103t75.5 71q-79 52 -79 153q0 80 58.5 132.5t158.5 52.5t158.5 -52.5t58.5 -132.5q0 -101 -79 -153zM288 626q-59 0 -92 -29.5t-33 -77.5t33 -77.5t92 -29.5
t92 29.5t33 77.5t-33 77.5t-92 29.5zM288 74q70 0 110 35.5t40 92.5t-40 92.5t-110 35.5t-110 -35.5t-40 -92.5t40 -92.5t110 -35.5z" />
    <glyph glyph-name="nine.tf" horiz-adv-x="575" 
d="M285 712q110 0 178.5 -65t68.5 -167t-75 -224l-157 -256h-105q35 58 72 118t58 94.5t34 57.5q-35 -13 -90 -13q-99 0 -163 63.5t-64 159.5q0 102 67 167t176 65zM286 340q69 0 110.5 39.5t41.5 102.5t-41.5 102.5t-110.5 39.5t-110.5 -39.5t-41.5 -102.5t41.5 -102.5
t110.5 -39.5z" />
    <glyph glyph-name="zero.tosf" horiz-adv-x="575" 
d="M287 -12q-121 0 -200.5 79t-79.5 198t79.5 198t200.5 79t200.5 -79t79.5 -198t-79.5 -198t-200.5 -79zM287 69q83 0 137 55t54 141q0 87 -53.5 141.5t-137.5 54.5t-137.5 -54.5t-53.5 -141.5q0 -86 54 -141t137 -55z" />
    <glyph glyph-name="one.tosf" horiz-adv-x="575" 
d="M349 81h152v-81h-403v81h164v349l-130 -76v95l141 81h76v-449z" />
    <glyph glyph-name="two.tosf" horiz-adv-x="575" 
d="M239 81h248v-81h-396v73q157 103 225 167.5t68 132.5q0 39 -26 63.5t-69 24.5q-52 0 -79 -27t-27 -73v-12h-88v12q0 78 52.5 129.5t140.5 51.5q84 0 134.5 -45t50.5 -124q0 -77 -63 -147.5t-171 -144.5z" />
    <glyph glyph-name="three.tosf" horiz-adv-x="575" 
d="M398 220q49 -24 76.5 -68t27.5 -102q0 -93 -60 -149.5t-157 -56.5q-95 0 -154 52t-61 132h87q6 -47 39 -75t91 -28t92 32.5t34 90.5t-34.5 91.5t-99.5 33.5h-65v80h65q52 0 82.5 29.5t30.5 78.5q0 46 -28.5 72.5t-77.5 26.5q-48 0 -77.5 -28t-33.5 -75h-90q2 80 58 132
t144 52t141 -47.5t53 -125.5q0 -98 -83 -148z" />
    <glyph glyph-name="four.tosf" horiz-adv-x="575" 
d="M535 81v-81h-68v-144h-89v144h-301v72l220 458h96l-215 -449h200v167h89v-167h68z" />
    <glyph glyph-name="five.tosf" horiz-adv-x="575" 
d="M323 278q90 0 145.5 -58.5t55.5 -156.5q0 -100 -60.5 -159t-162.5 -59q-91 0 -148 49.5t-63 125.5h85q6 -41 39 -67.5t88 -26.5q61 0 97 36t36 100q0 66 -36.5 101t-95.5 35q-81 0 -113 -55h-82l36 387h338v-81h-264l-18 -203q51 32 123 32z" />
    <glyph glyph-name="six.tosf" horiz-adv-x="575" 
d="M305 431q96 0 158 -61.5t62 -156.5q0 -99 -64.5 -162t-168.5 -63q-105 0 -171 62t-66 157q0 54 17.5 105.5t63.5 119.5l156 233h99q-137 -197 -165 -246q34 12 79 12zM292 69q64 0 104 39.5t40 104.5q0 61 -40 100t-105 39t-105 -39t-40 -101q0 -64 40 -103.5t106 -39.5z
" />
    <glyph glyph-name="seven.tosf" horiz-adv-x="575" 
d="M82 530h409v-71l-258 -603h-91l252 591h-312v83z" />
    <glyph glyph-name="eight.tosf" horiz-adv-x="575" 
d="M417 355q46 -25 74.5 -67.5t28.5 -97.5q0 -90 -62 -146t-171 -56t-171 56t-62 146q0 55 28.5 97.5t74.5 67.5q-78 53 -78 145q0 76 56.5 126.5t151.5 50.5t151.5 -50.5t56.5 -126.5q0 -92 -78 -145zM287 598q-56 0 -88.5 -29t-32.5 -75q0 -45 32.5 -74t88.5 -29t88.5 29
t32.5 74q0 46 -32.5 75t-88.5 29zM287 69q67 0 105.5 34t38.5 87q0 54 -38.5 88t-105.5 34t-105.5 -34t-38.5 -88q0 -53 38.5 -87t105.5 -34z" />
    <glyph glyph-name="nine.tosf" horiz-adv-x="575" 
d="M289 542q105 0 171 -62t66 -157q0 -55 -17.5 -106t-62.5 -119l-161 -242h-100q134 194 168 252q-30 -9 -71 -9q-100 0 -163 61.5t-63 156.5q0 99 64.5 162t168.5 63zM290 178q65 0 105 39t40 101q0 64 -40 103.5t-106 39.5q-65 0 -104.5 -39.5t-39.5 -104.5
q0 -61 40 -100t105 -39z" />
    <glyph glyph-name="zero.sinf" horiz-adv-x="378" 
d="M189 -69q-71 0 -112 53.5t-41 144.5q0 92 41 144.5t112 52.5t112 -52.5t41 -144.5q0 -91 -41 -144.5t-112 -53.5zM189 -2q38 0 59.5 33.5t21.5 97.5q0 63 -21.5 96.5t-59.5 33.5t-59.5 -33.5t-21.5 -96.5q0 -64 21.5 -97.5t59.5 -33.5z" />
    <glyph glyph-name="one.sinf" horiz-adv-x="219" 
d="M101 318h68v-380h-71v302l-73 -35v72z" />
    <glyph glyph-name="two.sinf" horiz-adv-x="325" 
d="M141 7h149v-69h-257v61q95 78 137 125.5t42 82.5q0 24 -13.5 37.5t-38.5 13.5q-28 0 -44 -15t-16 -42v-8h-70v8q0 56 36 90.5t95 34.5q56 0 90 -30.5t34 -81.5q0 -86 -144 -207z" />
    <glyph glyph-name="three.sinf" horiz-adv-x="328" 
d="M247 134q50 -31 50 -87q0 -52 -36.5 -84t-96.5 -32q-59 0 -95 32t-38 85h72q5 -48 63 -48q27 0 42 13.5t15 37.5q0 23 -16 36t-45 13h-40v61h35q27 0 42.5 13.5t15.5 36.5t-13.5 35.5t-37.5 12.5q-50 0 -55 -48h-71q1 52 36 83.5t91 31.5q55 0 88.5 -31t33.5 -81t-40 -80
z" />
    <glyph glyph-name="four.sinf" horiz-adv-x="328" 
d="M313 76v-68h-37v-70h-71v70h-173v61l117 249h77l-113 -242h93l10 97h60v-97h37z" />
    <glyph glyph-name="five.sinf" horiz-adv-x="313" 
d="M177 181q54 0 87 -34t33 -90q0 -57 -36.5 -91.5t-96.5 -34.5q-56 0 -91 29t-40 75h72q11 -39 60 -39q27 0 43.5 16.5t16.5 45.5q0 30 -16.5 46t-45.5 16q-41 0 -55 -30h-68l21 228h217v-68h-153l-7 -83q25 14 59 14z" />
    <glyph glyph-name="six.sinf" horiz-adv-x="332" 
d="M179 192q58 0 95 -35t37 -91q0 -59 -39.5 -97t-101.5 -38q-63 0 -103 37.5t-40 97.5q0 56 40 121l81 131h87l-74 -117l-8 -12q12 3 26 3zM169 -1q31 0 50 18.5t19 47.5t-19 47.5t-50 18.5t-50 -18.5t-19 -47.5t19 -47.5t50 -18.5z" />
    <glyph glyph-name="seven.sinf" horiz-adv-x="283" 
d="M21 318h257v-68l-140 -312h-80l141 311h-178v69z" />
    <glyph glyph-name="eight.sinf" horiz-adv-x="341" 
d="M261 141q49 -33 49 -90q0 -53 -39 -86.5t-101 -33.5t-100.5 33.5t-38.5 86.5q0 58 49 90q-38 30 -38 78q0 47 36 77t93 30t92.5 -30t35.5 -77q0 -49 -38 -78zM171 263q-26 0 -41.5 -13.5t-15.5 -34.5t15.5 -34.5t41.5 -13.5t41 13.5t15 34.5t-15 34.5t-41 13.5zM171 -4
q30 0 47.5 16t17.5 41t-17.5 41t-47.5 16t-48 -16t-18 -41t18 -41t48 -16z" />
    <glyph glyph-name="nine.sinf" horiz-adv-x="329" 
d="M162 326q63 0 103 -37.5t40 -97.5t-45 -131l-77 -122h-85l72 118q1 2 3.5 5.5t3.5 5.5q-14 -2 -24 -2q-58 0 -95 35t-37 91q0 59 39.5 97t101.5 38zM163 126q31 0 50 18.5t19 47.5t-19 47.5t-50 18.5t-50 -18.5t-19 -47.5t19 -47.5t50 -18.5z" />
    <glyph glyph-name="zero.dnom" horiz-adv-x="378" 
d="M189 -7q-71 0 -112 53.5t-41 144.5q0 92 41 144.5t112 52.5t112 -52.5t41 -144.5q0 -91 -41 -144.5t-112 -53.5zM189 60q38 0 59.5 33.5t21.5 97.5q0 63 -21.5 96.5t-59.5 33.5t-59.5 -33.5t-21.5 -96.5q0 -64 21.5 -97.5t59.5 -33.5z" />
    <glyph glyph-name="one.dnom" horiz-adv-x="219" 
d="M101 380h68v-380h-71v302l-73 -35v72z" />
    <glyph glyph-name="two.dnom" horiz-adv-x="325" 
d="M141 69h149v-69h-257v61q95 78 137 125.5t42 82.5q0 24 -13.5 37.5t-38.5 13.5q-28 0 -44 -15t-16 -42v-8h-70v8q0 56 36 90.5t95 34.5q56 0 90 -30.5t34 -81.5q0 -86 -144 -207z" />
    <glyph glyph-name="three.dnom" horiz-adv-x="328" 
d="M247 196q50 -31 50 -87q0 -52 -36.5 -84t-96.5 -32q-59 0 -95 32t-38 85h72q5 -48 63 -48q27 0 42 13.5t15 37.5q0 23 -16 36t-45 13h-40v61h35q27 0 42.5 13.5t15.5 36.5t-13.5 35.5t-37.5 12.5q-50 0 -55 -48h-71q1 52 36 83.5t91 31.5q55 0 88.5 -31t33.5 -81t-40 -80
z" />
    <glyph glyph-name="four.dnom" horiz-adv-x="328" 
d="M313 138v-68h-37v-70h-71v70h-173v61l117 249h77l-113 -242h93l10 97h60v-97h37z" />
    <glyph glyph-name="five.dnom" horiz-adv-x="313" 
d="M177 243q54 0 87 -34t33 -90q0 -57 -36.5 -91.5t-96.5 -34.5q-56 0 -91 29t-40 75h72q11 -39 60 -39q27 0 43.5 16.5t16.5 45.5q0 30 -16.5 46t-45.5 16q-41 0 -55 -30h-68l21 228h217v-68h-153l-7 -83q25 14 59 14z" />
    <glyph glyph-name="six.dnom" horiz-adv-x="332" 
d="M179 254q58 0 95 -35t37 -91q0 -59 -39.5 -97t-101.5 -38q-63 0 -103 37.5t-40 97.5q0 56 40 121l81 131h87l-74 -117l-8 -12q12 3 26 3zM169 61q31 0 50 18.5t19 47.5t-19 47.5t-50 18.5t-50 -18.5t-19 -47.5t19 -47.5t50 -18.5z" />
    <glyph glyph-name="seven.dnom" horiz-adv-x="283" 
d="M21 380h257v-68l-140 -312h-80l141 311h-178v69z" />
    <glyph glyph-name="eight.dnom" horiz-adv-x="341" 
d="M261 203q49 -33 49 -90q0 -53 -39 -86.5t-101 -33.5t-100.5 33.5t-38.5 86.5q0 58 49 90q-38 30 -38 78q0 47 36 77t93 30t92.5 -30t35.5 -77q0 -50 -38 -78zM171 325q-26 0 -41.5 -13.5t-15.5 -34.5t15.5 -34.5t41.5 -13.5t41 13.5t15 34.5t-15 34.5t-41 13.5zM171 58
q30 0 47.5 16t17.5 41t-17.5 41t-47.5 16t-48 -16t-18 -41t18 -41t48 -16z" />
    <glyph glyph-name="nine.dnom" horiz-adv-x="329" 
d="M162 388q63 0 103 -37.5t40 -97.5t-45 -131l-77 -122h-85l72 118q1 2 3.5 5.5t3.5 5.5q-14 -2 -24 -2q-58 0 -95 35t-37 91q0 59 39.5 97t101.5 38zM163 188q31 0 50 18.5t19 47.5t-19 47.5t-50 18.5t-50 -18.5t-19 -47.5t19 -47.5t50 -18.5z" />
    <glyph glyph-name="zero.numr" horiz-adv-x="378" 
d="M189 313q-71 0 -112 53.5t-41 144.5q0 92 41 144.5t112 52.5t112 -52.5t41 -144.5q0 -91 -41 -144.5t-112 -53.5zM189 380q38 0 59.5 33.5t21.5 97.5q0 63 -21.5 96.5t-59.5 33.5t-59.5 -33.5t-21.5 -96.5q0 -64 21.5 -97.5t59.5 -33.5z" />
    <glyph glyph-name="one.numr" horiz-adv-x="219" 
d="M101 700h68v-380h-71v302l-73 -35v72z" />
    <glyph glyph-name="two.numr" horiz-adv-x="325" 
d="M141 389h149v-69h-257v61q95 78 137 125.5t42 82.5q0 24 -13.5 37.5t-38.5 13.5q-28 0 -44 -15t-16 -42v-8h-70v8q0 56 36 90.5t95 34.5q56 0 90 -30.5t34 -81.5q0 -86 -144 -207z" />
    <glyph glyph-name="three.numr" horiz-adv-x="328" 
d="M247 516q50 -31 50 -87q0 -52 -36.5 -84t-96.5 -32q-59 0 -95 32t-38 85h72q5 -48 63 -48q27 0 42 13.5t15 37.5q0 23 -16 36t-45 13h-40v61h35q27 0 42.5 13.5t15.5 36.5t-13.5 35.5t-37.5 12.5q-50 0 -55 -48h-71q1 52 36 83.5t91 31.5q55 0 88.5 -31t33.5 -81t-40 -80
z" />
    <glyph glyph-name="four.numr" horiz-adv-x="328" 
d="M313 458v-68h-37v-70h-71v70h-173v61l117 249h77l-113 -242h93l10 97h60v-97h37z" />
    <glyph glyph-name="five.numr" horiz-adv-x="313" 
d="M177 563q54 0 87 -34t33 -90q0 -57 -36.5 -91.5t-96.5 -34.5q-56 0 -91 29t-40 75h72q11 -39 60 -39q27 0 43.5 16.5t16.5 45.5q0 30 -16.5 46t-45.5 16q-41 0 -55 -30h-68l21 228h217v-68h-153l-7 -83q25 14 59 14z" />
    <glyph glyph-name="six.numr" horiz-adv-x="332" 
d="M179 574q58 0 95 -35t37 -91q0 -59 -39.5 -97t-101.5 -38q-63 0 -103 37.5t-40 97.5q0 56 40 121l81 131h87l-74 -117l-8 -12q12 3 26 3zM169 381q31 0 50 18.5t19 47.5t-19 47.5t-50 18.5t-50 -18.5t-19 -47.5t19 -47.5t50 -18.5z" />
    <glyph glyph-name="seven.numr" horiz-adv-x="283" 
d="M21 700h257v-68l-140 -312h-80l141 311h-178v69z" />
    <glyph glyph-name="eight.numr" horiz-adv-x="341" 
d="M261 523q49 -33 49 -90q0 -53 -39 -86.5t-101 -33.5t-100.5 33.5t-38.5 86.5q0 58 49 90q-38 30 -38 78q0 47 36 77t93 30t92.5 -30t35.5 -77q0 -49 -38 -78zM171 645q-26 0 -41.5 -13.5t-15.5 -34.5t15.5 -34.5t41.5 -13.5t41 13.5t15 34.5t-15 34.5t-41 13.5zM171 378
q30 0 47.5 16t17.5 41t-17.5 41t-47.5 16t-48 -16t-18 -41t18 -41t48 -16z" />
    <glyph glyph-name="nine.numr" horiz-adv-x="329" 
d="M162 708q63 0 103 -37.5t40 -97.5t-45 -131l-77 -122h-85l72 118q1 2 3.5 5.5t3.5 5.5q-14 -2 -24 -2q-58 0 -95 35t-37 91q0 59 39.5 97t101.5 38zM163 508q31 0 50 18.5t19 47.5t-19 47.5t-50 18.5t-50 -18.5t-19 -47.5t19 -47.5t50 -18.5z" />
    <glyph glyph-name="zero.sups" horiz-adv-x="378" 
d="M189 413q-71 0 -112 53.5t-41 144.5q0 92 41 144.5t112 52.5t112 -52.5t41 -144.5q0 -91 -41 -144.5t-112 -53.5zM189 480q38 0 59.5 33.5t21.5 97.5q0 63 -21.5 96.5t-59.5 33.5t-59.5 -33.5t-21.5 -96.5q0 -64 21.5 -97.5t59.5 -33.5z" />
    <glyph glyph-name="one.sups" horiz-adv-x="219" 
d="M101 800h68v-380h-71v302l-73 -35v72z" />
    <glyph glyph-name="two.sups" horiz-adv-x="325" 
d="M141 489h149v-69h-257v61q95 78 137 125.5t42 82.5q0 24 -13.5 37.5t-38.5 13.5q-28 0 -44 -15t-16 -42v-8h-70v8q0 56 36 90.5t95 34.5q56 0 90 -30.5t34 -81.5q0 -86 -144 -207z" />
    <glyph glyph-name="three.sups" horiz-adv-x="328" 
d="M247 616q50 -31 50 -87q0 -52 -36.5 -84t-96.5 -32q-59 0 -95 32t-38 85h72q5 -48 63 -48q27 0 42 13.5t15 37.5q0 23 -16 36t-45 13h-40v61h35q27 0 42.5 13.5t15.5 36.5t-13.5 35.5t-37.5 12.5q-50 0 -55 -48h-71q1 52 36 83.5t91 31.5q55 0 88.5 -31t33.5 -81t-40 -80
z" />
    <glyph glyph-name="four.sups" horiz-adv-x="328" 
d="M313 558v-68h-37v-70h-71v70h-173v61l117 249h77l-113 -242h93l10 97h60v-97h37z" />
    <glyph glyph-name="five.sups" horiz-adv-x="313" 
d="M177 663q54 0 87 -34t33 -90q0 -57 -36.5 -91.5t-96.5 -34.5q-56 0 -91 29t-40 75h72q11 -39 60 -39q27 0 43.5 16.5t16.5 45.5q0 30 -16.5 46t-45.5 16q-41 0 -55 -30h-68l21 228h217v-68h-153l-7 -83q25 14 59 14z" />
    <glyph glyph-name="six.sups" horiz-adv-x="332" 
d="M179 674q58 0 95 -35t37 -91q0 -59 -39.5 -97t-101.5 -38q-63 0 -103 37.5t-40 97.5q0 56 40 121l81 131h87l-74 -117l-8 -12q12 3 26 3zM169 481q31 0 50 18.5t19 47.5t-19 47.5t-50 18.5t-50 -18.5t-19 -47.5t19 -47.5t50 -18.5z" />
    <glyph glyph-name="seven.sups" horiz-adv-x="283" 
d="M21 800h257v-68l-140 -312h-80l141 311h-178v69z" />
    <glyph glyph-name="eight.sups" horiz-adv-x="341" 
d="M261 623q49 -33 49 -90q0 -53 -39 -86.5t-101 -33.5t-100.5 33.5t-38.5 86.5q0 58 49 90q-38 30 -38 78q0 47 36 77t93 30t92.5 -30t35.5 -77q0 -49 -38 -78zM171 745q-26 0 -41.5 -13.5t-15.5 -34.5t15.5 -34.5t41.5 -13.5t41 13.5t15 34.5t-15 34.5t-41 13.5zM171 478
q30 0 47.5 16t17.5 41t-17.5 41t-47.5 16t-48 -16t-18 -41t18 -41t48 -16z" />
    <glyph glyph-name="nine.sups" horiz-adv-x="329" 
d="M162 808q63 0 103 -37.5t40 -97.5t-45 -131l-77 -122h-85l72 118q1 2 3.5 5.5t3.5 5.5q-14 -2 -24 -2q-58 0 -95 35t-37 91q0 59 39.5 97t101.5 38zM163 608q31 0 50 18.5t19 47.5t-19 47.5t-50 18.5t-50 -18.5t-19 -47.5t19 -47.5t50 -18.5z" />
    <glyph glyph-name="exclamdown.case" horiz-adv-x="308" 
d="M102 588v112h104v-112h-104zM110 0v495h88v-495h-88z" />
    <glyph glyph-name="questiondown.case" horiz-adv-x="523" 
d="M332 700v-112h-104v112h104zM326 495v-7q0 -49 -19 -87t-46 -61.5t-54.5 -44.5t-46.5 -49.5t-19 -64.5q0 -46 35 -76.5t93 -30.5q60 0 96 32t40 90h88q-4 -98 -68.5 -153t-158.5 -55q-97 0 -156 55t-59 138q0 46 19 83t46 61t54.5 46.5t46.5 52t19 64.5v7h90z" />
    <glyph glyph-name="bullet.case" horiz-adv-x="424" 
d="M212 271q-39 0 -65.5 26.5t-26.5 65.5q0 40 26.5 66t65.5 26q40 0 66 -26t26 -66q0 -39 -26 -65.5t-66 -26.5z" />
    <glyph glyph-name="parenleft.case" horiz-adv-x="338" 
d="M85 342q0 269 142 479h96q-66 -90 -108.5 -214.5t-42.5 -264.5t42.5 -264.5t108.5 -212.5h-96q-142 208 -142 477z" />
    <glyph glyph-name="parenright.case" horiz-adv-x="338" 
d="M253 342q0 -269 -142 -477h-96q66 88 108.5 212.5t42.5 264.5t-42.5 264.5t-108.5 214.5h96q142 -210 142 -479z" />
    <glyph glyph-name="braceleft.case" horiz-adv-x="368" 
d="M213 440q0 -73 -55 -97q55 -24 55 -97v-223q0 -42 19 -61q20 -18 59 -18h52v-79h-80q-63 0 -100 37.5t-37 103.5v232q0 29 -15.5 45t-44.5 16h-16v88h16q29 0 44.5 16t15.5 45v232q0 66 37 103.5t100 37.5h80v-79h-52q-40 0 -58 -18q-20 -19 -20 -61v-223z" />
    <glyph glyph-name="braceright.case" horiz-adv-x="368" 
d="M302 387h16v-88h-16q-29 0 -44.5 -16t-15.5 -45v-232q0 -66 -37 -103.5t-100 -37.5h-80v79h52q42 0 61 20q17 20 17 59v223q0 73 55 97q-55 24 -55 97v223q0 38 -16 57q-19 22 -62 22h-52v79h80q63 0 100 -37.5t37 -103.5v-232q0 -29 15.5 -45t44.5 -16z" />
    <glyph glyph-name="bracketleft.case" horiz-adv-x="344" 
d="M102 -135v956h215v-79h-128v-798h130v-79h-217z" />
    <glyph glyph-name="bracketright.case" horiz-adv-x="344" 
d="M242 -135h-217v79h130v798h-128v79h215v-956z" />
    <glyph glyph-name="hyphen.case" horiz-adv-x="454" 
d="M68 303v84h318v-84h-318z" />
    <glyph glyph-name="endash.case" horiz-adv-x="640" 
d="M68 300v81h504v-81h-504z" />
    <glyph glyph-name="emdash.case" horiz-adv-x="897" 
d="M68 300v81h761v-81h-761z" />
    <glyph glyph-name="guillemotleft.case" horiz-adv-x="609" 
d="M225 123l-167 202v14l167 202h102l-171 -209l171 -209h-102zM459 123l-167 202v14l167 202h102l-171 -209l171 -209h-102z" />
    <glyph glyph-name="guillemotright.case" horiz-adv-x="609" 
d="M150 124h-102l171 209l-171 209h102l167 -202v-14zM384 124h-102l171 209l-171 209h102l167 -202v-14z" />
    <glyph glyph-name="guilsinglleft.case" horiz-adv-x="377" 
d="M225 123l-167 202v14l167 202h104l-171 -209l171 -209h-104z" />
    <glyph glyph-name="guilsinglright.case" horiz-adv-x="377" 
d="M152 123h-104l171 209l-171 209h104l167 -202v-14z" />
    <glyph glyph-name="cent.tf" horiz-adv-x="575" 
d="M549 185q-19 -82 -76.5 -133t-137.5 -62v-77h-84v78q-97 15 -157.5 86t-60.5 173t60.5 173t157.5 86v78h84v-77q80 -11 137.5 -62t75.5 -133h-89q-18 54 -62.5 84t-102.5 30q-72 0 -121.5 -51t-49.5 -128t49.5 -128t121.5 -51q58 0 102.5 30t62.5 84h90z" />
    <glyph glyph-name="currency.tf" horiz-adv-x="575" 
d="M499 299q0 -68 -39 -123l76 -76l-57 -57l-78 77q-53 -32 -114 -32t-114 32l-78 -77l-57 57l76 76q-39 55 -39 123t39 123l-76 76l57 57l78 -77q53 32 114 32t114 -32l78 77l57 -57l-76 -76q39 -55 39 -123zM287 167q54 0 92.5 38.5t38.5 93.5t-38.5 93.5t-92.5 38.5
t-92.5 -38.5t-38.5 -93.5t38.5 -93.5t92.5 -38.5z" />
    <glyph glyph-name="dollar.tf" horiz-adv-x="575" 
d="M541 191q0 -81 -53 -136t-147 -65v-100h-84v101q-95 12 -149.5 72.5t-56.5 153.5h91q8 -141 164 -141q69 0 106 30.5t37 78.5q0 25 -11 45.5t-23.5 32.5t-41 25t-44 18t-52.5 16q-38 11 -62 20t-55.5 26t-49 37t-30.5 51.5t-13 70.5q0 74 50 124t140 59v100h84v-101
q88 -12 135.5 -67.5t47.5 -141.5h-92q0 56 -38.5 90t-101.5 34q-64 0 -98.5 -28.5t-34.5 -71.5q0 -34 25 -58.5t47.5 -33.5t77.5 -26q10 -3 15 -5q39 -12 63.5 -21t57 -27t51 -38t32 -52t13.5 -72z" />
    <glyph glyph-name="Euro.tf" horiz-adv-x="575" 
d="M424 624q-87 0 -152 -45.5t-92 -124.5h329l-19 -77h-325q-1 -9 -1 -27q0 -29 5 -61h299l-18 -77h-255q32 -64 92 -100.5t135 -36.5q57 0 108 18v-87q-51 -19 -120 -19q-110 0 -195 60.5t-121 164.5h-108l18 77h72q-4 27 -4 61q0 18 1 27h-84l18 77h77q29 118 119 188
t213 70q81 0 146 -29l-19 -83q-56 24 -119 24z" />
    <glyph glyph-name="florin.tf" horiz-adv-x="575" 
d="M434 651q-77 0 -88 -72l-16 -112h141l-12 -82h-140l-62 -435q-21 -143 -171 -143h-58l11 82h34q86 0 96 77l58 419h-100l12 82h100l18 131q9 64 51 99.5t110 35.5h92l-9 -82h-67z" />
    <glyph glyph-name="uni20BD.tf" horiz-adv-x="575" 
d="M340 303h-152v-95h227v-76h-227v-132h-92v132h-90v76h90v95h-90v79h90v318h244q96 0 155.5 -57t59.5 -144t-59.5 -141.5t-155.5 -54.5zM188 616v-234h147q58 0 93 32.5t35 84.5t-35 84.5t-93 32.5h-147z" />
    <glyph glyph-name="uni20B9.tf" horiz-adv-x="575" 
d="M528 700v-81h-123q41 -40 52 -99h71v-76h-70q-12 -83 -74.5 -133.5t-152.5 -50.5h-36l285 -260h-126l-295 270v73h167q57 0 94 27t47 74h-308v76h307q-11 46 -48 72.5t-92 26.5h-167v81h469z" />
    <glyph glyph-name="sterling.tf" horiz-adv-x="575" 
d="M453 165h85v-165h-507v69l81 14v192h-72v82h72v148q0 93 57 150t153 57q91 0 146 -54.5t55 -143.5v-10h-91v5q0 54 -30 84.5t-84 30.5q-55 0 -84.5 -32.5t-29.5 -91.5v-143h173v-82h-173v-190h249v80z" />
    <glyph glyph-name="yen.tf" horiz-adv-x="575" 
d="M577 700l-225 -336h147v-75h-165v-65h165v-75h-165v-149h-92v149h-165v75h165v65h-165v75h147l-225 336h102l188 -285l187 285h101z" />
    <glyph glyph-name="at.case" horiz-adv-x="1022" 
d="M513 773q203 0 331 -119t128 -308q0 -108 -48 -166t-123 -58q-46 0 -80 21t-49 57q-30 -42 -76 -65.5t-100 -23.5q-97 0 -160.5 64.5t-63.5 162.5t63.5 162.5t160.5 64.5q98 0 160 -70l19 58h55v-256q0 -49 19.5 -73.5t53.5 -24.5q86 0 86 148q0 155 -101.5 252
t-272.5 97q-170 0 -274 -99.5t-104 -256.5q0 -158 98.5 -255t260.5 -97q99 0 177 42v-78q-80 -41 -186 -41q-194 0 -313.5 118.5t-119.5 309.5q0 193 128 313.5t331 120.5zM501 190q63 0 103.5 41.5t40.5 107.5q0 64 -41 105.5t-103 41.5t-103 -41.5t-41 -105.5
q0 -66 40.5 -107.5t103.5 -41.5z" />
    <glyph glyph-name="uni0308.case" 
d="M-422 784v103h104v-103h-104zM-203 784v103h104v-103h-104z" />
    <glyph glyph-name="uni0307.case" 
d="M-229 784v103h104v-103h-104z" />
    <glyph glyph-name="gravecomb.case" 
d="M-263 778l-97 142h98l71 -142h-72z" />
    <glyph glyph-name="acutecomb.case" 
d="M-311 778l71 142h98l-97 -142h-72z" />
    <glyph glyph-name="uni030B.case" 
d="M-440 778l73 142h90l-96 -142h-67zM-272 778l81 142h91l-103 -142h-69z" />
    <glyph glyph-name="uni0302.case" 
d="M-106 778h-85l-86 103l-86 -103h-85l118 142h105z" />
    <glyph glyph-name="uni030C.case" 
d="M-230 920h85l-119 -142h-105l-118 142h85l86 -103z" />
    <glyph glyph-name="uni0306.case" 
d="M-268 773q-71 0 -114 39.5t-43 107.5h72v-3q0 -39 23 -60.5t62 -21.5t61 21.5t22 60.5v3h74q0 -68 -43 -107.5t-114 -39.5z" />
    <glyph glyph-name="uni030A.case" 
d="M-218 761q-55 0 -89.5 33t-34.5 83q0 51 34.5 83t89.5 32q54 0 88.5 -32t34.5 -83q0 -50 -34.5 -83t-88.5 -33zM-218 816q28 0 45.5 17.5t17.5 43.5t-17.5 43t-45.5 17t-46 -17t-18 -43t18 -43.5t46 -17.5z" />
    <glyph glyph-name="tildecomb.case" 
d="M-229 778q-34 0 -60.5 19t-47 38t-40.5 19q-35 0 -35 -49v-23h-65v23q0 55 26 83.5t73 28.5q34 0 60.5 -19t47 -38t40.5 -19q35 0 35 49v23h65v-23q0 -55 -26 -83.5t-73 -28.5z" />
    <glyph glyph-name="uni0304.case" 
d="M-429 817v72h313v-72h-313z" />
    <glyph glyph-name="uni0326.case" 
d="M-156 -54h93v-77q0 -41 -25.5 -72.5t-63.5 -37.5v43q21 4 32.5 20t11.5 39v1h-48v84z" />
    <glyph glyph-name="uni0327.case" 
d="M-194 -47q45 -4 69 -28.5t24 -60.5q0 -44 -29 -69.5t-80 -25.5h-78v58h75q20 0 32 10.5t12 26.5q0 36 -44 36h-38l-10 10l28 121h58z" />
    <glyph glyph-name="uni0328.case" 
d="M-204 -228q-59 0 -88 22.5t-29 59.5q0 76 137 179l42 -33q-32 -27 -49.5 -42.5t-33.5 -39t-16 -43.5q0 -40 55 -40h36v-57q-20 -6 -54 -6z" />
    <glyph glyph-name="uni0335.case" 
d="M-490 312v83h390v-83h-390z" />
    <glyph glyph-name="uni0336.case" 
d="M-800 536v68h700v-68h-700z" />
    <glyph glyph-name="uni0337.case" 
d="M-427 214v90l386 202v-93z" />
    <glyph glyph-name="uni0338.case" 
d="M-490 -59l498 824h102l-498 -824h-102z" />
    <glyph glyph-name="uni0308.narrow.case" 
d="M-337 784v103h94v-103h-94zM-197 784v103h94v-103h-94z" />
    <glyph glyph-name="gravecomb.narrow.case" 
d="M-101 778h-73l-71 142h96z" />
    <glyph glyph-name="acutecomb.narrow.case" 
d="M-342 778l48 142h94l-72 -142h-70z" />
    <glyph glyph-name="uni0302.narrow.case" 
d="M-165 778h-78l-73 100l-73 -100h-78l103 142h95z" />
    <glyph glyph-name="uni0306.narrow.case" 
d="M-268 773q-67 0 -107 39.5t-40 107.5h72v-3q0 -39 20.5 -60.5t54.5 -21.5t53.5 21.5t19.5 60.5v3h74q0 -68 -40 -107.5t-107 -39.5z" />
    <glyph glyph-name="tildecomb.narrow.case" 
d="M-233 778q-34 0 -59 19t-43.5 38t-36.5 19q-33 0 -33 -44v-28h-65v23q0 55 25.5 83.5t70.5 28.5q34 0 59 -19t43.5 -38t36.5 -19q33 0 33 44v28h65v-23q0 -55 -25.5 -83.5t-70.5 -28.5z" />
    <glyph glyph-name="uni0304.narrow.case" 
d="M-356 814v77h248v-77h-248z" />
    <glyph glyph-name="uni0308.narrow" 
d="M-354 591v103h92v-103h-92zM-197 590v103h92v-103h-92z" />
    <glyph glyph-name="gravecomb.narrow" 
d="M-139 563h-73l-71 152h96z" />
    <glyph glyph-name="acutecomb.narrow" 
d="M-341 563l48 152h96l-71 -152h-73z" />
    <glyph glyph-name="uni0302.narrow" 
d="M-111 563h-78l-73 104l-73 -104h-78l103 152h95z" />
    <glyph glyph-name="uni0306.narrow" 
d="M-268 558q-69 0 -110.5 42.5t-41.5 114.5h72v-3q0 -44 21.5 -68t58.5 -24q36 0 57 24t21 68v3h74q0 -72 -41.5 -114.5t-110.5 -42.5z" />
    <glyph glyph-name="tildecomb.narrow" 
d="M-237 572q-27 0 -48 12t-31 26t-23 26t-26 12q-33 0 -33 -44v-28h-65v28q0 53 24 80t68 27q27 0 48 -12t31 -26t23 -26t26 -12q33 0 33 44v28h65v-28q0 -53 -24 -80t-68 -27z" />
    <glyph glyph-name="uni0304.narrow" 
d="M-322 607v71h246v-71h-246z" />
    <glyph glyph-name="tonos.case" horiz-adv-x="357" 
d="M76 558l70 142h99l-97 -142h-72z" />
    <glyph glyph-name="dieresistonos.narrow" horiz-adv-x="516" 
d="M202 563l36 152h81l-57 -152h-60zM91 599v85h81v-85h-81zM350 599v85h81v-85h-81z" />
    <glyph glyph-name="brevecombcy" horiz-adv-x="469" 
d="M103 605v69h264v-69h-264z" />
    <glyph glyph-name="brevecombcy.case" horiz-adv-x="504" 
d="M109 810v72h286v-72h-286z" />
    <glyph glyph-name="fontfabric" horiz-adv-x="694" 
d="M100 0v700h514v-205h-313v-72h313v-205h-313v-218h-201zM185 97h24v217h322v22h-322v249h322v23h-346v-511z" />
    </font>
</defs>
</svg>
